# Rhino

mtllib Disk_1.mtl
usemtl Default
v -20 60 1.5
v -20 60.5 1.5
v 12 60 1.5
v 12 60.5 1.5
v 12 60 1.5
v 12 60.5 1.5
v 12 60 -2.5
v 12 60.5 -2.5
v 12 60 -2.5
v 12 60.5 -2.5
v -20 60 -2.5
v -20 60.5 -2.5
v -20 60 -2.5
v -20 60.5 -2.5
v -20 60 1.5
v -20 60.5 1.5
v -20 60 1.5
v 12 60 1.5
v 12 60 -2.5
v -20 60 -2.5
v -20 60.5 1.5
v 12 60.5 1.5
v 12 60.5 -2.5
v -20 60.5 -2.5
vt 0 0
vt 0 0.52941149473190308
vt 0.4444444477558136 0
vt 0.4444444477558136 0.52941149473190308
vt 0.4444444477558136 0
vt 0.4444444477558136 0.52941149473190308
vt 0.5 0
vt 0.5 0.52941149473190308
vt 0.5 0
vt 0.5 0.52941149473190308
vt 0.94444441795349121 0
vt 0.94444441795349121 0.52941149473190308
vt 0.94444441795349121 0
vt 0.94444441795349121 0.52941149473190308
vt 1 0
vt 1 0.52941149473190308
vt 0 1
vt 0.4444444477558136 1
vt 0.4444444477558136 0.52941203117370605
vt 0 0.52941203117370605
vt 0.55555558204650879 0.52941203117370605
vt 1 0.52941203117370605
vt 1 1
vt 0.55555558204650879 1
vn 0 0 1
vn 0 0 1
vn 0 0 1
vn 0 0 1
vn 1 0 0
vn 1 0 0
vn 1 0 0
vn 1 0 0
vn 0 0 -1
vn 0 0 -1
vn 0 0 -1
vn 0 0 -1
vn -1 0 0
vn -1 0 0
vn -1 0 0
vn -1 0 0
vn 0 -1 0
vn 0 -1 0
vn 0 -1 0
vn 0 -1 0
vn 0 1 0
vn 0 1 0
vn 0 1 0
vn 0 1 0
f 1/1/1 3/3/3 4/4/4 2/2/2
f 5/5/5 7/7/7 8/8/8 6/6/6
f 9/9/9 11/11/11 12/12/12 10/10/10
f 13/13/13 15/15/15 16/16/16 14/14/14
f 18/18/18 17/17/17 20/20/20
f 20/20/20 19/19/19 18/18/18
f 22/22/22 24/24/24 21/21/21
f 24/24/24 22/22/22 23/23/23
usemtl Default
v -20 60 1.5
v -20 60 1
v 12 60 1.5
v 12 60 1
v 12 60 1.5
v 12 60 1
v 12 42.5 1.5
v 12 42.5 1
v 12 42.5 1.375
v 12 42.5 1.25
v 12 42.5 1.125
v 11.5 42 1.5
v -19.5 42 1.5
v -19.5 42 1.375
v -19.5 42 1.25
v -19.5 42 1.125
v -19.5 42 1
v 11.5 42 1
v 11.5 42 1.125
v 11.5 42 1.25
v 11.5 42 1.375
v -20 42.5 1.5
v -20 42.5 1
v -20 60 1.5
v -20 60 1
v -20 42.5 1.125
v -20 42.5 1.25
v -20 42.5 1.375
v -20 60 1.5
v 12 60 1.5
v 12 42.5 1.5
v 11.5 42 1.5
v -19.5 42 1.5
v -20 42.5 1.5
v -16 43 1.5
v -8.5 43 1.5
v -8.5 58 1.5
v -16 58 1.5
v 11.991652488708496 42.409019470214844 1.5
v 11.96489429473877 42.315952301025391 1.5
v 11.918498039245605 42.226394653320312 1.5
v 11.853553771972656 42.146446228027344 1.5
v 11.773605346679688 42.081501007080078 1.5
v 11.684047698974609 42.035106658935547 1.5
v 11.590981483459473 42.008346557617188 1.5
v -19.590982437133789 42.008346557617188 1.5
v -19.684047698974609 42.035106658935547 1.5
v -19.773605346679688 42.081501007080078 1.5
v -19.853553771972656 42.146446228027344 1.5
v -19.918497085571289 42.226394653320312 1.5
v -19.964893341064453 42.315952301025391 1.5
v -19.991653442382812 42.409019470214844 1.5
v -20 60 1
v 12 60 1
v 12 42.5 1
v 11.5 42 1
v -19.5 42 1
v -20 42.5 1
v -16 43 1
v -8.5 43 1
v -8.5 58 1
v -16 58 1
v 11.991652488708496 42.409019470214844 1
v 11.96489429473877 42.315952301025391 1
v 11.918498039245605 42.226394653320312 1
v 11.853553771972656 42.146446228027344 1
v 11.773605346679688 42.081501007080078 1
v 11.684047698974609 42.035106658935547 1
v 11.590981483459473 42.008346557617188 1
v -19.590982437133789 42.008346557617188 1
v -19.684047698974609 42.035106658935547 1
v -19.773605346679688 42.081501007080078 1
v -19.853553771972656 42.146446228027344 1
v -19.918497085571289 42.226394653320312 1
v -19.964893341064453 42.315952301025391 1
v -19.991653442382812 42.409019470214844 1
v -8.5 43 1.5
v -8.5 43 1
v -16 43 1.5
v -16 43 1
v -8.5 58 1.5
v -8.5 58 1
v -8.5 43 1.5
v -8.5 43 1
v -16 58 1.5
v -16 58 1
v -8.5 58 1.5
v -8.5 58 1
v -16 43 1.5
v -16 43 1
v -16 58 1.5
v -16 58 1
v 12 42.5 1
v 11.5 42 1
v 12 42.5 1.125
v 11.96489429473877 42.315952301025391 1.125
v 11.853553771972656 42.146446228027344 1.125
v 11.684047698974609 42.035106658935547 1.125
v 11.5 42 1.125
v 12 42.5 1.25
v 11.96489429473877 42.315952301025391 1.25
v 11.853553771972656 42.146446228027344 1.25
v 11.684047698974609 42.035106658935547 1.25
v 11.5 42 1.25
v 12 42.5 1.375
v 11.96489429473877 42.315952301025391 1.375
v 11.853553771972656 42.146446228027344 1.375
v 11.684047698974609 42.035106658935547 1.375
v 11.5 42 1.375
v 12 42.5 1.5
v 11.5 42 1.5
v 11.991652488708496 42.409019470214844 1.5
v 11.96489429473877 42.315952301025391 1.5
v 11.918498039245605 42.226394653320312 1.5
v 11.853553771972656 42.146446228027344 1.5
v 11.773605346679688 42.081501007080078 1.5
v 11.684047698974609 42.035106658935547 1.5
v 11.590981483459473 42.008346557617188 1.5
v 11.590981483459473 42.008346557617188 1
v 11.684047698974609 42.035106658935547 1
v 11.773605346679688 42.081501007080078 1
v 11.853553771972656 42.146446228027344 1
v 11.918498039245605 42.226394653320312 1
v 11.96489429473877 42.315952301025391 1
v 11.991652488708496 42.409019470214844 1
v -19.5 42 1
v -19.853553771972656 42.146446228027344 1
v -20 42.5 1
v -19.5 42 1.125
v -19.684047698974609 42.035106658935547 1.125
v -19.853553771972656 42.146446228027344 1.125
v -19.964893341064453 42.315952301025391 1.125
v -20 42.5 1.125
v -19.5 42 1.25
v -19.684047698974609 42.035106658935547 1.25
v -19.853553771972656 42.146446228027344 1.25
v -19.964893341064453 42.315952301025391 1.25
v -20 42.5 1.25
v -19.5 42 1.375
v -19.684047698974609 42.035106658935547 1.375
v -19.853553771972656 42.146446228027344 1.375
v -19.964893341064453 42.315952301025391 1.375
v -20 42.5 1.375
v -19.5 42 1.5
v -19.964893341064453 42.315952301025391 1.5
v -20 42.5 1.5
v -19.590982437133789 42.008346557617188 1.5
v -19.684047698974609 42.035106658935547 1.5
v -19.773605346679688 42.081501007080078 1.5
v -19.853553771972656 42.146446228027344 1.5
v -19.918497085571289 42.226394653320312 1.5
v -19.991653442382812 42.409019470214844 1.5
v -19.991653442382812 42.409019470214844 1
v -19.964893341064453 42.315952301025391 1
v -19.918497085571289 42.226394653320312 1
v -19.773605346679688 42.081501007080078 1
v -19.684047698974609 42.035106658935547 1
v -19.590982437133789 42.008346557617188 1
vt 0.97186851501464844 0
vt 0.95999997854232788 0
vt 0.97186851501464844 0.85333335399627686
vt 0.95999997854232788 0.85333335399627686
vt 0.99853515625 0
vt 0.98666667938232422 0
vt 0.99853515625 0.46666666865348816
vt 0.98666667938232422 0.46666666865348816
vt 0.99556803703308105 0.46666666865348816
vt 0.99260091781616211 0.46666666865348816
vt 0.98963379859924316 0.46666666865348816
vt 0 0.074142321944236755
vt 0.82666665315628052 0.074142321944236755
vt 0.82666665315628052 0.077109448611736298
vt 0.82666665315628052 0.080076567828655243
vt 0.82666665315628052 0.083043687045574188
vt 0.82666665315628052 0.08601081371307373
vt 0 0.08601081371307373
vt 0 0.083043687045574188
vt 0 0.080076567828655243
vt 0 0.077109448611736298
vt 0.98520183563232422 0
vt 0.97333335876464844 0
vt 0.98520183563232422 0.46666666865348816
vt 0.97333335876464844 0.46666666865348816
vt 0.97630047798156738 0
vt 0.97926759719848633 0
vt 0.98223471641540527 0
vt 0.95853513479232788 0.08747565746307373
vt 0.95853513479232788 0.93934416770935059
vt 0.49329265952110291 0.93934416770935059
vt 0.47999998927116394 0.92603367567062378
vt 0.47999998927116394 0.10078610479831696
vt 0.49329265952110291 0.08747565746307373
vt 0.50658529996871948 0.19395922124385834
vt 0.50658529996871948 0.39361590147018433
vt 0.90536457300186157 0.39361590147018433
vt 0.90536457300186157 0.19395922124385834
vt 0.49087387323379517 0.93912196159362793
vt 0.4883996844291687 0.93840956687927246
vt 0.48601880669593811 0.93717443943023682
vt 0.48389333486557007 0.93544560670852661
vt 0.48216676712036133 0.93331730365753174
vt 0.48093330860137939 0.93093323707580566
vt 0.48022189736366272 0.92845571041107178
vt 0.48022189736366272 0.098364092409610748
vt 0.48093330860137939 0.095886595547199249
vt 0.48216676712036133 0.093502499163150787
vt 0.48389333486557007 0.091374196112155914
vt 0.48601880669593811 0.089645318686962128
vt 0.4883996844291687 0.088410206139087677
vt 0.49087387323379517 0.087697871029376984
vt 0.47853514552116394 0.08747565746307373
vt 0.47853514552116394 0.93934416770935059
vt 0.013292649760842323 0.93934416770935059
vt 0 0.92603367567062378
vt 0 0.10078610479831696
vt 0.013292649760842323 0.08747565746307373
vt 0.026585299521684647 0.19395922124385834
vt 0.026585299521684647 0.39361590147018433
vt 0.42536458373069763 0.39361590147018433
vt 0.42536458373069763 0.19395922124385834
vt 0.010873877443373203 0.93912196159362793
vt 0.0083996858447790146 0.93840956687927246
vt 0.0060187922790646553 0.93717443943023682
vt 0.0038933211471885443 0.93544560670852661
vt 0.0021667720284312963 0.93331730365753174
vt 0.00093329837545752525 0.93093323707580566
vt 0.00022190829622559249 0.92845571041107178
vt 0.00022190829622559249 0.098364092409610748
vt 0.00093329837545752525 0.095886595547199249
vt 0.0021667720284312963 0.093502499163150787
vt 0.0038933211471885443 0.091374196112155914
vt 0.0060187922790646553 0.089645318686962128
vt 0.0083996858447790146 0.088410206139087677
vt 0.010873877443373203 0.087697871029376984
vt 0 0.034142322838306427
vt 0 0.046010814607143402
vt 0.20000000298023224 0.034142322838306427
vt 0.20000000298023224 0.046010814607143402
vt 0 0.060808990150690079
vt 0 0.072677478194236755
vt 0.40000000596046448 0.060808990150690079
vt 0.40000000596046448 0.072677478194236755
vt 0 0.020808989182114601
vt 0 0.032677479088306427
vt 0.20000000298023224 0.020808989182114601
vt 0.20000000298023224 0.032677479088306427
vt 0 0.047475658357143402
vt 0 0.059344146400690079
vt 0.40000000596046448 0.047475658357143402
vt 0.40000000596046448 0.059344146400690079
vt 0 0
vt 0 0.019344145432114601
vt 0.0033333334140479565 0
vt 0.0033333334140479565 0.0048360363580286503
vt 0.0033333334140479565 0.0096720727160573006
vt 0.0033333334140479565 0.014508109539747238
vt 0.0033333334140479565 0.019344145432114601
vt 0.0066666668280959129 0
vt 0.0066666668280959129 0.0048360363580286503
vt 0.0066666668280959129 0.0096720727160573006
vt 0.0066666668280959129 0.014508109539747238
vt 0.0066666668280959129 0.019344145432114601
vt 0.0099999997764825821 0
vt 0.0099999997764825821 0.0048360363580286503
vt 0.0099999997764825821 0.0096720727160573006
vt 0.0099999997764825821 0.014508109539747238
vt 0.0099999997764825821 0.019344145432114601
vt 0.013333333656191826 0
vt 0.013333333656191826 0.019344145432114601
vt 0.013333333656191826 0.0024180181790143251
vt 0.013333333656191826 0.0048360363580286503
vt 0.013333333656191826 0.0072540547698736191
vt 0.013333333656191826 0.0096720727160573006
vt 0.013333333656191826 0.012090091593563557
vt 0.013333333656191826 0.014508109539747238
vt 0.013333333656191826 0.016926128417253494
vt 0 0.016926128417253494
vt 0 0.014508109539747238
vt 0 0.012090091593563557
vt 0 0.0096720727160573006
vt 0 0.0072540547698736191
vt 0 0.0048360363580286503
vt 0 0.0024180181790143251
vt 0.47999998927116394 0
vt 0.47999998927116394 0.0096720727160573006
vt 0.47999998927116394 0.019344145432114601
vt 0.48333331942558289 0
vt 0.48333331942558289 0.0048360363580286503
vt 0.48333331942558289 0.0096720727160573006
vt 0.48333331942558289 0.014508109539747238
vt 0.48333331942558289 0.019344145432114601
vt 0.48666667938232422 0
vt 0.48666667938232422 0.0048360363580286503
vt 0.48666667938232422 0.0096720727160573006
vt 0.48666667938232422 0.014508109539747238
vt 0.48666667938232422 0.019344145432114601
vt 0.49000000953674316 0
vt 0.49000000953674316 0.0048360363580286503
vt 0.49000000953674316 0.0096720727160573006
vt 0.49000000953674316 0.014508109539747238
vt 0.49000000953674316 0.019344145432114601
vt 0.49333333969116211 0
vt 0.49333333969116211 0.014508109539747238
vt 0.49333333969116211 0.019344145432114601
vt 0.49333333969116211 0.0024180181790143251
vt 0.49333333969116211 0.0048360363580286503
vt 0.49333333969116211 0.0072540547698736191
vt 0.49333333969116211 0.0096720727160573006
vt 0.49333333969116211 0.012090091593563557
vt 0.49333333969116211 0.016926128417253494
vt 0.47999998927116394 0.016926128417253494
vt 0.47999998927116394 0.014508109539747238
vt 0.47999998927116394 0.012090091593563557
vt 0.47999998927116394 0.0072540547698736191
vt 0.47999998927116394 0.0048360363580286503
vt 0.47999998927116394 0.0024180181790143251
vn 0 1 0
vn 0 1 0
vn 0 1 0
vn 0 1 0
vn 1 0 0
vn 1 0 0
vn 1 0 0
vn 1 0 0
vn 1 0 0
vn 1 0 0
vn 1 0 0
vn 0 -1 0
vn 0 -1 0
vn 0 -1 0
vn 0 -1 0
vn 0 -1 0
vn 0 -1 0
vn 0 -1 0
vn 0 -1 0
vn 0 -1 0
vn 0 -1 0
vn -1 0 0
vn -1 0 0
vn -1 0 0
vn -1 0 0
vn -1 0 0
vn -1 0 0
vn -1 0 0
vn 0 0 1
vn 0 0 1
vn 0 0 1
vn 0 0 1
vn 0 0 1
vn 0 0 1
vn 0 0 1
vn 0 0 1
vn 0 0 1
vn 0 0 1
vn 0 0 1
vn 0 0 1
vn 0 0 1
vn 0 0 1
vn 0 0 1
vn 0 0 1
vn 0 0 1
vn 0 0 1
vn 0 0 1
vn 0 0 1
vn 0 0 1
vn 0 0 1
vn 0 0 1
vn 0 0 1
vn 0 0 -1
vn 0 0 -1
vn 0 0 -1
vn 0 0 -1
vn 0 0 -1
vn 0 0 -1
vn 0 0 -1
vn 0 0 -1
vn 0 0 -1
vn 0 0 -1
vn 0 0 -1
vn 0 0 -1
vn 0 0 -1
vn 0 0 -1
vn 0 0 -1
vn 0 0 -1
vn 0 0 -1
vn 0 0 -1
vn 0 0 -1
vn 0 0 -1
vn 0 0 -1
vn 0 0 -1
vn 0 0 -1
vn 0 0 -1
vn 0 1 0
vn 0 1 0
vn 0 1 0
vn 0 1 0
vn -1 0 0
vn -1 0 0
vn -1 0 0
vn -1 0 0
vn 0 -1 0
vn 0 -1 0
vn 0 -1 0
vn 0 -1 0
vn 1 0 0
vn 1 0 0
vn 1 0 0
vn 1 0 0
vn 1 0 0
vn 0 -1 0
vn 1 0 0
vn 0.92978829145431519 -0.36809471249580383 0
vn 0.70710676908493042 -0.70710676908493042 0
vn 0.36809471249580383 -0.92978829145431519 0
vn 0 -1 0
vn 1 0 0
vn 0.92978829145431519 -0.36809471249580383 0
vn 0.70710676908493042 -0.70710676908493042 0
vn 0.36809471249580383 -0.92978829145431519 0
vn 0 -1 0
vn 1 0 0
vn 0.92978829145431519 -0.36809471249580383 0
vn 0.70710676908493042 -0.70710676908493042 0
vn 0.36809471249580383 -0.92978829145431519 0
vn 0 -1 0
vn 1 0 0
vn 0 -1 0
vn 0.98330539464950562 -0.18196305632591248 0
vn 0.92978829145431519 -0.36809471249580383 0
vn 0.83699548244476318 -0.54720973968505859 0
vn 0.70710676908493042 -0.70710676908493042 0
vn 0.54720973968505859 -0.83699548244476318 0
vn 0.36809471249580383 -0.92978829145431519 0
vn 0.18196305632591248 -0.98330539464950562 0
vn 0.18196305632591248 -0.98330539464950562 0
vn 0.36809471249580383 -0.92978829145431519 0
vn 0.54720973968505859 -0.83699548244476318 0
vn 0.70710676908493042 -0.70710676908493042 0
vn 0.83699548244476318 -0.54720973968505859 0
vn 0.92978829145431519 -0.36809471249580383 0
vn 0.98330539464950562 -0.18196305632591248 0
vn 0 -1 0
vn -0.70710676908493042 -0.70710676908493042 0
vn -1 0 0
vn 0 -1 0
vn -0.36809471249580383 -0.92978829145431519 0
vn -0.70710676908493042 -0.70710676908493042 0
vn -0.92978829145431519 -0.36809471249580383 0
vn -1 0 0
vn 0 -1 0
vn -0.36809471249580383 -0.92978829145431519 0
vn -0.70710676908493042 -0.70710676908493042 0
vn -0.92978829145431519 -0.36809471249580383 0
vn -1 0 0
vn 0 -1 0
vn -0.36809471249580383 -0.92978829145431519 0
vn -0.70710676908493042 -0.70710676908493042 0
vn -0.92978829145431519 -0.36809471249580383 0
vn -1 0 0
vn 0 -1 0
vn -0.92978829145431519 -0.36809471249580383 0
vn -1 0 0
vn -0.18196305632591248 -0.98330539464950562 0
vn -0.36809471249580383 -0.92978829145431519 0
vn -0.54720973968505859 -0.83699548244476318 0
vn -0.70710676908493042 -0.70710676908493042 0
vn -0.83699548244476318 -0.54720973968505859 0
vn -0.98330539464950562 -0.18196305632591248 0
vn -0.98330539464950562 -0.18196305632591248 0
vn -0.92978829145431519 -0.36809471249580383 0
vn -0.83699548244476318 -0.54720973968505859 0
vn -0.54720973968505859 -0.83699548244476318 0
vn -0.36809471249580383 -0.92978829145431519 0
vn -0.18196305632591248 -0.98330539464950562 0
f 26/26/26 25/25/25 27/27/27 28/28/28
f 30/30/30 29/29/29 33/33/33 34/34/34
f 31/31/31 33/33/33 29/29/29
f 30/30/30 35/35/35 32/32/32
f 30/30/30 34/34/34 35/35/35
f 45/45/45 36/36/36 37/37/37 38/38/38
f 43/43/43 44/44/44 39/39/39 40/40/40
f 42/42/42 43/43/43 40/40/40 41/41/41
f 44/44/44 45/45/45 38/38/38 39/39/39
f 48/48/48 52/52/52 46/46/46
f 48/48/48 51/51/51 52/52/52
f 50/50/50 51/51/51 49/49/49
f 48/48/48 49/49/49 51/51/51
f 50/50/50 49/49/49 47/47/47
f 75/75/75 57/57/57 76/76/76
f 58/58/58 59/59/59 62/62/62 53/53/53
f 58/58/58 76/76/76 57/57/57
f 59/59/59 58/58/58 57/57/57
f 62/62/62 61/61/61 53/53/53
f 72/72/72 57/57/57 73/73/73
f 74/74/74 73/73/73 57/57/57
f 70/70/70 57/57/57 71/71/71
f 72/72/72 71/71/71 57/57/57
f 57/57/57 75/75/75 74/74/74
f 57/57/57 60/60/60 59/59/59
f 55/55/55 60/60/60 56/56/56
f 60/60/60 55/55/55 54/54/54 61/61/61
f 63/63/63 56/56/56 64/64/64
f 55/55/55 56/56/56 63/63/63
f 54/54/54 53/53/53 61/61/61
f 69/69/69 68/68/68 56/56/56
f 67/67/67 56/56/56 68/68/68
f 67/67/67 66/66/66 56/56/56
f 65/65/65 56/56/56 66/66/66
f 65/65/65 64/64/64 56/56/56
f 57/57/57 56/56/56 60/60/60
f 99/99/99 100/100/100 81/81/81
f 82/82/82 77/77/77 86/86/86 83/83/83
f 82/82/82 81/81/81 100/100/100
f 83/83/83 81/81/81 82/82/82
f 86/86/86 77/77/77 85/85/85
f 96/96/96 97/97/97 81/81/81
f 98/98/98 81/81/81 97/97/97
f 94/94/94 95/95/95 81/81/81
f 96/96/96 81/81/81 95/95/95
f 81/81/81 98/98/98 99/99/99
f 81/81/81 83/83/83 84/84/84
f 79/79/79 80/80/80 84/84/84
f 84/84/84 85/85/85 78/78/78 79/79/79
f 87/87/87 88/88/88 80/80/80
f 79/79/79 87/87/87 80/80/80
f 78/78/78 85/85/85 77/77/77
f 93/93/93 80/80/80 92/92/92
f 91/91/91 92/92/92 80/80/80
f 91/91/91 80/80/80 90/90/90
f 89/89/89 90/90/90 80/80/80
f 89/89/89 80/80/80 88/88/88
f 81/81/81 84/84/84 80/80/80
f 102/102/102 104/104/104 103/103/103 101/101/101
f 106/106/106 108/108/108 107/107/107 105/105/105
f 110/110/110 112/112/112 111/111/111 109/109/109
f 114/114/114 116/116/116 115/115/115 113/113/113
f 126/126/126 121/121/121 120/120/120 125/125/125
f 127/127/127 122/122/122 121/121/121 126/126/126
f 131/131/131 126/126/126 125/125/125 130/130/130
f 132/132/132 127/127/127 126/126/126 131/131/131
f 119/119/119 149/149/149 117/117/117
f 120/120/120 147/147/147 148/148/148
f 148/148/148 149/149/149 120/120/120
f 124/124/124 125/125/125 120/120/120 119/119/119
f 120/120/120 121/121/121 146/146/146 147/147/147
f 125/125/125 124/124/124 129/129/129 130/130/130
f 149/149/149 119/119/119 120/120/120
f 121/121/121 145/145/145 146/146/146
f 122/122/122 143/143/143 144/144/144
f 144/144/144 145/145/145 122/122/122
f 122/122/122 123/123/123 143/143/143
f 123/123/123 118/118/118 143/143/143
f 123/123/123 122/122/122 127/127/127 128/128/128
f 121/121/121 122/122/122 145/145/145
f 130/130/130 129/129/129 136/136/136 137/137/137
f 131/131/131 130/130/130 138/138/138 139/139/139
f 134/134/134 136/136/136 129/129/129
f 130/130/130 137/137/137 138/138/138
f 140/140/140 131/131/131 139/139/139
f 132/132/132 133/133/133 128/128/128 127/127/127
f 133/133/133 132/132/132 141/141/141 142/142/142
f 132/132/132 140/140/140 141/141/141
f 133/133/133 142/142/142 135/135/135
f 132/132/132 131/131/131 140/140/140
f 160/160/160 155/155/155 154/154/154 159/159/159
f 161/161/161 156/156/156 155/155/155 160/160/160
f 165/165/165 160/160/160 159/159/159 164/164/164
f 166/166/166 161/161/161 160/160/160 165/165/165
f 153/153/153 182/182/182 150/150/150
f 154/154/154 180/180/180 181/181/181
f 181/181/181 182/182/182 154/154/154
f 158/158/158 159/159/159 154/154/154 153/153/153
f 155/155/155 180/180/180 154/154/154
f 159/159/159 158/158/158 163/163/163 164/164/164
f 182/182/182 153/153/153 154/154/154
f 155/155/155 179/179/179 151/151/151
f 156/156/156 177/177/177 178/178/178
f 178/178/178 179/179/179 156/156/156
f 156/156/156 157/157/157 177/177/177
f 157/157/157 152/152/152 177/177/177
f 157/157/157 156/156/156 161/161/161 162/162/162
f 155/155/155 156/156/156 179/179/179
f 155/155/155 151/151/151 180/180/180
f 171/171/171 164/164/164 163/163/163
f 164/164/164 173/173/173 165/165/165
f 168/168/168 171/171/171 163/163/163
f 164/164/164 171/171/171 172/172/172
f 165/165/165 173/173/173 174/174/174
f 164/164/164 172/172/172 173/173/173
f 175/175/175 165/165/165 174/174/174
f 166/166/166 167/167/167 162/162/162 161/161/161
f 167/167/167 166/166/166 176/176/176
f 166/166/166 175/175/175 169/169/169
f 167/167/167 176/176/176 170/170/170
f 166/166/166 169/169/169 176/176/176
f 166/166/166 165/165/165 175/175/175
usemtl Default
v -20 60 -2
v -20 60 -2.5
v 12 60 -2
v 12 60 -2.5
v 12 60 -2
v 12 60 -2.5
v 12 42.5 -2
v 12 42.5 -2.5
v 12 42.5 -2.125
v 12 42.5 -2.25
v 12 42.5 -2.375
v 11.5 42 -2
v -19.5 42 -2
v -19.5 42 -2.125
v -19.5 42 -2.25
v -19.5 42 -2.375
v -19.5 42 -2.5
v 11.5 42 -2.5
v 11.5 42 -2.375
v 11.5 42 -2.25
v 11.5 42 -2.125
v -20 42.5 -2
v -20 42.5 -2.5
v -20 60 -2
v -20 60 -2.5
v -20 42.5 -2.375
v -20 42.5 -2.25
v -20 42.5 -2.125
v -20 60 -2
v 12 60 -2
v 12 42.5 -2
v 11.5 42 -2
v -19.5 42 -2
v -20 42.5 -2
v -16 43 -2
v -8.5 43 -2
v -8.5 58 -2
v -16 58 -2
v 11.991652488708496 42.409019470214844 -2
v 11.96489429473877 42.315952301025391 -2
v 11.918498039245605 42.226394653320312 -2
v 11.853553771972656 42.146446228027344 -2
v 11.773605346679688 42.081501007080078 -2
v 11.684047698974609 42.035106658935547 -2
v 11.590981483459473 42.008346557617188 -2
v -19.590982437133789 42.008346557617188 -2
v -19.684047698974609 42.035106658935547 -2
v -19.773605346679688 42.081501007080078 -2
v -19.853553771972656 42.146446228027344 -2
v -19.918497085571289 42.226394653320312 -2
v -19.964893341064453 42.315952301025391 -2
v -19.991653442382812 42.409019470214844 -2
v -20 60 -2.5
v 12 60 -2.5
v 12 42.5 -2.5
v 11.5 42 -2.5
v -19.5 42 -2.5
v -20 42.5 -2.5
v -16 43 -2.5
v -8.5 43 -2.5
v -8.5 58 -2.5
v -16 58 -2.5
v 11.991652488708496 42.409019470214844 -2.5
v 11.96489429473877 42.315952301025391 -2.5
v 11.918498039245605 42.226394653320312 -2.5
v 11.853553771972656 42.146446228027344 -2.5
v 11.773605346679688 42.081501007080078 -2.5
v 11.684047698974609 42.035106658935547 -2.5
v 11.590981483459473 42.008346557617188 -2.5
v -19.590982437133789 42.008346557617188 -2.5
v -19.684047698974609 42.035106658935547 -2.5
v -19.773605346679688 42.081501007080078 -2.5
v -19.853553771972656 42.146446228027344 -2.5
v -19.918497085571289 42.226394653320312 -2.5
v -19.964893341064453 42.315952301025391 -2.5
v -19.991653442382812 42.409019470214844 -2.5
v -8.5 43 -2
v -8.5 43 -2.5
v -16 43 -2
v -16 43 -2.5
v -8.5 58 -2
v -8.5 58 -2.5
v -8.5 43 -2
v -8.5 43 -2.5
v -16 58 -2
v -16 58 -2.5
v -8.5 58 -2
v -8.5 58 -2.5
v -16 43 -2
v -16 43 -2.5
v -16 58 -2
v -16 58 -2.5
v 12 42.5 -2.5
v 11.5 42 -2.5
v 12 42.5 -2.375
v 11.96489429473877 42.315952301025391 -2.375
v 11.853553771972656 42.146446228027344 -2.375
v 11.684047698974609 42.035106658935547 -2.375
v 11.5 42 -2.375
v 12 42.5 -2.25
v 11.96489429473877 42.315952301025391 -2.25
v 11.853553771972656 42.146446228027344 -2.25
v 11.684047698974609 42.035106658935547 -2.25
v 11.5 42 -2.25
v 12 42.5 -2.125
v 11.96489429473877 42.315952301025391 -2.125
v 11.853553771972656 42.146446228027344 -2.125
v 11.684047698974609 42.035106658935547 -2.125
v 11.5 42 -2.125
v 12 42.5 -2
v 11.5 42 -2
v 11.991652488708496 42.409019470214844 -2
v 11.96489429473877 42.315952301025391 -2
v 11.918498039245605 42.226394653320312 -2
v 11.853553771972656 42.146446228027344 -2
v 11.773605346679688 42.081501007080078 -2
v 11.684047698974609 42.035106658935547 -2
v 11.590981483459473 42.008346557617188 -2
v 11.590981483459473 42.008346557617188 -2.5
v 11.684047698974609 42.035106658935547 -2.5
v 11.773605346679688 42.081501007080078 -2.5
v 11.853553771972656 42.146446228027344 -2.5
v 11.918498039245605 42.226394653320312 -2.5
v 11.96489429473877 42.315952301025391 -2.5
v 11.991652488708496 42.409019470214844 -2.5
v -19.5 42 -2.5
v -20 42.5 -2.5
v -19.5 42 -2.375
v -19.684047698974609 42.035106658935547 -2.375
v -19.853553771972656 42.146446228027344 -2.375
v -19.964893341064453 42.315952301025391 -2.375
v -20 42.5 -2.375
v -19.5 42 -2.25
v -19.684047698974609 42.035106658935547 -2.25
v -19.853553771972656 42.146446228027344 -2.25
v -19.964893341064453 42.315952301025391 -2.25
v -20 42.5 -2.25
v -19.5 42 -2.125
v -19.684047698974609 42.035106658935547 -2.125
v -19.853553771972656 42.146446228027344 -2.125
v -19.964893341064453 42.315952301025391 -2.125
v -20 42.5 -2.125
v -19.5 42 -2
v -19.684047698974609 42.035106658935547 -2
v -20 42.5 -2
v -19.590982437133789 42.008346557617188 -2
v -19.773605346679688 42.081501007080078 -2
v -19.853553771972656 42.146446228027344 -2
v -19.918497085571289 42.226394653320312 -2
v -19.964893341064453 42.315952301025391 -2
v -19.991653442382812 42.409019470214844 -2
v -19.991653442382812 42.409019470214844 -2.5
v -19.964893341064453 42.315952301025391 -2.5
v -19.918497085571289 42.226394653320312 -2.5
v -19.853553771972656 42.146446228027344 -2.5
v -19.773605346679688 42.081501007080078 -2.5
v -19.684047698974609 42.035106658935547 -2.5
v -19.590982437133789 42.008346557617188 -2.5
vt 0.97186851501464844 0
vt 0.95999997854232788 0
vt 0.97186851501464844 0.85333335399627686
vt 0.95999997854232788 0.85333335399627686
vt 0.99853515625 0
vt 0.98666667938232422 0
vt 0.99853515625 0.46666666865348816
vt 0.98666667938232422 0.46666666865348816
vt 0.99556803703308105 0.46666666865348816
vt 0.99260091781616211 0.46666666865348816
vt 0.98963379859924316 0.46666666865348816
vt 0 0.074142321944236755
vt 0.82666665315628052 0.074142321944236755
vt 0.82666665315628052 0.077109448611736298
vt 0.82666665315628052 0.080076567828655243
vt 0.82666665315628052 0.083043687045574188
vt 0.82666665315628052 0.08601081371307373
vt 0 0.08601081371307373
vt 0 0.083043687045574188
vt 0 0.080076567828655243
vt 0 0.077109448611736298
vt 0.98520183563232422 0
vt 0.97333335876464844 0
vt 0.98520183563232422 0.46666666865348816
vt 0.97333335876464844 0.46666666865348816
vt 0.97630047798156738 0
vt 0.97926759719848633 0
vt 0.98223471641540527 0
vt 0.95853513479232788 0.08747565746307373
vt 0.95853513479232788 0.93934416770935059
vt 0.49329265952110291 0.93934416770935059
vt 0.47999998927116394 0.92603367567062378
vt 0.47999998927116394 0.10078610479831696
vt 0.49329265952110291 0.08747565746307373
vt 0.50658529996871948 0.19395922124385834
vt 0.50658529996871948 0.39361590147018433
vt 0.90536457300186157 0.39361590147018433
vt 0.90536457300186157 0.19395922124385834
vt 0.49087387323379517 0.93912196159362793
vt 0.4883996844291687 0.93840956687927246
vt 0.48601880669593811 0.93717443943023682
vt 0.48389333486557007 0.93544560670852661
vt 0.48216676712036133 0.93331730365753174
vt 0.48093330860137939 0.93093323707580566
vt 0.48022189736366272 0.92845571041107178
vt 0.48022189736366272 0.098364092409610748
vt 0.48093330860137939 0.095886595547199249
vt 0.48216676712036133 0.093502499163150787
vt 0.48389333486557007 0.091374196112155914
vt 0.48601880669593811 0.089645318686962128
vt 0.4883996844291687 0.088410206139087677
vt 0.49087387323379517 0.087697871029376984
vt 0.47853514552116394 0.08747565746307373
vt 0.47853514552116394 0.93934416770935059
vt 0.013292649760842323 0.93934416770935059
vt 0 0.92603367567062378
vt 0 0.10078610479831696
vt 0.013292649760842323 0.08747565746307373
vt 0.026585299521684647 0.19395922124385834
vt 0.026585299521684647 0.39361590147018433
vt 0.42536458373069763 0.39361590147018433
vt 0.42536458373069763 0.19395922124385834
vt 0.010873877443373203 0.93912196159362793
vt 0.0083996858447790146 0.93840956687927246
vt 0.0060187922790646553 0.93717443943023682
vt 0.0038933211471885443 0.93544560670852661
vt 0.0021667720284312963 0.93331730365753174
vt 0.00093329837545752525 0.93093323707580566
vt 0.00022190829622559249 0.92845571041107178
vt 0.00022190829622559249 0.098364092409610748
vt 0.00093329837545752525 0.095886595547199249
vt 0.0021667720284312963 0.093502499163150787
vt 0.0038933211471885443 0.091374196112155914
vt 0.0060187922790646553 0.089645318686962128
vt 0.0083996858447790146 0.088410206139087677
vt 0.010873877443373203 0.087697871029376984
vt 0 0.034142322838306427
vt 0 0.046010814607143402
vt 0.20000000298023224 0.034142322838306427
vt 0.20000000298023224 0.046010814607143402
vt 0 0.060808990150690079
vt 0 0.072677478194236755
vt 0.40000000596046448 0.060808990150690079
vt 0.40000000596046448 0.072677478194236755
vt 0 0.020808989182114601
vt 0 0.032677479088306427
vt 0.20000000298023224 0.020808989182114601
vt 0.20000000298023224 0.032677479088306427
vt 0 0.047475658357143402
vt 0 0.059344146400690079
vt 0.40000000596046448 0.047475658357143402
vt 0.40000000596046448 0.059344146400690079
vt 0 0
vt 0 0.019344145432114601
vt 0.0033333334140479565 0
vt 0.0033333334140479565 0.0048360363580286503
vt 0.0033333334140479565 0.0096720727160573006
vt 0.0033333334140479565 0.014508109539747238
vt 0.0033333334140479565 0.019344145432114601
vt 0.0066666668280959129 0
vt 0.0066666668280959129 0.0048360363580286503
vt 0.0066666668280959129 0.0096720727160573006
vt 0.0066666668280959129 0.014508109539747238
vt 0.0066666668280959129 0.019344145432114601
vt 0.0099999997764825821 0
vt 0.0099999997764825821 0.0048360363580286503
vt 0.0099999997764825821 0.0096720727160573006
vt 0.0099999997764825821 0.014508109539747238
vt 0.0099999997764825821 0.019344145432114601
vt 0.013333333656191826 0
vt 0.013333333656191826 0.019344145432114601
vt 0.013333333656191826 0.0024180181790143251
vt 0.013333333656191826 0.0048360363580286503
vt 0.013333333656191826 0.0072540547698736191
vt 0.013333333656191826 0.0096720727160573006
vt 0.013333333656191826 0.012090091593563557
vt 0.013333333656191826 0.014508109539747238
vt 0.013333333656191826 0.016926128417253494
vt 0 0.016926128417253494
vt 0 0.014508109539747238
vt 0 0.012090091593563557
vt 0 0.0096720727160573006
vt 0 0.0072540547698736191
vt 0 0.0048360363580286503
vt 0 0.0024180181790143251
vt 0.47999998927116394 0
vt 0.47999998927116394 0.019344145432114601
vt 0.48333331942558289 0
vt 0.48333331942558289 0.0048360363580286503
vt 0.48333331942558289 0.0096720727160573006
vt 0.48333331942558289 0.014508109539747238
vt 0.48333331942558289 0.019344145432114601
vt 0.48666667938232422 0
vt 0.48666667938232422 0.0048360363580286503
vt 0.48666667938232422 0.0096720727160573006
vt 0.48666667938232422 0.014508109539747238
vt 0.48666667938232422 0.019344145432114601
vt 0.49000000953674316 0
vt 0.49000000953674316 0.0048360363580286503
vt 0.49000000953674316 0.0096720727160573006
vt 0.49000000953674316 0.014508109539747238
vt 0.49000000953674316 0.019344145432114601
vt 0.49333333969116211 0
vt 0.49333333969116211 0.0048360363580286503
vt 0.49333333969116211 0.019344145432114601
vt 0.49333333969116211 0.0024180181790143251
vt 0.49333333969116211 0.0072540547698736191
vt 0.49333333969116211 0.0096720727160573006
vt 0.49333333969116211 0.012090091593563557
vt 0.49333333969116211 0.014508109539747238
vt 0.49333333969116211 0.016926128417253494
vt 0.47999998927116394 0.016926128417253494
vt 0.47999998927116394 0.014508109539747238
vt 0.47999998927116394 0.012090091593563557
vt 0.47999998927116394 0.0096720727160573006
vt 0.47999998927116394 0.0072540547698736191
vt 0.47999998927116394 0.0048360363580286503
vt 0.47999998927116394 0.0024180181790143251
vn 0 1 0
vn 0 1 0
vn 0 1 0
vn 0 1 0
vn 1 0 0
vn 1 0 0
vn 1 0 0
vn 1 0 0
vn 1 0 0
vn 1 0 0
vn 1 0 0
vn 0 -1 0
vn 0 -1 0
vn 0 -1 0
vn 0 -1 0
vn 0 -1 0
vn 0 -1 0
vn 0 -1 0
vn 0 -1 0
vn 0 -1 0
vn 0 -1 0
vn -1 0 0
vn -1 0 0
vn -1 0 0
vn -1 0 0
vn -1 0 0
vn -1 0 0
vn -1 0 0
vn 0 0 1
vn 0 0 1
vn 0 0 1
vn 0 0 1
vn 0 0 1
vn 0 0 1
vn 0 0 1
vn 0 0 1
vn 0 0 1
vn 0 0 1
vn 0 0 1
vn 0 0 1
vn 0 0 1
vn 0 0 1
vn 0 0 1
vn 0 0 1
vn 0 0 1
vn 0 0 1
vn 0 0 1
vn 0 0 1
vn 0 0 1
vn 0 0 1
vn 0 0 1
vn 0 0 1
vn 0 0 -1
vn 0 0 -1
vn 0 0 -1
vn 0 0 -1
vn 0 0 -1
vn 0 0 -1
vn 0 0 -1
vn 0 0 -1
vn 0 0 -1
vn 0 0 -1
vn 0 0 -1
vn 0 0 -1
vn 0 0 -1
vn 0 0 -1
vn 0 0 -1
vn 0 0 -1
vn 0 0 -1
vn 0 0 -1
vn 0 0 -1
vn 0 0 -1
vn 0 0 -1
vn 0 0 -1
vn 0 0 -1
vn 0 0 -1
vn 0 1 0
vn 0 1 0
vn 0 1 0
vn 0 1 0
vn -1 0 0
vn -1 0 0
vn -1 0 0
vn -1 0 0
vn 0 -1 0
vn 0 -1 0
vn 0 -1 0
vn 0 -1 0
vn 1 0 0
vn 1 0 0
vn 1 0 0
vn 1 0 0
vn 1 0 0
vn 0 -1 0
vn 1 0 0
vn 0.92978829145431519 -0.36809471249580383 0
vn 0.70710676908493042 -0.70710676908493042 0
vn 0.36809471249580383 -0.92978829145431519 0
vn 0 -1 0
vn 1 0 0
vn 0.92978829145431519 -0.36809471249580383 0
vn 0.70710676908493042 -0.70710676908493042 0
vn 0.36809471249580383 -0.92978829145431519 0
vn 0 -1 0
vn 1 0 0
vn 0.92978829145431519 -0.36809471249580383 0
vn 0.70710676908493042 -0.70710676908493042 0
vn 0.36809471249580383 -0.92978829145431519 0
vn 0 -1 0
vn 1 0 0
vn 0 -1 0
vn 0.98330539464950562 -0.18196305632591248 0
vn 0.92978829145431519 -0.36809471249580383 0
vn 0.83699548244476318 -0.54720973968505859 0
vn 0.70710676908493042 -0.70710676908493042 0
vn 0.54720973968505859 -0.83699548244476318 0
vn 0.36809471249580383 -0.92978829145431519 0
vn 0.18196305632591248 -0.98330539464950562 0
vn 0.18196305632591248 -0.98330539464950562 0
vn 0.36809471249580383 -0.92978829145431519 0
vn 0.54720973968505859 -0.83699548244476318 0
vn 0.70710676908493042 -0.70710676908493042 0
vn 0.83699548244476318 -0.54720973968505859 0
vn 0.92978829145431519 -0.36809471249580383 0
vn 0.98330539464950562 -0.18196305632591248 0
vn 0 -1 0
vn -1 0 0
vn 0 -1 0
vn -0.36809471249580383 -0.92978829145431519 0
vn -0.70710676908493042 -0.70710676908493042 0
vn -0.92978829145431519 -0.36809471249580383 0
vn -1 0 0
vn 0 -1 0
vn -0.36809471249580383 -0.92978829145431519 0
vn -0.70710676908493042 -0.70710676908493042 0
vn -0.92978829145431519 -0.36809471249580383 0
vn -1 0 0
vn 0 -1 0
vn -0.36809471249580383 -0.92978829145431519 0
vn -0.70710676908493042 -0.70710676908493042 0
vn -0.92978829145431519 -0.36809471249580383 0
vn -1 0 0
vn 0 -1 0
vn -0.36809471249580383 -0.92978829145431519 0
vn -1 0 0
vn -0.18196305632591248 -0.98330539464950562 0
vn -0.54720973968505859 -0.83699548244476318 0
vn -0.70710676908493042 -0.70710676908493042 0
vn -0.83699548244476318 -0.54720973968505859 0
vn -0.92978829145431519 -0.36809471249580383 0
vn -0.98330539464950562 -0.18196305632591248 0
vn -0.98330539464950562 -0.18196305632591248 0
vn -0.92978829145431519 -0.36809471249580383 0
vn -0.83699548244476318 -0.54720973968505859 0
vn -0.70710676908493042 -0.70710676908493042 0
vn -0.54720973968505859 -0.83699548244476318 0
vn -0.36809471249580383 -0.92978829145431519 0
vn -0.18196305632591248 -0.98330539464950562 0
f 184/184/184 183/183/183 185/185/185 186/186/186
f 188/188/188 187/187/187 191/191/191 192/192/192
f 189/189/189 191/191/191 187/187/187
f 188/188/188 193/193/193 190/190/190
f 188/188/188 192/192/192 193/193/193
f 203/203/203 194/194/194 195/195/195 196/196/196
f 201/201/201 202/202/202 197/197/197 198/198/198
f 200/200/200 201/201/201 198/198/198 199/199/199
f 202/202/202 203/203/203 196/196/196 197/197/197
f 206/206/206 210/210/210 204/204/204
f 206/206/206 209/209/209 210/210/210
f 208/208/208 209/209/209 207/207/207
f 206/206/206 207/207/207 209/209/209
f 208/208/208 207/207/207 205/205/205
f 233/233/233 215/215/215 234/234/234
f 216/216/216 217/217/217 220/220/220 211/211/211
f 216/216/216 234/234/234 215/215/215
f 217/217/217 216/216/216 215/215/215
f 220/220/220 219/219/219 211/211/211
f 230/230/230 215/215/215 231/231/231
f 232/232/232 231/231/231 215/215/215
f 228/228/228 215/215/215 229/229/229
f 230/230/230 229/229/229 215/215/215
f 215/215/215 233/233/233 232/232/232
f 215/215/215 218/218/218 217/217/217
f 213/213/213 218/218/218 214/214/214
f 218/218/218 213/213/213 212/212/212 219/219/219
f 221/221/221 214/214/214 222/222/222
f 213/213/213 214/214/214 221/221/221
f 212/212/212 211/211/211 219/219/219
f 227/227/227 226/226/226 214/214/214
f 225/225/225 214/214/214 226/226/226
f 225/225/225 224/224/224 214/214/214
f 223/223/223 214/214/214 224/224/224
f 223/223/223 222/222/222 214/214/214
f 215/215/215 214/214/214 218/218/218
f 257/257/257 258/258/258 239/239/239
f 240/240/240 235/235/235 244/244/244 241/241/241
f 240/240/240 239/239/239 258/258/258
f 241/241/241 239/239/239 240/240/240
f 244/244/244 235/235/235 243/243/243
f 254/254/254 255/255/255 239/239/239
f 256/256/256 239/239/239 255/255/255
f 252/252/252 253/253/253 239/239/239
f 254/254/254 239/239/239 253/253/253
f 239/239/239 256/256/256 257/257/257
f 239/239/239 241/241/241 242/242/242
f 237/237/237 238/238/238 242/242/242
f 242/242/242 243/243/243 236/236/236 237/237/237
f 245/245/245 246/246/246 238/238/238
f 237/237/237 245/245/245 238/238/238
f 236/236/236 243/243/243 235/235/235
f 251/251/251 238/238/238 250/250/250
f 249/249/249 250/250/250 238/238/238
f 249/249/249 238/238/238 248/248/248
f 247/247/247 248/248/248 238/238/238
f 247/247/247 238/238/238 246/246/246
f 239/239/239 242/242/242 238/238/238
f 260/260/260 262/262/262 261/261/261 259/259/259
f 264/264/264 266/266/266 265/265/265 263/263/263
f 268/268/268 270/270/270 269/269/269 267/267/267
f 272/272/272 274/274/274 273/273/273 271/271/271
f 284/284/284 279/279/279 278/278/278 283/283/283
f 285/285/285 280/280/280 279/279/279 284/284/284
f 289/289/289 284/284/284 283/283/283 288/288/288
f 290/290/290 285/285/285 284/284/284 289/289/289
f 277/277/277 307/307/307 275/275/275
f 278/278/278 305/305/305 306/306/306
f 306/306/306 307/307/307 278/278/278
f 282/282/282 283/283/283 278/278/278 277/277/277
f 278/278/278 279/279/279 304/304/304 305/305/305
f 283/283/283 282/282/282 287/287/287 288/288/288
f 307/307/307 277/277/277 278/278/278
f 279/279/279 303/303/303 304/304/304
f 280/280/280 301/301/301 302/302/302
f 302/302/302 303/303/303 280/280/280
f 280/280/280 281/281/281 301/301/301
f 281/281/281 276/276/276 301/301/301
f 281/281/281 280/280/280 285/285/285 286/286/286
f 279/279/279 280/280/280 303/303/303
f 288/288/288 287/287/287 294/294/294 295/295/295
f 289/289/289 288/288/288 296/296/296 297/297/297
f 292/292/292 294/294/294 287/287/287
f 288/288/288 295/295/295 296/296/296
f 298/298/298 289/289/289 297/297/297
f 290/290/290 291/291/291 286/286/286 285/285/285
f 291/291/291 290/290/290 299/299/299 300/300/300
f 290/290/290 298/298/298 299/299/299
f 291/291/291 300/300/300 293/293/293
f 290/290/290 289/289/289 298/298/298
f 317/317/317 312/312/312 311/311/311 316/316/316
f 318/318/318 313/313/313 312/312/312 317/317/317
f 322/322/322 317/317/317 316/316/316 321/321/321
f 323/323/323 318/318/318 317/317/317 322/322/322
f 310/310/310 340/340/340 308/308/308
f 311/311/311 338/338/338 339/339/339
f 339/339/339 340/340/340 311/311/311
f 315/315/315 316/316/316 311/311/311 310/310/310
f 311/311/311 312/312/312 337/337/337 338/338/338
f 316/316/316 315/315/315 320/320/320 321/321/321
f 340/340/340 310/310/310 311/311/311
f 312/312/312 336/336/336 337/337/337
f 313/313/313 334/334/334 335/335/335
f 335/335/335 336/336/336 313/313/313
f 313/313/313 314/314/314 334/334/334
f 314/314/314 309/309/309 334/334/334
f 314/314/314 313/313/313 318/318/318 319/319/319
f 312/312/312 313/313/313 336/336/336
f 321/321/321 320/320/320 325/325/325 328/328/328
f 321/321/321 329/329/329 322/322/322
f 321/321/321 328/328/328 326/326/326
f 322/322/322 329/329/329 330/330/330
f 321/321/321 326/326/326 329/329/329
f 331/331/331 322/322/322 330/330/330
f 323/323/323 324/324/324 319/319/319 318/318/318
f 324/324/324 323/323/323 333/333/333
f 323/323/323 331/331/331 332/332/332
f 324/324/324 333/333/333 327/327/327
f 323/323/323 332/332/332 333/333/333
f 323/323/323 322/322/322 331/331/331
usemtl Default
v 8 30 1.5
v 8 30 0.5
v 7.9676394462585449 29.281164169311523 1.5
v 7.9676394462585449 29.281164169311523 0.5
v 7.8664431571960449 28.544296264648438 1.5
v 7.8664431571960449 28.544296264648438 0.5
v 7.6911916732788086 27.798734664916992 1.5
v 7.6911916732788086 27.798734664916992 0.5
v 7.4383063316345215 27.055242538452148 1.5
v 7.4383063316345215 27.055242538452148 0.5
v 7.1062722206115723 26.325643539428711 1.5
v 7.1062722206115723 26.325643539428711 0.5
v 6.6959638595581055 25.622322082519531 1.5
v 6.6959638595581055 25.622322082519531 0.5
v 6.2108254432678223 24.957614898681641 1.5
v 6.2108254432678223 24.957614898681641 0.5
v 5.6568541526794434 24.343145370483398 1.5
v 5.6568541526794434 24.343145370483398 0.5
v 5.0423851013183594 23.789175033569336 1.5
v 5.0423851013183594 23.789175033569336 0.5
v 4.3776779174804688 23.304035186767578 1.5
v 4.3776779174804688 23.304035186767578 0.5
v 3.6743566989898682 22.893728256225586 1.5
v 3.6743566989898682 22.893728256225586 0.5
v 2.9447576999664307 22.56169319152832 1.5
v 2.9447576999664307 22.56169319152832 0.5
v 2.201265811920166 22.308809280395508 1.5
v 2.201265811920166 22.308809280395508 0.5
v 1.4557044506072998 22.133556365966797 1.5
v 1.4557044506072998 22.133556365966797 0.5
v 0.71883553266525269 22.032360076904297 1.5
v 0.71883553266525269 22.032360076904297 0.5
v 0 22 1.5
v 0 22 0.5
v -0.71883553266525269 22.032360076904297 1.5
v -0.71883553266525269 22.032360076904297 0.5
v -1.4557044506072998 22.133556365966797 1.5
v -1.4557044506072998 22.133556365966797 0.5
v -2.201265811920166 22.308809280395508 1.5
v -2.201265811920166 22.308809280395508 0.5
v -2.9447576999664307 22.56169319152832 1.5
v -2.9447576999664307 22.56169319152832 0.5
v -3.6743566989898682 22.893728256225586 1.5
v -3.6743566989898682 22.893728256225586 0.5
v -4.3776779174804688 23.304035186767578 1.5
v -4.3776779174804688 23.304035186767578 0.5
v -5.0423851013183594 23.789175033569336 1.5
v -5.0423851013183594 23.789175033569336 0.5
v -5.6568541526794434 24.343145370483398 1.5
v -5.6568541526794434 24.343145370483398 0.5
v -6.2108254432678223 24.957614898681641 1.5
v -6.2108254432678223 24.957614898681641 0.5
v -6.6959638595581055 25.622322082519531 1.5
v -6.6959638595581055 25.622322082519531 0.5
v -7.1062722206115723 26.325643539428711 1.5
v -7.1062722206115723 26.325643539428711 0.5
v -7.4383063316345215 27.055242538452148 1.5
v -7.4383063316345215 27.055242538452148 0.5
v -7.6911916732788086 27.798734664916992 1.5
v -7.6911916732788086 27.798734664916992 0.5
v -7.8664431571960449 28.544296264648438 1.5
v -7.8664431571960449 28.544296264648438 0.5
v -7.9676394462585449 29.281164169311523 1.5
v -7.9676394462585449 29.281164169311523 0.5
v -8 30 1.5
v -8 30 0.5
v -7.9676394462585449 30.718835830688477 1.5
v -7.9676394462585449 30.718835830688477 0.5
v -7.8664431571960449 31.455703735351562 1.5
v -7.8664431571960449 31.455703735351562 0.5
v -7.6911916732788086 32.201267242431641 1.5
v -7.6911916732788086 32.201267242431641 0.5
v -7.4383063316345215 32.944759368896484 1.5
v -7.4383063316345215 32.944759368896484 0.5
v -7.1062722206115723 33.674358367919922 1.5
v -7.1062722206115723 33.674358367919922 0.5
v -6.6959638595581055 34.377677917480469 1.5
v -6.6959638595581055 34.377677917480469 0.5
v -6.2108254432678223 35.042385101318359 1.5
v -6.2108254432678223 35.042385101318359 0.5
v -5.6568541526794434 35.656852722167969 1.5
v -5.6568541526794434 35.656852722167969 0.5
v -5.0423851013183594 36.210826873779297 1.5
v -5.0423851013183594 36.210826873779297 0.5
v -4.3776779174804688 36.695964813232422 1.5
v -4.3776779174804688 36.695964813232422 0.5
v -3.6743566989898682 37.106273651123047 1.5
v -3.6743566989898682 37.106273651123047 0.5
v -2.9447576999664307 37.438304901123047 1.5
v -2.9447576999664307 37.438304901123047 0.5
v -2.201265811920166 37.691192626953125 1.5
v -2.201265811920166 37.691192626953125 0.5
v -1.4557044506072998 37.866443634033203 1.5
v -1.4557044506072998 37.866443634033203 0.5
v -0.71883553266525269 37.967639923095703 1.5
v -0.71883553266525269 37.967639923095703 0.5
v 0 38 1.5
v 0 38 0.5
v 0.71883553266525269 37.967639923095703 1.5
v 0.71883553266525269 37.967639923095703 0.5
v 1.4557044506072998 37.866443634033203 1.5
v 1.4557044506072998 37.866443634033203 0.5
v 2.201265811920166 37.691192626953125 1.5
v 2.201265811920166 37.691192626953125 0.5
v 2.9447576999664307 37.438304901123047 1.5
v 2.9447576999664307 37.438304901123047 0.5
v 3.6743566989898682 37.106273651123047 1.5
v 3.6743566989898682 37.106273651123047 0.5
v 4.3776779174804688 36.695964813232422 1.5
v 4.3776779174804688 36.695964813232422 0.5
v 5.0423851013183594 36.210826873779297 1.5
v 5.0423851013183594 36.210826873779297 0.5
v 5.6568541526794434 35.656852722167969 1.5
v 5.6568541526794434 35.656852722167969 0.5
v 6.2108254432678223 35.042385101318359 1.5
v 6.2108254432678223 35.042385101318359 0.5
v 6.6959638595581055 34.377677917480469 1.5
v 6.6959638595581055 34.377677917480469 0.5
v 7.1062722206115723 33.674358367919922 1.5
v 7.1062722206115723 33.674358367919922 0.5
v 7.4383063316345215 32.944759368896484 1.5
v 7.4383063316345215 32.944759368896484 0.5
v 7.6911916732788086 32.201267242431641 1.5
v 7.6911916732788086 32.201267242431641 0.5
v 7.8664431571960449 31.455703735351562 1.5
v 7.8664431571960449 31.455703735351562 0.5
v 7.9676394462585449 30.718835830688477 1.5
v 7.9676394462585449 30.718835830688477 0.5
v 8 30 1.5
v 8 30 0.5
v 8 30 1.5
v 7.9676394462585449 29.281164169311523 1.5
v 7.8664431571960449 28.544296264648438 1.5
v 7.6911916732788086 27.798734664916992 1.5
v 7.4383063316345215 27.055242538452148 1.5
v 7.1062722206115723 26.325643539428711 1.5
v 6.6959638595581055 25.622322082519531 1.5
v 6.2108254432678223 24.957614898681641 1.5
v 5.6568541526794434 24.343145370483398 1.5
v 5.0423851013183594 23.789175033569336 1.5
v 4.3776779174804688 23.304035186767578 1.5
v 3.6743566989898682 22.893728256225586 1.5
v 2.9447576999664307 22.56169319152832 1.5
v 2.201265811920166 22.308809280395508 1.5
v 1.4557044506072998 22.133556365966797 1.5
v 0.71883553266525269 22.032360076904297 1.5
v 0 22 1.5
v -0.71883553266525269 22.032360076904297 1.5
v -1.4557044506072998 22.133556365966797 1.5
v -2.201265811920166 22.308809280395508 1.5
v -2.9447576999664307 22.56169319152832 1.5
v -3.6743566989898682 22.893728256225586 1.5
v -4.3776779174804688 23.304035186767578 1.5
v -5.0423851013183594 23.789175033569336 1.5
v -5.6568541526794434 24.343145370483398 1.5
v -6.2108254432678223 24.957614898681641 1.5
v -6.6959638595581055 25.622322082519531 1.5
v -7.1062722206115723 26.325643539428711 1.5
v -7.4383063316345215 27.055242538452148 1.5
v -7.6911916732788086 27.798734664916992 1.5
v -7.8664431571960449 28.544296264648438 1.5
v -7.9676394462585449 29.281164169311523 1.5
v -8 30 1.5
v -7.9676394462585449 30.718835830688477 1.5
v -7.8664431571960449 31.455703735351562 1.5
v -7.6911916732788086 32.201267242431641 1.5
v -7.4383063316345215 32.944759368896484 1.5
v -7.1062722206115723 33.674358367919922 1.5
v -6.6959638595581055 34.377677917480469 1.5
v -6.2108254432678223 35.042385101318359 1.5
v -5.6568541526794434 35.656852722167969 1.5
v -5.0423851013183594 36.210826873779297 1.5
v -4.3776779174804688 36.695964813232422 1.5
v -3.6743566989898682 37.106273651123047 1.5
v -2.9447576999664307 37.438304901123047 1.5
v -2.201265811920166 37.691192626953125 1.5
v -1.4557044506072998 37.866443634033203 1.5
v -0.71883553266525269 37.967639923095703 1.5
v 0 38 1.5
v 0.71883553266525269 37.967639923095703 1.5
v 1.4557044506072998 37.866443634033203 1.5
v 2.201265811920166 37.691192626953125 1.5
v 2.9447576999664307 37.438304901123047 1.5
v 3.6743566989898682 37.106273651123047 1.5
v 4.3776779174804688 36.695964813232422 1.5
v 5.0423851013183594 36.210826873779297 1.5
v 5.6568541526794434 35.656852722167969 1.5
v 6.2108254432678223 35.042385101318359 1.5
v 6.6959638595581055 34.377677917480469 1.5
v 7.1062722206115723 33.674358367919922 1.5
v 7.4383063316345215 32.944759368896484 1.5
v 7.6911916732788086 32.201267242431641 1.5
v 7.8664431571960449 31.455703735351562 1.5
v 7.9676394462585449 30.718835830688477 1.5
v 1.878679633140564 33.121318817138672 1.5
v 4 31 1.5
v 5.4142136573791504 32.414215087890625 1.5
v 3.2928931713104248 34.535533905029297 1.5
v -1 29 1.5
v 1 29 1.5
v 1 31 1.5
v -1 31 1.5
v 8 30 0.5
v 7.9676394462585449 29.281164169311523 0.5
v 7.8664431571960449 28.544296264648438 0.5
v 7.6911916732788086 27.798734664916992 0.5
v 7.4383063316345215 27.055242538452148 0.5
v 7.1062722206115723 26.325643539428711 0.5
v 6.6959638595581055 25.622322082519531 0.5
v 6.2108254432678223 24.957614898681641 0.5
v 5.6568541526794434 24.343145370483398 0.5
v 5.0423851013183594 23.789175033569336 0.5
v 4.3776779174804688 23.304035186767578 0.5
v 3.6743566989898682 22.893728256225586 0.5
v 2.9447576999664307 22.56169319152832 0.5
v 2.201265811920166 22.308809280395508 0.5
v 1.4557044506072998 22.133556365966797 0.5
v 0.71883553266525269 22.032360076904297 0.5
v 0 22 0.5
v -0.71883553266525269 22.032360076904297 0.5
v -1.4557044506072998 22.133556365966797 0.5
v -2.201265811920166 22.308809280395508 0.5
v -2.9447576999664307 22.56169319152832 0.5
v -3.6743566989898682 22.893728256225586 0.5
v -4.3776779174804688 23.304035186767578 0.5
v -5.0423851013183594 23.789175033569336 0.5
v -5.6568541526794434 24.343145370483398 0.5
v -6.2108254432678223 24.957614898681641 0.5
v -6.6959638595581055 25.622322082519531 0.5
v -7.1062722206115723 26.325643539428711 0.5
v -7.4383063316345215 27.055242538452148 0.5
v -7.6911916732788086 27.798734664916992 0.5
v -7.8664431571960449 28.544296264648438 0.5
v -7.9676394462585449 29.281164169311523 0.5
v -8 30 0.5
v -7.9676394462585449 30.718835830688477 0.5
v -7.8664431571960449 31.455703735351562 0.5
v -7.6911916732788086 32.201267242431641 0.5
v -7.4383063316345215 32.944759368896484 0.5
v -7.1062722206115723 33.674358367919922 0.5
v -6.6959638595581055 34.377677917480469 0.5
v -6.2108254432678223 35.042385101318359 0.5
v -5.6568541526794434 35.656852722167969 0.5
v -5.0423851013183594 36.210826873779297 0.5
v -4.3776779174804688 36.695964813232422 0.5
v -3.6743566989898682 37.106273651123047 0.5
v -2.9447576999664307 37.438304901123047 0.5
v -2.201265811920166 37.691192626953125 0.5
v -1.4557044506072998 37.866443634033203 0.5
v -0.71883553266525269 37.967639923095703 0.5
v 0 38 0.5
v 0.71883553266525269 37.967639923095703 0.5
v 1.4557044506072998 37.866443634033203 0.5
v 2.201265811920166 37.691192626953125 0.5
v 2.9447576999664307 37.438304901123047 0.5
v 3.6743566989898682 37.106273651123047 0.5
v 4.3776779174804688 36.695964813232422 0.5
v 5.0423851013183594 36.210826873779297 0.5
v 5.6568541526794434 35.656852722167969 0.5
v 6.2108254432678223 35.042385101318359 0.5
v 6.6959638595581055 34.377677917480469 0.5
v 7.1062722206115723 33.674358367919922 0.5
v 7.4383063316345215 32.944759368896484 0.5
v 7.6911916732788086 32.201267242431641 0.5
v 7.8664431571960449 31.455703735351562 0.5
v 7.9676394462585449 30.718835830688477 0.5
v 1.878679633140564 33.121318817138672 0.5
v 4 31 0.5
v 5.4142136573791504 32.414215087890625 0.5
v 3.2928931713104248 34.535533905029297 0.5
v -1 29 0.5
v 1 29 0.5
v 1 31 0.5
v -1 31 0.5
v 4 31 1.5
v 4 31 0.5
v 1.878679633140564 33.121318817138672 1.5
v 1.878679633140564 33.121318817138672 0.5
v 5.4142136573791504 32.414215087890625 1.5
v 5.4142136573791504 32.414215087890625 0.5
v 4 31 1.5
v 4 31 0.5
v 3.2928931713104248 34.535533905029297 1.5
v 3.2928931713104248 34.535533905029297 0.5
v 5.4142136573791504 32.414215087890625 1.5
v 5.4142136573791504 32.414215087890625 0.5
v 1.878679633140564 33.121318817138672 1.5
v 1.878679633140564 33.121318817138672 0.5
v 3.2928931713104248 34.535533905029297 1.5
v 3.2928931713104248 34.535533905029297 0.5
v 1 29 1.5
v 1 29 0.5
v -1 29 1.5
v -1 29 0.5
v 1 31 1.5
v 1 31 0.5
v 1 29 1.5
v 1 29 0.5
v -1 31 1.5
v -1 31 0.5
v 1 31 1.5
v 1 31 0.5
v -1 29 1.5
v -1 29 0.5
v -1 31 1.5
v -1 31 0.5
vt 0.33687615394592285 0
vt 0.31843858957290649 0
vt 0.33687615394592285 0.01560211181640625
vt 0.31843858957290649 0.01560211181640625
vt 0.33687615394592285 0.0312042236328125
vt 0.31843858957290649 0.0312042236328125
vt 0.33687615394592285 0.04680633544921875
vt 0.31843858957290649 0.04680633544921875
vt 0.33687615394592285 0.062408447265625
vt 0.31843858957290649 0.062408447265625
vt 0.33687615394592285 0.07801055908203125
vt 0.31843858957290649 0.07801055908203125
vt 0.33687615394592285 0.0936126708984375
vt 0.31843858957290649 0.0936126708984375
vt 0.33687615394592285 0.10921478271484375
vt 0.31843858957290649 0.10921478271484375
vt 0.33687615394592285 0.12481689453125
vt 0.31843858957290649 0.12481689453125
vt 0.33687615394592285 0.14041900634765625
vt 0.31843858957290649 0.14041900634765625
vt 0.33687615394592285 0.1560211181640625
vt 0.31843858957290649 0.1560211181640625
vt 0.33687615394592285 0.17162322998046875
vt 0.31843858957290649 0.17162322998046875
vt 0.33687615394592285 0.187225341796875
vt 0.31843858957290649 0.187225341796875
vt 0.33687615394592285 0.20282745361328125
vt 0.31843858957290649 0.20282745361328125
vt 0.33687615394592285 0.2184295654296875
vt 0.31843858957290649 0.2184295654296875
vt 0.33687615394592285 0.23403167724609375
vt 0.31843858957290649 0.23403167724609375
vt 0.33687615394592285 0.2496337890625
vt 0.31843858957290649 0.2496337890625
vt 0.33687615394592285 0.26523590087890625
vt 0.31843858957290649 0.26523590087890625
vt 0.33687615394592285 0.2808380126953125
vt 0.31843858957290649 0.2808380126953125
vt 0.33687615394592285 0.29644012451171875
vt 0.31843858957290649 0.29644012451171875
vt 0.33687615394592285 0.312042236328125
vt 0.31843858957290649 0.312042236328125
vt 0.33687615394592285 0.32764434814453125
vt 0.31843858957290649 0.32764434814453125
vt 0.33687615394592285 0.3432464599609375
vt 0.31843858957290649 0.3432464599609375
vt 0.33687615394592285 0.35884857177734375
vt 0.31843858957290649 0.35884857177734375
vt 0.33687615394592285 0.37445068359375
vt 0.31843858957290649 0.37445068359375
vt 0.33687615394592285 0.39005279541015625
vt 0.31843858957290649 0.39005279541015625
vt 0.33687615394592285 0.4056549072265625
vt 0.31843858957290649 0.4056549072265625
vt 0.33687615394592285 0.42125701904296875
vt 0.31843858957290649 0.42125701904296875
vt 0.33687615394592285 0.436859130859375
vt 0.31843858957290649 0.436859130859375
vt 0.33687615394592285 0.45246124267578125
vt 0.31843858957290649 0.45246124267578125
vt 0.33687615394592285 0.4680633544921875
vt 0.31843858957290649 0.4680633544921875
vt 0.33687615394592285 0.48366546630859375
vt 0.31843858957290649 0.48366546630859375
vt 0.33687615394592285 0.499267578125
vt 0.31843858957290649 0.499267578125
vt 0.33687615394592285 0.51486968994140625
vt 0.31843858957290649 0.51486968994140625
vt 0.33687615394592285 0.5304718017578125
vt 0.31843858957290649 0.5304718017578125
vt 0.33687615394592285 0.54607391357421875
vt 0.31843858957290649 0.54607391357421875
vt 0.33687615394592285 0.561676025390625
vt 0.31843858957290649 0.561676025390625
vt 0.33687615394592285 0.57727813720703125
vt 0.31843858957290649 0.57727813720703125
vt 0.33687615394592285 0.5928802490234375
vt 0.31843858957290649 0.5928802490234375
vt 0.33687615394592285 0.60848236083984375
vt 0.31843858957290649 0.60848236083984375
vt 0.33687615394592285 0.62408447265625
vt 0.31843858957290649 0.62408447265625
vt 0.33687615394592285 0.63968658447265625
vt 0.31843858957290649 0.63968658447265625
vt 0.33687615394592285 0.6552886962890625
vt 0.31843858957290649 0.6552886962890625
vt 0.33687615394592285 0.67089080810546875
vt 0.31843858957290649 0.67089080810546875
vt 0.33687615394592285 0.686492919921875
vt 0.31843858957290649 0.686492919921875
vt 0.33687615394592285 0.70209503173828125
vt 0.31843858957290649 0.70209503173828125
vt 0.33687615394592285 0.7176971435546875
vt 0.31843858957290649 0.7176971435546875
vt 0.33687615394592285 0.73329925537109375
vt 0.31843858957290649 0.73329925537109375
vt 0.33687615394592285 0.7489013671875
vt 0.31843858957290649 0.7489013671875
vt 0.33687615394592285 0.76450347900390625
vt 0.31843858957290649 0.76450347900390625
vt 0.33687615394592285 0.7801055908203125
vt 0.31843858957290649 0.7801055908203125
vt 0.33687615394592285 0.79570770263671875
vt 0.31843858957290649 0.79570770263671875
vt 0.33687615394592285 0.811309814453125
vt 0.31843858957290649 0.811309814453125
vt 0.33687615394592285 0.82691192626953125
vt 0.31843858957290649 0.82691192626953125
vt 0.33687615394592285 0.8425140380859375
vt 0.31843858957290649 0.8425140380859375
vt 0.33687615394592285 0.85811614990234375
vt 0.31843858957290649 0.85811614990234375
vt 0.33687615394592285 0.87371826171875
vt 0.31843858957290649 0.87371826171875
vt 0.33687615394592285 0.88932037353515625
vt 0.31843858957290649 0.88932037353515625
vt 0.33687615394592285 0.9049224853515625
vt 0.31843858957290649 0.9049224853515625
vt 0.33687615394592285 0.92052459716796875
vt 0.31843858957290649 0.92052459716796875
vt 0.33687615394592285 0.936126708984375
vt 0.31843858957290649 0.936126708984375
vt 0.33687615394592285 0.95172882080078125
vt 0.31843858957290649 0.95172882080078125
vt 0.33687615394592285 0.9673309326171875
vt 0.31843858957290649 0.9673309326171875
vt 0.33687615394592285 0.98293304443359375
vt 0.31843858957290649 0.98293304443359375
vt 0.33687615394592285 0.99853515625
vt 0.31843858957290649 0.99853515625
vt 0.15848687291145325 0.20000000298023224
vt 0.17272761464118958 0.20064406096935272
vt 0.18732562661170959 0.20265810191631317
vt 0.20209583640098572 0.20614603161811829
vt 0.21682503819465637 0.21117906272411346
vt 0.23127903044223785 0.21778734028339386
vt 0.24521242082118988 0.22595345973968506
vt 0.25838086009025574 0.23560889065265656
vt 0.27055400609970093 0.24663425981998444
vt 0.28152865171432495 0.2588636577129364
vt 0.29113966226577759 0.27209293842315674
vt 0.2992682158946991 0.28609073162078857
vt 0.30584609508514404 0.30061152577400208
vt 0.31085598468780518 0.31540879607200623
vt 0.31432786583900452 0.33024725317955017
vt 0.31633263826370239 0.34491273760795593
vt 0.31697374582290649 0.35921928286552429
vt 0.31633263826370239 0.37352585792541504
vt 0.31432786583900452 0.38819131255149841
vt 0.31085598468780518 0.40302976965904236
vt 0.30584609508514404 0.4178270697593689
vt 0.2992682158946991 0.43234783411026001
vt 0.29113966226577759 0.44634562730789185
vt 0.28152865171432495 0.45957490801811218
vt 0.27055400609970093 0.47180435061454773
vt 0.25838086009025574 0.48282968997955322
vt 0.24521242082118988 0.49248510599136353
vt 0.23127903044223785 0.50065124034881592
vt 0.21682503819465637 0.5072595477104187
vt 0.20209583640098572 0.51229256391525269
vt 0.18732562661170959 0.51578044891357422
vt 0.17272761464118958 0.51779448986053467
vt 0.15848687291145325 0.51843857765197754
vt 0.14424611628055573 0.51779448986053467
vt 0.12964810431003571 0.51578044891357422
vt 0.11487790942192078 0.51229256391525269
vt 0.10014869272708893 0.5072595477104187
vt 0.08569471538066864 0.50065124034881592
vt 0.07176131010055542 0.49248510599136353
vt 0.058592889457941055 0.48282968997955322
vt 0.046419721096754074 0.47180435061454773
vt 0.035445075482130051 0.45957490801811218
vt 0.025834076106548309 0.44634562730789185
vt 0.01770552434027195 0.43234783411026001
vt 0.011127624660730362 0.4178270697593689
vt 0.0061177578754723072 0.40302976965904236
vt 0.0026458851061761379 0.38819131255149841
vt 0.00064109981758520007 0.37352585792541504
vt 0 0.35921928286552429
vt 0.00064109981758520007 0.34491273760795593
vt 0.0026458851061761379 0.33024725317955017
vt 0.0061177578754723072 0.31540879607200623
vt 0.011127624660730362 0.30061152577400208
vt 0.01770552434027195 0.28609073162078857
vt 0.025834076106548309 0.27209293842315674
vt 0.035445075482130051 0.2588636577129364
vt 0.046419721096754074 0.24663425981998444
vt 0.058592889457941055 0.23560889065265656
vt 0.07176131010055542 0.22595345973968506
vt 0.08569471538066864 0.21778734028339386
vt 0.10014869272708893 0.21117906272411346
vt 0.11487790942192078 0.20614603161811829
vt 0.12964810431003571 0.20265810191631317
vt 0.14424611628055573 0.20064406096935272
vt 0.096650823950767517 0.32182902097702026
vt 0.13867601752281189 0.27960965037345886
vt 0.11065923422574997 0.251463383436203
vt 0.068634048104286194 0.29368278384208679
vt 0.1782977283000946 0.37912169098854065
vt 0.1782977283000946 0.33931687474250793
vt 0.13867601752281189 0.33931687474250793
vt 0.13867601752281189 0.37912169098854065
vt 0.33834099769592285 0.15921929478645325
vt 0.33898207545280457 0.14491273462772369
vt 0.34098687767982483 0.13024726510047913
vt 0.34445875883102417 0.11540879309177399
vt 0.34946861863136292 0.10061151534318924
vt 0.35604649782180786 0.086090728640556335
vt 0.36417505145072937 0.072092942893505096
vt 0.37378609180450439 0.058863669633865356
vt 0.38476073741912842 0.046634253114461899
vt 0.39693388342857361 0.035608887672424316
vt 0.41010230779647827 0.025953458622097969
vt 0.4240356981754303 0.01778734102845192
vt 0.43848967552185059 0.011179056949913502
vt 0.45321890711784363 0.0061460305005311966
vt 0.46798911690711975 0.0026581073179841042
vt 0.48258712887763977 0.00064405659213662148
vt 0.4968278706073761 0
vt 0.51106864213943481 0.00064405659213662148
vt 0.52566659450531006 0.0026581073179841042
vt 0.54043680429458618 0.0061460305005311966
vt 0.55516600608825684 0.011179056949913502
vt 0.56962001323699951 0.01778734102845192
vt 0.58355343341827393 0.025953458622097969
vt 0.5967218279838562 0.035608887672424316
vt 0.60889500379562378 0.046634253114461899
vt 0.6198696494102478 0.058863669633865356
vt 0.62948065996170044 0.072092942893505096
vt 0.63760918378829956 0.086090728640556335
vt 0.64418709278106689 0.10061151534318924
vt 0.64919698238372803 0.11540879309177399
vt 0.65266883373260498 0.13024726510047913
vt 0.65467363595962524 0.14491273462772369
vt 0.65531474351882935 0.15921929478645325
vt 0.65467363595962524 0.1735258549451828
vt 0.65266883373260498 0.18819132447242737
vt 0.64919698238372803 0.20302978157997131
vt 0.64418709278106689 0.21782706677913666
vt 0.63760918378829956 0.23234784603118896
vt 0.62948065996170044 0.2463456392288208
vt 0.6198696494102478 0.25957491993904114
vt 0.60889500379562378 0.2718043327331543
vt 0.5967218279838562 0.28282970190048218
vt 0.58355343341827393 0.29248511791229248
vt 0.56962001323699951 0.30065122246742249
vt 0.55516600608825684 0.30725952982902527
vt 0.54043680429458618 0.31229254603385925
vt 0.52566659450531006 0.31578046083450317
vt 0.51106864213943481 0.31779453158378601
vt 0.4968278706073761 0.31843858957290649
vt 0.48258712887763977 0.31779453158378601
vt 0.46798911690711975 0.31578046083450317
vt 0.45321890711784363 0.31229254603385925
vt 0.43848967552185059 0.30725952982902527
vt 0.4240356981754303 0.30065122246742249
vt 0.41010230779647827 0.29248511791229248
vt 0.39693388342857361 0.28282970190048218
vt 0.38476073741912842 0.2718043327331543
vt 0.37378609180450439 0.25957491993904114
vt 0.36417505145072937 0.2463456392288208
vt 0.35604649782180786 0.23234784603118896
vt 0.34946861863136292 0.21782706677913666
vt 0.34445875883102417 0.20302978157997131
vt 0.34098687767982483 0.18819132447242737
vt 0.33898207545280457 0.1735258549451828
vt 0.45960959792137146 0.22134110331535339
vt 0.41758441925048828 0.1791217029094696
vt 0.38956764340400696 0.20726795494556427
vt 0.43159282207489014 0.24948735535144806
vt 0.51663869619369507 0.13931688666343689
vt 0.47701701521873474 0.13931688666343689
vt 0.47701701521873474 0.1791217029094696
vt 0.51663869619369507 0.1791217029094696
vt 0.12737543880939484 0.15000000596046448
vt 0.12737543880939484 0.16990241408348083
vt 0.18708266317844391 0.15000000596046448
vt 0.18708266317844391 0.16990241408348083
vt 0.12737543880939484 0.05000000074505806
vt 0.12737543880939484 0.069902412593364716
vt 0.16718025505542755 0.05000000074505806
vt 0.16718025505542755 0.069902412593364716
vt 0.12737543880939484 0.10000000149011612
vt 0.12737543880939484 0.11990240961313248
vt 0.18708266317844391 0.10000000149011612
vt 0.18708266317844391 0.11990240961313248
vt 0.12737543880939484 0
vt 0.12737543880939484 0.019902411848306656
vt 0.16718025505542755 0
vt 0.16718025505542755 0.019902411848306656
vt 0 0.05000000074505806
vt 0 0.069902412593364716
vt 0.039804823696613312 0.05000000074505806
vt 0.039804823696613312 0.069902412593364716
vt 0 0
vt 0 0.019902411848306656
vt 0.039804823696613312 0
vt 0.039804823696613312 0.019902411848306656
vt 0 0.15000000596046448
vt 0 0.16990241408348083
vt 0.039804823696613312 0.15000000596046448
vt 0.039804823696613312 0.16990241408348083
vt 0 0.10000000149011612
vt 0 0.11990240961313248
vt 0.039804823696613312 0.10000000149011612
vt 0.039804823696613312 0.11990240961313248
vn 1 0 0
vn 1 0 0
vn 0.99595493078231812 -0.089854441583156586 0
vn 0.99595493078231812 -0.089854441583156586 0
vn 0.98330539464950562 -0.18196305632591248 0
vn 0.98330539464950562 -0.18196305632591248 0
vn 0.96139895915985107 -0.27515822649002075 0
vn 0.96139895915985107 -0.27515822649002075 0
vn 0.92978829145431519 -0.36809471249580383 0
vn 0.92978829145431519 -0.36809471249580383 0
vn 0.88828402757644653 -0.45929458737373352 0
vn 0.88828402757644653 -0.45929458737373352 0
vn 0.83699548244476318 -0.54720973968505859 0
vn 0.83699548244476318 -0.54720973968505859 0
vn 0.77635318040847778 -0.63029813766479492 0
vn 0.77635318040847778 -0.63029813766479492 0
vn 0.70710676908493042 -0.70710676908493042 0
vn 0.70710676908493042 -0.70710676908493042 0
vn 0.63029813766479492 -0.77635318040847778 0
vn 0.63029813766479492 -0.77635318040847778 0
vn 0.54720973968505859 -0.83699548244476318 0
vn 0.54720973968505859 -0.83699548244476318 0
vn 0.45929458737373352 -0.88828402757644653 0
vn 0.45929458737373352 -0.88828402757644653 0
vn 0.36809471249580383 -0.92978829145431519 0
vn 0.36809471249580383 -0.92978829145431519 0
vn 0.27515822649002075 -0.96139895915985107 0
vn 0.27515822649002075 -0.96139895915985107 0
vn 0.18196305632591248 -0.98330539464950562 0
vn 0.18196305632591248 -0.98330539464950562 0
vn 0.089854441583156586 -0.99595493078231812 0
vn 0.089854441583156586 -0.99595493078231812 0
vn 0 -1 0
vn 0 -1 0
vn -0.089854441583156586 -0.99595493078231812 0
vn -0.089854441583156586 -0.99595493078231812 0
vn -0.18196305632591248 -0.98330539464950562 0
vn -0.18196305632591248 -0.98330539464950562 0
vn -0.27515822649002075 -0.96139895915985107 0
vn -0.27515822649002075 -0.96139895915985107 0
vn -0.36809471249580383 -0.92978829145431519 0
vn -0.36809471249580383 -0.92978829145431519 0
vn -0.45929458737373352 -0.88828402757644653 0
vn -0.45929458737373352 -0.88828402757644653 0
vn -0.54720973968505859 -0.83699548244476318 0
vn -0.54720973968505859 -0.83699548244476318 0
vn -0.63029813766479492 -0.77635318040847778 0
vn -0.63029813766479492 -0.77635318040847778 0
vn -0.70710676908493042 -0.70710676908493042 0
vn -0.70710676908493042 -0.70710676908493042 0
vn -0.77635318040847778 -0.63029813766479492 0
vn -0.77635318040847778 -0.63029813766479492 0
vn -0.83699548244476318 -0.54720973968505859 0
vn -0.83699548244476318 -0.54720973968505859 0
vn -0.88828402757644653 -0.45929458737373352 0
vn -0.88828402757644653 -0.45929458737373352 0
vn -0.92978829145431519 -0.36809471249580383 0
vn -0.92978829145431519 -0.36809471249580383 0
vn -0.96139895915985107 -0.27515822649002075 0
vn -0.96139895915985107 -0.27515822649002075 0
vn -0.98330539464950562 -0.18196305632591248 0
vn -0.98330539464950562 -0.18196305632591248 0
vn -0.99595493078231812 -0.089854441583156586 0
vn -0.99595493078231812 -0.089854441583156586 0
vn -1 0 0
vn -1 0 0
vn -0.99595493078231812 0.089854441583156586 0
vn -0.99595493078231812 0.089854441583156586 0
vn -0.98330539464950562 0.18196305632591248 0
vn -0.98330539464950562 0.18196305632591248 0
vn -0.96139895915985107 0.27515822649002075 0
vn -0.96139895915985107 0.27515822649002075 0
vn -0.92978829145431519 0.36809471249580383 0
vn -0.92978829145431519 0.36809471249580383 0
vn -0.88828402757644653 0.45929458737373352 0
vn -0.88828402757644653 0.45929458737373352 0
vn -0.83699548244476318 0.54720973968505859 0
vn -0.83699548244476318 0.54720973968505859 0
vn -0.77635318040847778 0.63029813766479492 0
vn -0.77635318040847778 0.63029813766479492 0
vn -0.70710676908493042 0.70710676908493042 0
vn -0.70710676908493042 0.70710676908493042 0
vn -0.63029813766479492 0.77635318040847778 0
vn -0.63029813766479492 0.77635318040847778 0
vn -0.54720973968505859 0.83699548244476318 0
vn -0.54720973968505859 0.83699548244476318 0
vn -0.45929458737373352 0.88828402757644653 0
vn -0.45929458737373352 0.88828402757644653 0
vn -0.36809471249580383 0.92978829145431519 0
vn -0.36809471249580383 0.92978829145431519 0
vn -0.27515822649002075 0.96139895915985107 0
vn -0.27515822649002075 0.96139895915985107 0
vn -0.18196305632591248 0.98330539464950562 0
vn -0.18196305632591248 0.98330539464950562 0
vn -0.089854441583156586 0.99595493078231812 0
vn -0.089854441583156586 0.99595493078231812 0
vn 0 1 0
vn 0 1 0
vn 0.089854441583156586 0.99595493078231812 0
vn 0.089854441583156586 0.99595493078231812 0
vn 0.18196305632591248 0.98330539464950562 0
vn 0.18196305632591248 0.98330539464950562 0
vn 0.27515822649002075 0.96139895915985107 0
vn 0.27515822649002075 0.96139895915985107 0
vn 0.36809471249580383 0.92978829145431519 0
vn 0.36809471249580383 0.92978829145431519 0
vn 0.45929458737373352 0.88828402757644653 0
vn 0.45929458737373352 0.88828402757644653 0
vn 0.54720973968505859 0.83699548244476318 0
vn 0.54720973968505859 0.83699548244476318 0
vn 0.63029813766479492 0.77635318040847778 0
vn 0.63029813766479492 0.77635318040847778 0
vn 0.70710676908493042 0.70710676908493042 0
vn 0.70710676908493042 0.70710676908493042 0
vn 0.77635318040847778 0.63029813766479492 0
vn 0.77635318040847778 0.63029813766479492 0
vn 0.83699548244476318 0.54720973968505859 0
vn 0.83699548244476318 0.54720973968505859 0
vn 0.88828402757644653 0.45929458737373352 0
vn 0.88828402757644653 0.45929458737373352 0
vn 0.92978829145431519 0.36809471249580383 0
vn 0.92978829145431519 0.36809471249580383 0
vn 0.96139895915985107 0.27515822649002075 0
vn 0.96139895915985107 0.27515822649002075 0
vn 0.98330539464950562 0.18196305632591248 0
vn 0.98330539464950562 0.18196305632591248 0
vn 0.99595493078231812 0.089854441583156586 0
vn 0.99595493078231812 0.089854441583156586 0
vn 1 0 0
vn 1 0 0
vn 0 0 1
vn 0 0 1
vn 0 0 1
vn 0 0 1
vn 0 0 1
vn 0 0 1
vn 0 0 1
vn 0 0 1
vn 0 0 1
vn 0 0 1
vn 0 0 1
vn 0 0 1
vn 0 0 1
vn 0 0 1
vn 0 0 1
vn 0 0 1
vn 0 0 1
vn 0 0 1
vn 0 0 1
vn 0 0 1
vn 0 0 1
vn 0 0 1
vn 0 0 1
vn 0 0 1
vn 0 0 1
vn 0 0 1
vn 0 0 1
vn 0 0 1
vn 0 0 1
vn 0 0 1
vn 0 0 1
vn 0 0 1
vn 0 0 1
vn 0 0 1
vn 0 0 1
vn 0 0 1
vn 0 0 1
vn 0 0 1
vn 0 0 1
vn 0 0 1
vn 0 0 1
vn 0 0 1
vn 0 0 1
vn 0 0 1
vn 0 0 1
vn 0 0 1
vn 0 0 1
vn 0 0 1
vn 0 0 1
vn 0 0 1
vn 0 0 1
vn 0 0 1
vn 0 0 1
vn 0 0 1
vn 0 0 1
vn 0 0 1
vn 0 0 1
vn 0 0 1
vn 0 0 1
vn 0 0 1
vn 0 0 1
vn 0 0 1
vn 0 0 1
vn 0 0 1
vn 0 0 1
vn 0 0 1
vn 0 0 1
vn 0 0 1
vn 0 0 1
vn 0 0 1
vn 0 0 1
vn 0 0 1
vn 0 0 -1
vn 0 0 -1
vn 0 0 -1
vn 0 0 -1
vn 0 0 -1
vn 0 0 -1
vn 0 0 -1
vn 0 0 -1
vn 0 0 -1
vn 0 0 -1
vn 0 0 -1
vn 0 0 -1
vn 0 0 -1
vn 0 0 -1
vn 0 0 -1
vn 0 0 -1
vn 0 0 -1
vn 0 0 -1
vn 0 0 -1
vn 0 0 -1
vn 0 0 -1
vn 0 0 -1
vn 0 0 -1
vn 0 0 -1
vn 0 0 -1
vn 0 0 -1
vn 0 0 -1
vn 0 0 -1
vn 0 0 -1
vn 0 0 -1
vn 0 0 -1
vn 0 0 -1
vn 0 0 -1
vn 0 0 -1
vn 0 0 -1
vn 0 0 -1
vn 0 0 -1
vn 0 0 -1
vn 0 0 -1
vn 0 0 -1
vn 0 0 -1
vn 0 0 -1
vn 0 0 -1
vn 0 0 -1
vn 0 0 -1
vn 0 0 -1
vn 0 0 -1
vn 0 0 -1
vn 0 0 -1
vn 0 0 -1
vn 0 0 -1
vn 0 0 -1
vn 0 0 -1
vn 0 0 -1
vn 0 0 -1
vn 0 0 -1
vn 0 0 -1
vn 0 0 -1
vn 0 0 -1
vn 0 0 -1
vn 0 0 -1
vn 0 0 -1
vn 0 0 -1
vn 0 0 -1
vn 0 0 -1
vn 0 0 -1
vn 0 0 -1
vn 0 0 -1
vn 0 0 -1
vn 0 0 -1
vn 0 0 -1
vn 0 0 -1
vn 0.70710676908493042 0.70710676908493042 0
vn 0.70710676908493042 0.70710676908493042 0
vn 0.70710676908493042 0.70710676908493042 0
vn 0.70710676908493042 0.70710676908493042 0
vn -0.70710676908493042 0.70710676908493042 0
vn -0.70710676908493042 0.70710676908493042 0
vn -0.70710676908493042 0.70710676908493042 0
vn -0.70710676908493042 0.70710676908493042 0
vn -0.70710676908493042 -0.70710676908493042 0
vn -0.70710676908493042 -0.70710676908493042 0
vn -0.70710676908493042 -0.70710676908493042 0
vn -0.70710676908493042 -0.70710676908493042 0
vn 0.70710676908493042 -0.70710676908493042 0
vn 0.70710676908493042 -0.70710676908493042 0
vn 0.70710676908493042 -0.70710676908493042 0
vn 0.70710676908493042 -0.70710676908493042 0
vn 0 1 0
vn 0 1 0
vn 0 1 0
vn 0 1 0
vn -1 0 0
vn -1 0 0
vn -1 0 0
vn -1 0 0
vn 0 -1 0
vn 0 -1 0
vn 0 -1 0
vn 0 -1 0
vn 1 0 0
vn 1 0 0
vn 1 0 0
vn 1 0 0
f 343/343/343 344/344/344 342/342/342 341/341/341
f 347/347/347 348/348/348 346/346/346 345/345/345
f 345/345/345 346/346/346 344/344/344 343/343/343
f 351/351/351 352/352/352 350/350/350 349/349/349
f 355/355/355 356/356/356 354/354/354 353/353/353
f 353/353/353 354/354/354 352/352/352 351/351/351
f 349/349/349 350/350/350 348/348/348 347/347/347
f 359/359/359 360/360/360 358/358/358 357/357/357
f 363/363/363 364/364/364 362/362/362 361/361/361
f 361/361/361 362/362/362 360/360/360 359/359/359
f 367/367/367 368/368/368 366/366/366 365/365/365
f 371/371/371 372/372/372 370/370/370 369/369/369
f 369/369/369 370/370/370 368/368/368 367/367/367
f 365/365/365 366/366/366 364/364/364 363/363/363
f 357/357/357 358/358/358 356/356/356 355/355/355
f 375/375/375 376/376/376 374/374/374 373/373/373
f 379/379/379 380/380/380 378/378/378 377/377/377
f 377/377/377 378/378/378 376/376/376 375/375/375
f 383/383/383 384/384/384 382/382/382 381/381/381
f 387/387/387 388/388/388 386/386/386 385/385/385
f 385/385/385 386/386/386 384/384/384 383/383/383
f 381/381/381 382/382/382 380/380/380 379/379/379
f 391/391/391 392/392/392 390/390/390 389/389/389
f 395/395/395 396/396/396 394/394/394 393/393/393
f 393/393/393 394/394/394 392/392/392 391/391/391
f 399/399/399 400/400/400 398/398/398 397/397/397
f 403/403/403 404/404/404 402/402/402 401/401/401
f 401/401/401 402/402/402 400/400/400 399/399/399
f 397/397/397 398/398/398 396/396/396 395/395/395
f 389/389/389 390/390/390 388/388/388 387/387/387
f 373/373/373 374/374/374 372/372/372 371/371/371
f 405/405/405 406/406/406 404/404/404 403/403/403
f 409/409/409 410/410/410 408/408/408 407/407/407
f 413/413/413 414/414/414 412/412/412 411/411/411
f 411/411/411 412/412/412 410/410/410 409/409/409
f 417/417/417 418/418/418 416/416/416 415/415/415
f 421/421/421 422/422/422 420/420/420 419/419/419
f 419/419/419 420/420/420 418/418/418 417/417/417
f 415/415/415 416/416/416 414/414/414 413/413/413
f 425/425/425 426/426/426 424/424/424 423/423/423
f 429/429/429 430/430/430 428/428/428 427/427/427
f 427/427/427 428/428/428 426/426/426 425/425/425
f 433/433/433 434/434/434 432/432/432 431/431/431
f 437/437/437 438/438/438 436/436/436 435/435/435
f 435/435/435 436/436/436 434/434/434 433/433/433
f 431/431/431 432/432/432 430/430/430 429/429/429
f 423/423/423 424/424/424 422/422/422 421/421/421
f 441/441/441 442/442/442 440/440/440 439/439/439
f 445/445/445 446/446/446 444/444/444 443/443/443
f 443/443/443 444/444/444 442/442/442 441/441/441
f 449/449/449 450/450/450 448/448/448 447/447/447
f 453/453/453 454/454/454 452/452/452 451/451/451
f 451/451/451 452/452/452 450/450/450 449/449/449
f 447/447/447 448/448/448 446/446/446 445/445/445
f 457/457/457 458/458/458 456/456/456 455/455/455
f 461/461/461 462/462/462 460/460/460 459/459/459
f 459/459/459 460/460/460 458/458/458 457/457/457
f 465/465/465 466/466/466 464/464/464 463/463/463
f 469/469/469 470/470/470 468/468/468 467/467/467
f 467/467/467 468/468/468 466/466/466 465/465/465
f 463/463/463 464/464/464 462/462/462 461/461/461
f 455/455/455 456/456/456 454/454/454 453/453/453
f 439/439/439 440/440/440 438/438/438 437/437/437
f 407/407/407 408/408/408 406/406/406 405/405/405
f 476/476/476 475/475/475 536/536/536
f 474/474/474 536/536/536 475/475/475
f 477/477/477 476/476/476 540/540/540
f 471/471/471 534/534/534 536/536/536
f 474/474/474 473/473/473 536/536/536
f 472/472/472 536/536/536 473/473/473
f 472/472/472 471/471/471 536/536/536
f 540/540/540 478/478/478 477/477/477
f 483/483/483 482/482/482 540/540/540
f 540/540/540 484/484/484 483/483/483
f 484/484/484 540/540/540 485/485/485
f 540/540/540 480/480/480 479/479/479
f 540/540/540 476/476/476 536/536/536
f 482/482/482 481/481/481 540/540/540
f 541/541/541 540/540/540 536/536/536
f 481/481/481 480/480/480 540/540/540
f 479/479/479 478/478/478 540/540/540
f 540/540/540 486/486/486 485/485/485
f 537/537/537 536/536/536 534/534/534
f 537/537/537 533/533/533 532/532/532
f 530/530/530 537/537/537 531/531/531
f 532/532/532 531/531/531 537/537/537
f 533/533/533 537/537/537 534/534/534
f 529/529/529 537/537/537 530/530/530
f 527/527/527 538/538/538 528/528/528
f 528/528/528 537/537/537 529/529/529
f 527/527/527 526/526/526 538/538/538
f 537/537/537 528/528/528 538/538/538
f 538/538/538 525/525/525 524/524/524
f 526/526/526 525/525/525 538/538/538
f 519/519/519 535/535/535 520/520/520
f 535/535/535 538/538/538 521/521/521
f 523/523/523 538/538/538 524/524/524
f 538/538/538 523/523/523 522/522/522
f 522/522/522 521/521/521 538/538/538
f 521/521/521 520/520/520 535/535/535
f 541/541/541 535/535/535 542/542/542
f 536/536/536 535/535/535 541/541/541
f 539/539/539 487/487/487 540/540/540
f 539/539/539 488/488/488 487/487/487
f 488/488/488 539/539/539 489/489/489
f 491/491/491 490/490/490 539/539/539
f 489/489/489 539/539/539 490/490/490
f 539/539/539 493/493/493 492/492/492
f 491/491/491 539/539/539 492/492/492
f 494/494/494 493/493/493 539/539/539
f 495/495/495 539/539/539 496/496/496
f 496/496/496 539/539/539 497/497/497
f 497/497/497 539/539/539 498/498/498
f 500/500/500 499/499/499 539/539/539
f 539/539/539 502/502/502 501/501/501
f 539/539/539 501/501/501 500/500/500
f 499/499/499 498/498/498 539/539/539
f 494/494/494 539/539/539 495/495/495
f 503/503/503 502/502/502 539/539/539
f 515/515/515 514/514/514 542/542/542
f 513/513/513 542/542/542 514/514/514
f 542/542/542 513/513/513 512/512/512
f 512/512/512 511/511/511 542/542/542
f 519/519/519 518/518/518 535/535/535
f 517/517/517 535/535/535 518/518/518
f 535/535/535 517/517/517 516/516/516
f 516/516/516 515/515/515 542/542/542
f 542/542/542 535/535/535 516/516/516
f 505/505/505 542/542/542 506/506/506
f 542/542/542 505/505/505 504/504/504
f 507/507/507 506/506/506 542/542/542
f 511/511/511 510/510/510 542/542/542
f 510/510/510 509/509/509 542/542/542
f 542/542/542 509/509/509 508/508/508
f 507/507/507 542/542/542 508/508/508
f 542/542/542 504/504/504 503/503/503
f 503/503/503 539/539/539 542/542/542
f 540/540/540 487/487/487 486/486/486
f 547/547/547 548/548/548 608/608/608
f 608/608/608 546/546/546 547/547/547
f 549/549/549 612/612/612 548/548/548
f 606/606/606 543/543/543 608/608/608
f 545/545/545 546/546/546 608/608/608
f 608/608/608 544/544/544 545/545/545
f 543/543/543 544/544/544 608/608/608
f 612/612/612 549/549/549 550/550/550
f 555/555/555 612/612/612 554/554/554
f 612/612/612 555/555/555 556/556/556
f 556/556/556 557/557/557 612/612/612
f 612/612/612 551/551/551 552/552/552
f 612/612/612 608/608/608 548/548/548
f 554/554/554 612/612/612 553/553/553
f 613/613/613 614/614/614 607/607/607
f 553/553/553 612/612/612 552/552/552
f 551/551/551 612/612/612 550/550/550
f 612/612/612 557/557/557 558/558/558
f 612/612/612 613/613/613 608/608/608
f 609/609/609 604/604/604 605/605/605
f 602/602/602 603/603/603 609/609/609
f 604/604/604 609/609/609 603/603/603
f 605/605/605 606/606/606 609/609/609
f 601/601/601 602/602/602 609/609/609
f 599/599/599 600/600/600 610/610/610
f 600/600/600 601/601/601 609/609/609
f 599/599/599 610/610/610 598/598/598
f 609/609/609 610/610/610 600/600/600
f 597/597/597 598/598/598 610/610/610
f 596/596/596 597/597/597 610/610/610
f 607/607/607 608/608/608 613/613/613
f 607/607/607 593/593/593 610/610/610
f 595/595/595 596/596/596 610/610/610
f 610/610/610 594/594/594 595/595/595
f 594/594/594 610/610/610 593/593/593
f 593/593/593 607/607/607 592/592/592
f 591/591/591 592/592/592 607/607/607
f 609/609/609 606/606/606 608/608/608
f 611/611/611 612/612/612 559/559/559
f 611/611/611 559/559/559 560/560/560
f 560/560/560 561/561/561 611/611/611
f 563/563/563 611/611/611 562/562/562
f 561/561/561 562/562/562 611/611/611
f 611/611/611 564/564/564 565/565/565
f 563/563/563 564/564/564 611/611/611
f 566/566/566 611/611/611 565/565/565
f 567/567/567 568/568/568 611/611/611
f 568/568/568 569/569/569 611/611/611
f 569/569/569 570/570/570 611/611/611
f 572/572/572 611/611/611 571/571/571
f 611/611/611 573/573/573 574/574/574
f 611/611/611 572/572/572 573/573/573
f 571/571/571 611/611/611 570/570/570
f 566/566/566 567/567/567 611/611/611
f 575/575/575 611/611/611 574/574/574
f 587/587/587 614/614/614 586/586/586
f 585/585/585 586/586/586 614/614/614
f 614/614/614 584/584/584 585/585/585
f 584/584/584 614/614/614 583/583/583
f 591/591/591 607/607/607 590/590/590
f 589/589/589 590/590/590 607/607/607
f 607/607/607 588/588/588 589/589/589
f 588/588/588 614/614/614 587/587/587
f 614/614/614 588/588/588 607/607/607
f 577/577/577 578/578/578 614/614/614
f 614/614/614 576/576/576 577/577/577
f 579/579/579 614/614/614 578/578/578
f 583/583/583 614/614/614 582/582/582
f 582/582/582 614/614/614 581/581/581
f 614/614/614 580/580/580 581/581/581
f 579/579/579 580/580/580 614/614/614
f 614/614/614 575/575/575 576/576/576
f 575/575/575 614/614/614 611/611/611
f 612/612/612 558/558/558 559/559/559
f 616/616/616 618/618/618 617/617/617 615/615/615
f 620/620/620 622/622/622 621/621/621 619/619/619
f 624/624/624 626/626/626 625/625/625 623/623/623
f 628/628/628 630/630/630 629/629/629 627/627/627
f 632/632/632 634/634/634 633/633/633 631/631/631
f 636/636/636 638/638/638 637/637/637 635/635/635
f 640/640/640 642/642/642 641/641/641 639/639/639
f 644/644/644 646/646/646 645/645/645 643/643/643
