# Rhino

mtllib Play_0.mtl
usemtl Default
v -30 57 -2
v -30 3 1
v -30 3 -2
v -30 3 -0.5
v -30 57 1
v 27 0 -2
v -27 0 -2
v 27 0 1
v -27 0 1
v -27 0 -0.5
v 27 0 -0.5
v 30 3 -2
v 30 57 1
v 30 57 -2
v 30 57 -0.5
v 30 3 1
v 30 3 -0.5
v 27 60 -2
v 27 60 1
v -27 60 1
v -27 60 -2
v 27 60 -0.5
v -27 60 -2
v -30 57 1
v -27.545888900756836 59.949916839599609 -2
v -28.104284286499023 59.789363861083984 -2
v -28.641630172729492 59.510986328125 -2
v -29.121320724487305 59.121318817138672 -2
v -29.510986328125 58.641628265380859 -2
v -29.789365768432617 58.104282379150391 -2
v -29.949916839599609 57.545890808105469 -2
v -29.949916839599609 57.545890808105469 1
v -29.789365768432617 58.104282379150391 1
v -29.510986328125 58.641628265380859 1
v -29.121320724487305 59.121318817138672 1
v -28.641630172729492 59.510986328125 1
v -28.104284286499023 59.789363861083984 1
v -27.545888900756836 59.949916839599609 1
v -30 57 -2
v -27 60 1
v -29.949916839599609 57.545890808105469 -0.5
v -29.510986328125 58.641628265380859 -0.5
v -29.121320724487305 59.121318817138672 -0.5
v -28.641630172729492 59.510986328125 -0.5
v -28.104284286499023 59.789363861083984 -0.5
v -27.545888900756836 59.949916839599609 -0.5
v -30 3 1
v -30 3 -0.5
v -27 0 -0.5
v -27 0 -2
v -30 3 -2
v -29.949916839599609 2.454110860824585 -2
v -29.789365768432617 1.8957158327102661 -2
v -29.510986328125 1.3583707809448242 -2
v -29.121320724487305 0.87867963314056396 -2
v -28.641630172729492 0.48901346325874329 -2
v -28.104284286499023 0.21063509583473206 -2
v -27.545888900756836 0.050083894282579422 -2
v -27 0 1
v -27.545888900756836 0.050083894282579422 1
v -28.104284286499023 0.21063509583473206 1
v -28.641630172729492 0.48901346325874329 1
v -29.121320724487305 0.87867963314056396 1
v -29.510986328125 1.3583707809448242 1
v -29.789365768432617 1.8957158327102661 1
v -29.949916839599609 2.454110860824585 1
v -29.789365768432617 1.8957158327102661 -0.5
v -29.510986328125 1.3583707809448242 -0.5
v -29.121320724487305 0.87867963314056396 -0.5
v -28.641630172729492 0.48901346325874329 -0.5
v -28.104284286499023 0.21063509583473206 -0.5
v -27.545888900756836 0.050083894282579422 -0.5
v 27 0 1
v 27 0 -0.5
v 30 3 -0.5
v 30 3 -2
v 27 0 -2
v 27.545888900756836 0.050083894282579422 -2
v 28.104284286499023 0.21063509583473206 -2
v 28.641630172729492 0.48901346325874329 -2
v 29.121320724487305 0.87867963314056396 -2
v 29.510986328125 1.3583707809448242 -2
v 29.789365768432617 1.8957158327102661 -2
v 29.949916839599609 2.454110860824585 -2
v 30 3 1
v 29.949916839599609 2.454110860824585 1
v 29.789365768432617 1.8957158327102661 1
v 29.510986328125 1.3583707809448242 1
v 29.121320724487305 0.87867963314056396 1
v 28.641630172729492 0.48901346325874329 1
v 28.104284286499023 0.21063509583473206 1
v 27.545888900756836 0.050083894282579422 1
v 28.104284286499023 0.21063509583473206 -0.5
v 28.641630172729492 0.48901346325874329 -0.5
v 29.121320724487305 0.87867963314056396 -0.5
v 29.510986328125 1.3583707809448242 -0.5
v 29.789365768432617 1.8957158327102661 -0.5
v 29.949916839599609 2.454110860824585 -0.5
v 30 57 1
v 30 57 -0.5
v 27 60 -0.5
v 27 60 -2
v 30 57 -2
v 29.949916839599609 57.545890808105469 -2
v 29.789365768432617 58.104282379150391 -2
v 29.510986328125 58.641628265380859 -2
v 29.121320724487305 59.121318817138672 -2
v 28.641630172729492 59.510986328125 -2
v 28.104284286499023 59.789363861083984 -2
v 27.545888900756836 59.949916839599609 -2
v 27 60 1
v 27.545888900756836 59.949916839599609 1
v 28.104284286499023 59.789363861083984 1
v 28.641630172729492 59.510986328125 1
v 29.121320724487305 59.121318817138672 1
v 29.510986328125 58.641628265380859 1
v 29.789365768432617 58.104282379150391 1
v 29.949916839599609 57.545890808105469 1
v 29.789365768432617 58.104282379150391 -0.5
v 29.510986328125 58.641628265380859 -0.5
v 29.121320724487305 59.121318817138672 -0.5
v 28.641630172729492 59.510986328125 -0.5
v 28.104284286499023 59.789363861083984 -0.5
v 27.545888900756836 59.949916839599609 -0.5
v -30 3 -2
v -30 57 -2
v 27 0 -2
v -27 0 -2
v 30 57 -2
v 30 3 -2
v -27 60 -2
v 27 60 -2
v -29.949916839599609 57.545890808105469 -2
v -29.789365768432617 58.104282379150391 -2
v -29.510986328125 58.641628265380859 -2
v -29.121320724487305 59.121318817138672 -2
v -28.641630172729492 59.510986328125 -2
v -28.104284286499023 59.789363861083984 -2
v -27.545888900756836 59.949916839599609 -2
v -27.545888900756836 0.050083894282579422 -2
v -28.104284286499023 0.21063509583473206 -2
v -28.641630172729492 0.48901346325874329 -2
v -29.121320724487305 0.87867963314056396 -2
v -29.510986328125 1.3583707809448242 -2
v -29.789365768432617 1.8957158327102661 -2
v -29.949916839599609 2.454110860824585 -2
v 29.949916839599609 2.454110860824585 -2
v 29.789365768432617 1.8957158327102661 -2
v 29.510986328125 1.3583707809448242 -2
v 29.121320724487305 0.87867963314056396 -2
v 28.641630172729492 0.48901346325874329 -2
v 28.104284286499023 0.21063509583473206 -2
v 27.545888900756836 0.050083894282579422 -2
v 27.545888900756836 59.949916839599609 -2
v 28.104284286499023 59.789363861083984 -2
v 28.641630172729492 59.510986328125 -2
v 29.121320724487305 59.121318817138672 -2
v 29.510986328125 58.641628265380859 -2
v 29.789365768432617 58.104282379150391 -2
v 29.949916839599609 57.545890808105469 -2
v -30 57 1
v -30 3 1
v -27 0 1
v 27 0 1
v 30 3 1
v 30 57 1
v 27 60 1
v -27 60 1
v -27.545888900756836 59.949916839599609 1
v -28.104284286499023 59.789363861083984 1
v -28.641630172729492 59.510986328125 1
v -29.121320724487305 59.121318817138672 1
v -29.510986328125 58.641628265380859 1
v -29.789365768432617 58.104282379150391 1
v -29.949916839599609 57.545890808105469 1
v -29.949916839599609 2.454110860824585 1
v -29.789365768432617 1.8957158327102661 1
v -29.510986328125 1.3583707809448242 1
v -29.121320724487305 0.87867963314056396 1
v -28.641630172729492 0.48901346325874329 1
v -28.104284286499023 0.21063509583473206 1
v -27.545888900756836 0.050083894282579422 1
v 27.545888900756836 0.050083894282579422 1
v 28.104284286499023 0.21063509583473206 1
v 28.641630172729492 0.48901346325874329 1
v 29.121320724487305 0.87867963314056396 1
v 29.510986328125 1.3583707809448242 1
v 29.789365768432617 1.8957158327102661 1
v 29.949916839599609 2.454110860824585 1
v 29.949916839599609 57.545890808105469 1
v 29.789365768432617 58.104282379150391 1
v 29.510986328125 58.641628265380859 1
v 29.121320724487305 59.121318817138672 1
v 28.641630172729492 59.510986328125 1
v 28.104284286499023 59.789363861083984 1
v 27.545888900756836 59.949916839599609 1
vt 0.49586775898933411 0.12396693974733353
vt 0.94214874505996704 0.14729548990726471
vt 0.94214874505996704 0.12396693974733353
vt 0.94214874505996704 0.13563121855258942
vt 0.49586775898933411 0.14729548990726471
vt 0.94214874505996704 0.04958677664399147
vt 0.49586775898933411 0.04958677664399147
vt 0.94214874505996704 0.072915323078632355
vt 0.49586775898933411 0.072915323078632355
vt 0.49586775898933411 0.061251047998666763
vt 0.94214874505996704 0.061251047998666763
vt 0.49586775898933411 0.099173553287982941
vt 0.94214874505996704 0.12250209599733353
vt 0.94214874505996704 0.099173553287982941
vt 0.94214874505996704 0.11083782464265823
vt 0.49586775898933411 0.12250209599733353
vt 0.49586775898933411 0.11083782464265823
vt 0.49586775898933411 0.074380166828632355
vt 0.49586775898933411 0.097708709537982941
vt 0.94214874505996704 0.097708709537982941
vt 0.94214874505996704 0.074380166828632355
vt 0.49586775898933411 0.086044438183307648
vt 0.49586775898933411 0
vt 0.53470134735107422 0.023328544571995735
vt 0.50072199106216431 0
vt 0.50557619333267212 0
vt 0.51043039560317993 0
vt 0.51528453826904297 0
vt 0.52013874053955078 0
vt 0.52499294281005859 0
vt 0.52984714508056641 0
vt 0.52984714508056641 0.023328544571995735
vt 0.52499294281005859 0.023328544571995735
vt 0.52013874053955078 0.023328544571995735
vt 0.51528453826904297 0.023328544571995735
vt 0.51043039560317993 0.023328544571995735
vt 0.50557619333267212 0.023328544571995735
vt 0.50072199106216431 0.023328544571995735
vt 0.53470134735107422 0
vt 0.49586775898933411 0.023328544571995735
vt 0.52984714508056641 0.011664272285997868
vt 0.52013874053955078 0.011664272285997868
vt 0.51528453826904297 0.011664272285997868
vt 0.51043039560317993 0.011664272285997868
vt 0.50557619333267212 0.011664272285997868
vt 0.50072199106216431 0.011664272285997868
vt 0.53470134735107422 0.024793388321995735
vt 0.53470134735107422 0.036457661539316177
vt 0.49586775898933411 0.036457661539316177
vt 0.49586775898933411 0.04812193289399147
vt 0.53470134735107422 0.04812193289399147
vt 0.52984714508056641 0.04812193289399147
vt 0.52499294281005859 0.04812193289399147
vt 0.52013874053955078 0.04812193289399147
vt 0.51528453826904297 0.04812193289399147
vt 0.51043039560317993 0.04812193289399147
vt 0.50557619333267212 0.04812193289399147
vt 0.50072199106216431 0.04812193289399147
vt 0.49586775898933411 0.024793388321995735
vt 0.50072199106216431 0.024793388321995735
vt 0.50557619333267212 0.024793388321995735
vt 0.51043039560317993 0.024793388321995735
vt 0.51528453826904297 0.024793388321995735
vt 0.52013874053955078 0.024793388321995735
vt 0.52499294281005859 0.024793388321995735
vt 0.52984714508056641 0.024793388321995735
vt 0.52499294281005859 0.036457661539316177
vt 0.52013874053955078 0.036457661539316177
vt 0.51528453826904297 0.036457661539316177
vt 0.51043039560317993 0.036457661539316177
vt 0.50557619333267212 0.036457661539316177
vt 0.50072199106216431 0.036457661539316177
vt 0.78676748275756836 0.024793388321995735
vt 0.78676748275756836 0.036457661539316177
vt 0.74793386459350586 0.036457661539316177
vt 0.74793386459350586 0.04812193289399147
vt 0.78676748275756836 0.04812193289399147
vt 0.78191328048706055 0.04812193289399147
vt 0.77705907821655273 0.04812193289399147
vt 0.77220487594604492 0.04812193289399147
vt 0.76735067367553711 0.04812193289399147
vt 0.7624964714050293 0.04812193289399147
vt 0.75764226913452148 0.04812193289399147
vt 0.75278806686401367 0.04812193289399147
vt 0.74793386459350586 0.024793388321995735
vt 0.75278806686401367 0.024793388321995735
vt 0.75764226913452148 0.024793388321995735
vt 0.7624964714050293 0.024793388321995735
vt 0.76735067367553711 0.024793388321995735
vt 0.77220487594604492 0.024793388321995735
vt 0.77705907821655273 0.024793388321995735
vt 0.78191328048706055 0.024793388321995735
vt 0.77705907821655273 0.036457661539316177
vt 0.77220487594604492 0.036457661539316177
vt 0.76735067367553711 0.036457661539316177
vt 0.7624964714050293 0.036457661539316177
vt 0.75764226913452148 0.036457661539316177
vt 0.75278806686401367 0.036457661539316177
vt 0.78676748275756836 0
vt 0.78676748275756836 0.011664272285997868
vt 0.74793386459350586 0.011664272285997868
vt 0.74793386459350586 0.023328544571995735
vt 0.78676748275756836 0.023328544571995735
vt 0.78191328048706055 0.023328544571995735
vt 0.77705907821655273 0.023328544571995735
vt 0.77220487594604492 0.023328544571995735
vt 0.76735067367553711 0.023328544571995735
vt 0.7624964714050293 0.023328544571995735
vt 0.75764226913452148 0.023328544571995735
vt 0.75278806686401367 0.023328544571995735
vt 0.74793386459350586 0
vt 0.75278806686401367 0
vt 0.75764226913452148 0
vt 0.7624964714050293 0
vt 0.76735067367553711 0
vt 0.77220487594604492 0
vt 0.77705907821655273 0
vt 0.78191328048706055 0
vt 0.77705907821655273 0.011664272285997868
vt 0.77220487594604492 0.011664272285997868
vt 0.76735067367553711 0.011664272285997868
vt 0.7624964714050293 0.011664272285997868
vt 0.75764226913452148 0.011664272285997868
vt 0.75278806686401367 0.011664272285997868
vt 0.99441492557525635 0.17348048090934753
vt 0.99441492557525635 0.61844313144683838
vt 0.52470934391021729 0.14876033365726471
vt 0.96969360113143921 0.14876033365726471
vt 0.49998798966407776 0.61844313144683838
vt 0.49998798966407776 0.17348048090934753
vt 0.96969360113143921 0.64316326379776001
vt 0.52470934391021729 0.64316326379776001
vt 0.99400222301483154 0.62294125556945801
vt 0.99267923831939697 0.62754243612289429
vt 0.99038523435592651 0.63197022676467896
vt 0.98717421293258667 0.63592290878295898
vt 0.98322135210037231 0.6391337513923645
vt 0.97879338264465332 0.64142763614654541
vt 0.97419196367263794 0.64275056123733521
vt 0.97419196367263794 0.14917302131652832
vt 0.97879338264465332 0.1504959762096405
vt 0.98322135210037231 0.15278983116149902
vt 0.98717421293258667 0.15600068867206573
vt 0.99038523435592651 0.15995337069034576
vt 0.99267923831939697 0.16438111662864685
vt 0.99400222301483154 0.16898232698440552
vt 0.50040072202682495 0.16898232698440552
vt 0.50172370672225952 0.16438111662864685
vt 0.50401771068572998 0.15995337069034576
vt 0.50722873210906982 0.15600068867206573
vt 0.51118159294128418 0.15278983116149902
vt 0.51560956239700317 0.1504959762096405
vt 0.52021098136901855 0.14917302131652832
vt 0.52021098136901855 0.64275056123733521
vt 0.51560956239700317 0.64142763614654541
vt 0.51118159294128418 0.6391337513923645
vt 0.50722873210906982 0.63592290878295898
vt 0.50401771068572998 0.63197022676467896
vt 0.50172370672225952 0.62754243612289429
vt 0.50040072202682495 0.62294125556945801
vt 0.024720152840018272 0.0041322312317788601
vt 0.46968278288841248 0.0041322312317788601
vt 0.49440291523933411 0.028925620019435883
vt 0.49440291523933411 0.47520661354064941
vt 0.46968278288841248 0.5
vt 0.024720152840018272 0.5
vt 0 0.47520661354064941
vt 0 0.028925620019435883
vt 0.00041267983033321798 0.024414138868451118
vt 0.0017356481403112411 0.019799303263425827
vt 0.0040294923819601536 0.015358435921370983
vt 0.0072403736412525177 0.011394047178328037
vt 0.011193041689693928 0.0081736650317907333
vt 0.015620803460478783 0.0058730174787342548
vt 0.02022198960185051 0.0045461477711796761
vt 0.47418093681335449 0.0045461477711796761
vt 0.47878214716911316 0.0058730174787342548
vt 0.48320987820625305 0.0081736650317907333
vt 0.48716256022453308 0.011394047178328037
vt 0.49037343263626099 0.015358435921370983
vt 0.49266728758811951 0.019799303263425827
vt 0.49399024248123169 0.024414138868451118
vt 0.49399024248123169 0.47971808910369873
vt 0.49266728758811951 0.48433291912078857
vt 0.49037343263626099 0.48877382278442383
vt 0.48716256022453308 0.49273818731307983
vt 0.48320987820625305 0.49595856666564941
vt 0.47878214716911316 0.49825921654701233
vt 0.47418093681335449 0.4995860755443573
vt 0.02022198960185051 0.4995860755443573
vt 0.015620803460478783 0.49825921654701233
vt 0.011193041689693928 0.49595856666564941
vt 0.0072403736412525177 0.49273818731307983
vt 0.0040294923819601536 0.48877382278442383
vt 0.0017356481403112411 0.48433291912078857
vt 0.00041267983033321798 0.47971808910369873
vn -1 0 0
vn -1 0 0
vn -1 0 0
vn -1 0 0
vn -1 0 0
vn 0 -1 0
vn 0 -1 0
vn 0 -1 0
vn 0 -1 0
vn 0 -1 0
vn 0 -1 0
vn 1 0 0
vn 1 0 0
vn 1 0 0
vn 1 0 0
vn 1 0 0
vn 1 0 0
vn 0 1 0
vn 0 1 0
vn 0 1 0
vn 0 1 0
vn 0 1 0
vn 0 1 0
vn -1 0 0
vn -0.18196305632591248 0.98330539464950562 0
vn -0.36809471249580383 0.92978829145431519 0
vn -0.54720973968505859 0.83699548244476318 0
vn -0.70710676908493042 0.70710676908493042 0
vn -0.83699548244476318 0.54720973968505859 0
vn -0.92978829145431519 0.36809471249580383 0
vn -0.98330539464950562 0.18196305632591248 0
vn -0.98330539464950562 0.18196305632591248 0
vn -0.92978829145431519 0.36809471249580383 0
vn -0.83699548244476318 0.54720973968505859 0
vn -0.70710676908493042 0.70710676908493042 0
vn -0.54720973968505859 0.83699548244476318 0
vn -0.36809471249580383 0.92978829145431519 0
vn -0.18196305632591248 0.98330539464950562 0
vn -1 0 0
vn 0 1 0
vn -0.98330539464950562 0.18196305632591248 0
vn -0.83699548244476318 0.54720973968505859 0
vn -0.70710676908493042 0.70710676908493042 0
vn -0.54720973968505859 0.83699548244476318 0
vn -0.36809471249580383 0.92978829145431519 0
vn -0.18196305632591248 0.98330539464950562 0
vn -1 0 0
vn -1 0 0
vn 0 -1 0
vn 0 -1 0
vn -1 0 0
vn -0.98330539464950562 -0.18196305632591248 0
vn -0.92978829145431519 -0.36809471249580383 0
vn -0.83699548244476318 -0.54720973968505859 0
vn -0.70710676908493042 -0.70710676908493042 0
vn -0.54720973968505859 -0.83699548244476318 0
vn -0.36809471249580383 -0.92978829145431519 0
vn -0.18196305632591248 -0.98330539464950562 0
vn 0 -1 0
vn -0.18196305632591248 -0.98330539464950562 0
vn -0.36809471249580383 -0.92978829145431519 0
vn -0.54720973968505859 -0.83699548244476318 0
vn -0.70710676908493042 -0.70710676908493042 0
vn -0.83699548244476318 -0.54720973968505859 0
vn -0.92978829145431519 -0.36809471249580383 0
vn -0.98330539464950562 -0.18196305632591248 0
vn -0.92978829145431519 -0.36809471249580383 0
vn -0.83699548244476318 -0.54720973968505859 0
vn -0.70710676908493042 -0.70710676908493042 0
vn -0.54720973968505859 -0.83699548244476318 0
vn -0.36809471249580383 -0.92978829145431519 0
vn -0.18196305632591248 -0.98330539464950562 0
vn 0 -1 0
vn 0 -1 0
vn 1 0 0
vn 1 0 0
vn 0 -1 0
vn 0.18196305632591248 -0.98330539464950562 0
vn 0.36809471249580383 -0.92978829145431519 0
vn 0.54720973968505859 -0.83699548244476318 0
vn 0.70710676908493042 -0.70710676908493042 0
vn 0.83699548244476318 -0.54720973968505859 0
vn 0.92978829145431519 -0.36809471249580383 0
vn 0.98330539464950562 -0.18196305632591248 0
vn 1 0 0
vn 0.98330539464950562 -0.18196305632591248 0
vn 0.92978829145431519 -0.36809471249580383 0
vn 0.83699548244476318 -0.54720973968505859 0
vn 0.70710676908493042 -0.70710676908493042 0
vn 0.54720973968505859 -0.83699548244476318 0
vn 0.36809471249580383 -0.92978829145431519 0
vn 0.18196305632591248 -0.98330539464950562 0
vn 0.36809471249580383 -0.92978829145431519 0
vn 0.54720973968505859 -0.83699548244476318 0
vn 0.70710676908493042 -0.70710676908493042 0
vn 0.83699548244476318 -0.54720973968505859 0
vn 0.92978829145431519 -0.36809471249580383 0
vn 0.98330539464950562 -0.18196305632591248 0
vn 1 0 0
vn 1 0 0
vn 0 1 0
vn 0 1 0
vn 1 0 0
vn 0.98330539464950562 0.18196305632591248 0
vn 0.92978829145431519 0.36809471249580383 0
vn 0.83699548244476318 0.54720973968505859 0
vn 0.70710676908493042 0.70710676908493042 0
vn 0.54720973968505859 0.83699548244476318 0
vn 0.36809471249580383 0.92978829145431519 0
vn 0.18196305632591248 0.98330539464950562 0
vn 0 1 0
vn 0.18196305632591248 0.98330539464950562 0
vn 0.36809471249580383 0.92978829145431519 0
vn 0.54720973968505859 0.83699548244476318 0
vn 0.70710676908493042 0.70710676908493042 0
vn 0.83699548244476318 0.54720973968505859 0
vn 0.92978829145431519 0.36809471249580383 0
vn 0.98330539464950562 0.18196305632591248 0
vn 0.92978829145431519 0.36809471249580383 0
vn 0.83699548244476318 0.54720973968505859 0
vn 0.70710676908493042 0.70710676908493042 0
vn 0.54720973968505859 0.83699548244476318 0
vn 0.36809471249580383 0.92978829145431519 0
vn 0.18196305632591248 0.98330539464950562 0
vn 0 0 -1
vn 0 0 -1
vn 0 0 -1
vn 0 0 -1
vn 0 0 -1
vn 0 0 -1
vn 0 0 -1
vn 0 0 -1
vn 0 0 -1
vn 0 0 -1
vn 0 0 -1
vn 0 0 -1
vn 0 0 -1
vn 0 0 -1
vn 0 0 -1
vn 0 0 -1
vn 0 0 -1
vn 0 0 -1
vn 0 0 -1
vn 0 0 -1
vn 0 0 -1
vn 0 0 -1
vn 0 0 -1
vn 0 0 -1
vn 0 0 -1
vn 0 0 -1
vn 0 0 -1
vn 0 0 -1
vn 0 0 -1
vn 0 0 -1
vn 0 0 -1
vn 0 0 -1
vn 0 0 -1
vn 0 0 -1
vn 0 0 -1
vn 0 0 -1
vn 0 0 1
vn 0 0 1
vn 0 0 1
vn 0 0 1
vn 0 0 1
vn 0 0 1
vn 0 0 1
vn 0 0 1
vn 0 0 1
vn 0 0 1
vn 0 0 1
vn 0 0 1
vn 0 0 1
vn 0 0 1
vn 0 0 1
vn 0 0 1
vn 0 0 1
vn 0 0 1
vn 0 0 1
vn 0 0 1
vn 0 0 1
vn 0 0 1
vn 0 0 1
vn 0 0 1
vn 0 0 1
vn 0 0 1
vn 0 0 1
vn 0 0 1
vn 0 0 1
vn 0 0 1
vn 0 0 1
vn 0 0 1
vn 0 0 1
vn 0 0 1
vn 0 0 1
vn 0 0 1
f 5/5/5 1/1/1 4/4/4 2/2/2
f 1/1/1 3/3/3 4/4/4
f 10/10/10 7/7/7 6/6/6 11/11/11
f 9/9/9 10/10/10 11/11/11 8/8/8
f 17/17/17 12/12/12 14/14/14 15/15/15
f 16/16/16 17/17/17 15/15/15 13/13/13
f 21/21/21 22/22/22 18/18/18
f 19/19/19 22/22/22 20/20/20
f 21/21/21 20/20/20 22/22/22
f 41/41/41 31/31/31 39/39/39
f 41/41/41 30/30/30 31/31/31
f 29/29/29 30/30/30 42/42/42
f 41/41/41 42/42/42 30/30/30
f 42/42/42 41/41/41 33/33/33 34/34/34
f 28/28/28 29/29/29 42/42/42 43/43/43
f 41/41/41 39/39/39 24/24/24
f 27/27/27 28/28/28 43/43/43 44/44/44
f 26/26/26 27/27/27 44/44/44 45/45/45
f 46/46/46 23/23/23 25/25/25
f 25/25/25 26/26/26 45/45/45 46/46/46
f 43/43/43 42/42/42 34/34/34 35/35/35
f 32/32/32 33/33/33 41/41/41
f 35/35/35 36/36/36 44/44/44 43/43/43
f 45/45/45 44/44/44 36/36/36 37/37/37
f 46/46/46 45/45/45 37/37/37 38/38/38
f 46/46/46 38/38/38 40/40/40
f 23/23/23 46/46/46 40/40/40
f 24/24/24 32/32/32 41/41/41
f 48/48/48 66/66/66 47/47/47
f 67/67/67 65/65/65 66/66/66
f 64/64/64 65/65/65 67/67/67 68/68/68
f 48/48/48 67/67/67 66/66/66
f 67/67/67 48/48/48 52/52/52 53/53/53
f 62/62/62 63/63/63 69/69/69 70/70/70
f 61/61/61 62/62/62 70/70/70 71/71/71
f 60/60/60 61/61/61 71/71/71 72/72/72
f 69/69/69 68/68/68 54/54/54 55/55/55
f 59/59/59 60/60/60 72/72/72 49/49/49
f 68/68/68 69/69/69 63/63/63 64/64/64
f 68/68/68 67/67/67 53/53/53 54/54/54
f 51/51/51 52/52/52 48/48/48
f 70/70/70 69/69/69 55/55/55 56/56/56
f 72/72/72 71/71/71 57/57/57 58/58/58
f 49/49/49 72/72/72 58/58/58 50/50/50
f 56/56/56 57/57/57 71/71/71 70/70/70
f 74/74/74 92/92/92 73/73/73
f 93/93/93 91/91/91 92/92/92
f 92/92/92 74/74/74 93/93/93
f 93/93/93 74/74/74 77/77/77 78/78/78
f 94/94/94 93/93/93 79/79/79 80/80/80
f 93/93/93 94/94/94 90/90/90 91/91/91
f 89/89/89 90/90/90 94/94/94 95/95/95
f 88/88/88 89/89/89 95/95/95 96/96/96
f 86/86/86 87/87/87 97/97/97 98/98/98
f 87/87/87 88/88/88 96/96/96 97/97/97
f 85/85/85 86/86/86 98/98/98 75/75/75
f 95/95/95 94/94/94 80/80/80 81/81/81
f 93/93/93 78/78/78 79/79/79
f 96/96/96 95/95/95 81/81/81 82/82/82
f 98/98/98 97/97/97 83/83/83 84/84/84
f 75/75/75 98/98/98 84/84/84 76/76/76
f 82/82/82 83/83/83 97/97/97 96/96/96
f 100/100/100 118/118/118 99/99/99
f 119/119/119 117/117/117 118/118/118
f 118/118/118 100/100/100 119/119/119
f 119/119/119 100/100/100 103/103/103 104/104/104
f 120/120/120 119/119/119 105/105/105 106/106/106
f 119/119/119 120/120/120 116/116/116 117/117/117
f 115/115/115 116/116/116 120/120/120 121/121/121
f 114/114/114 115/115/115 121/121/121 122/122/122
f 112/112/112 113/113/113 123/123/123 124/124/124
f 113/113/113 114/114/114 122/122/122 123/123/123
f 111/111/111 112/112/112 124/124/124 101/101/101
f 121/121/121 120/120/120 106/106/106 107/107/107
f 119/119/119 104/104/104 105/105/105
f 122/122/122 121/121/121 107/107/107 108/108/108
f 124/124/124 123/123/123 109/109/109 110/110/110
f 101/101/101 124/124/124 110/110/110 102/102/102
f 108/108/108 109/109/109 123/123/123 122/122/122
f 127/127/127 147/147/147 148/148/148
f 147/147/147 127/127/127 130/130/130
f 149/149/149 127/127/127 148/148/148
f 152/152/152 153/153/153 127/127/127
f 127/127/127 151/151/151 152/152/152
f 150/150/150 151/151/151 127/127/127
f 150/150/150 127/127/127 149/149/149
f 125/125/125 129/129/129 130/130/130
f 160/160/160 132/132/132 159/159/159
f 159/159/159 132/132/132 158/158/158
f 132/132/132 160/160/160 129/129/129
f 132/132/132 156/156/156 157/157/157
f 154/154/154 155/155/155 132/132/132
f 156/156/156 132/132/132 155/155/155
f 132/132/132 157/157/157 158/158/158
f 131/131/131 132/132/132 129/129/129
f 125/125/125 130/130/130 127/127/127 128/128/128
f 141/141/141 128/128/128 140/140/140
f 128/128/128 141/141/141 142/142/142
f 143/143/143 128/128/128 142/142/142
f 128/128/128 144/144/144 145/145/145
f 146/146/146 125/125/125 128/128/128
f 146/146/146 128/128/128 145/145/145
f 128/128/128 143/143/143 144/144/144
f 125/125/125 126/126/126 129/129/129
f 131/131/131 137/137/137 138/138/138
f 138/138/138 139/139/139 131/131/131
f 136/136/136 137/137/137 131/131/131
f 133/133/133 134/134/134 131/131/131
f 136/136/136 131/131/131 135/135/135
f 135/135/135 131/131/131 134/134/134
f 126/126/126 133/133/133 131/131/131
f 131/131/131 129/129/129 126/126/126
f 163/163/163 176/176/176 177/177/177
f 176/176/176 163/163/163 162/162/162
f 178/178/178 163/163/163 177/177/177
f 181/181/181 182/182/182 163/163/163
f 163/163/163 180/180/180 181/181/181
f 179/179/179 180/180/180 163/163/163
f 179/179/179 163/163/163 178/178/178
f 162/162/162 166/166/166 161/161/161
f 175/175/175 168/168/168 174/174/174
f 174/174/174 168/168/168 173/173/173
f 168/168/168 175/175/175 161/161/161
f 168/168/168 171/171/171 172/172/172
f 169/169/169 170/170/170 168/168/168
f 171/171/171 168/168/168 170/170/170
f 168/168/168 172/172/172 173/173/173
f 166/166/166 168/168/168 161/161/161
f 164/164/164 162/162/162 163/163/163
f 184/184/184 164/164/164 183/183/183
f 164/164/164 184/184/184 185/185/185
f 186/186/186 164/164/164 185/185/185
f 164/164/164 187/187/187 188/188/188
f 189/189/189 165/165/165 164/164/164
f 189/189/189 164/164/164 188/188/188
f 164/164/164 186/186/186 187/187/187
f 162/162/162 165/165/165 166/166/166
f 167/167/167 194/194/194 195/195/195
f 195/195/195 196/196/196 167/167/167
f 193/193/193 194/194/194 167/167/167
f 190/190/190 191/191/191 167/167/167
f 193/193/193 167/167/167 192/192/192
f 192/192/192 167/167/167 191/191/191
f 166/166/166 190/190/190 167/167/167
f 167/167/167 168/168/168 166/166/166
f 165/165/165 162/162/162 164/164/164
