# Rhino

mtllib PCaja_82.mtl
usemtl Default
v -109 164 -66
v -108 164 -66
v -109 161.18182373046875 -66.286582946777344
v -108 161.18182373046875 -66.286582946777344
v -109 158.47901916503906 -67.134590148925781
v -108 158.47901916503906 -67.134590148925781
v -109 156.00224304199219 -68.509315490722656
v -108 156.00224304199219 -68.509315490722656
v -109 153.8529052734375 -70.354461669921875
v -108 153.8529052734375 -70.354461669921875
v -109 152.11897277832031 -72.594505310058594
v -108 152.11897277832031 -72.594505310058594
v -109 150.87147521972656 -75.137725830078125
v -108 150.87147521972656 -75.137725830078125
v -109 150.16143798828125 -77.880012512207031
v -108 150.16143798828125 -77.880012512207031
v -109 150.01797485351562 -80.709091186523438
v -108 150.01797485351562 -80.709091186523438
v -109 150.44691467285156 -83.509132385253906
v -108 150.44691467285156 -83.509132385253906
v -109 151.43074035644531 -86.165519714355469
v -108 151.43074035644531 -86.165519714355469
v -109 152.92913818359375 -88.569480895996094
v -108 152.92913818359375 -88.569480895996094
v -109 154.88078308105469 -90.622611999511719
v -108 154.88078308105469 -90.622611999511719
v -109 157.20578002929688 -92.240852355957031
v -108 157.20578002929688 -92.240852355957031
v -109 159.80891418457031 -93.357948303222656
v -108 159.80891418457031 -93.357948303222656
v -109 162.58364868164062 -93.928169250488281
v -108 162.58364868164062 -93.928169250488281
v -109 165.41635131835938 -93.928169250488281
v -108 165.41635131835938 -93.928169250488281
v -109 168.19108581542969 -93.357948303222656
v -108 168.19108581542969 -93.357948303222656
v -109 170.79421997070312 -92.240852355957031
v -108 170.79421997070312 -92.240852355957031
v -109 173.11921691894531 -90.622611999511719
v -108 173.11921691894531 -90.622611999511719
v -109 175.07086181640625 -88.569480895996094
v -108 175.07086181640625 -88.569480895996094
v -109 176.56925964355469 -86.165519714355469
v -108 176.56925964355469 -86.165519714355469
v -109 177.55308532714844 -83.509132385253906
v -108 177.55308532714844 -83.509132385253906
v -109 177.98202514648438 -80.709091186523438
v -108 177.98202514648438 -80.709091186523438
v -109 177.83856201171875 -77.880012512207031
v -108 177.83856201171875 -77.880012512207031
v -109 177.12852478027344 -75.137725830078125
v -108 177.12852478027344 -75.137725830078125
v -109 175.88102722167969 -72.594505310058594
v -108 175.88102722167969 -72.594505310058594
v -109 174.1470947265625 -70.354461669921875
v -108 174.1470947265625 -70.354461669921875
v -109 171.99775695800781 -68.509315490722656
v -108 171.99775695800781 -68.509315490722656
v -109 169.52098083496094 -67.134590148925781
v -108 169.52098083496094 -67.134590148925781
v -109 166.81817626953125 -66.286582946777344
v -108 166.81817626953125 -66.286582946777344
v -109 164 -66
v -108 164 -66
v -109 164 -66
v -109 161.18182373046875 -66.286582946777344
v -109 158.47901916503906 -67.134590148925781
v -109 156.00224304199219 -68.509315490722656
v -109 153.8529052734375 -70.354461669921875
v -109 152.11897277832031 -72.594505310058594
v -109 150.87147521972656 -75.137725830078125
v -109 150.16143798828125 -77.880012512207031
v -109 150.01797485351562 -80.709091186523438
v -109 150.44691467285156 -83.509132385253906
v -109 151.43074035644531 -86.165519714355469
v -109 152.92913818359375 -88.569480895996094
v -109 154.88078308105469 -90.622611999511719
v -109 157.20578002929688 -92.240852355957031
v -109 159.80891418457031 -93.357948303222656
v -109 162.58364868164062 -93.928169250488281
v -109 165.41635131835938 -93.928169250488281
v -109 168.19108581542969 -93.357948303222656
v -109 170.79421997070312 -92.240852355957031
v -109 173.11921691894531 -90.622611999511719
v -109 175.07086181640625 -88.569480895996094
v -109 176.56925964355469 -86.165519714355469
v -109 177.55308532714844 -83.509132385253906
v -109 177.98202514648438 -80.709091186523438
v -109 177.83856201171875 -77.880012512207031
v -109 177.12852478027344 -75.137725830078125
v -109 175.88102722167969 -72.594505310058594
v -109 174.1470947265625 -70.354461669921875
v -109 171.99775695800781 -68.509315490722656
v -109 169.52098083496094 -67.134590148925781
v -109 166.81817626953125 -66.286582946777344
v -108 164 -66
v -108 161.18182373046875 -66.286582946777344
v -108 158.47901916503906 -67.134590148925781
v -108 156.00224304199219 -68.509315490722656
v -108 153.8529052734375 -70.354461669921875
v -108 152.11897277832031 -72.594505310058594
v -108 150.87147521972656 -75.137725830078125
v -108 150.16143798828125 -77.880012512207031
v -108 150.01797485351562 -80.709091186523438
v -108 150.44691467285156 -83.509132385253906
v -108 151.43074035644531 -86.165519714355469
v -108 152.92913818359375 -88.569480895996094
v -108 154.88078308105469 -90.622611999511719
v -108 157.20578002929688 -92.240852355957031
v -108 159.80891418457031 -93.357948303222656
v -108 162.58364868164062 -93.928169250488281
v -108 165.41635131835938 -93.928169250488281
v -108 168.19108581542969 -93.357948303222656
v -108 170.79421997070312 -92.240852355957031
v -108 173.11921691894531 -90.622611999511719
v -108 175.07086181640625 -88.569480895996094
v -108 176.56925964355469 -86.165519714355469
v -108 177.55308532714844 -83.509132385253906
v -108 177.98202514648438 -80.709091186523438
v -108 177.83856201171875 -77.880012512207031
v -108 177.12852478027344 -75.137725830078125
v -108 175.88102722167969 -72.594505310058594
v -108 174.1470947265625 -70.354461669921875
v -108 171.99775695800781 -68.509315490722656
v -108 169.52098083496094 -67.134590148925781
v -108 166.81817626953125 -66.286582946777344
vt 0 0
vt 0 0.50879383087158203
vt 0.032258063554763794 0
vt 0.032258063554763794 0.50879383087158203
vt 0.064516127109527588 0
vt 0.064516127109527588 0.50879383087158203
vt 0.096774190664291382 0
vt 0.096774190664291382 0.50879383087158203
vt 0.12903225421905518 0
vt 0.12903225421905518 0.50879383087158203
vt 0.16129031777381897 0
vt 0.16129031777381897 0.50879383087158203
vt 0.19354838132858276 0
vt 0.19354838132858276 0.50879383087158203
vt 0.22580644488334656 0
vt 0.22580644488334656 0.50879383087158203
vt 0.25806450843811035 0
vt 0.25806450843811035 0.50879383087158203
vt 0.29032257199287415 0
vt 0.29032257199287415 0.50879383087158203
vt 0.32258063554763794 0
vt 0.32258063554763794 0.50879383087158203
vt 0.35483869910240173 0
vt 0.35483869910240173 0.50879383087158203
vt 0.38709676265716553 0
vt 0.38709676265716553 0.50879383087158203
vt 0.41935482621192932 0
vt 0.41935482621192932 0.50879383087158203
vt 0.45161288976669312 0
vt 0.45161288976669312 0.50879383087158203
vt 0.48387095332145691 0
vt 0.48387095332145691 0.50879383087158203
vt 0.5161290168762207 0
vt 0.5161290168762207 0.50879383087158203
vt 0.54838711023330688 0
vt 0.54838711023330688 0.50879383087158203
vt 0.58064514398574829 0
vt 0.58064514398574829 0.50879383087158203
vt 0.61290323734283447 0
vt 0.61290323734283447 0.50879383087158203
vt 0.64516127109527588 0
vt 0.64516127109527588 0.50879383087158203
vt 0.67741936445236206 0
vt 0.67741936445236206 0.50879383087158203
vt 0.70967739820480347 0
vt 0.70967739820480347 0.50879383087158203
vt 0.74193549156188965 0
vt 0.74193549156188965 0.50879383087158203
vt 0.77419352531433105 0
vt 0.77419352531433105 0.50879383087158203
vt 0.80645161867141724 0
vt 0.80645161867141724 0.50879383087158203
vt 0.83870965242385864 0
vt 0.83870965242385864 0.50879383087158203
vt 0.87096774578094482 0
vt 0.87096774578094482 0.50879383087158203
vt 0.90322577953338623 0
vt 0.90322577953338623 0.50879383087158203
vt 0.93548387289047241 0
vt 0.93548387289047241 0.50879383087158203
vt 0.96774190664291382 0
vt 0.96774190664291382 0.50879383087158203
vt 1 0
vt 1 0.50879383087158203
vt 0.15922306478023529 1
vt 0.19131562113761902 0.99495959281921387
vt 0.22209431231021881 0.98004460334777832
vt 0.25029903650283813 0.95586580038070679
vt 0.27477511763572693 0.92341291904449463
vt 0.29452046751976013 0.88401466608047485
vt 0.3087267279624939 0.83928406238555908
vt 0.31681230664253235 0.79105222225189209
vt 0.31844612956047058 0.74129390716552734
vt 0.31356137990951538 0.69204622507095337
vt 0.30235797166824341 0.64532524347305298
vt 0.28529462218284607 0.60304391384124756
vt 0.26306986808776855 0.56693309545516968
vt 0.23659364879131317 0.53847122192382812
vt 0.20694984495639801 0.51882350444793701
vt 0.17535209655761719 0.50879436731338501
vt 0.14309403300285339 0.50879436731338501
vt 0.11149629950523376 0.51882350444793701
vt 0.081852495670318604 0.53847122192382812
vt 0.055376257747411728 0.56693309545516968
vt 0.033151518553495407 0.60304391384124756
vt 0.016088161617517471 0.64532524347305298
vt 0.0048847668804228306 0.69204622507095337
vt 0 0.74129390716552734
vt 0.0016338441055268049 0.79105222225189209
vt 0.0097194099798798561 0.83928406238555908
vt 0.023925673216581345 0.88401466608047485
vt 0.043671026825904846 0.92341291904449463
vt 0.068147093057632446 0.95586580038070679
vt 0.096351824700832367 0.98004460334777832
vt 0.12713050842285156 0.99495959281921387
vt 0.15922306478023529 0.50879436731338501
vt 0.19131562113761902 0.51383477449417114
vt 0.22209431231021881 0.52874970436096191
vt 0.25029903650283813 0.55292856693267822
vt 0.27477511763572693 0.58538144826889038
vt 0.29452046751976013 0.62477964162826538
vt 0.3087267279624939 0.66951030492782593
vt 0.31681230664253235 0.71774208545684814
vt 0.31844612956047058 0.76750040054321289
vt 0.31356137990951538 0.81674814224243164
vt 0.30235797166824341 0.86346906423568726
vt 0.28529462218284607 0.90575045347213745
vt 0.26306986808776855 0.94186127185821533
vt 0.23659364879131317 0.97032314538955688
vt 0.20694984495639801 0.989970862865448
vt 0.17535209655761719 1
vt 0.14309403300285339 1
vt 0.11149629950523376 0.989970862865448
vt 0.081852495670318604 0.97032314538955688
vt 0.055376257747411728 0.94186127185821533
vt 0.033151518553495407 0.90575045347213745
vt 0.016088161617517471 0.86346906423568726
vt 0.0048847668804228306 0.81674814224243164
vt 0 0.76750040054321289
vt 0.0016338441055268049 0.71774208545684814
vt 0.0097194099798798561 0.66951030492782593
vt 0.023925673216581345 0.62477964162826538
vt 0.043671026825904846 0.58538144826889038
vt 0.068147093057632446 0.55292856693267822
vt 0.096351824700832367 0.52874970436096191
vt 0.12713050842285156 0.51383477449417114
vn 0 0 1
vn 0 0 1
vn 0 -0.20129851996898651 0.97952991724014282
vn 0 -0.20129851996898651 0.97952991724014282
vn 0 -0.39435586333274841 0.91895782947540283
vn 0 -0.39435586333274841 0.91895782947540283
vn 0 -0.57126820087432861 0.82076346874237061
vn 0 -0.57126820087432861 0.82076346874237061
vn 0 -0.72479277849197388 0.68896692991256714
vn 0 -0.72479277849197388 0.68896692991256714
vn 0 -0.84864425659179688 0.52896398305892944
vn 0 -0.84864425659179688 0.52896398305892944
vn 0 -0.9377521276473999 0.34730523824691772
vn 0 -0.9377521276473999 0.34730523824691772
vn 0 -0.98846834897994995 0.15142777562141418
vn 0 -0.98846834897994995 0.15142777562141418
vn 0 -0.99871653318405151 -0.050649169832468033
vn 0 -0.99871653318405151 -0.050649169832468033
vn 0 -0.96807712316513062 -0.25065252184867859
vn 0 -0.96807712316513062 -0.25065252184867859
vn 0 -0.89780455827713013 -0.44039416313171387
vn 0 -0.89780455827713013 -0.44039416313171387
vn 0 -0.79077571630477905 -0.61210596561431885
vn 0 -0.79077571630477905 -0.61210596561431885
vn 0 -0.65137249231338501 -0.75875812768936157
vn 0 -0.65137249231338501 -0.75875812768936157
vn 0 -0.48530197143554688 -0.87434661388397217
vn 0 -0.48530197143554688 -0.87434661388397217
vn 0 -0.29936313629150391 -0.95413923263549805
vn 0 -0.29936313629150391 -0.95413923263549805
vn 0 -0.10116831958293915 -0.99486935138702393
vn 0 -0.10116831958293915 -0.99486935138702393
vn 0 0.10116831958293915 -0.99486935138702393
vn 0 0.10116831958293915 -0.99486935138702393
vn 0 0.29936313629150391 -0.95413923263549805
vn 0 0.29936313629150391 -0.95413923263549805
vn 0 0.48530197143554688 -0.87434661388397217
vn 0 0.48530197143554688 -0.87434661388397217
vn 0 0.65137249231338501 -0.75875812768936157
vn 0 0.65137249231338501 -0.75875812768936157
vn 0 0.79077571630477905 -0.61210596561431885
vn 0 0.79077571630477905 -0.61210596561431885
vn 0 0.89780455827713013 -0.44039416313171387
vn 0 0.89780455827713013 -0.44039416313171387
vn 0 0.96807712316513062 -0.25065252184867859
vn 0 0.96807712316513062 -0.25065252184867859
vn 0 0.99871653318405151 -0.050649169832468033
vn 0 0.99871653318405151 -0.050649169832468033
vn 0 0.98846834897994995 0.15142777562141418
vn 0 0.98846834897994995 0.15142777562141418
vn 0 0.9377521276473999 0.34730523824691772
vn 0 0.9377521276473999 0.34730523824691772
vn 0 0.84864425659179688 0.52896398305892944
vn 0 0.84864425659179688 0.52896398305892944
vn 0 0.72479277849197388 0.68896692991256714
vn 0 0.72479277849197388 0.68896692991256714
vn 0 0.57126820087432861 0.82076346874237061
vn 0 0.57126820087432861 0.82076346874237061
vn 0 0.39435586333274841 0.91895782947540283
vn 0 0.39435586333274841 0.91895782947540283
vn 0 0.20129851996898651 0.97952991724014282
vn 0 0.20129851996898651 0.97952991724014282
vn 0 0 1
vn 0 0 1
vn -1 0 0
vn -1 0 0
vn -1 0 0
vn -1 0 0
vn -1 0 0
vn -1 0 0
vn -1 0 0
vn -1 0 0
vn -1 0 0
vn -1 0 0
vn -1 0 0
vn -1 0 0
vn -1 0 0
vn -1 0 0
vn -1 0 0
vn -1 0 0
vn -1 0 0
vn -1 0 0
vn -1 0 0
vn -1 0 0
vn -1 0 0
vn -1 0 0
vn -1 0 0
vn -1 0 0
vn -1 0 0
vn -1 0 0
vn -1 0 0
vn -1 0 0
vn -1 0 0
vn -1 0 0
vn -1 0 0
vn 1 0 0
vn 1 0 0
vn 1 0 0
vn 1 0 0
vn 1 0 0
vn 1 0 0
vn 1 0 0
vn 1 0 0
vn 1 0 0
vn 1 0 0
vn 1 0 0
vn 1 0 0
vn 1 0 0
vn 1 0 0
vn 1 0 0
vn 1 0 0
vn 1 0 0
vn 1 0 0
vn 1 0 0
vn 1 0 0
vn 1 0 0
vn 1 0 0
vn 1 0 0
vn 1 0 0
vn 1 0 0
vn 1 0 0
vn 1 0 0
vn 1 0 0
vn 1 0 0
vn 1 0 0
vn 1 0 0
f 1/1/1 3/3/3 4/4/4 2/2/2
f 3/3/3 5/5/5 6/6/6 4/4/4
f 5/5/5 7/7/7 8/8/8 6/6/6
f 7/7/7 9/9/9 10/10/10 8/8/8
f 9/9/9 11/11/11 12/12/12 10/10/10
f 11/11/11 13/13/13 14/14/14 12/12/12
f 13/13/13 15/15/15 16/16/16 14/14/14
f 15/15/15 17/17/17 18/18/18 16/16/16
f 17/17/17 19/19/19 20/20/20 18/18/18
f 19/19/19 21/21/21 22/22/22 20/20/20
f 21/21/21 23/23/23 24/24/24 22/22/22
f 23/23/23 25/25/25 26/26/26 24/24/24
f 25/25/25 27/27/27 28/28/28 26/26/26
f 27/27/27 29/29/29 30/30/30 28/28/28
f 29/29/29 31/31/31 32/32/32 30/30/30
f 31/31/31 33/33/33 34/34/34 32/32/32
f 33/33/33 35/35/35 36/36/36 34/34/34
f 35/35/35 37/37/37 38/38/38 36/36/36
f 37/37/37 39/39/39 40/40/40 38/38/38
f 39/39/39 41/41/41 42/42/42 40/40/40
f 41/41/41 43/43/43 44/44/44 42/42/42
f 43/43/43 45/45/45 46/46/46 44/44/44
f 45/45/45 47/47/47 48/48/48 46/46/46
f 47/47/47 49/49/49 50/50/50 48/48/48
f 49/49/49 51/51/51 52/52/52 50/50/50
f 51/51/51 53/53/53 54/54/54 52/52/52
f 53/53/53 55/55/55 56/56/56 54/54/54
f 55/55/55 57/57/57 58/58/58 56/56/56
f 57/57/57 59/59/59 60/60/60 58/58/58
f 59/59/59 61/61/61 62/62/62 60/60/60
f 61/61/61 63/63/63 64/64/64 62/62/62
f 66/66/66 65/65/65 67/67/67
f 67/67/67 65/65/65 68/68/68
f 70/70/70 72/72/72 71/71/71
f 68/68/68 65/65/65 70/70/70
f 70/70/70 69/69/69 68/68/68
f 90/90/90 88/88/88 70/70/70
f 94/94/94 65/65/65 95/95/95
f 94/94/94 93/93/93 92/92/92
f 94/94/94 70/70/70 65/65/65
f 90/90/90 92/92/92 91/91/91
f 94/94/94 92/92/92 90/90/90
f 70/70/70 94/94/94 90/90/90
f 89/89/89 88/88/88 90/90/90
f 73/73/73 72/72/72 70/70/70
f 75/75/75 74/74/74 73/73/73
f 82/82/82 75/75/75 70/70/70
f 76/76/76 75/75/75 77/77/77
f 79/79/79 78/78/78 77/77/77
f 82/82/82 79/79/79 77/77/77
f 82/82/82 77/77/77 75/75/75
f 80/80/80 79/79/79 82/82/82
f 86/86/86 85/85/85 84/84/84
f 86/86/86 88/88/88 87/87/87
f 88/88/88 86/86/86 82/82/82
f 82/82/82 86/86/86 83/83/83
f 83/83/83 86/86/86 84/84/84
f 88/88/88 82/82/82 70/70/70
f 82/82/82 81/81/81 80/80/80
f 75/75/75 73/73/73 70/70/70
f 97/97/97 98/98/98 96/96/96
f 98/98/98 99/99/99 96/96/96
f 101/101/101 102/102/102 103/103/103
f 99/99/99 101/101/101 96/96/96
f 101/101/101 99/99/99 100/100/100
f 121/121/121 101/101/101 119/119/119
f 125/125/125 126/126/126 96/96/96
f 125/125/125 123/123/123 124/124/124
f 125/125/125 96/96/96 101/101/101
f 121/121/121 122/122/122 123/123/123
f 125/125/125 121/121/121 123/123/123
f 101/101/101 121/121/121 125/125/125
f 120/120/120 121/121/121 119/119/119
f 104/104/104 101/101/101 103/103/103
f 106/106/106 104/104/104 105/105/105
f 113/113/113 101/101/101 106/106/106
f 107/107/107 108/108/108 106/106/106
f 110/110/110 108/108/108 109/109/109
f 113/113/113 108/108/108 110/110/110
f 113/113/113 106/106/106 108/108/108
f 111/111/111 113/113/113 110/110/110
f 117/117/117 115/115/115 116/116/116
f 117/117/117 118/118/118 119/119/119
f 119/119/119 113/113/113 117/117/117
f 113/113/113 114/114/114 117/117/117
f 114/114/114 115/115/115 117/117/117
f 119/119/119 101/101/101 113/113/113
f 113/113/113 111/111/111 112/112/112
f 106/106/106 101/101/101 104/104/104
