# Rhino

mtllib PCaja_15.mtl
usemtl Default
v -380 -10 130
v -380 0 -130
v -380 -10 -130
v -380 0 130
v -380 0 101.11111450195312
v -380 0 72.222221374511719
v -380 0 43.333332061767578
v -380 0 14.44444465637207
v -380 0 -14.44444465637207
v -380 0 -43.333332061767578
v -380 0 -72.222221374511719
v -380 0 -101.11111450195312
v -380 -10 -101.11111450195312
v -380 -10 -72.222221374511719
v -380 -10 -43.333332061767578
v -380 -10 -14.44444465637207
v -380 -10 14.44444465637207
v -380 -10 43.333332061767578
v -380 -10 72.222221374511719
v -380 -10 101.11111450195312
v -370 0 -140
v 140 0 -140
v 140 -10 -140
v -340 0 -140
v -310 0 -140
v -280 0 -140
v -250 0 -140
v -220 0 -140
v -190 0 -140
v -160 0 -140
v -130 0 -140
v -100 0 -140
v -70 0 -140
v -40 0 -140
v -10 0 -140
v 20 0 -140
v 50 0 -140
v 80 0 -140
v 110 0 -140
v 110 -10 -140
v 80 -10 -140
v 50 -10 -140
v 20 -10 -140
v -10 -10 -140
v -40 -10 -140
v -70 -10 -140
v -100 -10 -140
v -130 -10 -140
v -160 -10 -140
v -190 -10 -140
v -220 -10 -140
v -250 -10 -140
v -280 -10 -140
v -310 -10 -140
v -340 -10 -140
v -370 -10 -140
v 150 0 -130
v 150 -10 -130
v 150 0 130
v 150 -10 130
v 150 0 -101.11111450195312
v 150 0 -72.222221374511719
v 150 0 -43.333332061767578
v 150 0 -14.44444465637207
v 150 0 14.44444465637207
v 150 0 43.333332061767578
v 150 0 72.222221374511719
v 150 0 101.11111450195312
v 150 -10 101.11111450195312
v 150 -10 72.222221374511719
v 150 -10 43.333332061767578
v 150 -10 14.44444465637207
v 150 -10 -14.44444465637207
v 150 -10 -43.333332061767578
v 150 -10 -72.222221374511719
v 150 -10 -101.11111450195312
v 140 0 140
v 140 -10 140
v -370 0 140
v -370 -10 140
v 110 0 140
v 80 0 140
v 50 0 140
v 20 0 140
v -10 0 140
v -40 0 140
v -70 0 140
v -100 0 140
v -130 0 140
v -160 0 140
v -190 0 140
v -220 0 140
v -250 0 140
v -280 0 140
v -310 0 140
v -340 0 140
v -340 -10 140
v -310 -10 140
v -280 -10 140
v -250 -10 140
v -220 -10 140
v -190 -10 140
v -160 -10 140
v -130 -10 140
v -100 -10 140
v -70 -10 140
v -40 -10 140
v -10 -10 140
v 20 -10 140
v 50 -10 140
v 80 -10 140
v 110 -10 140
v -339.23077392578125 0 105
v -298.4615478515625 0 105
v -257.69232177734375 0 105
v -216.92308044433594 0 105
v -176.15383911132812 0 105
v -135.38461303710938 0 105
v -94.615386962890625 0 105
v -53.846153259277344 0 105
v -13.076923370361328 0 105
v 27.69230842590332 0 105
v 68.461540222167969 0 105
v 109.23076629638672 0 105
v -339.23077392578125 0 70
v -298.4615478515625 0 70
v -257.69232177734375 0 70
v -216.92308044433594 0 70
v -176.15383911132812 0 70
v -135.38461303710938 0 70
v -94.615386962890625 0 70
v -53.846153259277344 0 70
v -13.076923370361328 0 70
v 27.69230842590332 0 70
v 68.461540222167969 0 70
v 109.23076629638672 0 70
v -339.23077392578125 0 35
v -298.4615478515625 0 35
v -257.69232177734375 0 35
v -216.92308044433594 0 35
v -176.15383911132812 0 35
v -135.38461303710938 0 35
v -94.615386962890625 0 35
v -53.846153259277344 0 35
v -13.076923370361328 0 35
v 27.69230842590332 0 35
v 68.461540222167969 0 35
v 109.23076629638672 0 35
v -339.23077392578125 0 0
v -298.4615478515625 0 0
v -257.69232177734375 0 0
v -216.92308044433594 0 0
v -176.15383911132812 0 0
v -135.38461303710938 0 0
v -94.615386962890625 0 0
v -53.846153259277344 0 0
v -13.076923370361328 0 0
v 27.69230842590332 0 0
v 68.461540222167969 0 0
v 109.23076629638672 0 0
v -339.23077392578125 0 -35
v -298.4615478515625 0 -35
v -257.69232177734375 0 -35
v -216.92308044433594 0 -35
v -176.15383911132812 0 -35
v -135.38461303710938 0 -35
v -94.615386962890625 0 -35
v -53.846153259277344 0 -35
v -13.076923370361328 0 -35
v 27.69230842590332 0 -35
v 68.461540222167969 0 -35
v 109.23076629638672 0 -35
v -339.23077392578125 0 -70
v -298.4615478515625 0 -70
v -257.69232177734375 0 -70
v -216.92308044433594 0 -70
v -176.15383911132812 0 -70
v -135.38461303710938 0 -70
v -94.615386962890625 0 -70
v -53.846153259277344 0 -70
v -13.076923370361328 0 -70
v 27.69230842590332 0 -70
v 68.461540222167969 0 -70
v 109.23076629638672 0 -70
v -339.23077392578125 0 -105
v -298.4615478515625 0 -105
v -257.69232177734375 0 -105
v -216.92308044433594 0 -105
v -176.15383911132812 0 -105
v -135.38461303710938 0 -105
v -94.615386962890625 0 -105
v -53.846153259277344 0 -105
v -13.076923370361328 0 -105
v 27.69230842590332 0 -105
v 68.461540222167969 0 -105
v 109.23076629638672 0 -105
v -380 0 130
v -380 0 101.11111450195312
v -380 0 72.222221374511719
v -380 0 43.333332061767578
v -380 0 14.44444465637207
v -380 0 -14.44444465637207
v -380 0 -43.333332061767578
v -380 0 -72.222221374511719
v -380 0 -101.11111450195312
v -380 0 -130
v -370 0 -140
v -340 0 -140
v -310 0 -140
v -280 0 -140
v -250 0 -140
v -220 0 -140
v -190 0 -140
v -160 0 -140
v -130 0 -140
v -100 0 -140
v -70 0 -140
v -40 0 -140
v -10 0 -140
v 20 0 -140
v 50 0 -140
v 80 0 -140
v 110 0 -140
v 140 0 -140
v 150 0 -130
v 150 0 -101.11111450195312
v 150 0 -72.222221374511719
v 150 0 -43.333332061767578
v 150 0 -14.44444465637207
v 150 0 14.44444465637207
v 150 0 43.333332061767578
v 150 0 72.222221374511719
v 150 0 101.11111450195312
v 150 0 130
v 140 0 140
v 110 0 140
v 80 0 140
v 50 0 140
v 20 0 140
v -10 0 140
v -40 0 140
v -70 0 140
v -100 0 140
v -130 0 140
v -160 0 140
v -190 0 140
v -220 0 140
v -250 0 140
v -280 0 140
v -310 0 140
v -340 0 140
v -370 0 140
v 149.29788208007812 0 133.68095397949219
v 147.07107543945312 0 137.07107543945312
v 143.68095397949219 0 139.29788208007812
v 129.61538696289062 0 105
v 109.23076629638672 0 122.5
v 129.61538696289062 0 122.5
v 139.80769348144531 0 122.5
v 129.61538696289062 0 131.25
v 139.80769348144531 0 131.25
v 143.68095397949219 0 -139.29788208007812
v 147.07107543945312 0 -137.07107543945312
v 149.29788208007812 0 -133.68095397949219
v 129.61538696289062 0 -105
v 109.23076629638672 0 -122.5
v 129.61538696289062 0 -122.5
v 139.80769348144531 0 -122.5
v 129.61538696289062 0 -131.25
v 139.80769348144531 0 -131.25
v -379.29788208007812 0 -133.68095397949219
v -377.07107543945312 0 -137.07107543945312
v -373.68093872070312 0 -139.29788208007812
v -339.23077392578125 0 -122.5
v -359.61538696289062 0 -105
v -359.61538696289062 0 -122.5
v -359.61538696289062 0 -131.25
v -369.80767822265625 0 -122.5
v -369.80767822265625 0 -131.25
v -373.68093872070312 0 139.29788208007812
v -377.07107543945312 0 137.07107543945312
v -379.29788208007812 0 133.68095397949219
v -359.61538696289062 0 105
v -339.23077392578125 0 122.5
v -359.61538696289062 0 122.5
v -369.80767822265625 0 122.5
v -359.61538696289062 0 131.25
v -369.80767822265625 0 131.25
v -339.23077392578125 -10 105
v -298.4615478515625 -10 105
v -257.69232177734375 -10 105
v -216.92308044433594 -10 105
v -176.15383911132812 -10 105
v -135.38461303710938 -10 105
v -94.615386962890625 -10 105
v -53.846153259277344 -10 105
v -13.076923370361328 -10 105
v 27.69230842590332 -10 105
v 68.461540222167969 -10 105
v 109.23076629638672 -10 105
v -339.23077392578125 -10 70
v -298.4615478515625 -10 70
v -257.69232177734375 -10 70
v -216.92308044433594 -10 70
v -176.15383911132812 -10 70
v -135.38461303710938 -10 70
v -94.615386962890625 -10 70
v -53.846153259277344 -10 70
v -13.076923370361328 -10 70
v 27.69230842590332 -10 70
v 68.461540222167969 -10 70
v 109.23076629638672 -10 70
v -339.23077392578125 -10 35
v -298.4615478515625 -10 35
v -257.69232177734375 -10 35
v -216.92308044433594 -10 35
v -176.15383911132812 -10 35
v -135.38461303710938 -10 35
v -94.615386962890625 -10 35
v -53.846153259277344 -10 35
v -13.076923370361328 -10 35
v 27.69230842590332 -10 35
v 68.461540222167969 -10 35
v 109.23076629638672 -10 35
v -339.23077392578125 -10 0
v -298.4615478515625 -10 0
v -257.69232177734375 -10 0
v -216.92308044433594 -10 0
v -176.15383911132812 -10 0
v -135.38461303710938 -10 0
v -94.615386962890625 -10 0
v -53.846153259277344 -10 0
v -13.076923370361328 -10 0
v 27.69230842590332 -10 0
v 68.461540222167969 -10 0
v 109.23076629638672 -10 0
v -339.23077392578125 -10 -35
v -298.4615478515625 -10 -35
v -257.69232177734375 -10 -35
v -216.92308044433594 -10 -35
v -176.15383911132812 -10 -35
v -135.38461303710938 -10 -35
v -94.615386962890625 -10 -35
v -53.846153259277344 -10 -35
v -13.076923370361328 -10 -35
v 27.69230842590332 -10 -35
v 68.461540222167969 -10 -35
v 109.23076629638672 -10 -35
v -339.23077392578125 -10 -70
v -298.4615478515625 -10 -70
v -257.69232177734375 -10 -70
v -216.92308044433594 -10 -70
v -176.15383911132812 -10 -70
v -135.38461303710938 -10 -70
v -94.615386962890625 -10 -70
v -53.846153259277344 -10 -70
v -13.076923370361328 -10 -70
v 27.69230842590332 -10 -70
v 68.461540222167969 -10 -70
v 109.23076629638672 -10 -70
v -339.23077392578125 -10 -105
v -298.4615478515625 -10 -105
v -257.69232177734375 -10 -105
v -216.92308044433594 -10 -105
v -176.15383911132812 -10 -105
v -135.38461303710938 -10 -105
v -94.615386962890625 -10 -105
v -53.846153259277344 -10 -105
v -13.076923370361328 -10 -105
v 27.69230842590332 -10 -105
v 68.461540222167969 -10 -105
v 109.23076629638672 -10 -105
v -380 -10 130
v -380 -10 101.11111450195312
v -380 -10 72.222221374511719
v -380 -10 43.333332061767578
v -380 -10 14.44444465637207
v -380 -10 -14.44444465637207
v -380 -10 -43.333332061767578
v -380 -10 -72.222221374511719
v -380 -10 -101.11111450195312
v -380 -10 -130
v -370 -10 -140
v -340 -10 -140
v -310 -10 -140
v -280 -10 -140
v -250 -10 -140
v -220 -10 -140
v -190 -10 -140
v -160 -10 -140
v -130 -10 -140
v -100 -10 -140
v -70 -10 -140
v -40 -10 -140
v -10 -10 -140
v 20 -10 -140
v 50 -10 -140
v 80 -10 -140
v 110 -10 -140
v 140 -10 -140
v 150 -10 -130
v 150 -10 -101.11111450195312
v 150 -10 -72.222221374511719
v 150 -10 -43.333332061767578
v 150 -10 -14.44444465637207
v 150 -10 14.44444465637207
v 150 -10 43.333332061767578
v 150 -10 72.222221374511719
v 150 -10 101.11111450195312
v 150 -10 130
v 140 -10 140
v 110 -10 140
v 80 -10 140
v 50 -10 140
v 20 -10 140
v -10 -10 140
v -40 -10 140
v -70 -10 140
v -100 -10 140
v -130 -10 140
v -160 -10 140
v -190 -10 140
v -220 -10 140
v -250 -10 140
v -280 -10 140
v -310 -10 140
v -340 -10 140
v -370 -10 140
v 149.29788208007812 -10 133.68095397949219
v 147.07107543945312 -10 137.07107543945312
v 143.68095397949219 -10 139.29788208007812
v 129.61538696289062 -10 105
v 109.23076629638672 -10 122.5
v 129.61538696289062 -10 122.5
v 139.80769348144531 -10 122.5
v 129.61538696289062 -10 131.25
v 139.80769348144531 -10 131.25
v 143.68095397949219 -10 -139.29788208007812
v 147.07107543945312 -10 -137.07107543945312
v 149.29788208007812 -10 -133.68095397949219
v 129.61538696289062 -10 -105
v 109.23076629638672 -10 -122.5
v 129.61538696289062 -10 -122.5
v 139.80769348144531 -10 -122.5
v 129.61538696289062 -10 -131.25
v 139.80769348144531 -10 -131.25
v -379.29788208007812 -10 -133.68095397949219
v -377.07107543945312 -10 -137.07107543945312
v -373.68093872070312 -10 -139.29788208007812
v -339.23077392578125 -10 -122.5
v -359.61538696289062 -10 -105
v -359.61538696289062 -10 -122.5
v -359.61538696289062 -10 -131.25
v -369.80767822265625 -10 -122.5
v -369.80767822265625 -10 -131.25
v -373.68093872070312 -10 139.29788208007812
v -377.07107543945312 -10 137.07107543945312
v -379.29788208007812 -10 133.68095397949219
v -359.61538696289062 -10 105
v -339.23077392578125 -10 122.5
v -359.61538696289062 -10 122.5
v -369.80767822265625 -10 122.5
v -359.61538696289062 -10 131.25
v -369.80767822265625 -10 131.25
v 150 -10 130
v 140 -10 140
v 150 0 130
v 140 0 140
v 149.29788208007812 0 133.68095397949219
v 147.07107543945312 0 137.07107543945312
v 143.68095397949219 0 139.29788208007812
v 143.68095397949219 -10 139.29788208007812
v 147.07107543945312 -10 137.07107543945312
v 149.29788208007812 -10 133.68095397949219
v 140 -10 -140
v 150 -10 -130
v 140 0 -140
v 150 0 -130
v 143.68095397949219 0 -139.29788208007812
v 147.07107543945312 0 -137.07107543945312
v 149.29788208007812 0 -133.68095397949219
v 149.29788208007812 -10 -133.68095397949219
v 147.07107543945312 -10 -137.07107543945312
v 143.68095397949219 -10 -139.29788208007812
v -380 -10 -130
v -370 -10 -140
v -380 0 -130
v -370 0 -140
v -379.29788208007812 0 -133.68095397949219
v -377.07107543945312 0 -137.07107543945312
v -373.68093872070312 0 -139.29788208007812
v -373.68093872070312 -10 -139.29788208007812
v -377.07107543945312 -10 -137.07107543945312
v -379.29788208007812 -10 -133.68095397949219
v -380 0 130
v -370 0 140
v -380 -10 130
v -370 -10 140
v -373.68093872070312 0 139.29788208007812
v -377.07107543945312 0 137.07107543945312
v -379.29788208007812 0 133.68095397949219
v -379.29788208007812 -10 133.68095397949219
v -377.07107543945312 -10 137.07107543945312
v -373.68093872070312 -10 139.29788208007812
vt 0 0.067500673234462738
vt 0.4482758641242981 0.051724139600992203
vt 0.4482758641242981 0.067500673234462738
vt 0 0.051724139600992203
vt 0.049808427691459656 0.051724139600992203
vt 0.099616855382919312 0.051724139600992203
vt 0.14942529797554016 0.051724139600992203
vt 0.19923371076583862 0.051724139600992203
vt 0.24904215335845947 0.051724139600992203
vt 0.29885059595108032 0.051724139600992203
vt 0.34865900874137878 0.051724139600992203
vt 0.39846742153167725 0.051724139600992203
vt 0.39846742153167725 0.067500673234462738
vt 0.34865900874137878 0.067500673234462738
vt 0.29885059595108032 0.067500673234462738
vt 0.24904215335845947 0.067500673234462738
vt 0.19923371076583862 0.067500673234462738
vt 0.14942529797554016 0.067500673234462738
vt 0.099616855382919312 0.067500673234462738
vt 0.049808427691459656 0.067500673234462738
vt 0.033017914742231369 0.068965516984462738
vt 0.033017914742231369 0.9482758641242981
vt 0.017241379246115685 0.9482758641242981
vt 0.033017914742231369 0.12068965286016464
vt 0.033017914742231369 0.17241379618644714
vt 0.033017914742231369 0.22413793206214905
vt 0.033017914742231369 0.27586206793785095
vt 0.033017914742231369 0.32758620381355286
vt 0.033017914742231369 0.37931033968925476
vt 0.033017914742231369 0.43103447556495667
vt 0.033017914742231369 0.48275861144065857
vt 0.033017914742231369 0.53448277711868286
vt 0.033017914742231369 0.58620691299438477
vt 0.033017914742231369 0.63793104887008667
vt 0.033017914742231369 0.68965518474578857
vt 0.033017914742231369 0.74137932062149048
vt 0.033017914742231369 0.79310345649719238
vt 0.033017914742231369 0.84482759237289429
vt 0.033017914742231369 0.89655172824859619
vt 0.017241379246115685 0.89655172824859619
vt 0.017241379246115685 0.84482759237289429
vt 0.017241379246115685 0.79310345649719238
vt 0.017241379246115685 0.74137932062149048
vt 0.017241379246115685 0.68965518474578857
vt 0.017241379246115685 0.63793104887008667
vt 0.017241379246115685 0.58620691299438477
vt 0.017241379246115685 0.53448277711868286
vt 0.017241379246115685 0.48275861144065857
vt 0.017241379246115685 0.43103447556495667
vt 0.017241379246115685 0.37931033968925476
vt 0.017241379246115685 0.32758620381355286
vt 0.017241379246115685 0.27586206793785095
vt 0.017241379246115685 0.22413793206214905
vt 0.017241379246115685 0.17241379618644714
vt 0.017241379246115685 0.12068965286016464
vt 0.017241379246115685 0.068965516984462738
vt 0 0.034482758492231369
vt 0 0.050259295850992203
vt 0.4482758641242981 0.034482758492231369
vt 0.4482758641242981 0.050259295850992203
vt 0.049808427691459656 0.034482758492231369
vt 0.099616855382919312 0.034482758492231369
vt 0.14942529797554016 0.034482758492231369
vt 0.19923371076583862 0.034482758492231369
vt 0.24904215335845947 0.034482758492231369
vt 0.29885059595108032 0.034482758492231369
vt 0.34865900874137878 0.034482758492231369
vt 0.39846742153167725 0.034482758492231369
vt 0.39846742153167725 0.050259295850992203
vt 0.34865900874137878 0.050259295850992203
vt 0.29885059595108032 0.050259295850992203
vt 0.24904215335845947 0.050259295850992203
vt 0.19923371076583862 0.050259295850992203
vt 0.14942529797554016 0.050259295850992203
vt 0.099616855382919312 0.050259295850992203
vt 0.049808427691459656 0.050259295850992203
vt 0.015776535496115685 0.068965516984462738
vt 0 0.068965516984462738
vt 0.015776535496115685 0.9482758641242981
vt 0 0.9482758641242981
vt 0.015776535496115685 0.12068965286016464
vt 0.015776535496115685 0.17241379618644714
vt 0.015776535496115685 0.22413793206214905
vt 0.015776535496115685 0.27586206793785095
vt 0.015776535496115685 0.32758620381355286
vt 0.015776535496115685 0.37931033968925476
vt 0.015776535496115685 0.43103447556495667
vt 0.015776535496115685 0.48275861144065857
vt 0.015776535496115685 0.53448277711868286
vt 0.015776535496115685 0.58620691299438477
vt 0.015776535496115685 0.63793104887008667
vt 0.015776535496115685 0.68965518474578857
vt 0.015776535496115685 0.74137932062149048
vt 0.015776535496115685 0.79310345649719238
vt 0.015776535496115685 0.84482759237289429
vt 0.015776535496115685 0.89655172824859619
vt 0 0.89655172824859619
vt 0 0.84482759237289429
vt 0 0.79310345649719238
vt 0 0.74137932062149048
vt 0 0.68965518474578857
vt 0 0.63793104887008667
vt 0 0.58620691299438477
vt 0 0.53448277711868286
vt 0 0.48275861144065857
vt 0 0.43103447556495667
vt 0 0.37931033968925476
vt 0 0.32758620381355286
vt 0 0.27586206793785095
vt 0 0.22413793206214905
vt 0 0.17241379618644714
vt 0 0.12068965286016464
vt 0.57740312814712524 0.070291779935359955
vt 0.57740312814712524 0.14058355987071991
vt 0.57740312814712524 0.21087533235549927
vt 0.57740312814712524 0.28116711974143982
vt 0.57740312814712524 0.35145890712738037
vt 0.57740312814712524 0.42175066471099854
vt 0.57740312814712524 0.49204245209693909
vt 0.57740312814712524 0.56233423948287964
vt 0.57740312814712524 0.6326259970664978
vt 0.57740312814712524 0.70291781425476074
vt 0.57740312814712524 0.77320957183837891
vt 0.57740312814712524 0.84350132942199707
vt 0.63756483793258667 0.070291779935359955
vt 0.63756483793258667 0.14058355987071991
vt 0.63756483793258667 0.21087533235549927
vt 0.63756483793258667 0.28116711974143982
vt 0.63756483793258667 0.35145890712738037
vt 0.63756483793258667 0.42175066471099854
vt 0.63756483793258667 0.49204245209693909
vt 0.63756483793258667 0.56233423948287964
vt 0.63756483793258667 0.6326259970664978
vt 0.63756483793258667 0.70291781425476074
vt 0.63756483793258667 0.77320957183837891
vt 0.63756483793258667 0.84350132942199707
vt 0.6977265477180481 0.070291779935359955
vt 0.6977265477180481 0.14058355987071991
vt 0.6977265477180481 0.21087533235549927
vt 0.6977265477180481 0.28116711974143982
vt 0.6977265477180481 0.35145890712738037
vt 0.6977265477180481 0.42175066471099854
vt 0.6977265477180481 0.49204245209693909
vt 0.6977265477180481 0.56233423948287964
vt 0.6977265477180481 0.6326259970664978
vt 0.6977265477180481 0.70291781425476074
vt 0.6977265477180481 0.77320957183837891
vt 0.6977265477180481 0.84350132942199707
vt 0.75788825750350952 0.070291779935359955
vt 0.75788825750350952 0.14058355987071991
vt 0.75788825750350952 0.21087533235549927
vt 0.75788825750350952 0.28116711974143982
vt 0.75788825750350952 0.35145890712738037
vt 0.75788825750350952 0.42175066471099854
vt 0.75788825750350952 0.49204245209693909
vt 0.75788825750350952 0.56233423948287964
vt 0.75788825750350952 0.6326259970664978
vt 0.75788825750350952 0.70291781425476074
vt 0.75788825750350952 0.77320957183837891
vt 0.75788825750350952 0.84350132942199707
vt 0.81804996728897095 0.070291779935359955
vt 0.81804996728897095 0.14058355987071991
vt 0.81804996728897095 0.21087533235549927
vt 0.81804996728897095 0.28116711974143982
vt 0.81804996728897095 0.35145890712738037
vt 0.81804996728897095 0.42175066471099854
vt 0.81804996728897095 0.49204245209693909
vt 0.81804996728897095 0.56233423948287964
vt 0.81804996728897095 0.6326259970664978
vt 0.81804996728897095 0.70291781425476074
vt 0.81804996728897095 0.77320957183837891
vt 0.81804996728897095 0.84350132942199707
vt 0.87821173667907715 0.070291779935359955
vt 0.87821173667907715 0.14058355987071991
vt 0.87821173667907715 0.21087533235549927
vt 0.87821173667907715 0.28116711974143982
vt 0.87821173667907715 0.35145890712738037
vt 0.87821173667907715 0.42175066471099854
vt 0.87821173667907715 0.49204245209693909
vt 0.87821173667907715 0.56233423948287964
vt 0.87821173667907715 0.6326259970664978
vt 0.87821173667907715 0.70291781425476074
vt 0.87821173667907715 0.77320957183837891
vt 0.87821173667907715 0.84350132942199707
vt 0.93837344646453857 0.070291779935359955
vt 0.93837344646453857 0.14058355987071991
vt 0.93837344646453857 0.21087533235549927
vt 0.93837344646453857 0.28116711974143982
vt 0.93837344646453857 0.35145890712738037
vt 0.93837344646453857 0.42175066471099854
vt 0.93837344646453857 0.49204245209693909
vt 0.93837344646453857 0.56233423948287964
vt 0.93837344646453857 0.6326259970664978
vt 0.93837344646453857 0.70291781425476074
vt 0.93837344646453857 0.77320957183837891
vt 0.93837344646453857 0.84350132942199707
vt 0.53443044424057007 0
vt 0.58408772945404053 0
vt 0.63374501466751099 0
vt 0.68340229988098145 0
vt 0.7330595850944519 0
vt 0.78271692991256714 0
vt 0.8323742151260376 0
vt 0.88203150033950806 0
vt 0.93168878555297852 0
vt 0.98134613037109375 0
vt 0.99853515625 0.017241379246115685
vt 0.99853515625 0.068965516984462738
vt 0.99853515625 0.12068966031074524
vt 0.99853515625 0.17241379618644714
vt 0.99853515625 0.22413793206214905
vt 0.99853515625 0.27586206793785095
vt 0.99853515625 0.32758620381355286
vt 0.99853515625 0.37931033968925476
vt 0.99853515625 0.43103447556495667
vt 0.99853515625 0.48275864124298096
vt 0.99853515625 0.53448277711868286
vt 0.99853515625 0.58620685338973999
vt 0.99853515625 0.63793104887008667
vt 0.99853515625 0.68965518474578857
vt 0.99853515625 0.74137932062149048
vt 0.99853515625 0.79310345649719238
vt 0.99853515625 0.84482759237289429
vt 0.99853515625 0.89655172824859619
vt 0.98134613037109375 0.91379308700561523
vt 0.93168878555297852 0.91379308700561523
vt 0.88203150033950806 0.91379308700561523
vt 0.8323742151260376 0.91379308700561523
vt 0.78271692991256714 0.91379308700561523
vt 0.7330595850944519 0.91379308700561523
vt 0.68340229988098145 0.91379308700561523
vt 0.63374501466751099 0.91379308700561523
vt 0.58408772945404053 0.91379308700561523
vt 0.53443044424057007 0.91379308700561523
vt 0.51724135875701904 0.89655172824859619
vt 0.51724135875701904 0.84482759237289429
vt 0.51724135875701904 0.79310345649719238
vt 0.51724135875701904 0.74137932062149048
vt 0.51724135875701904 0.68965518474578857
vt 0.51724135875701904 0.63793104887008667
vt 0.51724135875701904 0.58620685338973999
vt 0.51724135875701904 0.53448277711868286
vt 0.51724135875701904 0.48275864124298096
vt 0.51724135875701904 0.43103447556495667
vt 0.51724135875701904 0.37931033968925476
vt 0.51724135875701904 0.32758620381355286
vt 0.51724135875701904 0.27586206793785095
vt 0.51724135875701904 0.22413793206214905
vt 0.51724135875701904 0.17241379618644714
vt 0.51724135875701904 0.12068966031074524
vt 0.51724135875701904 0.068965516984462738
vt 0.51724135875701904 0.017241379246115685
vt 0.52810323238372803 0.91258251667022705
vt 0.52227592468261719 0.90874320268630981
vt 0.51844823360443115 0.90289819240570068
vt 0.57740312814712524 0.87864720821380615
vt 0.54732221364974976 0.84350132942199707
vt 0.54732221364974976 0.87864720821380615
vt 0.54732221364974976 0.89622014760971069
vt 0.53228181600570679 0.87864720821380615
vt 0.53228181600570679 0.89622014760971069
vt 0.99732828140258789 0.90289819240570068
vt 0.99350059032440186 0.90874320268630981
vt 0.98767328262329102 0.91258251667022705
vt 0.93837344646453857 0.87864720821380615
vt 0.96845430135726929 0.84350132942199707
vt 0.96845430135726929 0.87864720821380615
vt 0.96845430135726929 0.89622014760971069
vt 0.98349469900131226 0.87864720821380615
vt 0.98349469900131226 0.89622014760971069
vt 0.98767328262329102 0.0012105486821383238
vt 0.99350059032440186 0.0050498857162892818
vt 0.99732828140258789 0.010894919745624065
vt 0.96845430135726929 0.070291779935359955
vt 0.93837344646453857 0.035145889967679977
vt 0.96845430135726929 0.035145889967679977
vt 0.98349469900131226 0.035145889967679977
vt 0.96845430135726929 0.017572944983839989
vt 0.98349469900131226 0.017572944983839989
vt 0.51844823360443115 0.010894919745624065
vt 0.52227592468261719 0.0050498857162892818
vt 0.52810323238372803 0.0012105486821383238
vt 0.57740312814712524 0.035145889967679977
vt 0.54732221364974976 0.070291779935359955
vt 0.54732221364974976 0.035145889967679977
vt 0.54732221364974976 0.017572944983839989
vt 0.53228181600570679 0.035145889967679977
vt 0.53228181600570679 0.017572944983839989
vt 0.09464447945356369 0.13914461433887482
vt 0.09464447945356369 0.20932371914386749
vt 0.09464447945356369 0.27950280904769897
vt 0.09464447945356369 0.34968191385269165
vt 0.09464447945356369 0.41986101865768433
vt 0.09464447945356369 0.49004009366035461
vt 0.09464447945356369 0.56021922826766968
vt 0.09464447945356369 0.63039833307266235
vt 0.09464447945356369 0.70057737827301025
vt 0.09464447945356369 0.77075648307800293
vt 0.09464447945356369 0.84093558788299561
vt 0.09464447945356369 0.91111469268798828
vt 0.15480619668960571 0.13914461433887482
vt 0.15480619668960571 0.20932371914386749
vt 0.15480619668960571 0.27950280904769897
vt 0.15480619668960571 0.34968191385269165
vt 0.15480619668960571 0.41986101865768433
vt 0.15480619668960571 0.49004009366035461
vt 0.15480619668960571 0.56021922826766968
vt 0.15480619668960571 0.63039833307266235
vt 0.15480619668960571 0.70057737827301025
vt 0.15480619668960571 0.77075648307800293
vt 0.15480619668960571 0.84093558788299561
vt 0.15480619668960571 0.91111469268798828
vt 0.21496792137622833 0.13914461433887482
vt 0.21496792137622833 0.20932371914386749
vt 0.21496792137622833 0.27950280904769897
vt 0.21496792137622833 0.34968191385269165
vt 0.21496792137622833 0.41986101865768433
vt 0.21496792137622833 0.49004009366035461
vt 0.21496792137622833 0.56021922826766968
vt 0.21496792137622833 0.63039833307266235
vt 0.21496792137622833 0.70057737827301025
vt 0.21496792137622833 0.77075648307800293
vt 0.21496792137622833 0.84093558788299561
vt 0.21496792137622833 0.91111469268798828
vt 0.27512964606285095 0.13914461433887482
vt 0.27512964606285095 0.20932371914386749
vt 0.27512964606285095 0.27950280904769897
vt 0.27512964606285095 0.34968191385269165
vt 0.27512964606285095 0.41986101865768433
vt 0.27512964606285095 0.49004009366035461
vt 0.27512964606285095 0.56021922826766968
vt 0.27512964606285095 0.63039833307266235
vt 0.27512964606285095 0.70057737827301025
vt 0.27512964606285095 0.77075648307800293
vt 0.27512964606285095 0.84093558788299561
vt 0.27512964606285095 0.91111469268798828
vt 0.33529135584831238 0.13914461433887482
vt 0.33529135584831238 0.20932371914386749
vt 0.33529135584831238 0.27950280904769897
vt 0.33529135584831238 0.34968191385269165
vt 0.33529135584831238 0.41986101865768433
vt 0.33529135584831238 0.49004009366035461
vt 0.33529135584831238 0.56021922826766968
vt 0.33529135584831238 0.63039833307266235
vt 0.33529135584831238 0.70057737827301025
vt 0.33529135584831238 0.77075648307800293
vt 0.33529135584831238 0.84093558788299561
vt 0.33529135584831238 0.91111469268798828
vt 0.39545309543609619 0.13914461433887482
vt 0.39545309543609619 0.20932371914386749
vt 0.39545309543609619 0.27950280904769897
vt 0.39545309543609619 0.34968191385269165
vt 0.39545309543609619 0.41986101865768433
vt 0.39545309543609619 0.49004009366035461
vt 0.39545309543609619 0.56021922826766968
vt 0.39545309543609619 0.63039833307266235
vt 0.39545309543609619 0.70057737827301025
vt 0.39545309543609619 0.77075648307800293
vt 0.39545309543609619 0.84093558788299561
vt 0.39545309543609619 0.91111469268798828
vt 0.45561480522155762 0.13914461433887482
vt 0.45561480522155762 0.20932371914386749
vt 0.45561480522155762 0.27950280904769897
vt 0.45561480522155762 0.34968191385269165
vt 0.45561480522155762 0.41986101865768433
vt 0.45561480522155762 0.49004009366035461
vt 0.45561480522155762 0.56021922826766968
vt 0.45561480522155762 0.63039833307266235
vt 0.45561480522155762 0.70057737827301025
vt 0.45561480522155762 0.77075648307800293
vt 0.45561480522155762 0.84093558788299561
vt 0.45561480522155762 0.91111469268798828
vt 0.051671821624040604 0.068965516984462738
vt 0.10132911801338196 0.068965516984462738
vt 0.15098641812801361 0.068965516984462738
vt 0.20064370334148407 0.068965516984462738
vt 0.25030100345611572 0.068965516984462738
vt 0.29995828866958618 0.068965516984462738
vt 0.34961560368537903 0.068965516984462738
vt 0.39927288889884949 0.068965516984462738
vt 0.44893017411231995 0.068965516984462738
vt 0.49858748912811279 0.068965516984462738
vt 0.51577651500701904 0.086179256439208984
vt 0.51577651500701904 0.13782048225402832
vt 0.51577651500701904 0.18946170806884766
vt 0.51577651500701904 0.24110293388366699
vt 0.51577651500701904 0.29274415969848633
vt 0.51577651500701904 0.34438538551330566
vt 0.51577651500701904 0.39602658152580261
vt 0.51577651500701904 0.44766780734062195
vt 0.51577651500701904 0.49930903315544128
vt 0.51577651500701904 0.55095028877258301
vt 0.51577651500701904 0.60259151458740234
vt 0.51577651500701904 0.6542326807975769
vt 0.51577651500701904 0.70587390661239624
vt 0.51577651500701904 0.75751513242721558
vt 0.51577651500701904 0.80915641784667969
vt 0.51577651500701904 0.86079758405685425
vt 0.51577651500701904 0.91243880987167358
vt 0.51577651500701904 0.96408003568649292
vt 0.49858748912811279 0.98129379749298096
vt 0.44893017411231995 0.98129379749298096
vt 0.39927288889884949 0.98129379749298096
vt 0.34961560368537903 0.98129379749298096
vt 0.29995828866958618 0.98129379749298096
vt 0.25030100345611572 0.98129379749298096
vt 0.20064370334148407 0.98129379749298096
vt 0.15098641812801361 0.98129379749298096
vt 0.10132911801338196 0.98129379749298096
vt 0.051671821624040604 0.98129379749298096
vt 0.034482758492231369 0.96408003568649292
vt 0.034482758492231369 0.91243880987167358
vt 0.034482758492231369 0.86079758405685425
vt 0.034482758492231369 0.80915641784667969
vt 0.034482758492231369 0.75751513242721558
vt 0.034482758492231369 0.70587390661239624
vt 0.034482758492231369 0.6542326807975769
vt 0.034482758492231369 0.60259151458740234
vt 0.034482758492231369 0.55095028877258301
vt 0.034482758492231369 0.49930903315544128
vt 0.034482758492231369 0.44766780734062195
vt 0.034482758492231369 0.39602658152580261
vt 0.034482758492231369 0.34438538551330566
vt 0.034482758492231369 0.29274415969848633
vt 0.034482758492231369 0.24110293388366699
vt 0.034482758492231369 0.18946170806884766
vt 0.034482758492231369 0.13782048225402832
vt 0.034482758492231369 0.086179256439208984
vt 0.045344620943069458 0.98008513450622559
vt 0.039517320692539215 0.97625195980072021
vt 0.035689633339643478 0.9704163670539856
vt 0.09464447945356369 0.94620418548583984
vt 0.06456361711025238 0.91111469268798828
vt 0.06456361711025238 0.94620418548583984
vt 0.06456361711025238 0.9637489914894104
vt 0.049523189663887024 0.94620418548583984
vt 0.049523189663887024 0.9637489914894104
vt 0.51456964015960693 0.9704163670539856
vt 0.5107419490814209 0.97625195980072021
vt 0.50491470098495483 0.98008513450622559
vt 0.45561480522155762 0.94620418548583984
vt 0.48569566011428833 0.91111469268798828
vt 0.48569566011428833 0.94620418548583984
vt 0.48569566011428833 0.9637489914894104
vt 0.50073611736297607 0.94620418548583984
vt 0.50073611736297607 0.9637489914894104
vt 0.50491470098495483 0.070174127817153931
vt 0.5107419490814209 0.074007309973239899
vt 0.51456964015960693 0.07984296977519989
vt 0.48569566011428833 0.13914461433887482
vt 0.45561480522155762 0.10405506938695908
vt 0.48569566011428833 0.10405506938695908
vt 0.50073611736297607 0.10405506938695908
vt 0.48569566011428833 0.086510293185710907
vt 0.50073611736297607 0.086510293185710907
vt 0.035689633339643478 0.07984296977519989
vt 0.039517320692539215 0.074007309973239899
vt 0.045344620943069458 0.070174127817153931
vt 0.09464447945356369 0.10405506938695908
vt 0.06456361711025238 0.13914461433887482
vt 0.06456361711025238 0.10405506938695908
vt 0.06456361711025238 0.086510293185710907
vt 0.049523189663887024 0.10405506938695908
vt 0.049523189663887024 0.086510293185710907
vt 0.027004972100257874 0.017241379246115685
vt 0 0.017241379246115685
vt 0.027004972100257874 0.033017914742231369
vt 0 0.033017914742231369
vt 0.020253729075193405 0.033017914742231369
vt 0.013502486050128937 0.033017914742231369
vt 0.0067512430250644684 0.033017914742231369
vt 0.0067512430250644684 0.017241379246115685
vt 0.013502486050128937 0.017241379246115685
vt 0.020253729075193405 0.017241379246115685
vt 0.28562566637992859 0
vt 0.25862067937850952 0
vt 0.28562566637992859 0.015776535496115685
vt 0.25862067937850952 0.015776535496115685
vt 0.27887442708015442 0.015776535496115685
vt 0.27212318778038025 0.015776535496115685
vt 0.26537191867828369 0.015776535496115685
vt 0.26537191867828369 0
vt 0.27212318778038025 0
vt 0.27887442708015442 0
vt 0.027004972100257874 0
vt 0 0
vt 0.027004972100257874 0.015776535496115685
vt 0 0.015776535496115685
vt 0.020253729075193405 0.015776535496115685
vt 0.013502486050128937 0.015776535496115685
vt 0.0067512430250644684 0.015776535496115685
vt 0.0067512430250644684 0
vt 0.013502486050128937 0
vt 0.020253729075193405 0
vt 0.28562566637992859 0.017241379246115685
vt 0.25862067937850952 0.017241379246115685
vt 0.28562566637992859 0.033017914742231369
vt 0.25862067937850952 0.033017914742231369
vt 0.26537191867828369 0.017241379246115685
vt 0.27212318778038025 0.017241379246115685
vt 0.27887442708015442 0.017241379246115685
vt 0.27887442708015442 0.033017914742231369
vt 0.27212318778038025 0.033017914742231369
vt 0.26537191867828369 0.033017914742231369
vn -1 0 0
vn -1 0 0
vn -1 0 0
vn -1 0 0
vn -1 0 0
vn -1 0 0
vn -1 0 0
vn -1 0 0
vn -1 0 0
vn -1 0 0
vn -1 0 0
vn -1 0 0
vn -1 0 0
vn -1 0 0
vn -1 0 0
vn -1 0 0
vn -1 0 0
vn -1 0 0
vn -1 0 0
vn -1 0 0
vn 0 0 -1
vn 0 0 -1
vn 0 0 -1
vn 0 0 -1
vn 0 0 -1
vn 0 0 -1
vn 0 0 -1
vn 0 0 -1
vn 0 0 -1
vn 0 0 -1
vn 0 0 -1
vn 0 0 -1
vn 0 0 -1
vn 0 0 -1
vn 0 0 -1
vn 0 0 -1
vn 0 0 -1
vn 0 0 -1
vn 0 0 -1
vn 0 0 -1
vn 0 0 -1
vn 0 0 -1
vn 0 0 -1
vn 0 0 -1
vn 0 0 -1
vn 0 0 -1
vn 0 0 -1
vn 0 0 -1
vn 0 0 -1
vn 0 0 -1
vn 0 0 -1
vn 0 0 -1
vn 0 0 -1
vn 0 0 -1
vn 0 0 -1
vn 0 0 -1
vn 1 0 0
vn 1 0 0
vn 1 0 0
vn 1 0 0
vn 1 0 0
vn 1 0 0
vn 1 0 0
vn 1 0 0
vn 1 0 0
vn 1 0 0
vn 1 0 0
vn 1 0 0
vn 1 0 0
vn 1 0 0
vn 1 0 0
vn 1 0 0
vn 1 0 0
vn 1 0 0
vn 1 0 0
vn 1 0 0
vn 0 0 1
vn 0 0 1
vn 0 0 1
vn 0 0 1
vn 0 0 1
vn 0 0 1
vn 0 0 1
vn 0 0 1
vn 0 0 1
vn 0 0 1
vn 0 0 1
vn 0 0 1
vn 0 0 1
vn 0 0 1
vn 0 0 1
vn 0 0 1
vn 0 0 1
vn 0 0 1
vn 0 0 1
vn 0 0 1
vn 0 0 1
vn 0 0 1
vn 0 0 1
vn 0 0 1
vn 0 0 1
vn 0 0 1
vn 0 0 1
vn 0 0 1
vn 0 0 1
vn 0 0 1
vn 0 0 1
vn 0 0 1
vn 0 0 1
vn 0 0 1
vn 0 0 1
vn 0 0 1
vn 0 1 0
vn 0 1 0
vn 0 1 0
vn 0 1 0
vn 0 1 0
vn 0 1 0
vn 0 1 0
vn 0 1 0
vn 0 1 0
vn 0 1 0
vn 0 1 0
vn 0 1 0
vn 0 1 0
vn 0 1 0
vn 0 1 0
vn 0 1 0
vn 0 1 0
vn 0 1 0
vn 0 1 0
vn 0 1 0
vn 0 1 0
vn 0 1 0
vn 0 1 0
vn 0 1 0
vn 0 1 0
vn 0 1 0
vn 0 1 0
vn 0 1 0
vn 0 1 0
vn 0 1 0
vn 0 1 0
vn 0 1 0
vn 0 1 0
vn 0 1 0
vn 0 1 0
vn 0 1 0
vn 0 1 0
vn 0 1 0
vn 0 1 0
vn 0 1 0
vn 0 1 0
vn 0 1 0
vn 0 1 0
vn 0 1 0
vn 0 1 0
vn 0 1 0
vn 0 1 0
vn 0 1 0
vn 0 1 0
vn 0 1 0
vn 0 1 0
vn 0 1 0
vn 0 1 0
vn 0 1 0
vn 0 1 0
vn 0 1 0
vn 0 1 0
vn 0 1 0
vn 0 1 0
vn 0 1 0
vn 0 1 0
vn 0 1 0
vn 0 1 0
vn 0 1 0
vn 0 1 0
vn 0 1 0
vn 0 1 0
vn 0 1 0
vn 0 1 0
vn 0 1 0
vn 0 1 0
vn 0 1 0
vn 0 1 0
vn 0 1 0
vn 0 1 0
vn 0 1 0
vn 0 1 0
vn 0 1 0
vn 0 1 0
vn 0 1 0
vn 0 1 0
vn 0 1 0
vn 0 1 0
vn 0 1 0
vn 0 1 0
vn 0 1 0
vn 0 1 0
vn 0 1 0
vn 0 1 0
vn 0 1 0
vn 0 1 0
vn 0 1 0
vn 0 1 0
vn 0 1 0
vn 0 1 0
vn 0 1 0
vn 0 1 0
vn 0 1 0
vn 0 1 0
vn 0 1 0
vn 0 1 0
vn 0 1 0
vn 0 1 0
vn 0 1 0
vn 0 1 0
vn 0 1 0
vn 0 1 0
vn 0 1 0
vn 0 1 0
vn 0 1 0
vn 0 1 0
vn 0 1 0
vn 0 1 0
vn 0 1 0
vn 0 1 0
vn 0 1 0
vn 0 1 0
vn 0 1 0
vn 0 1 0
vn 0 1 0
vn 0 1 0
vn 0 1 0
vn 0 1 0
vn 0 1 0
vn 0 1 0
vn 0 1 0
vn 0 1 0
vn 0 1 0
vn 0 1 0
vn 0 1 0
vn 0 1 0
vn 0 1 0
vn 0 1 0
vn 0 1 0
vn 0 1 0
vn 0 1 0
vn 0 1 0
vn 0 1 0
vn 0 1 0
vn 0 1 0
vn 0 1 0
vn 0 1 0
vn 0 1 0
vn 0 1 0
vn 0 1 0
vn 0 1 0
vn 0 1 0
vn 0 1 0
vn 0 1 0
vn 0 1 0
vn 0 1 0
vn 0 1 0
vn 0 1 0
vn 0 1 0
vn 0 1 0
vn 0 1 0
vn 0 1 0
vn 0 1 0
vn 0 1 0
vn 0 1 0
vn 0 1 0
vn 0 1 0
vn 0 1 0
vn 0 1 0
vn 0 1 0
vn 0 1 0
vn 0 1 0
vn 0 1 0
vn 0 1 0
vn 0 1 0
vn 0 1 0
vn 0 1 0
vn 0 1 0
vn 0 1 0
vn 0 1 0
vn 0 1 0
vn 0 -1 0
vn 0 -1 0
vn 0 -1 0
vn 0 -1 0
vn 0 -1 0
vn 0 -1 0
vn 0 -1 0
vn 0 -1 0
vn 0 -1 0
vn 0 -1 0
vn 0 -1 0
vn 0 -1 0
vn 0 -1 0
vn 0 -1 0
vn 0 -1 0
vn 0 -1 0
vn 0 -1 0
vn 0 -1 0
vn 0 -1 0
vn 0 -1 0
vn 0 -1 0
vn 0 -1 0
vn 0 -1 0
vn 0 -1 0
vn 0 -1 0
vn 0 -1 0
vn 0 -1 0
vn 0 -1 0
vn 0 -1 0
vn 0 -1 0
vn 0 -1 0
vn 0 -1 0
vn 0 -1 0
vn 0 -1 0
vn 0 -1 0
vn 0 -1 0
vn 0 -1 0
vn 0 -1 0
vn 0 -1 0
vn 0 -1 0
vn 0 -1 0
vn 0 -1 0
vn 0 -1 0
vn 0 -1 0
vn 0 -1 0
vn 0 -1 0
vn 0 -1 0
vn 0 -1 0
vn 0 -1 0
vn 0 -1 0
vn 0 -1 0
vn 0 -1 0
vn 0 -1 0
vn 0 -1 0
vn 0 -1 0
vn 0 -1 0
vn 0 -1 0
vn 0 -1 0
vn 0 -1 0
vn 0 -1 0
vn 0 -1 0
vn 0 -1 0
vn 0 -1 0
vn 0 -1 0
vn 0 -1 0
vn 0 -1 0
vn 0 -1 0
vn 0 -1 0
vn 0 -1 0
vn 0 -1 0
vn 0 -1 0
vn 0 -1 0
vn 0 -1 0
vn 0 -1 0
vn 0 -1 0
vn 0 -1 0
vn 0 -1 0
vn 0 -1 0
vn 0 -1 0
vn 0 -1 0
vn 0 -1 0
vn 0 -1 0
vn 0 -1 0
vn 0 -1 0
vn 0 -1 0
vn 0 -1 0
vn 0 -1 0
vn 0 -1 0
vn 0 -1 0
vn 0 -1 0
vn 0 -1 0
vn 0 -1 0
vn 0 -1 0
vn 0 -1 0
vn 0 -1 0
vn 0 -1 0
vn 0 -1 0
vn 0 -1 0
vn 0 -1 0
vn 0 -1 0
vn 0 -1 0
vn 0 -1 0
vn 0 -1 0
vn 0 -1 0
vn 0 -1 0
vn 0 -1 0
vn 0 -1 0
vn 0 -1 0
vn 0 -1 0
vn 0 -1 0
vn 0 -1 0
vn 0 -1 0
vn 0 -1 0
vn 0 -1 0
vn 0 -1 0
vn 0 -1 0
vn 0 -1 0
vn 0 -1 0
vn 0 -1 0
vn 0 -1 0
vn 0 -1 0
vn 0 -1 0
vn 0 -1 0
vn 0 -1 0
vn 0 -1 0
vn 0 -1 0
vn 0 -1 0
vn 0 -1 0
vn 0 -1 0
vn 0 -1 0
vn 0 -1 0
vn 0 -1 0
vn 0 -1 0
vn 0 -1 0
vn 0 -1 0
vn 0 -1 0
vn 0 -1 0
vn 0 -1 0
vn 0 -1 0
vn 0 -1 0
vn 0 -1 0
vn 0 -1 0
vn 0 -1 0
vn 0 -1 0
vn 0 -1 0
vn 0 -1 0
vn 0 -1 0
vn 0 -1 0
vn 0 -1 0
vn 0 -1 0
vn 0 -1 0
vn 0 -1 0
vn 0 -1 0
vn 0 -1 0
vn 0 -1 0
vn 0 -1 0
vn 0 -1 0
vn 0 -1 0
vn 0 -1 0
vn 0 -1 0
vn 0 -1 0
vn 0 -1 0
vn 0 -1 0
vn 0 -1 0
vn 0 -1 0
vn 0 -1 0
vn 0 -1 0
vn 0 -1 0
vn 0 -1 0
vn 0 -1 0
vn 0 -1 0
vn 0 -1 0
vn 0 -1 0
vn 0 -1 0
vn 0 -1 0
vn 0 -1 0
vn 1 0 0
vn 0 0 1
vn 1 0 0
vn 0 0 1
vn 0.92978829145431519 0 0.36809471249580383
vn 0.70710676908493042 0 0.70710676908493042
vn 0.36809471249580383 0 0.92978829145431519
vn 0.36809471249580383 0 0.92978829145431519
vn 0.70710676908493042 0 0.70710676908493042
vn 0.92978829145431519 0 0.36809471249580383
vn 0 0 -1
vn 1 0 0
vn 0 0 -1
vn 1 0 0
vn 0.36809471249580383 0 -0.92978829145431519
vn 0.70710676908493042 0 -0.70710676908493042
vn 0.92978829145431519 0 -0.36809471249580383
vn 0.92978829145431519 0 -0.36809471249580383
vn 0.70710676908493042 0 -0.70710676908493042
vn 0.36809471249580383 0 -0.92978829145431519
vn -1 0 0
vn 0 0 -1
vn -1 0 0
vn 0 0 -1
vn -0.92978829145431519 0 -0.36809471249580383
vn -0.70710676908493042 0 -0.70710676908493042
vn -0.36809471249580383 0 -0.92978829145431519
vn -0.36809471249580383 0 -0.92978829145431519
vn -0.70710676908493042 0 -0.70710676908493042
vn -0.92978829145431519 0 -0.36809471249580383
vn -1 0 0
vn 0 0 1
vn -1 0 0
vn 0 0 1
vn -0.36809471249580383 0 0.92978829145431519
vn -0.70710676908493042 0 0.70710676908493042
vn -0.92978829145431519 0 0.36809471249580383
vn -0.92978829145431519 0 0.36809471249580383
vn -0.70710676908493042 0 0.70710676908493042
vn -0.36809471249580383 0 0.92978829145431519
f 4/4/4 5/5/5 20/20/20 1/1/1
f 6/6/6 7/7/7 18/18/18 19/19/19
f 7/7/7 8/8/8 17/17/17 18/18/18
f 5/5/5 6/6/6 19/19/19 20/20/20
f 17/17/17 8/8/8 9/9/9 16/16/16
f 9/9/9 10/10/10 15/15/15 16/16/16
f 12/12/12 13/13/13 14/14/14 11/11/11
f 2/2/2 3/3/3 13/13/13 12/12/12
f 10/10/10 11/11/11 14/14/14 15/15/15
f 21/21/21 24/24/24 55/55/55 56/56/56
f 25/25/25 26/26/26 53/53/53 54/54/54
f 24/24/24 25/25/25 54/54/54 55/55/55
f 27/27/27 28/28/28 51/51/51 52/52/52
f 29/29/29 30/30/30 49/49/49 50/50/50
f 30/30/30 31/31/31 48/48/48 49/49/49
f 28/28/28 29/29/29 50/50/50 51/51/51
f 26/26/26 27/27/27 52/52/52 53/53/53
f 48/48/48 31/31/31 32/32/32 47/47/47
f 32/32/32 33/33/33 46/46/46 47/47/47
f 34/34/34 35/35/35 44/44/44 45/45/45
f 33/33/33 34/34/34 45/45/45 46/46/46
f 36/36/36 37/37/37 42/42/42 43/43/43
f 39/39/39 40/40/40 41/41/41 38/38/38
f 22/22/22 23/23/23 40/40/40 39/39/39
f 38/38/38 41/41/41 42/42/42 37/37/37
f 35/35/35 36/36/36 43/43/43 44/44/44
f 61/61/61 76/76/76 58/58/58 57/57/57
f 62/62/62 63/63/63 74/74/74 75/75/75
f 63/63/63 64/64/64 73/73/73 74/74/74
f 61/61/61 62/62/62 75/75/75 76/76/76
f 64/64/64 65/65/65 72/72/72 73/73/73
f 65/65/65 66/66/66 71/71/71 72/72/72
f 67/67/67 68/68/68 69/69/69 70/70/70
f 68/68/68 59/59/59 60/60/60 69/69/69
f 66/66/66 67/67/67 70/70/70 71/71/71
f 81/81/81 112/112/112 78/78/78 77/77/77
f 82/82/82 83/83/83 110/110/110 111/111/111
f 82/82/82 111/111/111 112/112/112 81/81/81
f 84/84/84 85/85/85 108/108/108 109/109/109
f 87/87/87 106/106/106 107/107/107 86/86/86
f 88/88/88 105/105/105 106/106/106 87/87/87
f 85/85/85 86/86/86 107/107/107 108/108/108
f 83/83/83 84/84/84 109/109/109 110/110/110
f 105/105/105 88/88/88 89/89/89 104/104/104
f 90/90/90 103/103/103 104/104/104 89/89/89
f 92/92/92 101/101/101 102/102/102 91/91/91
f 91/91/91 102/102/102 103/103/103 90/90/90
f 94/94/94 99/99/99 100/100/100 93/93/93
f 96/96/96 97/97/97 98/98/98 95/95/95
f 79/79/79 80/80/80 97/97/97 96/96/96
f 95/95/95 98/98/98 99/99/99 94/94/94
f 93/93/93 100/100/100 101/101/101 92/92/92
f 113/113/113 283/283/283 285/285/285 284/284/284
f 285/285/285 286/286/286 288/288/288 287/287/287
f 259/259/259 258/258/258 260/260/260 261/261/261
f 256/256/256 124/124/124 257/257/257 258/258/258
f 126/126/126 125/125/125 113/113/113 114/114/114
f 127/127/127 126/126/126 114/114/114 115/115/115
f 128/128/128 127/127/127 115/115/115 116/116/116
f 129/129/129 128/128/128 116/116/116 117/117/117
f 130/130/130 129/129/129 117/117/117 118/118/118
f 131/131/131 130/130/130 118/118/118 119/119/119
f 132/132/132 131/131/131 119/119/119 120/120/120
f 133/133/133 132/132/132 120/120/120 121/121/121
f 134/134/134 133/133/133 121/121/121 122/122/122
f 135/135/135 134/134/134 122/122/122 123/123/123
f 136/136/136 135/135/135 123/123/123 124/124/124
f 138/138/138 137/137/137 125/125/125 126/126/126
f 139/139/139 138/138/138 126/126/126 127/127/127
f 140/140/140 139/139/139 127/127/127 128/128/128
f 141/141/141 140/140/140 128/128/128 129/129/129
f 142/142/142 141/141/141 129/129/129 130/130/130
f 143/143/143 142/142/142 130/130/130 131/131/131
f 144/144/144 143/143/143 131/131/131 132/132/132
f 145/145/145 144/144/144 132/132/132 133/133/133
f 146/146/146 145/145/145 133/133/133 134/134/134
f 147/147/147 146/146/146 134/134/134 135/135/135
f 148/148/148 147/147/147 135/135/135 136/136/136
f 150/150/150 149/149/149 137/137/137 138/138/138
f 151/151/151 150/150/150 138/138/138 139/139/139
f 152/152/152 151/151/151 139/139/139 140/140/140
f 153/153/153 152/152/152 140/140/140 141/141/141
f 154/154/154 153/153/153 141/141/141 142/142/142
f 155/155/155 154/154/154 142/142/142 143/143/143
f 156/156/156 155/155/155 143/143/143 144/144/144
f 157/157/157 156/156/156 144/144/144 145/145/145
f 158/158/158 157/157/157 145/145/145 146/146/146
f 159/159/159 158/158/158 146/146/146 147/147/147
f 160/160/160 159/159/159 147/147/147 148/148/148
f 162/162/162 161/161/161 149/149/149 150/150/150
f 163/163/163 162/162/162 150/150/150 151/151/151
f 164/164/164 163/163/163 151/151/151 152/152/152
f 165/165/165 164/164/164 152/152/152 153/153/153
f 166/166/166 165/165/165 153/153/153 154/154/154
f 167/167/167 166/166/166 154/154/154 155/155/155
f 168/168/168 167/167/167 155/155/155 156/156/156
f 169/169/169 168/168/168 156/156/156 157/157/157
f 170/170/170 169/169/169 157/157/157 158/158/158
f 171/171/171 170/170/170 158/158/158 159/159/159
f 172/172/172 171/171/171 159/159/159 160/160/160
f 174/174/174 173/173/173 161/161/161 162/162/162
f 175/175/175 174/174/174 162/162/162 163/163/163
f 176/176/176 175/175/175 163/163/163 164/164/164
f 177/177/177 176/176/176 164/164/164 165/165/165
f 178/178/178 177/177/177 165/165/165 166/166/166
f 179/179/179 178/178/178 166/166/166 167/167/167
f 180/180/180 179/179/179 167/167/167 168/168/168
f 181/181/181 180/180/180 168/168/168 169/169/169
f 182/182/182 181/181/181 169/169/169 170/170/170
f 183/183/183 182/182/182 170/170/170 171/171/171
f 184/184/184 183/183/183 171/171/171 172/172/172
f 186/186/186 185/185/185 173/173/173 174/174/174
f 187/187/187 186/186/186 174/174/174 175/175/175
f 188/188/188 187/187/187 175/175/175 176/176/176
f 189/189/189 188/188/188 176/176/176 177/177/177
f 190/190/190 189/189/189 177/177/177 178/178/178
f 191/191/191 190/190/190 178/178/178 179/179/179
f 192/192/192 191/191/191 179/179/179 180/180/180
f 193/193/193 192/192/192 180/180/180 181/181/181
f 194/194/194 193/193/193 181/181/181 182/182/182
f 195/195/195 194/194/194 182/182/182 183/183/183
f 196/196/196 195/195/195 183/183/183 184/184/184
f 274/274/274 276/276/276 275/275/275 185/185/185
f 277/277/277 279/279/279 278/278/278 276/276/276
f 270/270/270 269/269/269 267/267/267 268/268/268
f 267/267/267 266/266/266 196/196/196 265/265/265
f 280/280/280 252/252/252 288/288/288
f 281/281/281 280/280/280 288/288/288
f 288/288/288 197/197/197 282/282/282
f 197/197/197 288/288/288 286/286/286
f 286/286/286 198/198/198 197/197/197
f 281/281/281 288/288/288 282/282/282
f 287/287/287 288/288/288 252/252/252
f 251/251/251 250/250/250 284/284/284
f 114/114/114 250/250/250 249/249/249
f 287/287/287 251/251/251 284/284/284
f 247/247/247 116/116/116 115/115/115 248/248/248
f 249/249/249 248/248/248 115/115/115
f 246/246/246 117/117/117 116/116/116 247/247/247
f 245/245/245 117/117/117 246/246/246
f 287/287/287 252/252/252 251/251/251
f 283/283/283 286/286/286 285/285/285
f 114/114/114 113/113/113 284/284/284
f 125/125/125 283/283/283 113/113/113
f 287/287/287 284/284/284 285/285/285
f 283/283/283 199/199/199 198/198/198
f 199/199/199 125/125/125 137/137/137 200/200/200
f 199/199/199 283/283/283 125/125/125
f 283/283/283 198/198/198 286/286/286
f 201/201/201 200/200/200 137/137/137
f 114/114/114 249/249/249 115/115/115
f 149/149/149 201/201/201 137/137/137
f 117/117/117 245/245/245 244/244/244 118/118/118
f 149/149/149 202/202/202 201/201/201
f 284/284/284 250/250/250 114/114/114
f 243/243/243 242/242/242 119/119/119
f 240/240/240 121/121/121 120/120/120 241/241/241
f 120/120/120 242/242/242 241/241/241
f 239/239/239 238/238/238 122/122/122
f 237/237/237 236/236/236 257/257/257
f 123/123/123 238/238/238 237/237/237
f 239/239/239 122/122/122 121/121/121 240/240/240
f 235/235/235 255/255/255 261/261/261
f 255/255/255 254/254/254 261/261/261
f 260/260/260 236/236/236 235/235/235
f 254/254/254 253/253/253 261/261/261
f 259/259/259 261/261/261 234/234/234
f 261/261/261 253/253/253 234/234/234
f 260/260/260 235/235/235 261/261/261
f 257/257/257 236/236/236 260/260/260
f 243/243/243 119/119/119 118/118/118 244/244/244
f 238/238/238 123/123/123 122/122/122
f 119/119/119 242/242/242 120/120/120
f 237/237/237 257/257/257 123/123/123
f 256/256/256 136/136/136 124/124/124
f 257/257/257 124/124/124 123/123/123
f 259/259/259 256/256/256 258/258/258
f 234/234/234 233/233/233 259/259/259
f 256/256/256 259/259/259 233/233/233
f 233/233/233 232/232/232 256/256/256
f 231/231/231 148/148/148 136/136/136 232/232/232
f 136/136/136 256/256/256 232/232/232
f 148/148/148 231/231/231 230/230/230
f 230/230/230 160/160/160 148/148/148
f 260/260/260 258/258/258 257/257/257
f 202/202/202 149/149/149 161/161/161 203/203/203
f 203/203/203 161/161/161 173/173/173 204/204/204
f 275/275/275 278/278/278 205/205/205
f 206/206/206 205/205/205 278/278/278
f 278/278/278 275/275/275 276/276/276
f 204/204/204 275/275/275 205/205/205
f 204/204/204 173/173/173 275/275/275
f 185/185/185 186/186/186 274/274/274
f 185/185/185 275/275/275 173/173/173
f 188/188/188 212/212/212 211/211/211 187/187/187
f 190/190/190 215/215/215 214/214/214 189/189/189
f 189/189/189 213/213/213 212/212/212 188/188/188
f 187/187/187 211/211/211 210/210/210 186/186/186
f 279/279/279 271/271/271 206/206/206
f 279/279/279 277/277/277 207/207/207
f 272/272/272 271/271/271 279/279/279
f 274/274/274 277/277/277 276/276/276
f 279/279/279 207/207/207 273/273/273
f 207/207/207 277/277/277 208/208/208
f 273/273/273 272/272/272 279/279/279
f 274/274/274 208/208/208 277/277/277
f 186/186/186 210/210/210 209/209/209
f 208/208/208 274/274/274 209/209/209
f 213/213/213 189/189/189 214/214/214
f 186/186/186 209/209/209 274/274/274
f 206/206/206 278/278/278 279/279/279
f 215/215/215 190/190/190 191/191/191 216/216/216
f 172/172/172 228/228/228 227/227/227 184/184/184
f 160/160/160 229/229/229 228/228/228 172/172/172
f 194/194/194 220/220/220 219/219/219 193/193/193
f 222/222/222 195/195/195 266/266/266
f 195/195/195 221/221/221 220/220/220 194/194/194
f 193/193/193 219/219/219 218/218/218 192/192/192
f 265/265/265 227/227/227 226/226/226
f 195/195/195 196/196/196 266/266/266
f 268/268/268 265/265/265 226/226/226
f 267/267/267 269/269/269 266/266/266
f 184/184/184 227/227/227 265/265/265
f 196/196/196 184/184/184 265/265/265
f 267/267/267 265/265/265 268/268/268
f 192/192/192 217/217/217 216/216/216 191/191/191
f 230/230/230 229/229/229 160/160/160
f 217/217/217 192/192/192 218/218/218
f 221/221/221 195/195/195 222/222/222
f 266/266/266 269/269/269 223/223/223
f 223/223/223 222/222/222 266/266/266
f 264/264/264 270/270/270 225/225/225
f 268/268/268 225/225/225 270/270/270
f 270/270/270 224/224/224 269/269/269
f 226/226/226 225/225/225 268/268/268
f 270/270/270 263/263/263 262/262/262
f 263/263/263 270/270/270 264/264/264
f 262/262/262 224/224/224 270/270/270
f 224/224/224 223/223/223 269/269/269
f 289/289/289 460/460/460 461/461/461 459/459/459
f 461/461/461 463/463/463 464/464/464 462/462/462
f 435/435/435 437/437/437 436/436/436 434/434/434
f 432/432/432 434/434/434 433/433/433 300/300/300
f 302/302/302 290/290/290 289/289/289 301/301/301
f 303/303/303 291/291/291 290/290/290 302/302/302
f 304/304/304 292/292/292 291/291/291 303/303/303
f 305/305/305 293/293/293 292/292/292 304/304/304
f 306/306/306 294/294/294 293/293/293 305/305/305
f 307/307/307 295/295/295 294/294/294 306/306/306
f 308/308/308 296/296/296 295/295/295 307/307/307
f 309/309/309 297/297/297 296/296/296 308/308/308
f 310/310/310 298/298/298 297/297/297 309/309/309
f 311/311/311 299/299/299 298/298/298 310/310/310
f 312/312/312 300/300/300 299/299/299 311/311/311
f 314/314/314 302/302/302 301/301/301 313/313/313
f 315/315/315 303/303/303 302/302/302 314/314/314
f 316/316/316 304/304/304 303/303/303 315/315/315
f 317/317/317 305/305/305 304/304/304 316/316/316
f 318/318/318 306/306/306 305/305/305 317/317/317
f 319/319/319 307/307/307 306/306/306 318/318/318
f 320/320/320 308/308/308 307/307/307 319/319/319
f 321/321/321 309/309/309 308/308/308 320/320/320
f 322/322/322 310/310/310 309/309/309 321/321/321
f 323/323/323 311/311/311 310/310/310 322/322/322
f 324/324/324 312/312/312 311/311/311 323/323/323
f 326/326/326 314/314/314 313/313/313 325/325/325
f 327/327/327 315/315/315 314/314/314 326/326/326
f 328/328/328 316/316/316 315/315/315 327/327/327
f 329/329/329 317/317/317 316/316/316 328/328/328
f 330/330/330 318/318/318 317/317/317 329/329/329
f 331/331/331 319/319/319 318/318/318 330/330/330
f 332/332/332 320/320/320 319/319/319 331/331/331
f 333/333/333 321/321/321 320/320/320 332/332/332
f 334/334/334 322/322/322 321/321/321 333/333/333
f 335/335/335 323/323/323 322/322/322 334/334/334
f 336/336/336 324/324/324 323/323/323 335/335/335
f 338/338/338 326/326/326 325/325/325 337/337/337
f 339/339/339 327/327/327 326/326/326 338/338/338
f 340/340/340 328/328/328 327/327/327 339/339/339
f 341/341/341 329/329/329 328/328/328 340/340/340
f 342/342/342 330/330/330 329/329/329 341/341/341
f 343/343/343 331/331/331 330/330/330 342/342/342
f 344/344/344 332/332/332 331/331/331 343/343/343
f 345/345/345 333/333/333 332/332/332 344/344/344
f 346/346/346 334/334/334 333/333/333 345/345/345
f 347/347/347 335/335/335 334/334/334 346/346/346
f 348/348/348 336/336/336 335/335/335 347/347/347
f 350/350/350 338/338/338 337/337/337 349/349/349
f 351/351/351 339/339/339 338/338/338 350/350/350
f 352/352/352 340/340/340 339/339/339 351/351/351
f 353/353/353 341/341/341 340/340/340 352/352/352
f 354/354/354 342/342/342 341/341/341 353/353/353
f 355/355/355 343/343/343 342/342/342 354/354/354
f 356/356/356 344/344/344 343/343/343 355/355/355
f 357/357/357 345/345/345 344/344/344 356/356/356
f 358/358/358 346/346/346 345/345/345 357/357/357
f 359/359/359 347/347/347 346/346/346 358/358/358
f 360/360/360 348/348/348 347/347/347 359/359/359
f 362/362/362 350/350/350 349/349/349 361/361/361
f 363/363/363 351/351/351 350/350/350 362/362/362
f 364/364/364 352/352/352 351/351/351 363/363/363
f 365/365/365 353/353/353 352/352/352 364/364/364
f 366/366/366 354/354/354 353/353/353 365/365/365
f 367/367/367 355/355/355 354/354/354 366/366/366
f 368/368/368 356/356/356 355/355/355 367/367/367
f 369/369/369 357/357/357 356/356/356 368/368/368
f 370/370/370 358/358/358 357/357/357 369/369/369
f 371/371/371 359/359/359 358/358/358 370/370/370
f 372/372/372 360/360/360 359/359/359 371/371/371
f 450/450/450 361/361/361 451/451/451 452/452/452
f 453/453/453 452/452/452 454/454/454 455/455/455
f 446/446/446 444/444/444 443/443/443 445/445/445
f 443/443/443 441/441/441 372/372/372 442/442/442
f 456/456/456 464/464/464 428/428/428
f 457/457/457 464/464/464 456/456/456
f 464/464/464 458/458/458 373/373/373
f 373/373/373 462/462/462 464/464/464
f 462/462/462 373/373/373 374/374/374
f 457/457/457 458/458/458 464/464/464
f 463/463/463 428/428/428 464/464/464
f 427/427/427 460/460/460 426/426/426
f 290/290/290 425/425/425 426/426/426
f 463/463/463 460/460/460 427/427/427
f 423/423/423 424/424/424 291/291/291 292/292/292
f 425/425/425 291/291/291 424/424/424
f 422/422/422 423/423/423 292/292/292 293/293/293
f 421/421/421 422/422/422 293/293/293
f 463/463/463 427/427/427 428/428/428
f 459/459/459 461/461/461 462/462/462
f 290/290/290 460/460/460 289/289/289
f 301/301/301 289/289/289 459/459/459
f 463/463/463 461/461/461 460/460/460
f 459/459/459 374/374/374 375/375/375
f 375/375/375 376/376/376 313/313/313 301/301/301
f 375/375/375 301/301/301 459/459/459
f 459/459/459 462/462/462 374/374/374
f 377/377/377 313/313/313 376/376/376
f 290/290/290 291/291/291 425/425/425
f 325/325/325 313/313/313 377/377/377
f 293/293/293 294/294/294 420/420/420 421/421/421
f 325/325/325 377/377/377 378/378/378
f 460/460/460 290/290/290 426/426/426
f 419/419/419 295/295/295 418/418/418
f 416/416/416 417/417/417 296/296/296 297/297/297
f 296/296/296 417/417/417 418/418/418
f 415/415/415 298/298/298 414/414/414
f 413/413/413 433/433/433 412/412/412
f 299/299/299 413/413/413 414/414/414
f 415/415/415 416/416/416 297/297/297 298/298/298
f 411/411/411 437/437/437 431/431/431
f 431/431/431 437/437/437 430/430/430
f 436/436/436 411/411/411 412/412/412
f 430/430/430 437/437/437 429/429/429
f 435/435/435 410/410/410 437/437/437
f 437/437/437 410/410/410 429/429/429
f 436/436/436 437/437/437 411/411/411
f 433/433/433 436/436/436 412/412/412
f 419/419/419 420/420/420 294/294/294 295/295/295
f 414/414/414 298/298/298 299/299/299
f 295/295/295 296/296/296 418/418/418
f 413/413/413 299/299/299 433/433/433
f 432/432/432 300/300/300 312/312/312
f 433/433/433 299/299/299 300/300/300
f 435/435/435 434/434/434 432/432/432
f 410/410/410 435/435/435 409/409/409
f 432/432/432 409/409/409 435/435/435
f 409/409/409 432/432/432 408/408/408
f 407/407/407 408/408/408 312/312/312 324/324/324
f 312/312/312 408/408/408 432/432/432
f 324/324/324 406/406/406 407/407/407
f 406/406/406 324/324/324 336/336/336
f 436/436/436 433/433/433 434/434/434
f 378/378/378 379/379/379 337/337/337 325/325/325
f 379/379/379 380/380/380 349/349/349 337/337/337
f 451/451/451 381/381/381 454/454/454
f 382/382/382 454/454/454 381/381/381
f 454/454/454 452/452/452 451/451/451
f 380/380/380 381/381/381 451/451/451
f 380/380/380 451/451/451 349/349/349
f 361/361/361 450/450/450 362/362/362
f 361/361/361 349/349/349 451/451/451
f 364/364/364 363/363/363 387/387/387 388/388/388
f 366/366/366 365/365/365 390/390/390 391/391/391
f 365/365/365 364/364/364 388/388/388 389/389/389
f 363/363/363 362/362/362 386/386/386 387/387/387
f 455/455/455 382/382/382 447/447/447
f 455/455/455 383/383/383 453/453/453
f 448/448/448 455/455/455 447/447/447
f 450/450/450 452/452/452 453/453/453
f 455/455/455 449/449/449 383/383/383
f 383/383/383 384/384/384 453/453/453
f 449/449/449 455/455/455 448/448/448
f 450/450/450 453/453/453 384/384/384
f 362/362/362 385/385/385 386/386/386
f 384/384/384 385/385/385 450/450/450
f 389/389/389 390/390/390 365/365/365
f 362/362/362 450/450/450 385/385/385
f 382/382/382 455/455/455 454/454/454
f 391/391/391 392/392/392 367/367/367 366/366/366
f 348/348/348 360/360/360 403/403/403 404/404/404
f 336/336/336 348/348/348 404/404/404 405/405/405
f 370/370/370 369/369/369 395/395/395 396/396/396
f 398/398/398 442/442/442 371/371/371
f 371/371/371 370/370/370 396/396/396 397/397/397
f 369/369/369 368/368/368 394/394/394 395/395/395
f 441/441/441 402/402/402 403/403/403
f 371/371/371 442/442/442 372/372/372
f 444/444/444 402/402/402 441/441/441
f 443/443/443 442/442/442 445/445/445
f 360/360/360 441/441/441 403/403/403
f 372/372/372 441/441/441 360/360/360
f 443/443/443 444/444/444 441/441/441
f 368/368/368 367/367/367 392/392/392 393/393/393
f 406/406/406 336/336/336 405/405/405
f 393/393/393 394/394/394 368/368/368
f 397/397/397 398/398/398 371/371/371
f 442/442/442 399/399/399 445/445/445
f 399/399/399 442/442/442 398/398/398
f 440/440/440 401/401/401 446/446/446
f 444/444/444 446/446/446 401/401/401
f 446/446/446 445/445/445 400/400/400
f 402/402/402 444/444/444 401/401/401
f 446/446/446 438/438/438 439/439/439
f 439/439/439 440/440/440 446/446/446
f 438/438/438 446/446/446 400/400/400
f 400/400/400 445/445/445 399/399/399
f 474/474/474 465/465/465 467/467/467 469/469/469
f 472/472/472 473/473/473 470/470/470 471/471/471
f 466/466/466 472/472/472 471/471/471 468/468/468
f 473/473/473 474/474/474 469/469/469 470/470/470
f 484/484/484 475/475/475 477/477/477 479/479/479
f 482/482/482 483/483/483 480/480/480 481/481/481
f 476/476/476 482/482/482 481/481/481 478/478/478
f 483/483/483 484/484/484 479/479/479 480/480/480
f 494/494/494 485/485/485 487/487/487 489/489/489
f 492/492/492 493/493/493 490/490/490 491/491/491
f 486/486/486 492/492/492 491/491/491 488/488/488
f 493/493/493 494/494/494 489/489/489 490/490/490
f 501/501/501 495/495/495 497/497/497 502/502/502
f 499/499/499 500/500/500 503/503/503 504/504/504
f 496/496/496 499/499/499 504/504/504 498/498/498
f 500/500/500 501/501/501 502/502/502 503/503/503
