# Rhino

mtllib PCaja_11.mtl
usemtl Default
v -169 109 54
v -120 109 54
v -169 104.80000305175781 54
v -169 100.59999847412109 54
v -169 96.400001525878906 54
v -169 92.199996948242188 54
v -169 88 54
v -169 83.800003051757812 54
v -169 79.599998474121094 54
v -169 75.400001525878906 54
v -169 71.199996948242188 54
v -169 67 54
v -144.5 85 54
v -156.75 85 54
v -144.5 97 54
v -156.75 97 54
v -144.5 73 54
v -156.75 73 54
v -124.08333587646484 109 54
v -128.16667175292969 109 54
v -132.25 109 54
v -136.33332824707031 109 54
v -140.41667175292969 109 54
v -144.5 109 54
v -148.58332824707031 109 54
v -152.66667175292969 109 54
v -156.75 109 54
v -160.83332824707031 109 54
v -164.91667175292969 109 54
v -132.25 85 54
v -132.25 97 54
v -121 70 54
v -120.5 70 54
v -120 70 54
v -132.25 73 54
v -126.125 73 54
v -132.25 67 54
v -126.125 67 54
v -123.0625 67 54
v -123.0625 73 54
v -126.125 70 54
v -123.0625 70 54
v -126.125 85 54
v -132.25 79 54
v -126.125 79 54
v -121.53125 70 54
v -121.53125 73 54
v -123.0625 71.5 54
v -121.53125 71.5 54
v -123.0625 79 54
v -126.125 76 54
v -123.0625 76 54
v -120.765625 71.5 54
v -121.53125 70.75 54
v -120.765625 70.75 54
v -121.53125 67 54
v -123.0625 68.5 54
v -121.53125 68.5 54
v -121 67 54
v -121 68.5 54
v -130 61 54
v -127 63 54
v -124 65 54
v -140 61 54
v -136.66667175292969 61 54
v -133.33332824707031 61 54
v -138.375 73 54
v -144.5 67 54
v -138.375 67 54
v -164.85714721679688 66.142860412597656 54
v -160.71427917480469 65.285713195800781 54
v -156.57142639160156 64.428573608398438 54
v -152.42857360839844 63.571430206298828 54
v -148.28572082519531 62.714286804199219 54
v -144.14285278320312 61.857143402099609 54
v -120 73.900001525878906 54
v -120 77.800003051757812 54
v -120 81.699996948242188 54
v -120 85.599998474121094 54
v -120 89.5 54
v -120 93.400001525878906 54
v -120 97.300003051757812 54
v -120 101.19999694824219 54
v -120 105.09999847412109 54
v -126.125 97 54
v -132.25 91 54
v -126.125 91 54
v -132.25 103 54
v -126.125 103 54
v -169 109 55
v -120 109 55
v -169 104.80000305175781 55
v -169 100.59999847412109 55
v -169 96.400001525878906 55
v -169 92.199996948242188 55
v -169 88 55
v -169 83.800003051757812 55
v -169 79.599998474121094 55
v -169 75.400001525878906 55
v -169 71.199996948242188 55
v -169 67 55
v -144.5 85 55
v -156.75 85 55
v -144.5 97 55
v -156.75 97 55
v -144.5 73 55
v -156.75 73 55
v -124.08333587646484 109 55
v -128.16667175292969 109 55
v -132.25 109 55
v -136.33332824707031 109 55
v -140.41667175292969 109 55
v -144.5 109 55
v -148.58332824707031 109 55
v -152.66667175292969 109 55
v -156.75 109 55
v -160.83332824707031 109 55
v -164.91667175292969 109 55
v -132.25 85 55
v -132.25 97 55
v -121 70 55
v -120.5 70 55
v -132.25 73 55
v -126.125 73 55
v -132.25 67 55
v -126.125 67 55
v -123.0625 67 55
v -120 70 55
v -123.0625 73 55
v -126.125 70 55
v -123.0625 70 55
v -126.125 85 55
v -132.25 79 55
v -126.125 79 55
v -121.53125 67 55
v -121.53125 70 55
v -123.0625 68.5 55
v -121.53125 68.5 55
v -121.53125 69.25 55
v -121.53125 73 55
v -123.0625 71.5 55
v -121.53125 71.5 55
v -123.0625 79 55
v -126.125 76 55
v -123.0625 76 55
v -120.765625 71.5 55
v -121.53125 70.75 55
v -120.765625 70.75 55
v -121 67 55
v -121 68.5 55
v -130 61 55
v -127 63 55
v -124 65 55
v -140 61 55
v -136.66667175292969 61 55
v -133.33332824707031 61 55
v -138.375 73 55
v -144.5 67 55
v -138.375 67 55
v -164.85714721679688 66.142860412597656 55
v -160.71427917480469 65.285713195800781 55
v -156.57142639160156 64.428573608398438 55
v -152.42857360839844 63.571430206298828 55
v -148.28572082519531 62.714286804199219 55
v -144.14285278320312 61.857143402099609 55
v -120 73.900001525878906 55
v -120 77.800003051757812 55
v -120 81.699996948242188 55
v -120 85.599998474121094 55
v -120 89.5 55
v -120 93.400001525878906 55
v -120 97.300003051757812 55
v -120 101.19999694824219 55
v -120 105.09999847412109 55
v -126.125 97 55
v -132.25 91 55
v -126.125 91 55
v -132.25 103 55
v -126.125 103 55
v -120 70 54
v -120 70 55
v -120 109 54
v -120 109 55
v -120 70 54.5
v -120 72.785713195800781 54.5
v -120 72.785713195800781 54.75
v -120 71.392860412597656 54.5
v -120 71.392860412597656 54.75
v -120 72.785713195800781 54.25
v -120 71.392860412597656 54.25
v -120 73.900001525878906 54
v -120 77.800003051757812 54
v -120 81.699996948242188 54
v -120 85.599998474121094 54
v -120 89.5 54
v -120 93.400001525878906 54
v -120 97.300003051757812 54
v -120 101.19999694824219 54
v -120 105.09999847412109 54
v -120 105.09999847412109 55
v -120 101.19999694824219 55
v -120 97.300003051757812 55
v -120 93.400001525878906 55
v -120 89.5 55
v -120 85.599998474121094 55
v -120 81.699996948242188 55
v -120 77.800003051757812 55
v -120 73.900001525878906 55
v -121 70 54
v -121 70 55
v -120 70 54
v -120 70 55
v -120 70 54.5
v -120.5 70 54
v -120.5 70 55
v -121 70 54.5
v -121 67 54
v -121 67 55
v -121 70 54
v -121 70 55
v -121 68.5 54
v -121 68.5 55
v -121 70 54.5
v -130 61 54
v -130 61 55
v -121 67 54
v -121 67 55
v -127 63 54
v -124 65 54
v -124 65 55
v -127 63 55
v -140 61 54
v -140 61 55
v -130 61 54
v -130 61 55
v -136.66667175292969 61 54
v -133.33332824707031 61 54
v -133.33332824707031 61 55
v -136.66667175292969 61 55
v -169 67 54
v -169 67 55
v -140 61 54
v -140 61 55
v -164.85714721679688 66.142860412597656 54
v -160.71427917480469 65.285713195800781 54
v -156.57142639160156 64.428573608398438 54
v -152.42857360839844 63.571430206298828 54
v -148.28572082519531 62.714286804199219 54
v -144.14285278320312 61.857143402099609 54
v -144.14285278320312 61.857143402099609 55
v -148.28572082519531 62.714286804199219 55
v -152.42857360839844 63.571430206298828 55
v -156.57142639160156 64.428573608398438 55
v -160.71427917480469 65.285713195800781 55
v -164.85714721679688 66.142860412597656 55
v -169 109 54
v -169 109 55
v -169 67 54
v -169 67 55
v -169 104.80000305175781 54
v -169 100.59999847412109 54
v -169 96.400001525878906 54
v -169 92.199996948242188 54
v -169 88 54
v -169 83.800003051757812 54
v -169 79.599998474121094 54
v -169 75.400001525878906 54
v -169 71.199996948242188 54
v -169 71.199996948242188 55
v -169 75.400001525878906 55
v -169 79.599998474121094 55
v -169 83.800003051757812 55
v -169 88 55
v -169 92.199996948242188 55
v -169 96.400001525878906 55
v -169 100.59999847412109 55
v -169 104.80000305175781 55
v -120 109 54
v -120 109 55
v -169 109 54
v -169 109 55
v -124.08333587646484 109 54
v -128.16667175292969 109 54
v -132.25 109 54
v -136.33332824707031 109 54
v -140.41667175292969 109 54
v -144.5 109 54
v -148.58332824707031 109 54
v -152.66667175292969 109 54
v -156.75 109 54
v -160.83332824707031 109 54
v -164.91667175292969 109 54
v -164.91667175292969 109 55
v -160.83332824707031 109 55
v -156.75 109 55
v -152.66667175292969 109 55
v -148.58332824707031 109 55
v -144.5 109 55
v -140.41667175292969 109 55
v -136.33332824707031 109 55
v -132.25 109 55
v -128.16667175292969 109 55
v -124.08333587646484 109 55
vt 0.061855670064687729 0.49484536051750183
vt 0.061855670064687729 0.99853515625
vt 0.10502646118402481 0.49484536051750183
vt 0.14819726347923279 0.49484536051750183
vt 0.19136804342269897 0.49484536051750183
vt 0.23453885316848755 0.49484536051750183
vt 0.27770963311195374 0.49484536051750183
vt 0.32088044285774231 0.49484536051750183
vt 0.36405125260353088 0.49484536051750183
vt 0.40722203254699707 0.49484536051750183
vt 0.45039284229278564 0.49484536051750183
vt 0.49356362223625183 0.49484536051750183
vt 0.30854591727256775 0.74669027328491211
vt 0.30854591727256775 0.62076783180236816
vt 0.18520079553127289 0.74669027328491211
vt 0.18520079553127289 0.62076783180236816
vt 0.4318910539150238 0.74669027328491211
vt 0.4318910539150238 0.62076783180236816
vt 0.061855670064687729 0.95656102895736694
vt 0.061855670064687729 0.91458684206008911
vt 0.061855670064687729 0.87261271476745605
vt 0.061855670064687729 0.830638587474823
vt 0.061855670064687729 0.78866440057754517
vt 0.061855670064687729 0.74669027328491211
vt 0.061855670064687729 0.70471608638763428
vt 0.061855670064687729 0.66274195909500122
vt 0.061855670064687729 0.62076783180236816
vt 0.061855670064687729 0.57879364490509033
vt 0.061855670064687729 0.53681951761245728
vt 0.30854591727256775 0.87261271476745605
vt 0.18520079553127289 0.87261271476745605
vt 0.46272733807563782 0.98825579881668091
vt 0.46272733807563782 0.99339544773101807
vt 0.46272733807563782 0.99853515625
vt 0.4318910539150238 0.87261271476745605
vt 0.4318910539150238 0.93557393550872803
vt 0.49356362223625183 0.87261271476745605
vt 0.49356362223625183 0.93557393550872803
vt 0.49356362223625183 0.96705454587936401
vt 0.4318910539150238 0.96705454587936401
vt 0.46272733807563782 0.93557393550872803
vt 0.46272733807563782 0.96705454587936401
vt 0.30854591727256775 0.93557393550872803
vt 0.37021848559379578 0.87261271476745605
vt 0.37021848559379578 0.93557393550872803
vt 0.46272733807563782 0.98279482126235962
vt 0.4318910539150238 0.98279482126235962
vt 0.44730919599533081 0.96705454587936401
vt 0.44730919599533081 0.98279482126235962
vt 0.37021848559379578 0.96705454587936401
vt 0.40105476975440979 0.93557393550872803
vt 0.40105476975440979 0.96705454587936401
vt 0.44730919599533081 0.9906650185585022
vt 0.45501828193664551 0.98279482126235962
vt 0.45501828193664551 0.9906650185585022
vt 0.49356362223625183 0.98279482126235962
vt 0.47814548015594482 0.96705454587936401
vt 0.47814548015594482 0.98279482126235962
vt 0.49356362223625183 0.98825579881668091
vt 0.47814548015594482 0.98825579881668091
vt 0.55523616075515747 0.89574128389358521
vt 0.53467863798141479 0.92657947540283203
vt 0.51412117481231689 0.95741760730743408
vt 0.55523616075515747 0.79294747114181519
vt 0.55523616075515747 0.82721209526062012
vt 0.55523616075515747 0.86147671937942505
vt 0.4318910539150238 0.80965149402618408
vt 0.49356362223625183 0.74669027328491211
vt 0.49356362223625183 0.80965149402618408
vt 0.50237399339675903 0.53743135929107666
vt 0.51118433475494385 0.58001738786697388
vt 0.51999473571777344 0.62260341644287109
vt 0.52880507707595825 0.66518944501876831
vt 0.53761547803878784 0.70777547359466553
vt 0.54642581939697266 0.75036144256591797
vt 0.42264017462730408 0.99853515625
vt 0.38255298137664795 0.99853515625
vt 0.3424658477306366 0.99853515625
vt 0.30237868428230286 0.99853515625
vt 0.26229149103164673 0.99853515625
vt 0.22220432758331299 0.99853515625
vt 0.18211717903614044 0.99853515625
vt 0.14203000068664551 0.99853515625
vt 0.10194283723831177 0.99853515625
vt 0.18520079553127289 0.93557393550872803
vt 0.24687336385250092 0.87261271476745605
vt 0.24687336385250092 0.93557393550872803
vt 0.12352823466062546 0.87261271476745605
vt 0.12352823466062546 0.93557393550872803
vt 0.50515460968017578 0
vt 0 0
vt 0.50515460968017578 0.04317079484462738
vt 0.50515460968017578 0.086341589689254761
vt 0.50515460968017578 0.12951238453388214
vt 0.50515460968017578 0.17268317937850952
vt 0.50515460968017578 0.2158539742231369
vt 0.50515460968017578 0.25902476906776428
vt 0.50515460968017578 0.30219557881355286
vt 0.50515460968017578 0.34536635875701904
vt 0.50515460968017578 0.38853716850280762
vt 0.50515460968017578 0.4317079484462738
vt 0.25257730484008789 0.24669025838375092
vt 0.37886598706245422 0.24669025838375092
vt 0.25257730484008789 0.12334512919187546
vt 0.37886598706245422 0.12334512919187546
vt 0.25257730484008789 0.37003538012504578
vt 0.37886598706245422 0.37003538012504578
vt 0.042096208781003952 0
vt 0.084192447364330292 0
vt 0.12628865242004395 0
vt 0.1683848649263382 0
vt 0.21048110723495483 0
vt 0.25257730484008789 0
vt 0.29467353224754333 0
vt 0.33676975965499878 0
vt 0.37886598706245422 0
vt 0.42096218466758728 0
vt 0.46305841207504272 0
vt 0.12628865242004395 0.24669025838375092
vt 0.12628865242004395 0.12334512919187546
vt 0.01030927337706089 0.40087166428565979
vt 0.0051546366885304451 0.40087166428565979
vt 0.12628865242004395 0.37003538012504578
vt 0.063144326210021973 0.37003538012504578
vt 0.12628865242004395 0.4317079484462738
vt 0.063144326210021973 0.4317079484462738
vt 0.031572163105010986 0.4317079484462738
vt 0 0.40087166428565979
vt 0.031572163105010986 0.37003538012504578
vt 0.063144326210021973 0.40087166428565979
vt 0.031572163105010986 0.40087166428565979
vt 0.063144326210021973 0.24669025838375092
vt 0.12628865242004395 0.30836281180381775
vt 0.063144326210021973 0.30836281180381775
vt 0.015786081552505493 0.4317079484462738
vt 0.015786081552505493 0.40087166428565979
vt 0.031572163105010986 0.4162898063659668
vt 0.015786081552505493 0.4162898063659668
vt 0.015786081552505493 0.40858075022697449
vt 0.015786081552505493 0.37003538012504578
vt 0.031572163105010986 0.38545352220535278
vt 0.015786081552505493 0.38545352220535278
vt 0.031572163105010986 0.30836281180381775
vt 0.063144326210021973 0.33919909596443176
vt 0.031572163105010986 0.33919909596443176
vt 0.0078930407762527466 0.38545352220535278
vt 0.015786081552505493 0.39316260814666748
vt 0.0078930407762527466 0.39316260814666748
vt 0.01030927337706089 0.4317079484462738
vt 0.01030927337706089 0.4162898063659668
vt 0.10309279710054398 0.49338051676750183
vt 0.072164945304393768 0.47282299399375916
vt 0.041237123310565948 0.45226547122001648
vt 0.20618556439876556 0.49338051676750183
vt 0.17182131111621857 0.49338051676750183
vt 0.13745704293251038 0.49338051676750183
vt 0.18943299353122711 0.37003538012504578
vt 0.25257730484008789 0.4317079484462738
vt 0.18943299353122711 0.4317079484462738
vt 0.46244478225708008 0.44051831960678101
vt 0.4197348952293396 0.44932869076728821
vt 0.37702503800392151 0.45813903212547302
vt 0.33431515097618103 0.46694943308830261
vt 0.29160529375076294 0.47575980424880981
vt 0.24889543652534485 0.48457014560699463
vt 0 0.36078450083732605
vt 0 0.32069733738899231
vt 0 0.28061017394065857
vt 0 0.24052301049232483
vt 0 0.2004358321428299
vt 0 0.16034866869449615
vt 0 0.12026150524616241
vt 0 0.080174334347248077
vt 0 0.040087167173624039
vt 0.063144326210021973 0.12334512919187546
vt 0.12628865242004395 0.18501769006252289
vt 0.063144326210021973 0.18501769006252289
vt 0.12628865242004395 0.061672564595937729
vt 0.063144326210021973 0.061672564595937729
vt 0.060390826314687729 0.49484536051750183
vt 0.051546391099691391 0.49484536051750183
vt 0.060390826314687729 0.89690721035003662
vt 0.051546391099691391 0.89690721035003662
vt 0.05596860870718956 0.49484536051750183
vt 0.05596860870718956 0.52356404066085815
vt 0.053757499903440475 0.52356404066085815
vt 0.05596860870718956 0.5092046856880188
vt 0.053757499903440475 0.5092046856880188
vt 0.058179717510938644 0.52356404066085815
vt 0.058179717510938644 0.5092046856880188
vt 0.060390826314687729 0.53505152463912964
vt 0.060390826314687729 0.57525771856307983
vt 0.060390826314687729 0.61546391248703003
vt 0.060390826314687729 0.65567010641098022
vt 0.060390826314687729 0.69587630033493042
vt 0.060390826314687729 0.73608249425888062
vt 0.060390826314687729 0.77628862857818604
vt 0.060390826314687729 0.81649482250213623
vt 0.060390826314687729 0.85670101642608643
vt 0.051546391099691391 0.85670101642608643
vt 0.051546391099691391 0.81649482250213623
vt 0.051546391099691391 0.77628862857818604
vt 0.051546391099691391 0.73608249425888062
vt 0.051546391099691391 0.69587630033493042
vt 0.051546391099691391 0.65567010641098022
vt 0.051546391099691391 0.61546391248703003
vt 0.051546391099691391 0.57525771856307983
vt 0.051546391099691391 0.53505152463912964
vt 0 0.49484536051750183
vt 0 0.50515460968017578
vt 0.0088444342836737633 0.49484536051750183
vt 0.0088444342836737633 0.50515460968017578
vt 0.0088444342836737633 0.5
vt 0.0044222171418368816 0.49484536051750183
vt 0.0044222171418368816 0.50515460968017578
vt 0 0.5
vt 0.019153712317347527 0.49484536051750183
vt 0.010309278033673763 0.49484536051750183
vt 0.019153712317347527 0.52577316761016846
vt 0.010309278033673763 0.52577316761016846
vt 0.019153712317347527 0.51030927896499634
vt 0.010309278033673763 0.51030927896499634
vt 0.014731495641171932 0.52577316761016846
vt 0.039772268384695053 0.49484536051750183
vt 0.030927835032343864 0.49484536051750183
vt 0.039772268384695053 0.60635727643966675
vt 0.030927835032343864 0.60635727643966675
vt 0.039772268384695053 0.53201597929000854
vt 0.039772268384695053 0.56918662786483765
vt 0.030927835032343864 0.56918662786483765
vt 0.030927835032343864 0.53201597929000854
vt 0.029462991282343864 0.49484536051750183
vt 0.020618556067347527 0.49484536051750183
vt 0.029462991282343864 0.59793812036514282
vt 0.020618556067347527 0.59793812036514282
vt 0.029462991282343864 0.52920961380004883
vt 0.029462991282343864 0.56357389688491821
vt 0.020618556067347527 0.56357389688491821
vt 0.020618556067347527 0.52920961380004883
vt 0.050081547349691391 0.49484536051750183
vt 0.041237112134695053 0.49484536051750183
vt 0.050081547349691391 0.80014622211456299
vt 0.041237112134695053 0.80014622211456299
vt 0.050081547349691391 0.53845977783203125
vt 0.050081547349691391 0.58207416534423828
vt 0.050081547349691391 0.62568861246109009
vt 0.050081547349691391 0.66930299997329712
vt 0.050081547349691391 0.71291744709014893
vt 0.050081547349691391 0.75653183460235596
vt 0.041237112134695053 0.75653183460235596
vt 0.041237112134695053 0.71291744709014893
vt 0.041237112134695053 0.66930299997329712
vt 0.041237112134695053 0.62568861246109009
vt 0.041237112134695053 0.58207416534423828
vt 0.041237112134695053 0.53845977783203125
vt 0.56554543972015381 0
vt 0.55670100450515747 0
vt 0.56554543972015381 0.4329896867275238
vt 0.55670100450515747 0.4329896867275238
vt 0.56554543972015381 0.043298970907926559
vt 0.56554543972015381 0.086597941815853119
vt 0.56554543972015381 0.12989690899848938
vt 0.56554543972015381 0.17319588363170624
vt 0.56554543972015381 0.2164948433637619
vt 0.56554543972015381 0.25979381799697876
vt 0.56554543972015381 0.30309277772903442
vt 0.56554543972015381 0.34639176726341248
vt 0.56554543972015381 0.38969069719314575
vt 0.55670100450515747 0.38969069719314575
vt 0.55670100450515747 0.34639176726341248
vt 0.55670100450515747 0.30309277772903442
vt 0.55670100450515747 0.25979381799697876
vt 0.55670100450515747 0.2164948433637619
vt 0.55670100450515747 0.17319588363170624
vt 0.55670100450515747 0.12989690899848938
vt 0.55670100450515747 0.086597941815853119
vt 0.55670100450515747 0.043298970907926559
vt 0.57585471868515015 0
vt 0.56701028347015381 0
vt 0.57585471868515015 0.50515460968017578
vt 0.56701028347015381 0.50515460968017578
vt 0.57585471868515015 0.042096219956874847
vt 0.57585471868515015 0.084192439913749695
vt 0.57585471868515015 0.12628865242004395
vt 0.57585471868515015 0.16838487982749939
vt 0.57585471868515015 0.21048109233379364
vt 0.57585471868515015 0.25257730484008789
vt 0.57585471868515015 0.29467353224754333
vt 0.57585471868515015 0.33676975965499878
vt 0.57585471868515015 0.37886598706245422
vt 0.57585471868515015 0.42096218466758728
vt 0.57585471868515015 0.46305844187736511
vt 0.56701028347015381 0.46305844187736511
vt 0.56701028347015381 0.42096218466758728
vt 0.56701028347015381 0.37886598706245422
vt 0.56701028347015381 0.33676975965499878
vt 0.56701028347015381 0.29467353224754333
vt 0.56701028347015381 0.25257730484008789
vt 0.56701028347015381 0.21048109233379364
vt 0.56701028347015381 0.16838487982749939
vt 0.56701028347015381 0.12628865242004395
vt 0.56701028347015381 0.084192439913749695
vt 0.56701028347015381 0.042096219956874847
vn 0 0 -1
vn 0 0 -1
vn 0 0 -1
vn 0 0 -1
vn 0 0 -1
vn 0 0 -1
vn 0 0 -1
vn 0 0 -1
vn 0 0 -1
vn 0 0 -1
vn 0 0 -1
vn 0 0 -1
vn 0 0 -1
vn 0 0 -1
vn 0 0 -1
vn 0 0 -1
vn 0 0 -1
vn 0 0 -1
vn 0 0 -1
vn 0 0 -1
vn 0 0 -1
vn 0 0 -1
vn 0 0 -1
vn 0 0 -1
vn 0 0 -1
vn 0 0 -1
vn 0 0 -1
vn 0 0 -1
vn 0 0 -1
vn 0 0 -1
vn 0 0 -1
vn 0 0 -1
vn 0 0 -1
vn 0 0 -1
vn 0 0 -1
vn 0 0 -1
vn 0 0 -1
vn 0 0 -1
vn 0 0 -1
vn 0 0 -1
vn 0 0 -1
vn 0 0 -1
vn 0 0 -1
vn 0 0 -1
vn 0 0 -1
vn 0 0 -1
vn 0 0 -1
vn 0 0 -1
vn 0 0 -1
vn 0 0 -1
vn 0 0 -1
vn 0 0 -1
vn 0 0 -1
vn 0 0 -1
vn 0 0 -1
vn 0 0 -1
vn 0 0 -1
vn 0 0 -1
vn 0 0 -1
vn 0 0 -1
vn 0 0 -1
vn 0 0 -1
vn 0 0 -1
vn 0 0 -1
vn 0 0 -1
vn 0 0 -1
vn 0 0 -1
vn 0 0 -1
vn 0 0 -1
vn 0 0 -1
vn 0 0 -1
vn 0 0 -1
vn 0 0 -1
vn 0 0 -1
vn 0 0 -1
vn 0 0 -1
vn 0 0 -1
vn 0 0 -1
vn 0 0 -1
vn 0 0 -1
vn 0 0 -1
vn 0 0 -1
vn 0 0 -1
vn 0 0 -1
vn 0 0 -1
vn 0 0 -1
vn 0 0 -1
vn 0 0 -1
vn 0 0 -1
vn 0 0 1
vn 0 0 1
vn 0 0 1
vn 0 0 1
vn 0 0 1
vn 0 0 1
vn 0 0 1
vn 0 0 1
vn 0 0 1
vn 0 0 1
vn 0 0 1
vn 0 0 1
vn 0 0 1
vn 0 0 1
vn 0 0 1
vn 0 0 1
vn 0 0 1
vn 0 0 1
vn 0 0 1
vn 0 0 1
vn 0 0 1
vn 0 0 1
vn 0 0 1
vn 0 0 1
vn 0 0 1
vn 0 0 1
vn 0 0 1
vn 0 0 1
vn 0 0 1
vn 0 0 1
vn 0 0 1
vn 0 0 1
vn 0 0 1
vn 0 0 1
vn 0 0 1
vn 0 0 1
vn 0 0 1
vn 0 0 1
vn 0 0 1
vn 0 0 1
vn 0 0 1
vn 0 0 1
vn 0 0 1
vn 0 0 1
vn 0 0 1
vn 0 0 1
vn 0 0 1
vn 0 0 1
vn 0 0 1
vn 0 0 1
vn 0 0 1
vn 0 0 1
vn 0 0 1
vn 0 0 1
vn 0 0 1
vn 0 0 1
vn 0 0 1
vn 0 0 1
vn 0 0 1
vn 0 0 1
vn 0 0 1
vn 0 0 1
vn 0 0 1
vn 0 0 1
vn 0 0 1
vn 0 0 1
vn 0 0 1
vn 0 0 1
vn 0 0 1
vn 0 0 1
vn 0 0 1
vn 0 0 1
vn 0 0 1
vn 0 0 1
vn 0 0 1
vn 0 0 1
vn 0 0 1
vn 0 0 1
vn 0 0 1
vn 0 0 1
vn 0 0 1
vn 0 0 1
vn 0 0 1
vn 0 0 1
vn 0 0 1
vn 0 0 1
vn 0 0 1
vn 0 0 1
vn 0 0 1
vn 0 0 1
vn 1 0 0
vn 1 0 0
vn 1 0 0
vn 1 0 0
vn 1 0 0
vn 1 0 0
vn 1 0 0
vn 1 0 0
vn 1 0 0
vn 1 0 0
vn 1 0 0
vn 1 0 0
vn 1 0 0
vn 1 0 0
vn 1 0 0
vn 1 0 0
vn 1 0 0
vn 1 0 0
vn 1 0 0
vn 1 0 0
vn 1 0 0
vn 1 0 0
vn 1 0 0
vn 1 0 0
vn 1 0 0
vn 1 0 0
vn 1 0 0
vn 1 0 0
vn 1 0 0
vn 0 -1 0
vn 0 -1 0
vn 0 -1 0
vn 0 -1 0
vn 0 -1 0
vn 0 -1 0
vn 0 -1 0
vn 0 -1 0
vn 1 0 0
vn 1 0 0
vn 1 0 0
vn 1 0 0
vn 1 0 0
vn 1 0 0
vn 1 0 0
vn 0.55470019578933716 -0.83205032348632812 0
vn 0.55470019578933716 -0.83205032348632812 0
vn 0.55470019578933716 -0.83205032348632812 0
vn 0.55470019578933716 -0.83205032348632812 0
vn 0.55470019578933716 -0.83205032348632812 0
vn 0.55470019578933716 -0.83205032348632812 0
vn 0.55470019578933716 -0.83205032348632812 0
vn 0.55470019578933716 -0.83205032348632812 0
vn 0 -1 0
vn 0 -1 0
vn 0 -1 0
vn 0 -1 0
vn 0 -1 0
vn 0 -1 0
vn 0 -1 0
vn 0 -1 0
vn -0.20260560512542725 -0.97926044464111328 0
vn -0.20260560512542725 -0.97926044464111328 0
vn -0.20260560512542725 -0.97926044464111328 0
vn -0.20260560512542725 -0.97926044464111328 0
vn -0.20260560512542725 -0.97926044464111328 0
vn -0.20260560512542725 -0.97926044464111328 0
vn -0.20260560512542725 -0.97926044464111328 0
vn -0.20260560512542725 -0.97926044464111328 0
vn -0.20260560512542725 -0.97926044464111328 0
vn -0.20260560512542725 -0.97926044464111328 0
vn -0.20260560512542725 -0.97926044464111328 0
vn -0.20260560512542725 -0.97926044464111328 0
vn -0.20260560512542725 -0.97926044464111328 0
vn -0.20260560512542725 -0.97926044464111328 0
vn -0.20260560512542725 -0.97926044464111328 0
vn -0.20260560512542725 -0.97926044464111328 0
vn -1 0 0
vn -1 0 0
vn -1 0 0
vn -1 0 0
vn -1 0 0
vn -1 0 0
vn -1 0 0
vn -1 0 0
vn -1 0 0
vn -1 0 0
vn -1 0 0
vn -1 0 0
vn -1 0 0
vn -1 0 0
vn -1 0 0
vn -1 0 0
vn -1 0 0
vn -1 0 0
vn -1 0 0
vn -1 0 0
vn -1 0 0
vn -1 0 0
vn 0 1 0
vn 0 1 0
vn 0 1 0
vn 0 1 0
vn 0 1 0
vn 0 1 0
vn 0 1 0
vn 0 1 0
vn 0 1 0
vn 0 1 0
vn 0 1 0
vn 0 1 0
vn 0 1 0
vn 0 1 0
vn 0 1 0
vn 0 1 0
vn 0 1 0
vn 0 1 0
vn 0 1 0
vn 0 1 0
vn 0 1 0
vn 0 1 0
vn 0 1 0
vn 0 1 0
vn 0 1 0
vn 0 1 0
f 58/58/58 57/57/57 42/42/42 46/46/46
f 56/56/56 39/39/39 57/57/57 58/58/58
f 55/55/55 54/54/54 49/49/49 53/53/53
f 49/49/49 48/48/48 40/40/40 47/47/47
f 54/54/54 48/48/48 49/49/49
f 42/42/42 54/54/54 46/46/46
f 48/48/48 54/54/54 42/42/42
f 48/48/48 36/36/36 40/40/40
f 41/41/41 48/48/48 42/42/42
f 36/36/36 48/48/48 41/41/41
f 57/57/57 41/41/41 42/42/42
f 38/38/38 57/57/57 39/39/39
f 41/41/41 57/57/57 38/38/38
f 41/41/41 35/35/35 36/36/36
f 37/37/37 41/41/41 38/38/38
f 35/35/35 41/41/41 37/37/37
f 52/52/52 51/51/51 45/45/45 50/50/50
f 40/40/40 36/36/36 51/51/51 52/52/52
f 45/45/45 44/44/44 30/30/30 43/43/43
f 51/51/51 44/44/44 45/45/45
f 35/35/35 51/51/51 36/36/36
f 44/44/44 51/51/51 35/35/35
f 67/67/67 44/44/44 35/35/35
f 44/44/44 13/13/13 30/30/30
f 13/13/13 67/67/67 17/17/17
f 67/67/67 13/13/13 44/44/44
f 37/37/37 69/69/69 67/67/67 35/35/35
f 69/69/69 68/68/68 17/17/17 67/67/67
f 87/87/87 86/86/86 31/31/31 85/85/85
f 43/43/43 30/30/30 86/86/86 87/87/87
f 85/85/85 31/31/31 88/88/88 89/89/89
f 86/86/86 15/15/15 31/31/31
f 13/13/13 86/86/86 30/30/30
f 15/15/15 86/86/86 13/13/13
f 13/13/13 14/14/14 16/16/16 15/15/15
f 17/17/17 18/18/18 14/14/14 13/13/13
f 3/3/3 1/1/1 29/29/29
f 16/16/16 28/28/28 27/27/27
f 28/28/28 3/3/3 29/29/29
f 15/15/15 26/26/26 25/25/25
f 15/15/15 24/24/24 23/23/23
f 23/23/23 22/22/22 88/88/88
f 24/24/24 15/15/15 25/25/25
f 26/26/26 16/16/16 27/27/27
f 28/28/28 16/16/16 4/4/4
f 16/16/16 6/6/6 5/5/5
f 14/14/14 7/7/7 6/6/6
f 16/16/16 5/5/5 4/4/4
f 16/16/16 26/26/26 15/15/15
f 9/9/9 8/8/8 14/14/14
f 6/6/6 16/16/16 14/14/14
f 14/14/14 8/8/8 7/7/7
f 4/4/4 3/3/3 28/28/28
f 15/15/15 23/23/23 88/88/88
f 88/88/88 21/21/21 20/20/20
f 20/20/20 89/89/89 88/88/88
f 89/89/89 83/83/83 82/82/82 85/85/85
f 88/88/88 22/22/22 21/21/21
f 19/19/19 89/89/89 20/20/20
f 84/84/84 19/19/19 2/2/2
f 89/89/89 19/19/19 84/84/84
f 83/83/83 89/89/89 84/84/84
f 87/87/87 80/80/80 79/79/79 43/43/43
f 50/50/50 45/45/45 43/43/43
f 85/85/85 82/82/82 81/81/81 87/87/87
f 80/80/80 87/87/87 81/81/81
f 79/79/79 78/78/78 43/43/43
f 77/77/77 50/50/50 78/78/78
f 50/50/50 43/43/43 78/78/78
f 31/31/31 15/15/15 88/88/88
f 18/18/18 10/10/10 9/9/9 14/14/14
f 11/11/11 10/10/10 18/18/18
f 11/11/11 70/70/70 12/12/12
f 70/70/70 11/11/11 18/18/18
f 73/73/73 17/17/17 68/68/68
f 68/68/68 69/69/69 75/75/75
f 37/37/37 66/66/66 65/65/65 69/69/69
f 18/18/18 17/17/17 73/73/73
f 18/18/18 71/71/71 70/70/70
f 18/18/18 73/73/73 72/72/72
f 64/64/64 75/75/75 69/69/69
f 74/74/74 68/68/68 75/75/75
f 68/68/68 74/74/74 73/73/73
f 65/65/65 64/64/64 69/69/69
f 66/66/66 37/37/37 61/61/61
f 37/37/37 62/62/62 61/61/61
f 71/71/71 18/18/18 72/72/72
f 38/38/38 62/62/62 37/37/37
f 47/47/47 40/40/40 52/52/52
f 53/53/53 49/49/49 47/47/47
f 76/76/76 47/47/47 52/52/52
f 76/76/76 52/52/52 77/77/77
f 53/53/53 47/47/47 76/76/76
f 33/33/33 32/32/32 55/55/55
f 34/34/34 53/53/53 76/76/76
f 54/54/54 55/55/55 32/32/32
f 55/55/55 53/53/53 34/34/34
f 32/32/32 46/46/46 54/54/54
f 52/52/52 50/50/50 77/77/77
f 46/46/46 32/32/32 60/60/60 58/58/58
f 39/39/39 63/63/63 38/38/38
f 62/62/62 38/38/38 63/63/63
f 63/63/63 39/39/39 56/56/56
f 55/55/55 34/34/34 33/33/33
f 59/59/59 56/56/56 58/58/58 60/60/60
f 63/63/63 56/56/56 59/59/59
f 139/139/139 136/136/136 131/131/131
f 137/137/137 138/138/138 139/139/139
f 131/131/131 137/137/137 139/139/139
f 135/135/135 138/138/138 137/137/137 127/127/127
f 148/148/148 146/146/146 142/142/142 147/147/147
f 142/142/142 140/140/140 129/129/129 141/141/141
f 147/147/147 142/142/142 141/141/141
f 131/131/131 136/136/136 147/147/147
f 141/141/141 131/131/131 147/147/147
f 141/141/141 129/129/129 124/124/124
f 130/130/130 131/131/131 141/141/141
f 124/124/124 130/130/130 141/141/141
f 137/137/137 131/131/131 130/130/130
f 126/126/126 127/127/127 137/137/137
f 130/130/130 126/126/126 137/137/137
f 130/130/130 124/124/124 123/123/123
f 125/125/125 126/126/126 130/130/130
f 123/123/123 125/125/125 130/130/130
f 145/145/145 143/143/143 134/134/134 144/144/144
f 129/129/129 145/145/145 144/144/144 124/124/124
f 134/134/134 132/132/132 119/119/119 133/133/133
f 144/144/144 134/134/134 133/133/133
f 123/123/123 124/124/124 144/144/144
f 133/133/133 123/123/123 144/144/144
f 157/157/157 123/123/123 133/133/133
f 133/133/133 119/119/119 102/102/102
f 102/102/102 106/106/106 157/157/157
f 157/157/157 133/133/133 102/102/102
f 125/125/125 123/123/123 157/157/157 159/159/159
f 159/159/159 157/157/157 106/106/106 158/158/158
f 177/177/177 175/175/175 120/120/120 176/176/176
f 132/132/132 177/177/177 176/176/176 119/119/119
f 175/175/175 179/179/179 178/178/178 120/120/120
f 176/176/176 120/120/120 104/104/104
f 102/102/102 119/119/119 176/176/176
f 104/104/104 102/102/102 176/176/176
f 102/102/102 104/104/104 105/105/105 103/103/103
f 106/106/106 102/102/102 103/103/103 107/107/107
f 92/92/92 118/118/118 90/90/90
f 105/105/105 116/116/116 117/117/117
f 117/117/117 118/118/118 92/92/92
f 104/104/104 114/114/114 115/115/115
f 104/104/104 112/112/112 113/113/113
f 112/112/112 178/178/178 111/111/111
f 113/113/113 114/114/114 104/104/104
f 115/115/115 116/116/116 105/105/105
f 117/117/117 93/93/93 105/105/105
f 105/105/105 94/94/94 95/95/95
f 103/103/103 95/95/95 96/96/96
f 105/105/105 93/93/93 94/94/94
f 105/105/105 104/104/104 115/115/115
f 98/98/98 103/103/103 97/97/97
f 95/95/95 103/103/103 105/105/105
f 103/103/103 96/96/96 97/97/97
f 93/93/93 117/117/117 92/92/92
f 104/104/104 178/178/178 112/112/112
f 178/178/178 109/109/109 110/110/110
f 104/104/104 120/120/120 178/178/178
f 179/179/179 175/175/175 172/172/172 173/173/173
f 109/109/109 178/178/178 179/179/179
f 178/178/178 110/110/110 111/111/111
f 108/108/108 109/109/109 179/179/179
f 174/174/174 91/91/91 108/108/108
f 179/179/179 174/174/174 108/108/108
f 173/173/173 174/174/174 179/179/179
f 175/175/175 177/177/177 171/171/171 172/172/172
f 143/143/143 132/132/132 134/134/134
f 145/145/145 167/167/167 143/143/143
f 177/177/177 132/132/132 169/169/169 170/170/170
f 132/132/132 143/143/143 168/168/168
f 177/177/177 170/170/170 171/171/171
f 132/132/132 168/168/168 169/169/169
f 143/143/143 167/167/167 168/168/168
f 107/107/107 103/103/103 98/98/98 99/99/99
f 100/100/100 107/107/107 99/99/99
f 100/100/100 101/101/101 160/160/160
f 160/160/160 107/107/107 100/100/100
f 163/163/163 158/158/158 106/106/106
f 158/158/158 165/165/165 159/159/159
f 125/125/125 159/159/159 155/155/155 156/156/156
f 107/107/107 163/163/163 106/106/106
f 107/107/107 160/160/160 161/161/161
f 107/107/107 162/162/162 163/163/163
f 154/154/154 159/159/159 165/165/165
f 164/164/164 165/165/165 158/158/158
f 158/158/158 163/163/163 164/164/164
f 155/155/155 159/159/159 154/154/154
f 156/156/156 151/151/151 125/125/125
f 125/125/125 151/151/151 152/152/152
f 161/161/161 162/162/162 107/107/107
f 126/126/126 125/125/125 152/152/152
f 140/140/140 145/145/145 129/129/129
f 146/146/146 140/140/140 142/142/142
f 166/166/166 145/145/145 140/140/140
f 146/146/146 128/128/128 166/166/166
f 146/146/146 166/166/166 140/140/140
f 148/148/148 147/147/147 136/136/136 121/121/121
f 139/139/139 121/121/121 136/136/136
f 122/122/122 148/148/148 121/121/121
f 148/148/148 128/128/128 146/146/146
f 167/167/167 145/145/145 166/166/166
f 150/150/150 139/139/139 138/138/138
f 127/127/127 126/126/126 153/153/153
f 152/152/152 153/153/153 126/126/126
f 150/150/150 121/121/121 139/139/139
f 153/153/153 135/135/135 127/127/127
f 148/148/148 122/122/122 128/128/128
f 135/135/135 149/149/149 150/150/150 138/138/138
f 153/153/153 149/149/149 135/135/135
f 186/186/186 188/188/188 187/187/187 185/185/185
f 185/185/185 187/187/187 190/190/190 189/189/189
f 184/184/184 180/180/180 190/190/190
f 180/180/180 191/191/191 189/189/189 190/190/190
f 190/190/190 187/187/187 184/184/184
f 185/185/185 189/189/189 191/191/191
f 185/185/185 191/191/191 192/192/192
f 207/207/207 192/192/192 193/193/193 206/206/206
f 181/181/181 184/184/184 188/188/188
f 187/187/187 188/188/188 184/184/184
f 208/208/208 181/181/181 188/188/188 186/186/186
f 208/208/208 186/186/186 185/185/185
f 185/185/185 207/207/207 208/208/208
f 207/207/207 185/185/185 192/192/192
f 195/195/195 204/204/204 205/205/205 194/194/194
f 196/196/196 203/203/203 204/204/204 195/195/195
f 198/198/198 201/201/201 202/202/202 197/197/197
f 182/182/182 183/183/183 200/200/200 199/199/199
f 199/199/199 200/200/200 201/201/201 198/198/198
f 197/197/197 202/202/202 203/203/203 196/196/196
f 194/194/194 205/205/205 206/206/206 193/193/193
f 216/216/216 209/209/209 214/214/214
f 216/216/216 215/215/215 210/210/210
f 213/213/213 216/216/216 214/214/214
f 216/216/216 213/213/213 215/215/215
f 213/213/213 212/212/212 215/215/215
f 211/211/211 213/213/213 214/214/214
f 218/218/218 217/217/217 221/221/221 222/222/222
f 221/221/221 223/223/223 222/222/222
f 223/223/223 220/220/220 222/222/222
f 219/219/219 223/223/223 221/221/221
f 228/228/228 231/231/231 225/225/225 224/224/224
f 231/231/231 228/228/228 229/229/229 230/230/230
f 226/226/226 227/227/227 230/230/230 229/229/229
f 236/236/236 239/239/239 233/233/233 232/232/232
f 239/239/239 236/236/236 237/237/237 238/238/238
f 234/234/234 235/235/235 238/238/238 237/237/237
f 240/240/240 244/244/244 255/255/255 241/241/241
f 246/246/246 253/253/253 254/254/254 245/245/245
f 244/244/244 245/245/245 254/254/254 255/255/255
f 246/246/246 247/247/247 252/252/252 253/253/253
f 247/247/247 248/248/248 251/251/251 252/252/252
f 249/249/249 242/242/242 243/243/243 250/250/250
f 248/248/248 249/249/249 250/250/250 251/251/251
f 260/260/260 277/277/277 257/257/257 256/256/256
f 261/261/261 262/262/262 275/275/275 276/276/276
f 263/263/263 274/274/274 275/275/275 262/262/262
f 260/260/260 261/261/261 276/276/276 277/277/277
f 264/264/264 273/273/273 274/274/274 263/263/263
f 265/265/265 266/266/266 271/271/271 272/272/272
f 268/268/268 269/269/269 270/270/270 267/267/267
f 258/258/258 259/259/259 269/269/269 268/268/268
f 266/266/266 267/267/267 270/270/270 271/271/271
f 265/265/265 272/272/272 273/273/273 264/264/264
f 278/278/278 282/282/282 303/303/303 279/279/279
f 282/282/282 283/283/283 302/302/302 303/303/303
f 285/285/285 300/300/300 301/301/301 284/284/284
f 286/286/286 299/299/299 300/300/300 285/285/285
f 284/284/284 301/301/301 302/302/302 283/283/283
f 287/287/287 298/298/298 299/299/299 286/286/286
f 289/289/289 296/296/296 297/297/297 288/288/288
f 289/289/289 290/290/290 295/295/295 296/296/296
f 291/291/291 292/292/292 293/293/293 294/294/294
f 280/280/280 281/281/281 293/293/293 292/292/292
f 290/290/290 291/291/291 294/294/294 295/295/295
f 288/288/288 297/297/297 298/298/298 287/287/287
usemtl Default
v -169 109 105
v -120 109 105
v -169 104.80000305175781 105
v -169 100.59999847412109 105
v -169 96.400001525878906 105
v -169 92.199996948242188 105
v -169 88 105
v -169 83.800003051757812 105
v -169 79.599998474121094 105
v -169 75.400001525878906 105
v -169 71.199996948242188 105
v -169 67 105
v -144.5 85 105
v -156.75 85 105
v -144.5 97 105
v -156.75 97 105
v -144.5 73 105
v -156.75 73 105
v -124.08333587646484 109 105
v -128.16667175292969 109 105
v -132.25 109 105
v -136.33332824707031 109 105
v -140.41667175292969 109 105
v -144.5 109 105
v -148.58332824707031 109 105
v -152.66667175292969 109 105
v -156.75 109 105
v -160.83332824707031 109 105
v -164.91667175292969 109 105
v -132.25 85 105
v -132.25 97 105
v -121 70 105
v -120.5 70 105
v -120 70 105
v -132.25 73 105
v -126.125 73 105
v -132.25 67 105
v -126.125 67 105
v -123.0625 67 105
v -123.0625 73 105
v -126.125 70 105
v -123.0625 70 105
v -126.125 85 105
v -132.25 79 105
v -126.125 79 105
v -121.53125 70 105
v -121.53125 73 105
v -123.0625 71.5 105
v -121.53125 71.5 105
v -123.0625 79 105
v -126.125 76 105
v -123.0625 76 105
v -120.765625 71.5 105
v -121.53125 70.75 105
v -120.765625 70.75 105
v -121.53125 67 105
v -123.0625 68.5 105
v -121.53125 68.5 105
v -121 67 105
v -121 68.5 105
v -130 61 105
v -127 63 105
v -124 65 105
v -140 61 105
v -136.66667175292969 61 105
v -133.33332824707031 61 105
v -138.375 73 105
v -144.5 67 105
v -138.375 67 105
v -164.85714721679688 66.142860412597656 105
v -160.71427917480469 65.285713195800781 105
v -156.57142639160156 64.428573608398438 105
v -152.42857360839844 63.571430206298828 105
v -148.28572082519531 62.714286804199219 105
v -144.14285278320312 61.857143402099609 105
v -120 73.900001525878906 105
v -120 77.800003051757812 105
v -120 81.699996948242188 105
v -120 85.599998474121094 105
v -120 89.5 105
v -120 93.400001525878906 105
v -120 97.300003051757812 105
v -120 101.19999694824219 105
v -120 105.09999847412109 105
v -126.125 97 105
v -132.25 91 105
v -126.125 91 105
v -132.25 103 105
v -126.125 103 105
v -169 109 106
v -120 109 106
v -169 104.80000305175781 106
v -169 100.59999847412109 106
v -169 96.400001525878906 106
v -169 92.199996948242188 106
v -169 88 106
v -169 83.800003051757812 106
v -169 79.599998474121094 106
v -169 75.400001525878906 106
v -169 71.199996948242188 106
v -169 67 106
v -144.5 85 106
v -156.75 85 106
v -144.5 97 106
v -156.75 97 106
v -144.5 73 106
v -156.75 73 106
v -124.08333587646484 109 106
v -128.16667175292969 109 106
v -132.25 109 106
v -136.33332824707031 109 106
v -140.41667175292969 109 106
v -144.5 109 106
v -148.58332824707031 109 106
v -152.66667175292969 109 106
v -156.75 109 106
v -160.83332824707031 109 106
v -164.91667175292969 109 106
v -132.25 85 106
v -132.25 97 106
v -121 70 106
v -120.5 70 106
v -132.25 73 106
v -126.125 73 106
v -132.25 67 106
v -126.125 67 106
v -123.0625 67 106
v -120 70 106
v -123.0625 73 106
v -126.125 70 106
v -123.0625 70 106
v -126.125 85 106
v -132.25 79 106
v -126.125 79 106
v -121.53125 67 106
v -121.53125 70 106
v -123.0625 68.5 106
v -121.53125 68.5 106
v -121.53125 69.25 106
v -121.53125 73 106
v -123.0625 71.5 106
v -121.53125 71.5 106
v -123.0625 79 106
v -126.125 76 106
v -123.0625 76 106
v -120.765625 71.5 106
v -121.53125 70.75 106
v -120.765625 70.75 106
v -121 67 106
v -121 68.5 106
v -130 61 106
v -127 63 106
v -124 65 106
v -140 61 106
v -136.66667175292969 61 106
v -133.33332824707031 61 106
v -138.375 73 106
v -144.5 67 106
v -138.375 67 106
v -164.85714721679688 66.142860412597656 106
v -160.71427917480469 65.285713195800781 106
v -156.57142639160156 64.428573608398438 106
v -152.42857360839844 63.571430206298828 106
v -148.28572082519531 62.714286804199219 106
v -144.14285278320312 61.857143402099609 106
v -120 73.900001525878906 106
v -120 77.800003051757812 106
v -120 81.699996948242188 106
v -120 85.599998474121094 106
v -120 89.5 106
v -120 93.400001525878906 106
v -120 97.300003051757812 106
v -120 101.19999694824219 106
v -120 105.09999847412109 106
v -126.125 97 106
v -132.25 91 106
v -126.125 91 106
v -132.25 103 106
v -126.125 103 106
v -120 70 105
v -120 70 106
v -120 109 105
v -120 109 106
v -120 70 105.5
v -120 72.785713195800781 105.5
v -120 72.785713195800781 105.75
v -120 71.392860412597656 105.5
v -120 71.392860412597656 105.75
v -120 72.785713195800781 105.25
v -120 71.392860412597656 105.25
v -120 73.900001525878906 105
v -120 77.800003051757812 105
v -120 81.699996948242188 105
v -120 85.599998474121094 105
v -120 89.5 105
v -120 93.400001525878906 105
v -120 97.300003051757812 105
v -120 101.19999694824219 105
v -120 105.09999847412109 105
v -120 105.09999847412109 106
v -120 101.19999694824219 106
v -120 97.300003051757812 106
v -120 93.400001525878906 106
v -120 89.5 106
v -120 85.599998474121094 106
v -120 81.699996948242188 106
v -120 77.800003051757812 106
v -120 73.900001525878906 106
v -121 70 105
v -121 70 106
v -120 70 105
v -120 70 106
v -120 70 105.5
v -120.5 70 105
v -120.5 70 106
v -121 70 105.5
v -121 67 105
v -121 67 106
v -121 70 105
v -121 70 106
v -121 68.5 105
v -121 68.5 106
v -121 70 105.5
v -130 61 105
v -130 61 106
v -121 67 105
v -121 67 106
v -127 63 105
v -124 65 105
v -124 65 106
v -127 63 106
v -140 61 105
v -140 61 106
v -130 61 105
v -130 61 106
v -136.66667175292969 61 105
v -133.33332824707031 61 105
v -133.33332824707031 61 106
v -136.66667175292969 61 106
v -169 67 105
v -169 67 106
v -140 61 105
v -140 61 106
v -164.85714721679688 66.142860412597656 105
v -160.71427917480469 65.285713195800781 105
v -156.57142639160156 64.428573608398438 105
v -152.42857360839844 63.571430206298828 105
v -148.28572082519531 62.714286804199219 105
v -144.14285278320312 61.857143402099609 105
v -144.14285278320312 61.857143402099609 106
v -148.28572082519531 62.714286804199219 106
v -152.42857360839844 63.571430206298828 106
v -156.57142639160156 64.428573608398438 106
v -160.71427917480469 65.285713195800781 106
v -164.85714721679688 66.142860412597656 106
v -169 109 105
v -169 109 106
v -169 67 105
v -169 67 106
v -169 104.80000305175781 105
v -169 100.59999847412109 105
v -169 96.400001525878906 105
v -169 92.199996948242188 105
v -169 88 105
v -169 83.800003051757812 105
v -169 79.599998474121094 105
v -169 75.400001525878906 105
v -169 71.199996948242188 105
v -169 71.199996948242188 106
v -169 75.400001525878906 106
v -169 79.599998474121094 106
v -169 83.800003051757812 106
v -169 88 106
v -169 92.199996948242188 106
v -169 96.400001525878906 106
v -169 100.59999847412109 106
v -169 104.80000305175781 106
v -120 109 105
v -120 109 106
v -169 109 105
v -169 109 106
v -124.08333587646484 109 105
v -128.16667175292969 109 105
v -132.25 109 105
v -136.33332824707031 109 105
v -140.41667175292969 109 105
v -144.5 109 105
v -148.58332824707031 109 105
v -152.66667175292969 109 105
v -156.75 109 105
v -160.83332824707031 109 105
v -164.91667175292969 109 105
v -164.91667175292969 109 106
v -160.83332824707031 109 106
v -156.75 109 106
v -152.66667175292969 109 106
v -148.58332824707031 109 106
v -144.5 109 106
v -140.41667175292969 109 106
v -136.33332824707031 109 106
v -132.25 109 106
v -128.16667175292969 109 106
v -124.08333587646484 109 106
vt 0.061855670064687729 0.49484536051750183
vt 0.061855670064687729 0.99853515625
vt 0.10502646118402481 0.49484536051750183
vt 0.14819726347923279 0.49484536051750183
vt 0.19136804342269897 0.49484536051750183
vt 0.23453885316848755 0.49484536051750183
vt 0.27770963311195374 0.49484536051750183
vt 0.32088044285774231 0.49484536051750183
vt 0.36405125260353088 0.49484536051750183
vt 0.40722203254699707 0.49484536051750183
vt 0.45039284229278564 0.49484536051750183
vt 0.49356362223625183 0.49484536051750183
vt 0.30854591727256775 0.74669027328491211
vt 0.30854591727256775 0.62076783180236816
vt 0.18520079553127289 0.74669027328491211
vt 0.18520079553127289 0.62076783180236816
vt 0.4318910539150238 0.74669027328491211
vt 0.4318910539150238 0.62076783180236816
vt 0.061855670064687729 0.95656102895736694
vt 0.061855670064687729 0.91458684206008911
vt 0.061855670064687729 0.87261271476745605
vt 0.061855670064687729 0.830638587474823
vt 0.061855670064687729 0.78866440057754517
vt 0.061855670064687729 0.74669027328491211
vt 0.061855670064687729 0.70471608638763428
vt 0.061855670064687729 0.66274195909500122
vt 0.061855670064687729 0.62076783180236816
vt 0.061855670064687729 0.57879364490509033
vt 0.061855670064687729 0.53681951761245728
vt 0.30854591727256775 0.87261271476745605
vt 0.18520079553127289 0.87261271476745605
vt 0.46272733807563782 0.98825579881668091
vt 0.46272733807563782 0.99339544773101807
vt 0.46272733807563782 0.99853515625
vt 0.4318910539150238 0.87261271476745605
vt 0.4318910539150238 0.93557393550872803
vt 0.49356362223625183 0.87261271476745605
vt 0.49356362223625183 0.93557393550872803
vt 0.49356362223625183 0.96705454587936401
vt 0.4318910539150238 0.96705454587936401
vt 0.46272733807563782 0.93557393550872803
vt 0.46272733807563782 0.96705454587936401
vt 0.30854591727256775 0.93557393550872803
vt 0.37021848559379578 0.87261271476745605
vt 0.37021848559379578 0.93557393550872803
vt 0.46272733807563782 0.98279482126235962
vt 0.4318910539150238 0.98279482126235962
vt 0.44730919599533081 0.96705454587936401
vt 0.44730919599533081 0.98279482126235962
vt 0.37021848559379578 0.96705454587936401
vt 0.40105476975440979 0.93557393550872803
vt 0.40105476975440979 0.96705454587936401
vt 0.44730919599533081 0.9906650185585022
vt 0.45501828193664551 0.98279482126235962
vt 0.45501828193664551 0.9906650185585022
vt 0.49356362223625183 0.98279482126235962
vt 0.47814548015594482 0.96705454587936401
vt 0.47814548015594482 0.98279482126235962
vt 0.49356362223625183 0.98825579881668091
vt 0.47814548015594482 0.98825579881668091
vt 0.55523616075515747 0.89574128389358521
vt 0.53467863798141479 0.92657947540283203
vt 0.51412117481231689 0.95741760730743408
vt 0.55523616075515747 0.79294747114181519
vt 0.55523616075515747 0.82721209526062012
vt 0.55523616075515747 0.86147671937942505
vt 0.4318910539150238 0.80965149402618408
vt 0.49356362223625183 0.74669027328491211
vt 0.49356362223625183 0.80965149402618408
vt 0.50237399339675903 0.53743135929107666
vt 0.51118433475494385 0.58001738786697388
vt 0.51999473571777344 0.62260341644287109
vt 0.52880507707595825 0.66518944501876831
vt 0.53761547803878784 0.70777547359466553
vt 0.54642581939697266 0.75036144256591797
vt 0.42264017462730408 0.99853515625
vt 0.38255298137664795 0.99853515625
vt 0.3424658477306366 0.99853515625
vt 0.30237868428230286 0.99853515625
vt 0.26229149103164673 0.99853515625
vt 0.22220432758331299 0.99853515625
vt 0.18211717903614044 0.99853515625
vt 0.14203000068664551 0.99853515625
vt 0.10194283723831177 0.99853515625
vt 0.18520079553127289 0.93557393550872803
vt 0.24687336385250092 0.87261271476745605
vt 0.24687336385250092 0.93557393550872803
vt 0.12352823466062546 0.87261271476745605
vt 0.12352823466062546 0.93557393550872803
vt 0.50515460968017578 0
vt 0 0
vt 0.50515460968017578 0.04317079484462738
vt 0.50515460968017578 0.086341589689254761
vt 0.50515460968017578 0.12951238453388214
vt 0.50515460968017578 0.17268317937850952
vt 0.50515460968017578 0.2158539742231369
vt 0.50515460968017578 0.25902476906776428
vt 0.50515460968017578 0.30219557881355286
vt 0.50515460968017578 0.34536635875701904
vt 0.50515460968017578 0.38853716850280762
vt 0.50515460968017578 0.4317079484462738
vt 0.25257730484008789 0.24669025838375092
vt 0.37886598706245422 0.24669025838375092
vt 0.25257730484008789 0.12334512919187546
vt 0.37886598706245422 0.12334512919187546
vt 0.25257730484008789 0.37003538012504578
vt 0.37886598706245422 0.37003538012504578
vt 0.042096208781003952 0
vt 0.084192447364330292 0
vt 0.12628865242004395 0
vt 0.1683848649263382 0
vt 0.21048110723495483 0
vt 0.25257730484008789 0
vt 0.29467353224754333 0
vt 0.33676975965499878 0
vt 0.37886598706245422 0
vt 0.42096218466758728 0
vt 0.46305841207504272 0
vt 0.12628865242004395 0.24669025838375092
vt 0.12628865242004395 0.12334512919187546
vt 0.01030927337706089 0.40087166428565979
vt 0.0051546366885304451 0.40087166428565979
vt 0.12628865242004395 0.37003538012504578
vt 0.063144326210021973 0.37003538012504578
vt 0.12628865242004395 0.4317079484462738
vt 0.063144326210021973 0.4317079484462738
vt 0.031572163105010986 0.4317079484462738
vt 0 0.40087166428565979
vt 0.031572163105010986 0.37003538012504578
vt 0.063144326210021973 0.40087166428565979
vt 0.031572163105010986 0.40087166428565979
vt 0.063144326210021973 0.24669025838375092
vt 0.12628865242004395 0.30836281180381775
vt 0.063144326210021973 0.30836281180381775
vt 0.015786081552505493 0.4317079484462738
vt 0.015786081552505493 0.40087166428565979
vt 0.031572163105010986 0.4162898063659668
vt 0.015786081552505493 0.4162898063659668
vt 0.015786081552505493 0.40858075022697449
vt 0.015786081552505493 0.37003538012504578
vt 0.031572163105010986 0.38545352220535278
vt 0.015786081552505493 0.38545352220535278
vt 0.031572163105010986 0.30836281180381775
vt 0.063144326210021973 0.33919909596443176
vt 0.031572163105010986 0.33919909596443176
vt 0.0078930407762527466 0.38545352220535278
vt 0.015786081552505493 0.39316260814666748
vt 0.0078930407762527466 0.39316260814666748
vt 0.01030927337706089 0.4317079484462738
vt 0.01030927337706089 0.4162898063659668
vt 0.10309279710054398 0.49338051676750183
vt 0.072164945304393768 0.47282299399375916
vt 0.041237123310565948 0.45226547122001648
vt 0.20618556439876556 0.49338051676750183
vt 0.17182131111621857 0.49338051676750183
vt 0.13745704293251038 0.49338051676750183
vt 0.18943299353122711 0.37003538012504578
vt 0.25257730484008789 0.4317079484462738
vt 0.18943299353122711 0.4317079484462738
vt 0.46244478225708008 0.44051831960678101
vt 0.4197348952293396 0.44932869076728821
vt 0.37702503800392151 0.45813903212547302
vt 0.33431515097618103 0.46694943308830261
vt 0.29160529375076294 0.47575980424880981
vt 0.24889543652534485 0.48457014560699463
vt 0 0.36078450083732605
vt 0 0.32069733738899231
vt 0 0.28061017394065857
vt 0 0.24052301049232483
vt 0 0.2004358321428299
vt 0 0.16034866869449615
vt 0 0.12026150524616241
vt 0 0.080174334347248077
vt 0 0.040087167173624039
vt 0.063144326210021973 0.12334512919187546
vt 0.12628865242004395 0.18501769006252289
vt 0.063144326210021973 0.18501769006252289
vt 0.12628865242004395 0.061672564595937729
vt 0.063144326210021973 0.061672564595937729
vt 0.060390826314687729 0.49484536051750183
vt 0.051546391099691391 0.49484536051750183
vt 0.060390826314687729 0.89690721035003662
vt 0.051546391099691391 0.89690721035003662
vt 0.05596860870718956 0.49484536051750183
vt 0.05596860870718956 0.52356404066085815
vt 0.053757499903440475 0.52356404066085815
vt 0.05596860870718956 0.5092046856880188
vt 0.053757499903440475 0.5092046856880188
vt 0.058179717510938644 0.52356404066085815
vt 0.058179717510938644 0.5092046856880188
vt 0.060390826314687729 0.53505152463912964
vt 0.060390826314687729 0.57525771856307983
vt 0.060390826314687729 0.61546391248703003
vt 0.060390826314687729 0.65567010641098022
vt 0.060390826314687729 0.69587630033493042
vt 0.060390826314687729 0.73608249425888062
vt 0.060390826314687729 0.77628862857818604
vt 0.060390826314687729 0.81649482250213623
vt 0.060390826314687729 0.85670101642608643
vt 0.051546391099691391 0.85670101642608643
vt 0.051546391099691391 0.81649482250213623
vt 0.051546391099691391 0.77628862857818604
vt 0.051546391099691391 0.73608249425888062
vt 0.051546391099691391 0.69587630033493042
vt 0.051546391099691391 0.65567010641098022
vt 0.051546391099691391 0.61546391248703003
vt 0.051546391099691391 0.57525771856307983
vt 0.051546391099691391 0.53505152463912964
vt 0 0.49484536051750183
vt 0 0.50515460968017578
vt 0.0088444342836737633 0.49484536051750183
vt 0.0088444342836737633 0.50515460968017578
vt 0.0088444342836737633 0.5
vt 0.0044222171418368816 0.49484536051750183
vt 0.0044222171418368816 0.50515460968017578
vt 0 0.5
vt 0.019153712317347527 0.49484536051750183
vt 0.010309278033673763 0.49484536051750183
vt 0.019153712317347527 0.52577316761016846
vt 0.010309278033673763 0.52577316761016846
vt 0.019153712317347527 0.51030927896499634
vt 0.010309278033673763 0.51030927896499634
vt 0.014731495641171932 0.52577316761016846
vt 0.039772268384695053 0.49484536051750183
vt 0.030927835032343864 0.49484536051750183
vt 0.039772268384695053 0.60635727643966675
vt 0.030927835032343864 0.60635727643966675
vt 0.039772268384695053 0.53201597929000854
vt 0.039772268384695053 0.56918662786483765
vt 0.030927835032343864 0.56918662786483765
vt 0.030927835032343864 0.53201597929000854
vt 0.029462991282343864 0.49484536051750183
vt 0.020618556067347527 0.49484536051750183
vt 0.029462991282343864 0.59793812036514282
vt 0.020618556067347527 0.59793812036514282
vt 0.029462991282343864 0.52920961380004883
vt 0.029462991282343864 0.56357389688491821
vt 0.020618556067347527 0.56357389688491821
vt 0.020618556067347527 0.52920961380004883
vt 0.050081547349691391 0.49484536051750183
vt 0.041237112134695053 0.49484536051750183
vt 0.050081547349691391 0.80014622211456299
vt 0.041237112134695053 0.80014622211456299
vt 0.050081547349691391 0.53845977783203125
vt 0.050081547349691391 0.58207416534423828
vt 0.050081547349691391 0.62568861246109009
vt 0.050081547349691391 0.66930299997329712
vt 0.050081547349691391 0.71291744709014893
vt 0.050081547349691391 0.75653183460235596
vt 0.041237112134695053 0.75653183460235596
vt 0.041237112134695053 0.71291744709014893
vt 0.041237112134695053 0.66930299997329712
vt 0.041237112134695053 0.62568861246109009
vt 0.041237112134695053 0.58207416534423828
vt 0.041237112134695053 0.53845977783203125
vt 0.56554543972015381 0
vt 0.55670100450515747 0
vt 0.56554543972015381 0.4329896867275238
vt 0.55670100450515747 0.4329896867275238
vt 0.56554543972015381 0.043298970907926559
vt 0.56554543972015381 0.086597941815853119
vt 0.56554543972015381 0.12989690899848938
vt 0.56554543972015381 0.17319588363170624
vt 0.56554543972015381 0.2164948433637619
vt 0.56554543972015381 0.25979381799697876
vt 0.56554543972015381 0.30309277772903442
vt 0.56554543972015381 0.34639176726341248
vt 0.56554543972015381 0.38969069719314575
vt 0.55670100450515747 0.38969069719314575
vt 0.55670100450515747 0.34639176726341248
vt 0.55670100450515747 0.30309277772903442
vt 0.55670100450515747 0.25979381799697876
vt 0.55670100450515747 0.2164948433637619
vt 0.55670100450515747 0.17319588363170624
vt 0.55670100450515747 0.12989690899848938
vt 0.55670100450515747 0.086597941815853119
vt 0.55670100450515747 0.043298970907926559
vt 0.57585471868515015 0
vt 0.56701028347015381 0
vt 0.57585471868515015 0.50515460968017578
vt 0.56701028347015381 0.50515460968017578
vt 0.57585471868515015 0.042096219956874847
vt 0.57585471868515015 0.084192439913749695
vt 0.57585471868515015 0.12628865242004395
vt 0.57585471868515015 0.16838487982749939
vt 0.57585471868515015 0.21048109233379364
vt 0.57585471868515015 0.25257730484008789
vt 0.57585471868515015 0.29467353224754333
vt 0.57585471868515015 0.33676975965499878
vt 0.57585471868515015 0.37886598706245422
vt 0.57585471868515015 0.42096218466758728
vt 0.57585471868515015 0.46305844187736511
vt 0.56701028347015381 0.46305844187736511
vt 0.56701028347015381 0.42096218466758728
vt 0.56701028347015381 0.37886598706245422
vt 0.56701028347015381 0.33676975965499878
vt 0.56701028347015381 0.29467353224754333
vt 0.56701028347015381 0.25257730484008789
vt 0.56701028347015381 0.21048109233379364
vt 0.56701028347015381 0.16838487982749939
vt 0.56701028347015381 0.12628865242004395
vt 0.56701028347015381 0.084192439913749695
vt 0.56701028347015381 0.042096219956874847
vn 0 0 -1
vn 0 0 -1
vn 0 0 -1
vn 0 0 -1
vn 0 0 -1
vn 0 0 -1
vn 0 0 -1
vn 0 0 -1
vn 0 0 -1
vn 0 0 -1
vn 0 0 -1
vn 0 0 -1
vn 0 0 -1
vn 0 0 -1
vn 0 0 -1
vn 0 0 -1
vn 0 0 -1
vn 0 0 -1
vn 0 0 -1
vn 0 0 -1
vn 0 0 -1
vn 0 0 -1
vn 0 0 -1
vn 0 0 -1
vn 0 0 -1
vn 0 0 -1
vn 0 0 -1
vn 0 0 -1
vn 0 0 -1
vn 0 0 -1
vn 0 0 -1
vn 0 0 -1
vn 0 0 -1
vn 0 0 -1
vn 0 0 -1
vn 0 0 -1
vn 0 0 -1
vn 0 0 -1
vn 0 0 -1
vn 0 0 -1
vn 0 0 -1
vn 0 0 -1
vn 0 0 -1
vn 0 0 -1
vn 0 0 -1
vn 0 0 -1
vn 0 0 -1
vn 0 0 -1
vn 0 0 -1
vn 0 0 -1
vn 0 0 -1
vn 0 0 -1
vn 0 0 -1
vn 0 0 -1
vn 0 0 -1
vn 0 0 -1
vn 0 0 -1
vn 0 0 -1
vn 0 0 -1
vn 0 0 -1
vn 0 0 -1
vn 0 0 -1
vn 0 0 -1
vn 0 0 -1
vn 0 0 -1
vn 0 0 -1
vn 0 0 -1
vn 0 0 -1
vn 0 0 -1
vn 0 0 -1
vn 0 0 -1
vn 0 0 -1
vn 0 0 -1
vn 0 0 -1
vn 0 0 -1
vn 0 0 -1
vn 0 0 -1
vn 0 0 -1
vn 0 0 -1
vn 0 0 -1
vn 0 0 -1
vn 0 0 -1
vn 0 0 -1
vn 0 0 -1
vn 0 0 -1
vn 0 0 -1
vn 0 0 -1
vn 0 0 -1
vn 0 0 -1
vn 0 0 1
vn 0 0 1
vn 0 0 1
vn 0 0 1
vn 0 0 1
vn 0 0 1
vn 0 0 1
vn 0 0 1
vn 0 0 1
vn 0 0 1
vn 0 0 1
vn 0 0 1
vn 0 0 1
vn 0 0 1
vn 0 0 1
vn 0 0 1
vn 0 0 1
vn 0 0 1
vn 0 0 1
vn 0 0 1
vn 0 0 1
vn 0 0 1
vn 0 0 1
vn 0 0 1
vn 0 0 1
vn 0 0 1
vn 0 0 1
vn 0 0 1
vn 0 0 1
vn 0 0 1
vn 0 0 1
vn 0 0 1
vn 0 0 1
vn 0 0 1
vn 0 0 1
vn 0 0 1
vn 0 0 1
vn 0 0 1
vn 0 0 1
vn 0 0 1
vn 0 0 1
vn 0 0 1
vn 0 0 1
vn 0 0 1
vn 0 0 1
vn 0 0 1
vn 0 0 1
vn 0 0 1
vn 0 0 1
vn 0 0 1
vn 0 0 1
vn 0 0 1
vn 0 0 1
vn 0 0 1
vn 0 0 1
vn 0 0 1
vn 0 0 1
vn 0 0 1
vn 0 0 1
vn 0 0 1
vn 0 0 1
vn 0 0 1
vn 0 0 1
vn 0 0 1
vn 0 0 1
vn 0 0 1
vn 0 0 1
vn 0 0 1
vn 0 0 1
vn 0 0 1
vn 0 0 1
vn 0 0 1
vn 0 0 1
vn 0 0 1
vn 0 0 1
vn 0 0 1
vn 0 0 1
vn 0 0 1
vn 0 0 1
vn 0 0 1
vn 0 0 1
vn 0 0 1
vn 0 0 1
vn 0 0 1
vn 0 0 1
vn 0 0 1
vn 0 0 1
vn 0 0 1
vn 0 0 1
vn 0 0 1
vn 1 0 0
vn 1 0 0
vn 1 0 0
vn 1 0 0
vn 1 0 0
vn 1 0 0
vn 1 0 0
vn 1 0 0
vn 1 0 0
vn 1 0 0
vn 1 0 0
vn 1 0 0
vn 1 0 0
vn 1 0 0
vn 1 0 0
vn 1 0 0
vn 1 0 0
vn 1 0 0
vn 1 0 0
vn 1 0 0
vn 1 0 0
vn 1 0 0
vn 1 0 0
vn 1 0 0
vn 1 0 0
vn 1 0 0
vn 1 0 0
vn 1 0 0
vn 1 0 0
vn 0 -1 0
vn 0 -1 0
vn 0 -1 0
vn 0 -1 0
vn 0 -1 0
vn 0 -1 0
vn 0 -1 0
vn 0 -1 0
vn 1 0 0
vn 1 0 0
vn 1 0 0
vn 1 0 0
vn 1 0 0
vn 1 0 0
vn 1 0 0
vn 0.55470019578933716 -0.83205032348632812 0
vn 0.55470019578933716 -0.83205032348632812 0
vn 0.55470019578933716 -0.83205032348632812 0
vn 0.55470019578933716 -0.83205032348632812 0
vn 0.55470019578933716 -0.83205032348632812 0
vn 0.55470019578933716 -0.83205032348632812 0
vn 0.55470019578933716 -0.83205032348632812 0
vn 0.55470019578933716 -0.83205032348632812 0
vn 0 -1 0
vn 0 -1 0
vn 0 -1 0
vn 0 -1 0
vn 0 -1 0
vn 0 -1 0
vn 0 -1 0
vn 0 -1 0
vn -0.20260560512542725 -0.97926044464111328 0
vn -0.20260560512542725 -0.97926044464111328 0
vn -0.20260560512542725 -0.97926044464111328 0
vn -0.20260560512542725 -0.97926044464111328 0
vn -0.20260560512542725 -0.97926044464111328 0
vn -0.20260560512542725 -0.97926044464111328 0
vn -0.20260560512542725 -0.97926044464111328 0
vn -0.20260560512542725 -0.97926044464111328 0
vn -0.20260560512542725 -0.97926044464111328 0
vn -0.20260560512542725 -0.97926044464111328 0
vn -0.20260560512542725 -0.97926044464111328 0
vn -0.20260560512542725 -0.97926044464111328 0
vn -0.20260560512542725 -0.97926044464111328 0
vn -0.20260560512542725 -0.97926044464111328 0
vn -0.20260560512542725 -0.97926044464111328 0
vn -0.20260560512542725 -0.97926044464111328 0
vn -1 0 0
vn -1 0 0
vn -1 0 0
vn -1 0 0
vn -1 0 0
vn -1 0 0
vn -1 0 0
vn -1 0 0
vn -1 0 0
vn -1 0 0
vn -1 0 0
vn -1 0 0
vn -1 0 0
vn -1 0 0
vn -1 0 0
vn -1 0 0
vn -1 0 0
vn -1 0 0
vn -1 0 0
vn -1 0 0
vn -1 0 0
vn -1 0 0
vn 0 1 0
vn 0 1 0
vn 0 1 0
vn 0 1 0
vn 0 1 0
vn 0 1 0
vn 0 1 0
vn 0 1 0
vn 0 1 0
vn 0 1 0
vn 0 1 0
vn 0 1 0
vn 0 1 0
vn 0 1 0
vn 0 1 0
vn 0 1 0
vn 0 1 0
vn 0 1 0
vn 0 1 0
vn 0 1 0
vn 0 1 0
vn 0 1 0
vn 0 1 0
vn 0 1 0
vn 0 1 0
vn 0 1 0
f 361/361/361 360/360/360 345/345/345 349/349/349
f 359/359/359 342/342/342 360/360/360 361/361/361
f 358/358/358 357/357/357 352/352/352 356/356/356
f 352/352/352 351/351/351 343/343/343 350/350/350
f 357/357/357 351/351/351 352/352/352
f 345/345/345 357/357/357 349/349/349
f 351/351/351 357/357/357 345/345/345
f 351/351/351 339/339/339 343/343/343
f 344/344/344 351/351/351 345/345/345
f 339/339/339 351/351/351 344/344/344
f 360/360/360 344/344/344 345/345/345
f 341/341/341 360/360/360 342/342/342
f 344/344/344 360/360/360 341/341/341
f 344/344/344 338/338/338 339/339/339
f 340/340/340 344/344/344 341/341/341
f 338/338/338 344/344/344 340/340/340
f 355/355/355 354/354/354 348/348/348 353/353/353
f 343/343/343 339/339/339 354/354/354 355/355/355
f 348/348/348 347/347/347 333/333/333 346/346/346
f 354/354/354 347/347/347 348/348/348
f 338/338/338 354/354/354 339/339/339
f 347/347/347 354/354/354 338/338/338
f 370/370/370 347/347/347 338/338/338
f 347/347/347 316/316/316 333/333/333
f 316/316/316 370/370/370 320/320/320
f 370/370/370 316/316/316 347/347/347
f 340/340/340 372/372/372 370/370/370 338/338/338
f 372/372/372 371/371/371 320/320/320 370/370/370
f 390/390/390 389/389/389 334/334/334 388/388/388
f 346/346/346 333/333/333 389/389/389 390/390/390
f 388/388/388 334/334/334 391/391/391 392/392/392
f 389/389/389 318/318/318 334/334/334
f 316/316/316 389/389/389 333/333/333
f 318/318/318 389/389/389 316/316/316
f 316/316/316 317/317/317 319/319/319 318/318/318
f 320/320/320 321/321/321 317/317/317 316/316/316
f 306/306/306 304/304/304 332/332/332
f 319/319/319 331/331/331 330/330/330
f 331/331/331 306/306/306 332/332/332
f 318/318/318 329/329/329 328/328/328
f 318/318/318 327/327/327 326/326/326
f 326/326/326 325/325/325 391/391/391
f 327/327/327 318/318/318 328/328/328
f 329/329/329 319/319/319 330/330/330
f 331/331/331 319/319/319 307/307/307
f 319/319/319 309/309/309 308/308/308
f 317/317/317 310/310/310 309/309/309
f 319/319/319 308/308/308 307/307/307
f 319/319/319 329/329/329 318/318/318
f 312/312/312 311/311/311 317/317/317
f 309/309/309 319/319/319 317/317/317
f 317/317/317 311/311/311 310/310/310
f 307/307/307 306/306/306 331/331/331
f 318/318/318 326/326/326 391/391/391
f 391/391/391 324/324/324 323/323/323
f 323/323/323 392/392/392 391/391/391
f 392/392/392 386/386/386 385/385/385 388/388/388
f 391/391/391 325/325/325 324/324/324
f 322/322/322 392/392/392 323/323/323
f 387/387/387 322/322/322 305/305/305
f 392/392/392 322/322/322 387/387/387
f 386/386/386 392/392/392 387/387/387
f 390/390/390 383/383/383 382/382/382 346/346/346
f 353/353/353 348/348/348 346/346/346
f 388/388/388 385/385/385 384/384/384 390/390/390
f 383/383/383 390/390/390 384/384/384
f 382/382/382 381/381/381 346/346/346
f 380/380/380 353/353/353 381/381/381
f 353/353/353 346/346/346 381/381/381
f 334/334/334 318/318/318 391/391/391
f 321/321/321 313/313/313 312/312/312 317/317/317
f 314/314/314 313/313/313 321/321/321
f 314/314/314 373/373/373 315/315/315
f 373/373/373 314/314/314 321/321/321
f 376/376/376 320/320/320 371/371/371
f 371/371/371 372/372/372 378/378/378
f 340/340/340 369/369/369 368/368/368 372/372/372
f 321/321/321 320/320/320 376/376/376
f 321/321/321 374/374/374 373/373/373
f 321/321/321 376/376/376 375/375/375
f 367/367/367 378/378/378 372/372/372
f 377/377/377 371/371/371 378/378/378
f 371/371/371 377/377/377 376/376/376
f 368/368/368 367/367/367 372/372/372
f 369/369/369 340/340/340 364/364/364
f 340/340/340 365/365/365 364/364/364
f 374/374/374 321/321/321 375/375/375
f 341/341/341 365/365/365 340/340/340
f 350/350/350 343/343/343 355/355/355
f 356/356/356 352/352/352 350/350/350
f 379/379/379 350/350/350 355/355/355
f 379/379/379 355/355/355 380/380/380
f 356/356/356 350/350/350 379/379/379
f 336/336/336 335/335/335 358/358/358
f 337/337/337 356/356/356 379/379/379
f 357/357/357 358/358/358 335/335/335
f 358/358/358 356/356/356 337/337/337
f 335/335/335 349/349/349 357/357/357
f 355/355/355 353/353/353 380/380/380
f 349/349/349 335/335/335 363/363/363 361/361/361
f 342/342/342 366/366/366 341/341/341
f 365/365/365 341/341/341 366/366/366
f 366/366/366 342/342/342 359/359/359
f 358/358/358 337/337/337 336/336/336
f 362/362/362 359/359/359 361/361/361 363/363/363
f 366/366/366 359/359/359 362/362/362
f 442/442/442 439/439/439 434/434/434
f 440/440/440 441/441/441 442/442/442
f 434/434/434 440/440/440 442/442/442
f 438/438/438 441/441/441 440/440/440 430/430/430
f 451/451/451 449/449/449 445/445/445 450/450/450
f 445/445/445 443/443/443 432/432/432 444/444/444
f 450/450/450 445/445/445 444/444/444
f 434/434/434 439/439/439 450/450/450
f 444/444/444 434/434/434 450/450/450
f 444/444/444 432/432/432 427/427/427
f 433/433/433 434/434/434 444/444/444
f 427/427/427 433/433/433 444/444/444
f 440/440/440 434/434/434 433/433/433
f 429/429/429 430/430/430 440/440/440
f 433/433/433 429/429/429 440/440/440
f 433/433/433 427/427/427 426/426/426
f 428/428/428 429/429/429 433/433/433
f 426/426/426 428/428/428 433/433/433
f 448/448/448 446/446/446 437/437/437 447/447/447
f 432/432/432 448/448/448 447/447/447 427/427/427
f 437/437/437 435/435/435 422/422/422 436/436/436
f 447/447/447 437/437/437 436/436/436
f 426/426/426 427/427/427 447/447/447
f 436/436/436 426/426/426 447/447/447
f 460/460/460 426/426/426 436/436/436
f 436/436/436 422/422/422 405/405/405
f 405/405/405 409/409/409 460/460/460
f 460/460/460 436/436/436 405/405/405
f 428/428/428 426/426/426 460/460/460 462/462/462
f 462/462/462 460/460/460 409/409/409 461/461/461
f 480/480/480 478/478/478 423/423/423 479/479/479
f 435/435/435 480/480/480 479/479/479 422/422/422
f 478/478/478 482/482/482 481/481/481 423/423/423
f 479/479/479 423/423/423 407/407/407
f 405/405/405 422/422/422 479/479/479
f 407/407/407 405/405/405 479/479/479
f 405/405/405 407/407/407 408/408/408 406/406/406
f 409/409/409 405/405/405 406/406/406 410/410/410
f 395/395/395 421/421/421 393/393/393
f 408/408/408 419/419/419 420/420/420
f 420/420/420 421/421/421 395/395/395
f 407/407/407 417/417/417 418/418/418
f 407/407/407 415/415/415 416/416/416
f 415/415/415 481/481/481 414/414/414
f 416/416/416 417/417/417 407/407/407
f 418/418/418 419/419/419 408/408/408
f 420/420/420 396/396/396 408/408/408
f 408/408/408 397/397/397 398/398/398
f 406/406/406 398/398/398 399/399/399
f 408/408/408 396/396/396 397/397/397
f 408/408/408 407/407/407 418/418/418
f 401/401/401 406/406/406 400/400/400
f 398/398/398 406/406/406 408/408/408
f 406/406/406 399/399/399 400/400/400
f 396/396/396 420/420/420 395/395/395
f 407/407/407 481/481/481 415/415/415
f 481/481/481 412/412/412 413/413/413
f 407/407/407 423/423/423 481/481/481
f 482/482/482 478/478/478 475/475/475 476/476/476
f 412/412/412 481/481/481 482/482/482
f 481/481/481 413/413/413 414/414/414
f 411/411/411 412/412/412 482/482/482
f 477/477/477 394/394/394 411/411/411
f 482/482/482 477/477/477 411/411/411
f 476/476/476 477/477/477 482/482/482
f 478/478/478 480/480/480 474/474/474 475/475/475
f 446/446/446 435/435/435 437/437/437
f 448/448/448 470/470/470 446/446/446
f 480/480/480 435/435/435 472/472/472 473/473/473
f 435/435/435 446/446/446 471/471/471
f 480/480/480 473/473/473 474/474/474
f 435/435/435 471/471/471 472/472/472
f 446/446/446 470/470/470 471/471/471
f 410/410/410 406/406/406 401/401/401 402/402/402
f 403/403/403 410/410/410 402/402/402
f 403/403/403 404/404/404 463/463/463
f 463/463/463 410/410/410 403/403/403
f 466/466/466 461/461/461 409/409/409
f 461/461/461 468/468/468 462/462/462
f 428/428/428 462/462/462 458/458/458 459/459/459
f 410/410/410 466/466/466 409/409/409
f 410/410/410 463/463/463 464/464/464
f 410/410/410 465/465/465 466/466/466
f 457/457/457 462/462/462 468/468/468
f 467/467/467 468/468/468 461/461/461
f 461/461/461 466/466/466 467/467/467
f 458/458/458 462/462/462 457/457/457
f 459/459/459 454/454/454 428/428/428
f 428/428/428 454/454/454 455/455/455
f 464/464/464 465/465/465 410/410/410
f 429/429/429 428/428/428 455/455/455
f 443/443/443 448/448/448 432/432/432
f 449/449/449 443/443/443 445/445/445
f 469/469/469 448/448/448 443/443/443
f 449/449/449 431/431/431 469/469/469
f 449/449/449 469/469/469 443/443/443
f 451/451/451 450/450/450 439/439/439 424/424/424
f 442/442/442 424/424/424 439/439/439
f 425/425/425 451/451/451 424/424/424
f 451/451/451 431/431/431 449/449/449
f 470/470/470 448/448/448 469/469/469
f 453/453/453 442/442/442 441/441/441
f 430/430/430 429/429/429 456/456/456
f 455/455/455 456/456/456 429/429/429
f 453/453/453 424/424/424 442/442/442
f 456/456/456 438/438/438 430/430/430
f 451/451/451 425/425/425 431/431/431
f 438/438/438 452/452/452 453/453/453 441/441/441
f 456/456/456 452/452/452 438/438/438
f 489/489/489 491/491/491 490/490/490 488/488/488
f 488/488/488 490/490/490 493/493/493 492/492/492
f 487/487/487 483/483/483 493/493/493
f 483/483/483 494/494/494 492/492/492 493/493/493
f 493/493/493 490/490/490 487/487/487
f 488/488/488 492/492/492 494/494/494
f 488/488/488 494/494/494 495/495/495
f 510/510/510 495/495/495 496/496/496 509/509/509
f 484/484/484 487/487/487 491/491/491
f 490/490/490 491/491/491 487/487/487
f 511/511/511 484/484/484 491/491/491 489/489/489
f 511/511/511 489/489/489 488/488/488
f 488/488/488 510/510/510 511/511/511
f 510/510/510 488/488/488 495/495/495
f 498/498/498 507/507/507 508/508/508 497/497/497
f 499/499/499 506/506/506 507/507/507 498/498/498
f 501/501/501 504/504/504 505/505/505 500/500/500
f 485/485/485 486/486/486 503/503/503 502/502/502
f 502/502/502 503/503/503 504/504/504 501/501/501
f 500/500/500 505/505/505 506/506/506 499/499/499
f 497/497/497 508/508/508 509/509/509 496/496/496
f 519/519/519 512/512/512 517/517/517
f 519/519/519 518/518/518 513/513/513
f 516/516/516 519/519/519 517/517/517
f 519/519/519 516/516/516 518/518/518
f 516/516/516 515/515/515 518/518/518
f 514/514/514 516/516/516 517/517/517
f 521/521/521 520/520/520 524/524/524 525/525/525
f 524/524/524 526/526/526 525/525/525
f 526/526/526 523/523/523 525/525/525
f 522/522/522 526/526/526 524/524/524
f 531/531/531 534/534/534 528/528/528 527/527/527
f 534/534/534 531/531/531 532/532/532 533/533/533
f 529/529/529 530/530/530 533/533/533 532/532/532
f 539/539/539 542/542/542 536/536/536 535/535/535
f 542/542/542 539/539/539 540/540/540 541/541/541
f 537/537/537 538/538/538 541/541/541 540/540/540
f 543/543/543 547/547/547 558/558/558 544/544/544
f 549/549/549 556/556/556 557/557/557 548/548/548
f 547/547/547 548/548/548 557/557/557 558/558/558
f 549/549/549 550/550/550 555/555/555 556/556/556
f 550/550/550 551/551/551 554/554/554 555/555/555
f 552/552/552 545/545/545 546/546/546 553/553/553
f 551/551/551 552/552/552 553/553/553 554/554/554
f 563/563/563 580/580/580 560/560/560 559/559/559
f 564/564/564 565/565/565 578/578/578 579/579/579
f 566/566/566 577/577/577 578/578/578 565/565/565
f 563/563/563 564/564/564 579/579/579 580/580/580
f 567/567/567 576/576/576 577/577/577 566/566/566
f 568/568/568 569/569/569 574/574/574 575/575/575
f 571/571/571 572/572/572 573/573/573 570/570/570
f 561/561/561 562/562/562 572/572/572 571/571/571
f 569/569/569 570/570/570 573/573/573 574/574/574
f 568/568/568 575/575/575 576/576/576 567/567/567
f 581/581/581 585/585/585 606/606/606 582/582/582
f 585/585/585 586/586/586 605/605/605 606/606/606
f 588/588/588 603/603/603 604/604/604 587/587/587
f 589/589/589 602/602/602 603/603/603 588/588/588
f 587/587/587 604/604/604 605/605/605 586/586/586
f 590/590/590 601/601/601 602/602/602 589/589/589
f 592/592/592 599/599/599 600/600/600 591/591/591
f 592/592/592 593/593/593 598/598/598 599/599/599
f 594/594/594 595/595/595 596/596/596 597/597/597
f 583/583/583 584/584/584 596/596/596 595/595/595
f 593/593/593 594/594/594 597/597/597 598/598/598
f 591/591/591 600/600/600 601/601/601 590/590/590
