# Rhino

mtllib PCaja_Pal.mtl
usemtl Default
v 0 -4 30
v 0 5 30
v -7 5 30
v 0 0.5 30
v -3.5 5 30
v -7 -4 30
v -3.5 -4 30
v -7 0.5 30
v 0 5 30
v 0 5 -30
v -7 5 -30
v -7 5 30
v -3.5 5 30
v -3.5 5 15
v -5.25 5 15
v -3.5 5 22.5
v -5.25 5 22.5
v -1.75 5 15
v -1.75 5 22.5
v 0 5 10
v 0 5 -10
v -3.5 5 -30
v -3.5 5 -15
v -3.5 5 -22.5
v -1.75 5 -15
v -1.75 5 -22.5
v -5.25 5 -15
v -5.25 5 -22.5
v -7 5 -10
v -7 5 10
v 0 5 -30
v 0 -4 -30
v -7 -4 -30
v -7 5 -30
v -3.5 5 -30
v 0 0.5 -30
v -3.5 -4 -30
v -7 0.5 -30
v 0 -4 -30
v 0 -4 30
v -7 -4 30
v -3.5 -4 30
v -3.5 -4 15
v -3.5 -4 22.5
v -1.75 -4 15
v -1.75 -4 22.5
v -5.25 -4 15
v -5.25 -4 22.5
v -7 -4 -30
v -3.5 -4 -30
v -3.5 -4 -15
v -5.25 -4 -15
v -3.5 -4 -22.5
v -5.25 -4 -22.5
v -1.75 -4 -15
v -1.75 -4 -22.5
v 0 -4 -10
v 0 -4 10
v -7 -4 10
v -7 -4 -10
v 0 -4 30
v 0 -4 -30
v 0 5 30
v 0 5 -30
v 0 0.5 30
v 0 5 10
v 0 5 -10
v 0 0.5 -30
v 0 -4 -10
v 0 -4 10
v -7 -4 -30
v -7 5 -30
v -7 5 30
v -7 0.5 30
v -7 5 -10
v -7 5 10
v -7 0.5 -30
v -7 -4 30
v -7 -4 10
v -7 -4 -10
vt 0.66666668653488159 0
vt 0.66666668653488159 0.1304347813129425
vt 0.56521737575531006 0.1304347813129425
vt 0.66666668653488159 0.065217390656471252
vt 0.61594200134277344 0.1304347813129425
vt 0.56521737575531006 0
vt 0.61594200134277344 0
vt 0.56521737575531006 0.065217390656471252
vt 0.1304347813129425 0.67934781312942505
vt 0.99853515625 0.67934781312942505
vt 0.99853515625 0.78079712390899658
vt 0.1304347813129425 0.78079712390899658
vt 0.1304347813129425 0.73007243871688843
vt 0.34745988249778748 0.73007243871688843
vt 0.34745988249778748 0.75543481111526489
vt 0.23894733190536499 0.73007243871688843
vt 0.23894733190536499 0.75543481111526489
vt 0.34745988249778748 0.70471012592315674
vt 0.23894733190536499 0.70471012592315674
vt 0.41980159282684326 0.67934781312942505
vt 0.70916837453842163 0.67934781312942505
vt 0.99853515625 0.73007243871688843
vt 0.78151005506515503 0.73007243871688843
vt 0.8900226354598999 0.73007243871688843
vt 0.78151005506515503 0.70471012592315674
vt 0.8900226354598999 0.70471012592315674
vt 0.78151005506515503 0.75543481111526489
vt 0.8900226354598999 0.75543481111526489
vt 0.70916837453842163 0.78079712390899658
vt 0.41980159282684326 0.78079712390899658
vt 0.23188406229019165 0
vt 0.23188406229019165 0.1304347813129425
vt 0.1304347813129425 0.1304347813129425
vt 0.1304347813129425 0
vt 0.18115942180156708 0
vt 0.23188406229019165 0.065217390656471252
vt 0.18115942180156708 0.1304347813129425
vt 0.1304347813129425 0.065217390656471252
vt 0.1304347813129425 0.48913043737411499
vt 0.99853515625 0.48913043737411499
vt 0.99853515625 0.59057968854904175
vt 0.99853515625 0.53985506296157837
vt 0.78151005506515503 0.53985506296157837
vt 0.8900226354598999 0.53985506296157837
vt 0.78151005506515503 0.51449275016784668
vt 0.8900226354598999 0.51449275016784668
vt 0.78151005506515503 0.56521737575531006
vt 0.8900226354598999 0.56521737575531006
vt 0.1304347813129425 0.59057968854904175
vt 0.1304347813129425 0.53985506296157837
vt 0.34745988249778748 0.53985506296157837
vt 0.34745988249778748 0.56521737575531006
vt 0.23894733190536499 0.53985506296157837
vt 0.23894733190536499 0.56521737575531006
vt 0.34745988249778748 0.51449275016784668
vt 0.23894733190536499 0.51449275016784668
vt 0.41980159282684326 0.48913043737411499
vt 0.70916837453842163 0.48913043737411499
vt 0.70916837453842163 0.59057968854904175
vt 0.41980159282684326 0.59057968854904175
vt 0 0
vt 0 0.86810034513473511
vt 0.1289699375629425 0
vt 0.1289699375629425 0.86810034513473511
vt 0.064484968781471252 0
vt 0.1289699375629425 0.28936681151390076
vt 0.1289699375629425 0.57873362302780151
vt 0.064484968781471252 0.86810034513473511
vt 0 0.57873362302780151
vt 0 0.28936681151390076
vt 0.99853515625 0.2445652186870575
vt 0.99853515625 0.375
vt 0.1304347813129425 0.375
vt 0.1304347813129425 0.30978259444236755
vt 0.70916837453842163 0.375
vt 0.41980156302452087 0.375
vt 0.99853515625 0.30978259444236755
vt 0.1304347813129425 0.2445652186870575
vt 0.41980156302452087 0.2445652186870575
vt 0.70916837453842163 0.2445652186870575
vn 0 0 1
vn 0 0 1
vn 0 0 1
vn 0 0 1
vn 0 0 1
vn 0 0 1
vn 0 0 1
vn 0 0 1
vn 0 1 0
vn 0 1 0
vn 0 1 0
vn 0 1 0
vn 0 1 0
vn 0 1 0
vn 0 1 0
vn 0 1 0
vn 0 1 0
vn 0 1 0
vn 0 1 0
vn 0 1 0
vn 0 1 0
vn 0 1 0
vn 0 1 0
vn 0 1 0
vn 0 1 0
vn 0 1 0
vn 0 1 0
vn 0 1 0
vn 0 1 0
vn 0 1 0
vn 0 0 -1
vn 0 0 -1
vn 0 0 -1
vn 0 0 -1
vn 0 0 -1
vn 0 0 -1
vn 0 0 -1
vn 0 0 -1
vn 0 -1 0
vn 0 -1 0
vn 0 -1 0
vn 0 -1 0
vn 0 -1 0
vn 0 -1 0
vn 0 -1 0
vn 0 -1 0
vn 0 -1 0
vn 0 -1 0
vn 0 -1 0
vn 0 -1 0
vn 0 -1 0
vn 0 -1 0
vn 0 -1 0
vn 0 -1 0
vn 0 -1 0
vn 0 -1 0
vn 0 -1 0
vn 0 -1 0
vn 0 -1 0
vn 0 -1 0
vn 1 0 0
vn 1 0 0
vn 1 0 0
vn 1 0 0
vn 1 0 0
vn 1 0 0
vn 1 0 0
vn 1 0 0
vn 1 0 0
vn 1 0 0
vn -1 0 0
vn -1 0 0
vn -1 0 0
vn -1 0 0
vn -1 0 0
vn -1 0 0
vn -1 0 0
vn -1 0 0
vn -1 0 0
vn -1 0 0
f 7/7/7 1/1/1 4/4/4
f 7/7/7 8/8/8 6/6/6
f 8/8/8 7/7/7 4/4/4
f 8/8/8 4/4/4 2/2/2 5/5/5
f 5/5/5 3/3/3 8/8/8
f 15/15/15 17/17/17 16/16/16 14/14/14
f 14/14/14 16/16/16 19/19/19 18/18/18
f 28/28/28 27/27/27 23/23/23 24/24/24
f 24/24/24 23/23/23 25/25/25 26/26/26
f 13/13/13 9/9/9 19/19/19 16/16/16
f 9/9/9 20/20/20 18/18/18 19/19/19
f 14/14/14 18/18/18 20/20/20
f 12/12/12 13/13/13 17/17/17
f 17/17/17 13/13/13 16/16/16
f 30/30/30 12/12/12 17/17/17 15/15/15
f 15/15/15 14/14/14 30/30/30
f 14/14/14 23/23/23 29/29/29 30/30/30
f 20/20/20 21/21/21 23/23/23 14/14/14
f 23/23/23 21/21/21 25/25/25
f 26/26/26 25/25/25 21/21/21
f 21/21/21 10/10/10 26/26/26
f 10/10/10 22/22/22 24/24/24 26/26/26
f 27/27/27 28/28/28 29/29/29
f 23/23/23 27/27/27 29/29/29
f 11/11/11 28/28/28 22/22/22
f 24/24/24 22/22/22 28/28/28
f 29/29/29 28/28/28 11/11/11
f 35/35/35 31/31/31 36/36/36
f 35/35/35 38/38/38 34/34/34
f 38/38/38 35/35/35 36/36/36
f 38/38/38 36/36/36 32/32/32 37/37/37
f 37/37/37 33/33/33 38/38/38
f 52/52/52 54/54/54 53/53/53 51/51/51
f 51/51/51 53/53/53 56/56/56 55/55/55
f 48/48/48 47/47/47 43/43/43 44/44/44
f 44/44/44 43/43/43 45/45/45 46/46/46
f 50/50/50 39/39/39 56/56/56 53/53/53
f 39/39/39 57/57/57 55/55/55 56/56/56
f 51/51/51 55/55/55 57/57/57
f 49/49/49 50/50/50 54/54/54
f 54/54/54 50/50/50 53/53/53
f 60/60/60 49/49/49 54/54/54 52/52/52
f 52/52/52 51/51/51 60/60/60
f 51/51/51 43/43/43 59/59/59 60/60/60
f 57/57/57 58/58/58 43/43/43 51/51/51
f 43/43/43 58/58/58 45/45/45
f 46/46/46 45/45/45 58/58/58
f 58/58/58 40/40/40 46/46/46
f 40/40/40 42/42/42 44/44/44 46/46/46
f 47/47/47 48/48/48 59/59/59
f 43/43/43 47/47/47 59/59/59
f 41/41/41 48/48/48 42/42/42
f 44/44/44 42/42/42 48/48/48
f 59/59/59 48/48/48 41/41/41
f 70/70/70 65/65/65 61/61/61
f 69/69/69 67/67/67 66/66/66 70/70/70
f 69/69/69 62/62/62 68/68/68
f 65/65/65 70/70/70 66/66/66
f 64/64/64 67/67/67 68/68/68
f 67/67/67 69/69/69 68/68/68
f 63/63/63 65/65/65 66/66/66
f 79/79/79 76/76/76 75/75/75 80/80/80
f 78/78/78 74/74/74 79/79/79
f 79/79/79 74/74/74 76/76/76
f 77/77/77 71/71/71 80/80/80
f 75/75/75 72/72/72 77/77/77
f 76/76/76 74/74/74 73/73/73
f 75/75/75 77/77/77 80/80/80
usemtl Default
v 0 -4 30
v 16 -4 30
v 0 -4 -30
v 16 -4 -30
v 8 -4 30
v 0 -4 10
v 0 -4 -10
v 16 -4 -21.428571701049805
v 16 -4 -12.857142448425293
v 16 -4 -4.2857141494750977
v 16 -4 4.2857141494750977
v 16 -4 12.857142448425293
v 8 -4 -30
v 0 5 -30
v 16 5 -30
v 0 5 30
v 8 5 30
v 8 5 -30
v 0 5 -10
v 0 5 10
v 16 5 30
v 16 5 21.428571701049805
v 16 5 12.857142448425293
v 16 5 4.2857141494750977
v 16 5 -4.2857141494750977
v 16 5 -12.857142448425293
v 0 5 30
v 0 -4 30
v 0 -4 -30
v 0 -4 10
v 0 -4 -10
v 0 5 -30
v 0 5 -10
v 0 5 10
v 20 0 -30
v 20 1 30
v 20 0 30
v 20 0 21.428571701049805
v 20 0 12.857142448425293
v 20 0 4.2857141494750977
v 20 0 -4.2857141494750977
v 20 0 -12.857142448425293
v 20 1 -30
v 20 1 -21.428571701049805
v 20 1 -12.857142448425293
v 20 1 -4.2857141494750977
v 20 1 4.2857141494750977
v 20 1 12.857142448425293
v 20 1 21.428571701049805
v 20 0 30
v 17.519641876220703 -3.7000930309295654 21.428571701049805
v 18.857732772827148 -2.7988142967224121 21.428571701049805
v 19.726455688476562 -1.4537979364395142 21.428571701049805
v 20 0 21.428571701049805
v 16 -4 12.857142448425293
v 17.519641876220703 -3.7000930309295654 12.857142448425293
v 18.857732772827148 -2.7988142967224121 12.857142448425293
v 19.726455688476562 -1.4537979364395142 12.857142448425293
v 20 0 12.857142448425293
v 16 -4 4.2857141494750977
v 17.519641876220703 -3.7000930309295654 4.2857141494750977
v 18.857732772827148 -2.7988142967224121 4.2857141494750977
v 19.726455688476562 -1.4537979364395142 4.2857141494750977
v 20 0 4.2857141494750977
v 16 -4 -4.2857141494750977
v 17.519641876220703 -3.7000930309295654 -4.2857141494750977
v 18.857732772827148 -2.7988142967224121 -4.2857141494750977
v 19.726455688476562 -1.4537979364395142 -4.2857141494750977
v 20 0 -4.2857141494750977
v 16 -4 -12.857142448425293
v 17.519641876220703 -3.7000930309295654 -12.857142448425293
v 18.857732772827148 -2.7988142967224121 -12.857142448425293
v 19.726455688476562 -1.4537979364395142 -12.857142448425293
v 20 0 -12.857142448425293
v 16 -4 -21.428571701049805
v 17.519641876220703 -3.7000930309295654 -21.428571701049805
v 18.857732772827148 -2.7988142967224121 -21.428571701049805
v 19.726455688476562 -1.4537979364395142 -21.428571701049805
v 16 -4 -30
v 19.719152450561523 -1.4723788499832153 30
v 18.828426361083984 -2.8284270763397217 30
v 17.472379684448242 -3.7191531658172607 30
v 19.934938430786133 -0.71851319074630737 21.428571701049805
v 19.726455688476562 -1.4537979364395142 25.714284896850586
v 19.934938430786133 -0.71851319074630737 25.714284896850586
v 19.364791870117188 -2.1629080772399902 21.428571701049805
v 18.857732772827148 -2.7988142967224121 25.714284896850586
v 19.364791870117188 -2.1629080772399902 25.714284896850586
v 18.227939605712891 -3.3220906257629395 21.428571701049805
v 17.519641876220703 -3.7000930309295654 25.714284896850586
v 18.227939605712891 -3.3220906257629395 25.714284896850586
v 16.751659393310547 -3.9287412166595459 21.428571701049805
v 16.751659393310547 -3.9287412166595459 25.714284896850586
v 16 -4 30
v 20 0 -30
v 17.472379684448242 -3.7191531658172607 -30
v 18.828426361083984 -2.8284270763397217 -30
v 19.719152450561523 -1.4723788499832153 -30
v 17.519641876220703 -3.7000930309295654 -25.714284896850586
v 16.751659393310547 -3.9287412166595459 -21.428571701049805
v 16.751659393310547 -3.9287412166595459 -25.714284896850586
v 18.857732772827148 -2.7988142967224121 -25.714284896850586
v 18.227939605712891 -3.3220906257629395 -21.428571701049805
v 18.227939605712891 -3.3220906257629395 -25.714284896850586
v 19.726455688476562 -1.4537979364395142 -25.714284896850586
v 19.364791870117188 -2.1629080772399902 -21.428571701049805
v 19.364791870117188 -2.1629080772399902 -25.714284896850586
v 19.934938430786133 -0.71851319074630737 -21.428571701049805
v 19.934938430786133 -0.71851319074630737 -25.714284896850586
v 20 1 -30
v 17.519641876220703 4.7000932693481445 -21.428571701049805
v 18.857732772827148 3.7988142967224121 -21.428571701049805
v 19.726455688476562 2.4537980556488037 -21.428571701049805
v 20 1 -21.428571701049805
v 16 5 -12.857142448425293
v 17.519641876220703 4.7000932693481445 -12.857142448425293
v 18.857732772827148 3.7988142967224121 -12.857142448425293
v 19.726455688476562 2.4537980556488037 -12.857142448425293
v 20 1 -12.857142448425293
v 16 5 -4.2857141494750977
v 17.519641876220703 4.7000932693481445 -4.2857141494750977
v 18.857732772827148 3.7988142967224121 -4.2857141494750977
v 19.726455688476562 2.4537980556488037 -4.2857141494750977
v 20 1 -4.2857141494750977
v 16 5 4.2857141494750977
v 17.519641876220703 4.7000932693481445 4.2857141494750977
v 18.857732772827148 3.7988142967224121 4.2857141494750977
v 19.726455688476562 2.4537980556488037 4.2857141494750977
v 20 1 4.2857141494750977
v 16 5 12.857142448425293
v 17.519641876220703 4.7000932693481445 12.857142448425293
v 18.857732772827148 3.7988142967224121 12.857142448425293
v 19.726455688476562 2.4537980556488037 12.857142448425293
v 20 1 12.857142448425293
v 16 5 21.428571701049805
v 17.519641876220703 4.7000932693481445 21.428571701049805
v 18.857732772827148 3.7988142967224121 21.428571701049805
v 19.726455688476562 2.4537980556488037 21.428571701049805
v 20 1 21.428571701049805
v 16 5 30
v 20 1 30
v 17.472379684448242 4.7191534042358398 30
v 18.828426361083984 3.8284270763397217 30
v 19.719152450561523 2.4723787307739258 30
v 17.519641876220703 4.7000932693481445 25.714284896850586
v 16.751659393310547 4.9287409782409668 21.428571701049805
v 16.751659393310547 4.9287409782409668 25.714284896850586
v 18.857732772827148 3.7988142967224121 25.714284896850586
v 18.227939605712891 4.3220906257629395 21.428571701049805
v 18.227939605712891 4.3220906257629395 25.714284896850586
v 19.726455688476562 2.4537980556488037 25.714284896850586
v 19.364791870117188 3.1629080772399902 21.428571701049805
v 19.364791870117188 3.1629080772399902 25.714284896850586
v 19.934938430786133 1.7185132503509521 21.428571701049805
v 19.934938430786133 1.7185132503509521 25.714284896850586
v 19.719152450561523 2.4723787307739258 -30
v 18.828426361083984 3.8284270763397217 -30
v 17.472379684448242 4.7191534042358398 -30
v 19.934938430786133 1.7185132503509521 -21.428571701049805
v 19.726455688476562 2.4537980556488037 -25.714284896850586
v 19.934938430786133 1.7185132503509521 -25.714284896850586
v 19.364791870117188 3.1629080772399902 -21.428571701049805
v 18.857732772827148 3.7988142967224121 -25.714284896850586
v 19.364791870117188 3.1629080772399902 -25.714284896850586
v 18.227939605712891 4.3220906257629395 -21.428571701049805
v 17.519641876220703 4.7000932693481445 -25.714284896850586
v 18.227939605712891 4.3220906257629395 -25.714284896850586
v 16.751659393310547 4.9287409782409668 -21.428571701049805
v 16.751659393310547 4.9287409782409668 -25.714284896850586
v 16 5 -30
v 0 5 30
v 0 -4 30
v 16 -4 30
v 8 -4 30
v 8 5 30
v 20 1 30
v 20 0 30
v 10 0.5 30
v 15 0.5 30
v 10 2.75 30
v 15 2.75 30
v 17.5 0.5 30
v 15 1.625 30
v 17.5 2.75 30
v 17.5 1.625 30
v 10 -1.75 30
v 15 -1.75 30
v 17.5 -1.75 30
v 15 -0.625 30
v 17.5 -0.625 30
v 19.719152450561523 -1.4723788499832153 30
v 18.828426361083984 -2.8284270763397217 30
v 17.472379684448242 -3.7191531658172607 30
v 16 5 30
v 17.472379684448242 4.7191534042358398 30
v 18.828426361083984 3.8284270763397217 30
v 19.719152450561523 2.4723787307739258 30
v 0 -4 -30
v 8 -4 -30
v 16 5 -30
v 8 5 -30
v 0 5 -30
v 20 0 -30
v 10 0.5 -30
v 15 0.5 -30
v 10 -1.75 -30
v 15 -1.75 -30
v 17.5 0.5 -30
v 15 -0.625 -30
v 17.5 -1.75 -30
v 17.5 -0.625 -30
v 10 2.75 -30
v 15 2.75 -30
v 17.5 2.75 -30
v 15 1.625 -30
v 17.5 1.625 -30
v 16 -4 -30
v 17.472379684448242 -3.7191531658172607 -30
v 18.828426361083984 -2.8284270763397217 -30
v 19.719152450561523 -1.4723788499832153 -30
v 20 1 -30
v 19.719152450561523 2.4723787307739258 -30
v 18.828426361083984 3.8284270763397217 -30
v 17.472379684448242 4.7191534042358398 -30
vt 0.6501958966255188 0
vt 0.43106329441070557 0
vt 0.6501958966255188 0.82577556371688843
vt 0.43106329441070557 0.82577556371688843
vt 0.54062962532043457 0
vt 0.6501958966255188 0.27525851130485535
vt 0.6501958966255188 0.55051702260971069
vt 0.43106329441070557 0.70780760049819946
vt 0.43106329441070557 0.58983969688415527
vt 0.43106329441070557 0.4718717634677887
vt 0.43106329441070557 0.35390380024909973
vt 0.43106329441070557 0.23593588173389435
vt 0.54062962532043457 0.82577556371688843
vt 0.42959845066070557 0
vt 0.21046586334705353 0
vt 0.42959845066070557 0.82577556371688843
vt 0.32003214955329895 0.82577556371688843
vt 0.32003214955329895 0
vt 0.42959845066070557 0.27525851130485535
vt 0.42959845066070557 0.55051702260971069
vt 0.21046586334705353 0.82577556371688843
vt 0.21046586334705353 0.70780760049819946
vt 0.21046586334705353 0.58983969688415527
vt 0.21046586334705353 0.4718717634677887
vt 0.21046586334705353 0.35390380024909973
vt 0.21046586334705353 0.23593588173389435
vt 0.086379803717136383 0
vt 0.20900101959705353 0
vt 0.20900101959705353 0.82577556371688843
vt 0.20900101959705353 0.27525851130485535
vt 0.20900101959705353 0.55051702260971069
vt 0.086379803717136383 0.82577556371688843
vt 0.086379803717136383 0.55051702260971069
vt 0.086379803717136383 0.27525851130485535
vt 0.66398322582244873 0.82577556371688843
vt 0.6516607403755188 0
vt 0.66398322582244873 0
vt 0.66398322582244873 0.11796794086694717
vt 0.66398322582244873 0.23593588173389435
vt 0.66398322582244873 0.35390380024909973
vt 0.66398322582244873 0.4718717634677887
vt 0.66398322582244873 0.58983969688415527
vt 0.6516607403755188 0.82577556371688843
vt 0.6516607403755188 0.70780760049819946
vt 0.6516607403755188 0.58983969688415527
vt 0.6516607403755188 0.4718717634677887
vt 0.6516607403755188 0.35390380024909973
vt 0.6516607403755188 0.23593588173389435
vt 0.6516607403755188 0.11796794086694717
vt 0 0
vt 0.063006147742271423 0.11796794086694717
vt 0.04192366823554039 0.11796794086694717
vt 0.020961830392479897 0.11796794086694717
vt 0 0.11796794086694717
vt 0.084914959967136383 0.23593588173389435
vt 0.063006147742271423 0.23593588173389435
vt 0.04192366823554039 0.23593588173389435
vt 0.020961830392479897 0.23593588173389435
vt 0 0.23593588173389435
vt 0.084914959967136383 0.35390380024909973
vt 0.063006147742271423 0.35390380024909973
vt 0.04192366823554039 0.35390380024909973
vt 0.020961830392479897 0.35390380024909973
vt 0 0.35390380024909973
vt 0.084914959967136383 0.4718717634677887
vt 0.063006147742271423 0.4718717634677887
vt 0.04192366823554039 0.4718717634677887
vt 0.020961830392479897 0.4718717634677887
vt 0 0.4718717634677887
vt 0.084914959967136383 0.58983969688415527
vt 0.063006147742271423 0.58983969688415527
vt 0.04192366823554039 0.58983969688415527
vt 0.020961830392479897 0.58983969688415527
vt 0 0.58983969688415527
vt 0.084914959967136383 0.70780760049819946
vt 0.063006147742271423 0.70780760049819946
vt 0.04192366823554039 0.70780760049819946
vt 0.020961830392479897 0.70780760049819946
vt 0.084914959967136383 0.82577556371688843
vt 0.021228739991784096 0
vt 0.042457479983568192 0
vt 0.063686221837997437 0
vt 0.010480917990207672 0.11796794086694717
vt 0.020961830392479897 0.058983970433473587
vt 0.010480917990207672 0.058983970433473587
vt 0.031442750245332718 0.11796794086694717
vt 0.04192366823554039 0.058983970433473587
vt 0.031442750245332718 0.058983970433473587
vt 0.052464906126260757 0.11796794086694717
vt 0.063006147742271423 0.058983970433473587
vt 0.052464906126260757 0.058983970433473587
vt 0.073960550129413605 0.11796794086694717
vt 0.073960550129413605 0.058983970433473587
vt 0.084914959967136383 0
vt 0 0.82577556371688843
vt 0.063686221837997437 0.82577556371688843
vt 0.042457479983568192 0.82577556371688843
vt 0.021228739991784096 0.82577556371688843
vt 0.063006147742271423 0.76679158210754395
vt 0.073960550129413605 0.70780760049819946
vt 0.073960550129413605 0.76679158210754395
vt 0.04192366823554039 0.76679158210754395
vt 0.052464906126260757 0.70780760049819946
vt 0.052464906126260757 0.76679158210754395
vt 0.020961830392479897 0.76679158210754395
vt 0.031442750245332718 0.70780760049819946
vt 0.031442750245332718 0.76679158210754395
vt 0.010480917990207672 0.70780760049819946
vt 0.010480917990207672 0.76679158210754395
vt 0.91362017393112183 0
vt 0.97662633657455444 0.11796794086694717
vt 0.9555438756942749 0.11796794086694717
vt 0.93458205461502075 0.11796794086694717
vt 0.91362017393112183 0.11796794086694717
vt 0.99853515625 0.23593588173389435
vt 0.97662633657455444 0.23593588173389435
vt 0.9555438756942749 0.23593588173389435
vt 0.93458205461502075 0.23593588173389435
vt 0.91362017393112183 0.23593588173389435
vt 0.99853515625 0.35390380024909973
vt 0.97662633657455444 0.35390380024909973
vt 0.9555438756942749 0.35390380024909973
vt 0.93458205461502075 0.35390380024909973
vt 0.91362017393112183 0.35390380024909973
vt 0.99853515625 0.4718717634677887
vt 0.97662633657455444 0.4718717634677887
vt 0.9555438756942749 0.4718717634677887
vt 0.93458205461502075 0.4718717634677887
vt 0.91362017393112183 0.4718717634677887
vt 0.99853515625 0.58983969688415527
vt 0.97662633657455444 0.58983969688415527
vt 0.9555438756942749 0.58983969688415527
vt 0.93458205461502075 0.58983969688415527
vt 0.91362017393112183 0.58983969688415527
vt 0.99853515625 0.70780760049819946
vt 0.97662633657455444 0.70780760049819946
vt 0.9555438756942749 0.70780760049819946
vt 0.93458205461502075 0.70780760049819946
vt 0.91362017393112183 0.70780760049819946
vt 0.99853515625 0.82577556371688843
vt 0.91362017393112183 0.82577556371688843
vt 0.97730642557144165 0.82577556371688843
vt 0.9560776948928833 0.82577556371688843
vt 0.93484896421432495 0.82577556371688843
vt 0.97662633657455444 0.76679158210754395
vt 0.98758077621459961 0.70780760049819946
vt 0.98758077621459961 0.76679158210754395
vt 0.9555438756942749 0.76679158210754395
vt 0.96608507633209229 0.70780760049819946
vt 0.96608507633209229 0.76679158210754395
vt 0.93458205461502075 0.76679158210754395
vt 0.94506293535232544 0.70780760049819946
vt 0.94506293535232544 0.76679158210754395
vt 0.92410111427307129 0.70780760049819946
vt 0.92410111427307129 0.76679158210754395
vt 0.93484896421432495 0
vt 0.9560776948928833 0
vt 0.97730642557144165 0
vt 0.92410111427307129 0.11796794086694717
vt 0.93458205461502075 0.058983970433473587
vt 0.92410111427307129 0.058983970433473587
vt 0.94506293535232544 0.11796794086694717
vt 0.9555438756942749 0.058983970433473587
vt 0.94506293535232544 0.058983970433473587
vt 0.96608507633209229 0.11796794086694717
vt 0.97662633657455444 0.058983970433473587
vt 0.96608507633209229 0.058983970433473587
vt 0.98758077621459961 0.11796794086694717
vt 0.98758077621459961 0.058983970433473587
vt 0.99853515625 0
vt 0.66544806957244873 0.27574679255485535
vt 0.78806930780410767 0.27574679255485535
vt 0.78806930780410767 0.055149361491203308
vt 0.78806930780410767 0.16544808447360992
vt 0.66544806957244873 0.16544808447360992
vt 0.71994638442993164 0
vt 0.73357099294662476 0
vt 0.72675865888595581 0.13787339627742767
vt 0.72675865888595581 0.068936698138713837
vt 0.69610339403152466 0.13787339627742767
vt 0.69610339403152466 0.068936698138713837
vt 0.72675865888595581 0.034468349069356918
vt 0.71143102645874023 0.068936698138713837
vt 0.69610339403152466 0.034468349069356918
vt 0.71143102645874023 0.034468349069356918
vt 0.75741398334503174 0.13787339627742767
vt 0.75741398334503174 0.068936698138713837
vt 0.75741398334503174 0.034468349069356918
vt 0.74208635091781616 0.068936698138713837
vt 0.74208635091781616 0.034468349069356918
vt 0.75363153219223022 0.003872130298987031
vt 0.77210712432861328 0.016152873635292053
vt 0.78424286842346191 0.034849170595407486
vt 0.66544806957244873 0.055149361491203308
vt 0.66927450895309448 0.034849170595407486
vt 0.68141025304794312 0.016152873635292053
vt 0.69988584518432617 0.003872130298987031
vt 0.78953415155410767 0.27574679255485535
vt 0.78953415155410767 0.16544808447360992
vt 0.91215533018112183 0.055149361491203308
vt 0.91215533018112183 0.16544808447360992
vt 0.91215533018112183 0.27574679255485535
vt 0.84403246641159058 0
vt 0.85084474086761475 0.13787339627742767
vt 0.85084474086761475 0.068936698138713837
vt 0.82018941640853882 0.13787339627742767
vt 0.82018941640853882 0.068936698138713837
vt 0.85084474086761475 0.034468349069356918
vt 0.83551710844039917 0.068936698138713837
vt 0.82018941640853882 0.034468349069356918
vt 0.83551710844039917 0.034468349069356918
vt 0.88150006532669067 0.13787339627742767
vt 0.88150006532669067 0.068936698138713837
vt 0.88150006532669067 0.034468349069356918
vt 0.86617237329483032 0.068936698138713837
vt 0.86617237329483032 0.034468349069356918
vt 0.78953415155410767 0.055149361491203308
vt 0.79336053133010864 0.034849170595407486
vt 0.80549633502960205 0.016152873635292053
vt 0.82397192716598511 0.003872130298987031
vt 0.85765701532363892 0
vt 0.87771755456924438 0.003872130298987031
vt 0.89619314670562744 0.016152873635292053
vt 0.90832895040512085 0.034849170595407486
vn 0 -1 0
vn 0 -1 0
vn 0 -1 0
vn 0 -1 0
vn 0 -1 0
vn 0 -1 0
vn 0 -1 0
vn 0 -1 0
vn 0 -1 0
vn 0 -1 0
vn 0 -1 0
vn 0 -1 0
vn 0 -1 0
vn 0 1 0
vn 0 1 0
vn 0 1 0
vn 0 1 0
vn 0 1 0
vn 0 1 0
vn 0 1 0
vn 0 1 0
vn 0 1 0
vn 0 1 0
vn 0 1 0
vn 0 1 0
vn 0 1 0
vn -1 0 0
vn -1 0 0
vn -1 0 0
vn -1 0 0
vn -1 0 0
vn -1 0 0
vn -1 0 0
vn -1 0 0
vn 1 0 0
vn 1 0 0
vn 1 0 0
vn 1 0 0
vn 1 0 0
vn 1 0 0
vn 1 0 0
vn 1 0 0
vn 1 0 0
vn 1 0 0
vn 1 0 0
vn 1 0 0
vn 1 0 0
vn 1 0 0
vn 1 0 0
vn 1 0 0
vn 0.37991040945053101 -0.92502325773239136 0
vn 0.71443325281143188 -0.69970357418060303 0
vn 0.93161392211914062 -0.36344948410987854 0
vn 1 0 0
vn 0 -1 0
vn 0.37991040945053101 -0.92502325773239136 0
vn 0.71443325281143188 -0.69970357418060303 0
vn 0.93161392211914062 -0.36344948410987854 0
vn 1 0 0
vn 0 -1 0
vn 0.37991040945053101 -0.92502325773239136 0
vn 0.71443325281143188 -0.69970357418060303 0
vn 0.93161392211914062 -0.36344948410987854 0
vn 1 0 0
vn 0 -1 0
vn 0.37991040945053101 -0.92502325773239136 0
vn 0.71443325281143188 -0.69970357418060303 0
vn 0.93161392211914062 -0.36344948410987854 0
vn 1 0 0
vn 0 -1 0
vn 0.37991040945053101 -0.92502325773239136 0
vn 0.71443325281143188 -0.69970357418060303 0
vn 0.93161392211914062 -0.36344948410987854 0
vn 1 0 0
vn 0 -1 0
vn 0.37991040945053101 -0.92502325773239136 0
vn 0.71443325281143188 -0.69970357418060303 0
vn 0.93161392211914062 -0.36344948410987854 0
vn 0 -1 0
vn 0.92978829145431519 -0.36809471249580383 0
vn 0.70710676908493042 -0.70710676908493042 0
vn 0.36809471249580383 -0.92978829145431519 0
vn 0.98373454809188843 -0.17962829768657684 0
vn 0.93161392211914062 -0.36344948410987854 0
vn 0.98373454809188843 -0.17962829768657684 0
vn 0.8411981463432312 -0.54072701930999756 0
vn 0.71443325281143188 -0.69970357418060303 0
vn 0.8411981463432312 -0.54072701930999756 0
vn 0.55698484182357788 -0.83052265644073486 0
vn 0.37991040945053101 -0.92502325773239136 0
vn 0.55698484182357788 -0.83052265644073486 0
vn 0.18791507184505463 -0.98218530416488647 0
vn 0.18791507184505463 -0.98218530416488647 0
vn 0 -1 0
vn 1 0 0
vn 0.36809471249580383 -0.92978829145431519 0
vn 0.70710676908493042 -0.70710676908493042 0
vn 0.92978829145431519 -0.36809471249580383 0
vn 0.37991040945053101 -0.92502325773239136 0
vn 0.18791507184505463 -0.98218530416488647 0
vn 0.18791507184505463 -0.98218530416488647 0
vn 0.71443325281143188 -0.69970357418060303 0
vn 0.55698484182357788 -0.83052265644073486 0
vn 0.55698484182357788 -0.83052265644073486 0
vn 0.93161392211914062 -0.36344948410987854 0
vn 0.8411981463432312 -0.54072701930999756 0
vn 0.8411981463432312 -0.54072701930999756 0
vn 0.98373454809188843 -0.17962829768657684 0
vn 0.98373454809188843 -0.17962829768657684 0
vn 1 0 0
vn 0.37991040945053101 0.92502325773239136 0
vn 0.71443325281143188 0.69970357418060303 0
vn 0.93161392211914062 0.36344948410987854 0
vn 1 0 0
vn 0 1 0
vn 0.37991040945053101 0.92502325773239136 0
vn 0.71443325281143188 0.69970357418060303 0
vn 0.93161392211914062 0.36344948410987854 0
vn 1 0 0
vn 0 1 0
vn 0.37991040945053101 0.92502325773239136 0
vn 0.71443325281143188 0.69970357418060303 0
vn 0.93161392211914062 0.36344948410987854 0
vn 1 0 0
vn 0 1 0
vn 0.37991040945053101 0.92502325773239136 0
vn 0.71443325281143188 0.69970357418060303 0
vn 0.93161392211914062 0.36344948410987854 0
vn 1 0 0
vn 0 1 0
vn 0.37991040945053101 0.92502325773239136 0
vn 0.71443325281143188 0.69970357418060303 0
vn 0.93161392211914062 0.36344948410987854 0
vn 1 0 0
vn 0 1 0
vn 0.37991040945053101 0.92502325773239136 0
vn 0.71443325281143188 0.69970357418060303 0
vn 0.93161392211914062 0.36344948410987854 0
vn 1 0 0
vn 0 1 0
vn 1 0 0
vn 0.36809471249580383 0.92978829145431519 0
vn 0.70710676908493042 0.70710676908493042 0
vn 0.92978829145431519 0.36809471249580383 0
vn 0.37991040945053101 0.92502325773239136 0
vn 0.18791507184505463 0.98218530416488647 0
vn 0.18791507184505463 0.98218530416488647 0
vn 0.71443325281143188 0.69970357418060303 0
vn 0.55698484182357788 0.83052265644073486 0
vn 0.55698484182357788 0.83052265644073486 0
vn 0.93161392211914062 0.36344948410987854 0
vn 0.8411981463432312 0.54072701930999756 0
vn 0.8411981463432312 0.54072701930999756 0
vn 0.98373454809188843 0.17962829768657684 0
vn 0.98373454809188843 0.17962829768657684 0
vn 0.92978829145431519 0.36809471249580383 0
vn 0.70710676908493042 0.70710676908493042 0
vn 0.36809471249580383 0.92978829145431519 0
vn 0.98373454809188843 0.17962829768657684 0
vn 0.93161392211914062 0.36344948410987854 0
vn 0.98373454809188843 0.17962829768657684 0
vn 0.8411981463432312 0.54072701930999756 0
vn 0.71443325281143188 0.69970357418060303 0
vn 0.8411981463432312 0.54072701930999756 0
vn 0.55698484182357788 0.83052265644073486 0
vn 0.37991040945053101 0.92502325773239136 0
vn 0.55698484182357788 0.83052265644073486 0
vn 0.18791507184505463 0.98218530416488647 0
vn 0.18791507184505463 0.98218530416488647 0
vn 0 1 0
vn 0 0 1
vn 0 0 1
vn 0 0 1
vn 0 0 1
vn 0 0 1
vn 0 0 1
vn 0 0 1
vn 0 0 1
vn 0 0 1
vn 0 0 1
vn 0 0 1
vn 0 0 1
vn 0 0 1
vn 0 0 1
vn 0 0 1
vn 0 0 1
vn 0 0 1
vn 0 0 1
vn 0 0 1
vn 0 0 1
vn 0 0 1
vn 0 0 1
vn 0 0 1
vn 0 0 1
vn 0 0 1
vn 0 0 1
vn 0 0 1
vn 0 0 -1
vn 0 0 -1
vn 0 0 -1
vn 0 0 -1
vn 0 0 -1
vn 0 0 -1
vn 0 0 -1
vn 0 0 -1
vn 0 0 -1
vn 0 0 -1
vn 0 0 -1
vn 0 0 -1
vn 0 0 -1
vn 0 0 -1
vn 0 0 -1
vn 0 0 -1
vn 0 0 -1
vn 0 0 -1
vn 0 0 -1
vn 0 0 -1
vn 0 0 -1
vn 0 0 -1
vn 0 0 -1
vn 0 0 -1
vn 0 0 -1
vn 0 0 -1
vn 0 0 -1
f 85/85/85 81/81/81 86/86/86
f 90/90/90 91/91/91 85/85/85
f 85/85/85 92/92/92 82/82/82
f 85/85/85 91/91/91 92/92/92
f 87/87/87 85/85/85 86/86/86
f 93/93/93 87/87/87 83/83/83
f 85/85/85 93/93/93 90/90/90
f 93/93/93 89/89/89 90/90/90
f 93/93/93 84/84/84 88/88/88
f 88/88/88 89/89/89 93/93/93
f 87/87/87 93/93/93 85/85/85
f 98/98/98 94/94/94 99/99/99
f 104/104/104 105/105/105 98/98/98
f 98/98/98 106/106/106 95/95/95
f 98/98/98 105/105/105 106/106/106
f 100/100/100 98/98/98 99/99/99
f 97/97/97 100/100/100 96/96/96
f 98/98/98 97/97/97 104/104/104
f 97/97/97 103/103/103 104/104/104
f 97/97/97 101/101/101 102/102/102
f 102/102/102 103/103/103 97/97/97
f 100/100/100 97/97/97 98/98/98
f 114/114/114 110/110/110 108/108/108 107/107/107
f 112/112/112 109/109/109 111/111/111 113/113/113
f 113/113/113 111/111/111 110/110/110 114/114/114
f 129/129/129 116/116/116 117/117/117 118/118/118
f 128/128/128 129/129/129 118/118/118 119/119/119
f 126/126/126 127/127/127 120/120/120 121/121/121
f 122/122/122 124/124/124 125/125/125
f 125/125/125 126/126/126 121/121/121 122/122/122
f 127/127/127 128/128/128 119/119/119 120/120/120
f 124/124/124 122/122/122 115/115/115
f 124/124/124 115/115/115 123/123/123
f 131/131/131 170/170/170 173/173/173 172/172/172
f 132/132/132 167/167/167 171/171/171 169/169/169
f 169/169/169 171/171/171 170/170/170 131/131/131
f 133/133/133 164/164/164 168/168/168 166/166/166
f 166/166/166 168/168/168 167/167/167 132/132/132
f 163/163/163 165/165/165 164/164/164 133/133/133
f 169/169/169 131/131/131 136/136/136
f 137/137/137 132/132/132 169/169/169
f 136/136/136 137/137/137 169/169/169
f 166/166/166 132/132/132 137/137/137
f 138/138/138 133/133/133 166/166/166
f 137/137/137 138/138/138 166/166/166
f 142/142/142 137/137/137 136/136/136 141/141/141
f 143/143/143 138/138/138 137/137/137 142/142/142
f 147/147/147 142/142/142 141/141/141 146/146/146
f 148/148/148 143/143/143 142/142/142 147/147/147
f 152/152/152 147/147/147 146/146/146 151/151/151
f 153/153/153 148/148/148 147/147/147 152/152/152
f 183/183/183 157/157/157 152/152/152
f 151/151/151 156/156/156 183/183/183
f 152/152/152 151/151/151 183/183/183
f 186/186/186 158/158/158 153/153/153
f 152/152/152 157/157/157 186/186/186
f 153/153/153 152/152/152 186/186/186
f 179/179/179 156/156/156 180/180/180 181/181/181
f 182/182/182 157/157/157 183/183/183 184/184/184
f 184/184/184 183/183/183 156/156/156 179/179/179
f 185/185/185 158/158/158 186/186/186 187/187/187
f 187/187/187 186/186/186 157/157/157 182/182/182
f 189/189/189 188/188/188 158/158/158 185/185/185
f 162/162/162 174/174/174 173/173/173
f 172/172/172 173/173/173 174/174/174
f 170/170/170 162/162/162 173/173/173
f 161/161/161 162/162/162 170/170/170 171/171/171
f 171/171/171 167/167/167 161/161/161
f 135/135/135 136/136/136 172/172/172
f 174/174/174 135/135/135 172/172/172
f 140/140/140 141/141/141 136/136/136 135/135/135
f 172/172/172 136/136/136 131/131/131
f 141/141/141 140/140/140 145/145/145 146/146/146
f 160/160/160 161/161/161 167/167/167 168/168/168
f 164/164/164 160/160/160 168/168/168
f 130/130/130 160/160/160 164/164/164 165/165/165
f 134/134/134 130/130/130 165/165/165
f 163/163/163 133/133/133 138/138/138
f 143/143/143 144/144/144 139/139/139 138/138/138
f 165/165/165 163/163/163 134/134/134
f 139/139/139 134/134/134 163/163/163
f 138/138/138 139/139/139 163/163/163
f 144/144/144 143/143/143 148/148/148 149/149/149
f 150/150/150 151/151/151 146/146/146 145/145/145
f 180/180/180 150/150/150 155/155/155
f 180/180/180 151/151/151 150/150/150
f 156/156/156 151/151/151 180/180/180
f 180/180/180 155/155/155 181/181/181
f 176/176/176 181/181/181 159/159/159
f 155/155/155 159/159/159 181/181/181
f 179/179/179 181/181/181 176/176/176
f 176/176/176 184/184/184 179/179/179
f 184/184/184 176/176/176 177/177/177
f 153/153/153 154/154/154 149/149/149 148/148/148
f 188/188/188 153/153/153 158/158/158
f 188/188/188 154/154/154 153/153/153
f 175/175/175 154/154/154 188/188/188
f 187/187/187 182/182/182 177/177/177
f 184/184/184 177/177/177 182/182/182
f 178/178/178 187/187/187 177/177/177
f 178/178/178 189/189/189 185/185/185
f 189/189/189 178/178/178 175/175/175
f 178/178/178 185/185/185 187/187/187
f 188/188/188 189/189/189 175/175/175
f 191/191/191 246/246/246 249/249/249 248/248/248
f 192/192/192 243/243/243 247/247/247 245/245/245
f 245/245/245 247/247/247 246/246/246 191/191/191
f 193/193/193 240/240/240 244/244/244 242/242/242
f 242/242/242 244/244/244 243/243/243 192/192/192
f 239/239/239 241/241/241 240/240/240 193/193/193
f 245/245/245 191/191/191 196/196/196
f 197/197/197 192/192/192 245/245/245
f 196/196/196 197/197/197 245/245/245
f 242/242/242 192/192/192 197/197/197
f 198/198/198 193/193/193 242/242/242
f 197/197/197 198/198/198 242/242/242
f 202/202/202 197/197/197 196/196/196 201/201/201
f 203/203/203 198/198/198 197/197/197 202/202/202
f 207/207/207 202/202/202 201/201/201 206/206/206
f 208/208/208 203/203/203 202/202/202 207/207/207
f 212/212/212 207/207/207 206/206/206 211/211/211
f 213/213/213 208/208/208 207/207/207 212/212/212
f 229/229/229 217/217/217 212/212/212
f 211/211/211 216/216/216 229/229/229
f 212/212/212 211/211/211 229/229/229
f 232/232/232 218/218/218 213/213/213
f 212/212/212 217/217/217 232/232/232
f 213/213/213 212/212/212 232/232/232
f 225/225/225 216/216/216 226/226/226 227/227/227
f 228/228/228 217/217/217 229/229/229 230/230/230
f 230/230/230 229/229/229 216/216/216 225/225/225
f 231/231/231 218/218/218 232/232/232 233/233/233
f 233/233/233 232/232/232 217/217/217 228/228/228
f 235/235/235 234/234/234 218/218/218 231/231/231
f 238/238/238 250/250/250 249/249/249
f 248/248/248 249/249/249 250/250/250
f 246/246/246 238/238/238 249/249/249
f 237/237/237 238/238/238 246/246/246 247/247/247
f 247/247/247 243/243/243 237/237/237
f 195/195/195 196/196/196 248/248/248
f 250/250/250 195/195/195 248/248/248
f 200/200/200 201/201/201 196/196/196 195/195/195
f 248/248/248 196/196/196 191/191/191
f 201/201/201 200/200/200 205/205/205 206/206/206
f 236/236/236 237/237/237 243/243/243 244/244/244
f 240/240/240 236/236/236 244/244/244
f 190/190/190 236/236/236 240/240/240 241/241/241
f 194/194/194 190/190/190 241/241/241
f 239/239/239 193/193/193 198/198/198
f 203/203/203 204/204/204 199/199/199 198/198/198
f 241/241/241 239/239/239 194/194/194
f 199/199/199 194/194/194 239/239/239
f 198/198/198 199/199/199 239/239/239
f 204/204/204 203/203/203 208/208/208 209/209/209
f 210/210/210 211/211/211 206/206/206 205/205/205
f 226/226/226 210/210/210 215/215/215
f 226/226/226 211/211/211 210/210/210
f 216/216/216 211/211/211 226/226/226
f 226/226/226 215/215/215 227/227/227
f 222/222/222 227/227/227 220/220/220
f 215/215/215 220/220/220 227/227/227
f 225/225/225 227/227/227 222/222/222
f 222/222/222 230/230/230 225/225/225
f 230/230/230 222/222/222 223/223/223
f 230/230/230 223/223/223 228/228/228
f 213/213/213 214/214/214 209/209/209 208/208/208
f 234/234/234 213/213/213 218/218/218
f 214/214/214 213/213/213 234/234/234 219/219/219
f 228/228/228 223/223/223 233/233/233
f 224/224/224 233/233/233 223/223/223
f 231/231/231 233/233/233 224/224/224
f 219/219/219 234/234/234 235/235/235
f 219/219/219 235/235/235 221/221/221
f 224/224/224 235/235/235 231/231/231
f 235/235/235 224/224/224 221/221/221
f 263/263/263 258/258/258 259/259/259
f 260/260/260 263/263/263 261/261/261
f 258/258/258 263/263/263 260/260/260
f 259/259/259 262/262/262 265/265/265 263/263/263
f 263/263/263 265/265/265 264/264/264 261/261/261
f 269/269/269 266/266/266 267/267/267
f 258/258/258 269/269/269 259/259/259
f 266/266/266 269/269/269 258/258/258
f 267/267/267 268/268/268 270/270/270 269/269/269
f 269/269/269 270/270/270 262/262/262 259/259/259
f 264/264/264 277/277/277 276/276/276
f 265/265/265 277/277/277 264/264/264
f 275/275/275 264/264/264 276/276/276
f 262/262/262 256/256/256 265/265/265
f 277/277/277 265/265/265 256/256/256
f 257/257/257 256/256/256 262/262/262
f 255/255/255 260/260/260 261/261/261 274/274/274
f 260/260/260 255/255/255 251/251/251
f 264/264/264 275/275/275 261/261/261
f 275/275/275 274/274/274 261/261/261
f 260/260/260 251/251/251 258/258/258
f 270/270/270 271/271/271 257/257/257
f 268/268/268 271/271/271 270/270/270
f 273/273/273 272/272/272 268/268/268
f 271/271/271 268/268/268 272/272/272
f 273/273/273 268/268/268 267/267/267
f 266/266/266 254/254/254 253/253/253 267/267/267
f 252/252/252 266/266/266 258/258/258
f 266/266/266 252/252/252 254/254/254
f 253/253/253 273/273/273 267/267/267
f 251/251/251 252/252/252 258/258/258
f 257/257/257 262/262/262 270/270/270
f 289/289/289 284/284/284 285/285/285
f 286/286/286 289/289/289 287/287/287
f 284/284/284 289/289/289 286/286/286
f 285/285/285 288/288/288 291/291/291 289/289/289
f 289/289/289 291/291/291 290/290/290 287/287/287
f 295/295/295 292/292/292 293/293/293
f 284/284/284 295/295/295 285/285/285
f 292/292/292 295/295/295 284/284/284
f 293/293/293 294/294/294 296/296/296 295/295/295
f 295/295/295 296/296/296 288/288/288 285/285/285
f 290/290/290 300/300/300 299/299/299
f 291/291/291 300/300/300 290/290/290
f 298/298/298 290/290/290 299/299/299
f 288/288/288 283/283/283 291/291/291
f 300/300/300 291/291/291 283/283/283
f 301/301/301 283/283/283 288/288/288
f 279/279/279 286/286/286 287/287/287 297/297/297
f 286/286/286 279/279/279 278/278/278
f 290/290/290 298/298/298 287/287/287
f 298/298/298 297/297/297 287/287/287
f 286/286/286 278/278/278 284/284/284
f 296/296/296 302/302/302 301/301/301
f 294/294/294 302/302/302 296/296/296
f 304/304/304 303/303/303 294/294/294
f 302/302/302 294/294/294 303/303/303
f 304/304/304 294/294/294 293/293/293
f 292/292/292 281/281/281 280/280/280 293/293/293
f 282/282/282 292/292/292 284/284/284
f 292/292/292 282/282/282 281/281/281
f 280/280/280 304/304/304 293/293/293
f 278/278/278 282/282/282 284/284/284
f 301/301/301 288/288/288 296/296/296
