# Rhino

mtllib Lab_8.mtl
usemtl Default
v 2750 2350 0
v 2750 2400 0
v 2750 2350 -6000
v 2750 2400 -6000
v 2750 2350 -6000
v 2750 2400 -6000
v -2750 2350 -6000
v -2750 2400 -6000
v -2750 2350 -6000
v -2750 2400 -6000
v -2750 2350 0
v -2750 2400 0
v -2750 2350 0
v -2750 2400 0
v 2750 2350 0
v 2750 2400 0
v 2750 2350 0
v 2750 2350 -6000
v -2750 2350 -6000
v -2750 2350 0
v 2750 2400 0
v 2750 2400 -6000
v -2750 2400 -6000
v -2750 2400 0
vt 0 0
vt 0 0.5022621750831604
vt 0.26086956262588501 0
vt 0.26086956262588501 0.5022621750831604
vt 0.26086956262588501 0
vt 0.26086956262588501 0.5022621750831604
vt 0.5 0
vt 0.5 0.5022621750831604
vt 0.5 0
vt 0.5 0.5022621750831604
vt 0.76086956262588501 0
vt 0.76086956262588501 0.5022621750831604
vt 0.76086956262588501 0
vt 0.76086956262588501 0.5022621750831604
vt 1 0
vt 1 0.5022621750831604
vt 0 1
vt 0.26086956262588501 1
vt 0.26086956262588501 0.50226271152496338
vt 0 0.50226271152496338
vt 0.73913043737411499 0.50226271152496338
vt 1 0.50226271152496338
vt 1 1
vt 0.73913043737411499 1
vn 1 0 0
vn 1 0 0
vn 1 0 0
vn 1 0 0
vn 0 0 -1
vn 0 0 -1
vn 0 0 -1
vn 0 0 -1
vn -1 0 0
vn -1 0 0
vn -1 0 0
vn -1 0 0
vn 0 0 1
vn 0 0 1
vn 0 0 1
vn 0 0 1
vn 0 -1 0
vn 0 -1 0
vn 0 -1 0
vn 0 -1 0
vn 0 1 0
vn 0 1 0
vn 0 1 0
vn 0 1 0
f 1/1/1 3/3/3 4/4/4 2/2/2
f 5/5/5 7/7/7 8/8/8 6/6/6
f 9/9/9 11/11/11 12/12/12 10/10/10
f 13/13/13 15/15/15 16/16/16 14/14/14
f 18/18/18 17/17/17 20/20/20
f 20/20/20 19/19/19 18/18/18
f 22/22/22 24/24/24 21/21/21
f 24/24/24 22/22/22 23/23/23
