# Rhino

mtllib Lab_4.mtl
usemtl Default
v -2350 2250 0
v -2350 2250 -20
v -850 2250 0
v -850 2250 -20
v -850 2250 0
v -850 2250 -20
v -850 890 0
v -850 890 -20
v -850 890 0
v -850 890 -20
v -2350 890 0
v -2350 890 -20
v -2350 890 0
v -2350 890 -20
v -2350 2250 0
v -2350 2250 -20
v -2350 2250 0
v -850 2250 0
v -850 890 0
v -2350 890 0
v -2350 2250 -20
v -850 2250 -20
v -850 890 -20
v -2350 890 -20
vt 0 0
vt 0 0.50364935398101807
vt 0.26223775744438171 0
vt 0.26223775744438171 0.50364935398101807
vt 0.26223775744438171 0
vt 0.26223775744438171 0.50364935398101807
vt 0.5 0
vt 0.5 0.50364935398101807
vt 0.5 0
vt 0.5 0.50364935398101807
vt 0.7622377872467041 0
vt 0.7622377872467041 0.50364935398101807
vt 0.7622377872467041 0
vt 0.7622377872467041 0.50364935398101807
vt 1 0
vt 1 0.50364935398101807
vt 0 1
vt 0.26223775744438171 1
vt 0.26223775744438171 0.50364989042282104
vt 0 0.50364989042282104
vt 0.7377622127532959 0.50364989042282104
vt 1 0.50364989042282104
vt 1 1
vt 0.7377622127532959 1
vn 0 1 0
vn 0 1 0
vn 0 1 0
vn 0 1 0
vn 1 0 0
vn 1 0 0
vn 1 0 0
vn 1 0 0
vn 0 -1 0
vn 0 -1 0
vn 0 -1 0
vn 0 -1 0
vn -1 0 0
vn -1 0 0
vn -1 0 0
vn -1 0 0
vn 0 0 1
vn 0 0 1
vn 0 0 1
vn 0 0 1
vn 0 0 -1
vn 0 0 -1
vn 0 0 -1
vn 0 0 -1
f 1/1/1 3/3/3 4/4/4 2/2/2
f 5/5/5 7/7/7 8/8/8 6/6/6
f 9/9/9 11/11/11 12/12/12 10/10/10
f 13/13/13 15/15/15 16/16/16 14/14/14
f 18/18/18 17/17/17 20/20/20
f 20/20/20 19/19/19 18/18/18
f 22/22/22 24/24/24 21/21/21
f 24/24/24 22/22/22 23/23/23
usemtl Default
v 850 2250 0
v 850 2250 -20
v 2350 2250 0
v 2350 2250 -20
v 2350 2250 0
v 2350 2250 -20
v 2350 890 0
v 2350 890 -20
v 2350 890 0
v 2350 890 -20
v 850 890 0
v 850 890 -20
v 850 890 0
v 850 890 -20
v 850 2250 0
v 850 2250 -20
v 850 2250 0
v 2350 2250 0
v 2350 890 0
v 850 890 0
v 850 2250 -20
v 2350 2250 -20
v 2350 890 -20
v 850 890 -20
vt 0 0
vt 0 0.50364935398101807
vt 0.26223775744438171 0
vt 0.26223775744438171 0.50364935398101807
vt 0.26223775744438171 0
vt 0.26223775744438171 0.50364935398101807
vt 0.5 0
vt 0.5 0.50364935398101807
vt 0.5 0
vt 0.5 0.50364935398101807
vt 0.7622377872467041 0
vt 0.7622377872467041 0.50364935398101807
vt 0.7622377872467041 0
vt 0.7622377872467041 0.50364935398101807
vt 1 0
vt 1 0.50364935398101807
vt 0 1
vt 0.26223775744438171 1
vt 0.26223775744438171 0.50364989042282104
vt 0 0.50364989042282104
vt 0.7377622127532959 0.50364989042282104
vt 1 0.50364989042282104
vt 1 1
vt 0.7377622127532959 1
vn 0 1 0
vn 0 1 0
vn 0 1 0
vn 0 1 0
vn 1 0 0
vn 1 0 0
vn 1 0 0
vn 1 0 0
vn 0 -1 0
vn 0 -1 0
vn 0 -1 0
vn 0 -1 0
vn -1 0 0
vn -1 0 0
vn -1 0 0
vn -1 0 0
vn 0 0 1
vn 0 0 1
vn 0 0 1
vn 0 0 1
vn 0 0 -1
vn 0 0 -1
vn 0 0 -1
vn 0 0 -1
f 25/25/25 27/27/27 28/28/28 26/26/26
f 29/29/29 31/31/31 32/32/32 30/30/30
f 33/33/33 35/35/35 36/36/36 34/34/34
f 37/37/37 39/39/39 40/40/40 38/38/38
f 42/42/42 41/41/41 44/44/44
f 44/44/44 43/43/43 42/42/42
f 46/46/46 48/48/48 45/45/45
f 48/48/48 46/46/46 47/47/47
usemtl Default
v -750 2250 0
v -750 2250 -20
v 750 2250 0
v 750 2250 -20
v 750 2250 0
v 750 2250 -20
v 750 890 0
v 750 890 -20
v 750 890 0
v 750 890 -20
v -750 890 0
v -750 890 -20
v -750 890 0
v -750 890 -20
v -750 2250 0
v -750 2250 -20
v -750 2250 0
v 750 2250 0
v 750 890 0
v -750 890 0
v -750 2250 -20
v 750 2250 -20
v 750 890 -20
v -750 890 -20
vt 0 0
vt 0 0.50364935398101807
vt 0.26223775744438171 0
vt 0.26223775744438171 0.50364935398101807
vt 0.26223775744438171 0
vt 0.26223775744438171 0.50364935398101807
vt 0.5 0
vt 0.5 0.50364935398101807
vt 0.5 0
vt 0.5 0.50364935398101807
vt 0.7622377872467041 0
vt 0.7622377872467041 0.50364935398101807
vt 0.7622377872467041 0
vt 0.7622377872467041 0.50364935398101807
vt 1 0
vt 1 0.50364935398101807
vt 0 1
vt 0.26223775744438171 1
vt 0.26223775744438171 0.50364989042282104
vt 0 0.50364989042282104
vt 0.7377622127532959 0.50364989042282104
vt 1 0.50364989042282104
vt 1 1
vt 0.7377622127532959 1
vn 0 1 0
vn 0 1 0
vn 0 1 0
vn 0 1 0
vn 1 0 0
vn 1 0 0
vn 1 0 0
vn 1 0 0
vn 0 -1 0
vn 0 -1 0
vn 0 -1 0
vn 0 -1 0
vn -1 0 0
vn -1 0 0
vn -1 0 0
vn -1 0 0
vn 0 0 1
vn 0 0 1
vn 0 0 1
vn 0 0 1
vn 0 0 -1
vn 0 0 -1
vn 0 0 -1
vn 0 0 -1
f 49/49/49 51/51/51 52/52/52 50/50/50
f 53/53/53 55/55/55 56/56/56 54/54/54
f 57/57/57 59/59/59 60/60/60 58/58/58
f 61/61/61 63/63/63 64/64/64 62/62/62
f 66/66/66 65/65/65 68/68/68
f 68/68/68 67/67/67 66/66/66
f 70/70/70 72/72/72 69/69/69
f 72/72/72 70/70/70 71/71/71
