# Rhino

mtllib Lab_2.mtl
usemtl Default
v -800 840 0
v -800 840 -50
v -800 2300 0
v -800 2300 -50
v -800 2300 0
v -800 2300 -50
v 800 2300 0
v 800 2300 -50
v 800 2300 0
v 800 2300 -50
v 800 840 0
v 800 840 -50
v 800 840 0
v 800 840 -50
v -800 840 0
v -800 840 -50
v -750 890 0
v -750 890 -50
v 750 890 0
v 750 890 -50
v 750 890 0
v 750 890 -50
v 750 2250 0
v 750 2250 -50
v 750 2250 0
v 750 2250 -50
v -750 2250 0
v -750 2250 -50
v -750 2250 0
v -750 2250 -50
v -750 890 0
v -750 890 -50
v -800 840 0
v -800 2300 0
v 800 2300 0
v 800 840 0
v -750 890 0
v 750 890 0
v 750 2250 0
v -750 2250 0
v -800 840 -50
v -800 2300 -50
v 800 2300 -50
v 800 840 -50
v -750 890 -50
v 750 890 -50
v 750 2250 -50
v -750 2250 -50
vt 0 0
vt 0 0.50841724872589111
vt 0.12331081181764603 0
vt 0.12331081181764603 0.50841724872589111
vt 0.12331081181764603 0
vt 0.12331081181764603 0.50841724872589111
vt 0.25844594836235046 0
vt 0.25844594836235046 0.50841724872589111
vt 0.25844594836235046 0
vt 0.25844594836235046 0.50841724872589111
vt 0.38175675272941589 0
vt 0.38175675272941589 0.50841724872589111
vt 0.38175675272941589 0
vt 0.38175675272941589 0.50841724872589111
vt 0.51689189672470093 0
vt 0.51689189672470093 0.50841724872589111
vt 0.51689189672470093 0
vt 0.51689189672470093 0.50841724872589111
vt 0.6435810923576355 0
vt 0.6435810923576355 0.50841724872589111
vt 0.6435810923576355 0
vt 0.6435810923576355 0.50841724872589111
vt 0.75844591856002808 0
vt 0.75844591856002808 0.50841724872589111
vt 0.75844591856002808 0
vt 0.75844591856002808 0.50841724872589111
vt 0.88513511419296265 0
vt 0.88513511419296265 0.50841724872589111
vt 0.88513511419296265 0
vt 0.88513511419296265 0.50841724872589111
vt 1 0
vt 1 0.50841724872589111
vt 0.13513512909412384 1
vt 0.13513512909412384 0.50841778516769409
vt 0 0.50841778516769409
vt 0 1
vt 0.13091215491294861 0.98316496610641479
vt 0.00422297278419137 0.98316496610641479
vt 0.00422297278419137 0.52525275945663452
vt 0.13091215491294861 0.52525275945663452
vt 0.13513512909412384 0.50841778516769409
vt 0.13513512909412384 1
vt 0 1
vt 0 0.50841778516769409
vt 0.13091215491294861 0.52525275945663452
vt 0.00422297278419137 0.52525275945663452
vt 0.00422297278419137 0.98316496610641479
vt 0.13091215491294861 0.98316496610641479
vn -1 0 0
vn -1 0 0
vn -1 0 0
vn -1 0 0
vn 0 1 0
vn 0 1 0
vn 0 1 0
vn 0 1 0
vn 1 0 0
vn 1 0 0
vn 1 0 0
vn 1 0 0
vn 0 -1 0
vn 0 -1 0
vn 0 -1 0
vn 0 -1 0
vn 0 1 0
vn 0 1 0
vn 0 1 0
vn 0 1 0
vn -1 0 0
vn -1 0 0
vn -1 0 0
vn -1 0 0
vn 0 -1 0
vn 0 -1 0
vn 0 -1 0
vn 0 -1 0
vn 1 0 0
vn 1 0 0
vn 1 0 0
vn 1 0 0
vn 0 0 1
vn 0 0 1
vn 0 0 1
vn 0 0 1
vn 0 0 1
vn 0 0 1
vn 0 0 1
vn 0 0 1
vn 0 0 -1
vn 0 0 -1
vn 0 0 -1
vn 0 0 -1
vn 0 0 -1
vn 0 0 -1
vn 0 0 -1
vn 0 0 -1
f 1/1/1 3/3/3 4/4/4 2/2/2
f 5/5/5 7/7/7 8/8/8 6/6/6
f 9/9/9 11/11/11 12/12/12 10/10/10
f 13/13/13 15/15/15 16/16/16 14/14/14
f 17/17/17 19/19/19 20/20/20 18/18/18
f 21/21/21 23/23/23 24/24/24 22/22/22
f 25/25/25 27/27/27 28/28/28 26/26/26
f 29/29/29 31/31/31 32/32/32 30/30/30
f 39/39/39 38/38/38 36/36/36
f 33/33/33 36/36/36 38/38/38
f 40/40/40 39/39/39 35/35/35
f 36/36/36 35/35/35 39/39/39
f 34/34/34 33/33/33 37/37/37
f 38/38/38 37/37/37 33/33/33
f 35/35/35 34/34/34 40/40/40
f 37/37/37 40/40/40 34/34/34
f 47/47/47 44/44/44 46/46/46
f 41/41/41 46/46/46 44/44/44
f 48/48/48 43/43/43 47/47/47
f 44/44/44 47/47/47 43/43/43
f 42/42/42 45/45/45 41/41/41
f 46/46/46 41/41/41 45/45/45
f 43/43/43 48/48/48 42/42/42
f 45/45/45 42/42/42 48/48/48
usemtl Default
v -2400 840 0
v -2400 840 -50
v -2400 2300 0
v -2400 2300 -50
v -2400 2300 0
v -2400 2300 -50
v -800 2300 0
v -800 2300 -50
v -800 2300 0
v -800 2300 -50
v -800 840 0
v -800 840 -50
v -800 840 0
v -800 840 -50
v -2400 840 0
v -2400 840 -50
v -2350 890 0
v -2350 890 -50
v -850 890 0
v -850 890 -50
v -850 890 0
v -850 890 -50
v -850 2250 0
v -850 2250 -50
v -850 2250 0
v -850 2250 -50
v -2350 2250 0
v -2350 2250 -50
v -2350 2250 0
v -2350 2250 -50
v -2350 890 0
v -2350 890 -50
v -2400 840 0
v -2400 2300 0
v -800 2300 0
v -800 840 0
v -2350 890 0
v -850 890 0
v -850 2250 0
v -2350 2250 0
v -2400 840 -50
v -2400 2300 -50
v -800 2300 -50
v -800 840 -50
v -2350 890 -50
v -850 890 -50
v -850 2250 -50
v -2350 2250 -50
vt 0 0
vt 0 0.50841724872589111
vt 0.12331081181764603 0
vt 0.12331081181764603 0.50841724872589111
vt 0.12331081181764603 0
vt 0.12331081181764603 0.50841724872589111
vt 0.25844594836235046 0
vt 0.25844594836235046 0.50841724872589111
vt 0.25844594836235046 0
vt 0.25844594836235046 0.50841724872589111
vt 0.38175675272941589 0
vt 0.38175675272941589 0.50841724872589111
vt 0.38175675272941589 0
vt 0.38175675272941589 0.50841724872589111
vt 0.51689189672470093 0
vt 0.51689189672470093 0.50841724872589111
vt 0.51689189672470093 0
vt 0.51689189672470093 0.50841724872589111
vt 0.6435810923576355 0
vt 0.6435810923576355 0.50841724872589111
vt 0.6435810923576355 0
vt 0.6435810923576355 0.50841724872589111
vt 0.75844591856002808 0
vt 0.75844591856002808 0.50841724872589111
vt 0.75844591856002808 0
vt 0.75844591856002808 0.50841724872589111
vt 0.88513511419296265 0
vt 0.88513511419296265 0.50841724872589111
vt 0.88513511419296265 0
vt 0.88513511419296265 0.50841724872589111
vt 1 0
vt 1 0.50841724872589111
vt 0.13513512909412384 1
vt 0.13513512909412384 0.50841778516769409
vt 0 0.50841778516769409
vt 0 1
vt 0.13091215491294861 0.98316496610641479
vt 0.00422297278419137 0.98316496610641479
vt 0.00422297278419137 0.52525275945663452
vt 0.13091215491294861 0.52525275945663452
vt 0.13513512909412384 0.50841778516769409
vt 0.13513512909412384 1
vt 0 1
vt 0 0.50841778516769409
vt 0.13091215491294861 0.52525275945663452
vt 0.00422297278419137 0.52525275945663452
vt 0.00422297278419137 0.98316496610641479
vt 0.13091215491294861 0.98316496610641479
vn -1 0 0
vn -1 0 0
vn -1 0 0
vn -1 0 0
vn 0 1 0
vn 0 1 0
vn 0 1 0
vn 0 1 0
vn 1 0 0
vn 1 0 0
vn 1 0 0
vn 1 0 0
vn 0 -1 0
vn 0 -1 0
vn 0 -1 0
vn 0 -1 0
vn 0 1 0
vn 0 1 0
vn 0 1 0
vn 0 1 0
vn -1 0 0
vn -1 0 0
vn -1 0 0
vn -1 0 0
vn 0 -1 0
vn 0 -1 0
vn 0 -1 0
vn 0 -1 0
vn 1 0 0
vn 1 0 0
vn 1 0 0
vn 1 0 0
vn 0 0 1
vn 0 0 1
vn 0 0 1
vn 0 0 1
vn 0 0 1
vn 0 0 1
vn 0 0 1
vn 0 0 1
vn 0 0 -1
vn 0 0 -1
vn 0 0 -1
vn 0 0 -1
vn 0 0 -1
vn 0 0 -1
vn 0 0 -1
vn 0 0 -1
f 49/49/49 51/51/51 52/52/52 50/50/50
f 53/53/53 55/55/55 56/56/56 54/54/54
f 57/57/57 59/59/59 60/60/60 58/58/58
f 61/61/61 63/63/63 64/64/64 62/62/62
f 65/65/65 67/67/67 68/68/68 66/66/66
f 69/69/69 71/71/71 72/72/72 70/70/70
f 73/73/73 75/75/75 76/76/76 74/74/74
f 77/77/77 79/79/79 80/80/80 78/78/78
f 87/87/87 86/86/86 84/84/84
f 81/81/81 84/84/84 86/86/86
f 88/88/88 87/87/87 83/83/83
f 84/84/84 83/83/83 87/87/87
f 82/82/82 81/81/81 85/85/85
f 86/86/86 85/85/85 81/81/81
f 83/83/83 82/82/82 88/88/88
f 85/85/85 88/88/88 82/82/82
f 95/95/95 92/92/92 94/94/94
f 89/89/89 94/94/94 92/92/92
f 96/96/96 91/91/91 95/95/95
f 92/92/92 95/95/95 91/91/91
f 90/90/90 93/93/93 89/89/89
f 94/94/94 89/89/89 93/93/93
f 91/91/91 96/96/96 90/90/90
f 93/93/93 90/90/90 96/96/96
usemtl Default
v 800 840 0
v 800 840 -50
v 800 2300 0
v 800 2300 -50
v 800 2300 0
v 800 2300 -50
v 2400 2300 0
v 2400 2300 -50
v 2400 2300 0
v 2400 2300 -50
v 2400 840 0
v 2400 840 -50
v 2400 840 0
v 2400 840 -50
v 800 840 0
v 800 840 -50
v 850 890 0
v 850 890 -50
v 2350 890 0
v 2350 890 -50
v 2350 890 0
v 2350 890 -50
v 2350 2250 0
v 2350 2250 -50
v 2350 2250 0
v 2350 2250 -50
v 850 2250 0
v 850 2250 -50
v 850 2250 0
v 850 2250 -50
v 850 890 0
v 850 890 -50
v 800 840 0
v 800 2300 0
v 2400 2300 0
v 2400 840 0
v 850 890 0
v 2350 890 0
v 2350 2250 0
v 850 2250 0
v 800 840 -50
v 800 2300 -50
v 2400 2300 -50
v 2400 840 -50
v 850 890 -50
v 2350 890 -50
v 2350 2250 -50
v 850 2250 -50
vt 0 0
vt 0 0.50841724872589111
vt 0.12331081181764603 0
vt 0.12331081181764603 0.50841724872589111
vt 0.12331081181764603 0
vt 0.12331081181764603 0.50841724872589111
vt 0.25844594836235046 0
vt 0.25844594836235046 0.50841724872589111
vt 0.25844594836235046 0
vt 0.25844594836235046 0.50841724872589111
vt 0.38175675272941589 0
vt 0.38175675272941589 0.50841724872589111
vt 0.38175675272941589 0
vt 0.38175675272941589 0.50841724872589111
vt 0.51689189672470093 0
vt 0.51689189672470093 0.50841724872589111
vt 0.51689189672470093 0
vt 0.51689189672470093 0.50841724872589111
vt 0.6435810923576355 0
vt 0.6435810923576355 0.50841724872589111
vt 0.6435810923576355 0
vt 0.6435810923576355 0.50841724872589111
vt 0.75844591856002808 0
vt 0.75844591856002808 0.50841724872589111
vt 0.75844591856002808 0
vt 0.75844591856002808 0.50841724872589111
vt 0.88513511419296265 0
vt 0.88513511419296265 0.50841724872589111
vt 0.88513511419296265 0
vt 0.88513511419296265 0.50841724872589111
vt 1 0
vt 1 0.50841724872589111
vt 0.13513512909412384 1
vt 0.13513512909412384 0.50841778516769409
vt 0 0.50841778516769409
vt 0 1
vt 0.13091215491294861 0.98316496610641479
vt 0.00422297278419137 0.98316496610641479
vt 0.00422297278419137 0.52525275945663452
vt 0.13091215491294861 0.52525275945663452
vt 0.13513512909412384 0.50841778516769409
vt 0.13513512909412384 1
vt 0 1
vt 0 0.50841778516769409
vt 0.13091215491294861 0.52525275945663452
vt 0.00422297278419137 0.52525275945663452
vt 0.00422297278419137 0.98316496610641479
vt 0.13091215491294861 0.98316496610641479
vn -1 0 0
vn -1 0 0
vn -1 0 0
vn -1 0 0
vn 0 1 0
vn 0 1 0
vn 0 1 0
vn 0 1 0
vn 1 0 0
vn 1 0 0
vn 1 0 0
vn 1 0 0
vn 0 -1 0
vn 0 -1 0
vn 0 -1 0
vn 0 -1 0
vn 0 1 0
vn 0 1 0
vn 0 1 0
vn 0 1 0
vn -1 0 0
vn -1 0 0
vn -1 0 0
vn -1 0 0
vn 0 -1 0
vn 0 -1 0
vn 0 -1 0
vn 0 -1 0
vn 1 0 0
vn 1 0 0
vn 1 0 0
vn 1 0 0
vn 0 0 1
vn 0 0 1
vn 0 0 1
vn 0 0 1
vn 0 0 1
vn 0 0 1
vn 0 0 1
vn 0 0 1
vn 0 0 -1
vn 0 0 -1
vn 0 0 -1
vn 0 0 -1
vn 0 0 -1
vn 0 0 -1
vn 0 0 -1
vn 0 0 -1
f 97/97/97 99/99/99 100/100/100 98/98/98
f 101/101/101 103/103/103 104/104/104 102/102/102
f 105/105/105 107/107/107 108/108/108 106/106/106
f 109/109/109 111/111/111 112/112/112 110/110/110
f 113/113/113 115/115/115 116/116/116 114/114/114
f 117/117/117 119/119/119 120/120/120 118/118/118
f 121/121/121 123/123/123 124/124/124 122/122/122
f 125/125/125 127/127/127 128/128/128 126/126/126
f 135/135/135 134/134/134 132/132/132
f 129/129/129 132/132/132 134/134/134
f 136/136/136 135/135/135 131/131/131
f 132/132/132 131/131/131 135/135/135
f 130/130/130 129/129/129 133/133/133
f 134/134/134 133/133/133 129/129/129
f 131/131/131 130/130/130 136/136/136
f 133/133/133 136/136/136 130/130/130
f 143/143/143 140/140/140 142/142/142
f 137/137/137 142/142/142 140/140/140
f 144/144/144 139/139/139 143/143/143
f 140/140/140 143/143/143 139/139/139
f 138/138/138 141/141/141 137/137/137
f 142/142/142 137/137/137 141/141/141
f 139/139/139 144/144/144 138/138/138
f 141/141/141 138/138/138 144/144/144
