# Rhino

mtllib Lab_0.mtl
usemtl Default
v 2750 -50 0
v 2750 2400 0
v 2850 -50 0
v 2850 2400 0
v 2850 300 0
v 2850 650 0
v 2850 1000 0
v 2850 1350 0
v 2850 1700 0
v 2850 2050 0
v 2750 2050 0
v 2750 1700 0
v 2750 1350 0
v 2750 1000 0
v 2750 650 0
v 2750 300 0
v 2850 -50 0
v 2850 300 0
v 2850 650 0
v 2850 1000 0
v 2850 1350 0
v 2850 1700 0
v 2850 2050 0
v 2850 2400 0
v 2850 -50 -857.14288330078125
v 2850 300 -857.14288330078125
v 2850 650 -857.14288330078125
v 2850 1000 -857.14288330078125
v 2850 1350 -857.14288330078125
v 2850 1700 -857.14288330078125
v 2850 2050 -857.14288330078125
v 2850 300 -1714.2857666015625
v 2850 650 -1714.2857666015625
v 2850 1000 -1714.2857666015625
v 2850 1350 -1714.2857666015625
v 2850 1700 -1714.2857666015625
v 2850 2050 -1714.2857666015625
v 2850 300 -2571.428466796875
v 2850 650 -2571.428466796875
v 2850 1000 -2571.428466796875
v 2850 1350 -2571.428466796875
v 2850 1700 -2571.428466796875
v 2850 2050 -2571.428466796875
v 2850 -50 -4285.71435546875
v 2850 2400 -4285.71435546875
v 2850 -50 -6000
v 2850 300 -6000
v 2850 650 -6000
v 2850 1000 -6000
v 2850 1350 -6000
v 2850 1700 -6000
v 2850 2050 -6000
v 2850 2400 -6000
v 2850 -50 -428.57144165039062
v 2850 -50 -1285.7142333984375
v 2850 -50 -1714.2857666015625
v 2850 -50 -2142.857177734375
v 2850 -50 -2571.428466796875
v 2850 -50 -3000
v 2850 -50 -3428.571533203125
v 2850 -50 -3857.142822265625
v 2850 -50 -4714.28564453125
v 2850 -50 -5142.85693359375
v 2850 -50 -5571.4287109375
v 2850 2400 -5571.4287109375
v 2850 2400 -5142.85693359375
v 2850 2400 -4714.28564453125
v 2850 2400 -3857.142822265625
v 2850 2400 -3428.571533203125
v 2850 2400 -3000
v 2850 2400 -2571.428466796875
v 2850 2400 -2142.857177734375
v 2850 2400 -1714.2857666015625
v 2850 2400 -1285.7142333984375
v 2850 2400 -857.14288330078125
v 2850 2400 -428.57144165039062
v 2850 0 -3475
v 2850 350 -3475
v 2850 700 -3475
v 2850 1050 -3475
v 2850 1400 -3475
v 2850 1750 -3475
v 2850 2100 -3475
v 2850 2100 -3808.333251953125
v 2850 2100 -4141.66650390625
v 2850 2100 -4475
v 2850 1750 -4475
v 2850 1400 -4475
v 2850 1050 -4475
v 2850 700 -4475
v 2850 350 -4475
v 2850 0 -4475
v 2850 0 -4141.66650390625
v 2850 0 -3808.333251953125
v 2850 300 -3428.571533203125
v 2850 1000 -3428.571533203125
v 2850 1350 -3428.571533203125
v 2850 1700 -3428.571533203125
v 2850 2050 -3428.571533203125
v 2850 300 -5142.85693359375
v 2850 1000 -5142.85693359375
v 2850 1350 -5142.85693359375
v 2850 1700 -5142.85693359375
v 2850 2050 -5142.85693359375
v 2850 -50 -6000
v 2850 2400 -6000
v 2750 -50 -6000
v 2750 2400 -6000
v 2850 2050 -6000
v 2850 1700 -6000
v 2850 1350 -6000
v 2850 1000 -6000
v 2850 650 -6000
v 2850 300 -6000
v 2750 300 -6000
v 2750 650 -6000
v 2750 1000 -6000
v 2750 1350 -6000
v 2750 1700 -6000
v 2750 2050 -6000
v 2750 -50 -6000
v 2750 300 -6000
v 2750 650 -6000
v 2750 1000 -6000
v 2750 1350 -6000
v 2750 1700 -6000
v 2750 2050 -6000
v 2750 2400 -6000
v 2750 -50 -5142.85693359375
v 2750 -50 -4285.71435546875
v 2750 2400 -4285.71435546875
v 2750 -50 -3428.571533203125
v 2750 2400 -3428.571533203125
v 2750 -50 -2571.428466796875
v 2750 300 -2571.428466796875
v 2750 650 -2571.428466796875
v 2750 1000 -2571.428466796875
v 2750 1350 -2571.428466796875
v 2750 1700 -2571.428466796875
v 2750 2050 -2571.428466796875
v 2750 2400 -2571.428466796875
v 2750 300 -1714.2857666015625
v 2750 650 -1714.2857666015625
v 2750 1000 -1714.2857666015625
v 2750 1350 -1714.2857666015625
v 2750 1700 -1714.2857666015625
v 2750 2050 -1714.2857666015625
v 2750 300 -857.14288330078125
v 2750 650 -857.14288330078125
v 2750 1000 -857.14288330078125
v 2750 1350 -857.14288330078125
v 2750 1700 -857.14288330078125
v 2750 2050 -857.14288330078125
v 2750 -50 0
v 2750 300 0
v 2750 650 0
v 2750 1000 0
v 2750 1350 0
v 2750 1700 0
v 2750 2050 0
v 2750 2400 0
v 2750 -50 -5571.4287109375
v 2750 -50 -4714.28564453125
v 2750 -50 -3857.142822265625
v 2750 -50 -3000
v 2750 -50 -2142.857177734375
v 2750 -50 -1714.2857666015625
v 2750 -50 -1285.7142333984375
v 2750 -50 -857.14288330078125
v 2750 -50 -428.57144165039062
v 2750 2400 -428.57144165039062
v 2750 2400 -857.14288330078125
v 2750 2400 -1285.7142333984375
v 2750 2400 -1714.2857666015625
v 2750 2400 -2142.857177734375
v 2750 2400 -3000
v 2750 2400 -3857.142822265625
v 2750 2400 -4714.28564453125
v 2750 2400 -5142.85693359375
v 2750 2400 -5571.4287109375
v 2750 2100 -3475
v 2750 1750 -3475
v 2750 1400 -3475
v 2750 1050 -3475
v 2750 700 -3475
v 2750 350 -3475
v 2750 0 -3475
v 2750 2100 -4475
v 2750 2100 -4141.66650390625
v 2750 2100 -3808.333251953125
v 2750 0 -4475
v 2750 350 -4475
v 2750 700 -4475
v 2750 1050 -4475
v 2750 1400 -4475
v 2750 1750 -4475
v 2750 0 -3808.333251953125
v 2750 0 -4141.66650390625
v 2750 650 -5142.85693359375
v 2750 1000 -5142.85693359375
v 2750 1350 -5142.85693359375
v 2750 650 -3428.571533203125
v 2750 1000 -3428.571533203125
v 2750 1700 -5142.85693359375
v 2750 2050 -5142.85693359375
v 2750 1350 -3428.571533203125
v 2750 1700 -3428.571533203125
v 2750 2050 -3428.571533203125
v 2750 -50 0
v 2750 -50 -3000
v 2750 -50 -6000
v 2850 -50 0
v 2850 -50 -3000
v 2850 -50 -6000
v 2850 -50 -428.57144165039062
v 2850 -50 -857.14288330078125
v 2850 -50 -1285.7142333984375
v 2850 -50 -1714.2857666015625
v 2850 -50 -2142.857177734375
v 2850 -50 -2571.428466796875
v 2850 -50 -3428.571533203125
v 2850 -50 -3857.142822265625
v 2850 -50 -4285.71435546875
v 2850 -50 -4714.28564453125
v 2850 -50 -5142.85693359375
v 2850 -50 -5571.4287109375
v 2750 -50 -5571.4287109375
v 2750 -50 -5142.85693359375
v 2750 -50 -4714.28564453125
v 2750 -50 -4285.71435546875
v 2750 -50 -3857.142822265625
v 2750 -50 -3428.571533203125
v 2750 -50 -2571.428466796875
v 2750 -50 -2142.857177734375
v 2750 -50 -1714.2857666015625
v 2750 -50 -1285.7142333984375
v 2750 -50 -857.14288330078125
v 2750 -50 -428.57144165039062
v 2750 2400 0
v 2750 2400 -3000
v 2750 2400 -6000
v 2850 2400 0
v 2850 2400 -3000
v 2850 2400 -6000
v 2850 2400 -428.57144165039062
v 2850 2400 -857.14288330078125
v 2850 2400 -1285.7142333984375
v 2850 2400 -1714.2857666015625
v 2850 2400 -2142.857177734375
v 2850 2400 -2571.428466796875
v 2850 2400 -3428.571533203125
v 2850 2400 -3857.142822265625
v 2850 2400 -4285.71435546875
v 2850 2400 -4714.28564453125
v 2850 2400 -5142.85693359375
v 2850 2400 -5571.4287109375
v 2750 2400 -5571.4287109375
v 2750 2400 -5142.85693359375
v 2750 2400 -4714.28564453125
v 2750 2400 -4285.71435546875
v 2750 2400 -3857.142822265625
v 2750 2400 -3428.571533203125
v 2750 2400 -2571.428466796875
v 2750 2400 -2142.857177734375
v 2750 2400 -1714.2857666015625
v 2750 2400 -1285.7142333984375
v 2750 2400 -857.14288330078125
v 2750 2400 -428.57144165039062
v 2750 2100 -3475
v 2850 2100 -3475
v 2750 1050 -3475
v 2750 0 -3475
v 2850 0 -3475
v 2850 350 -3475
v 2850 700 -3475
v 2850 1050 -3475
v 2850 1400 -3475
v 2850 1750 -3475
v 2750 1750 -3475
v 2750 1400 -3475
v 2750 700 -3475
v 2750 350 -3475
v 2750 2100 -4475
v 2850 2100 -4475
v 2750 2100 -3475
v 2850 2100 -3475
v 2850 2100 -3808.333251953125
v 2850 2100 -4141.66650390625
v 2750 2100 -4141.66650390625
v 2750 2100 -3808.333251953125
v 2750 0 -4475
v 2850 0 -4475
v 2750 1050 -4475
v 2850 1050 -4475
v 2750 2100 -4475
v 2850 2100 -4475
v 2850 1750 -4475
v 2850 1400 -4475
v 2850 700 -4475
v 2850 350 -4475
v 2750 350 -4475
v 2750 700 -4475
v 2750 1400 -4475
v 2750 1750 -4475
v 2750 0 -3475
v 2850 0 -3475
v 2750 0 -4475
v 2850 0 -4475
v 2850 0 -4141.66650390625
v 2850 0 -3808.333251953125
v 2750 0 -3808.333251953125
v 2750 0 -4141.66650390625
vt 0.01587301678955555 0
vt 0.01587301678955555 0.3888888955116272
vt 0.03028118796646595 0
vt 0.03028118796646595 0.3888888955116272
vt 0.03028118796646595 0.055555559694766998
vt 0.03028118796646595 0.111111119389534
vt 0.03028118796646595 0.1666666716337204
vt 0.03028118796646595 0.22222223877906799
vt 0.03028118796646595 0.27777779102325439
vt 0.03028118796646595 0.3333333432674408
vt 0.01587301678955555 0.3333333432674408
vt 0.01587301678955555 0.27777779102325439
vt 0.01587301678955555 0.22222223877906799
vt 0.01587301678955555 0.1666666716337204
vt 0.01587301678955555 0.111111119389534
vt 0.01587301678955555 0.055555559694766998
vt 0.0476190485060215 0.43209877610206604
vt 0.0476190485060215 0.48765432834625244
vt 0.0476190485060215 0.54320991039276123
vt 0.0476190485060215 0.59876543283462524
vt 0.0476190485060215 0.65432101488113403
vt 0.0476190485060215 0.70987653732299805
vt 0.0476190485060215 0.76543211936950684
vt 0.0476190485060215 0.82098764181137085
vt 0.18346421420574188 0.43209877610206604
vt 0.18346421420574188 0.48765432834625244
vt 0.18346421420574188 0.54320991039276123
vt 0.18346421420574188 0.59876543283462524
vt 0.18346421420574188 0.65432101488113403
vt 0.18346421420574188 0.70987653732299805
vt 0.18346421420574188 0.76543211936950684
vt 0.31930938363075256 0.48765432834625244
vt 0.31930938363075256 0.54320991039276123
vt 0.31930938363075256 0.59876543283462524
vt 0.31930938363075256 0.65432101488113403
vt 0.31930938363075256 0.70987653732299805
vt 0.31930938363075256 0.76543211936950684
vt 0.45515453815460205 0.48765432834625244
vt 0.45515453815460205 0.54320991039276123
vt 0.45515453815460205 0.59876543283462524
vt 0.45515453815460205 0.65432101488113403
vt 0.45515453815460205 0.70987653732299805
vt 0.45515453815460205 0.76543211936950684
vt 0.72684484720230103 0.43209877610206604
vt 0.72684484720230103 0.82098764181137085
vt 0.99853515625 0.43209877610206604
vt 0.99853515625 0.48765432834625244
vt 0.99853515625 0.54320991039276123
vt 0.99853515625 0.59876543283462524
vt 0.99853515625 0.65432101488113403
vt 0.99853515625 0.70987653732299805
vt 0.99853515625 0.76543211936950684
vt 0.99853515625 0.82098764181137085
vt 0.11554162949323654 0.43209877610206604
vt 0.25138679146766663 0.43209877610206604
vt 0.31930938363075256 0.43209877610206604
vt 0.38723194599151611 0.43209877610206604
vt 0.45515453815460205 0.43209877610206604
vt 0.52307713031768799 0.43209877610206604
vt 0.59099972248077393 0.43209877610206604
vt 0.65892225503921509 0.43209877610206604
vt 0.79476737976074219 0.43209877610206604
vt 0.8626900315284729 0.43209877610206604
vt 0.93061256408691406 0.43209877610206604
vt 0.93061256408691406 0.82098764181137085
vt 0.8626900315284729 0.82098764181137085
vt 0.79476737976074219 0.82098764181137085
vt 0.65892225503921509 0.82098764181137085
vt 0.59099972248077393 0.82098764181137085
vt 0.52307713031768799 0.82098764181137085
vt 0.45515453815460205 0.82098764181137085
vt 0.38723194599151611 0.82098764181137085
vt 0.31930938363075256 0.82098764181137085
vt 0.25138679146766663 0.82098764181137085
vt 0.18346421420574188 0.82098764181137085
vt 0.11554162949323654 0.82098764181137085
vt 0.5983579158782959 0.44003528356552124
vt 0.5983579158782959 0.49559083580970764
vt 0.5983579158782959 0.55114638805389404
vt 0.5983579158782959 0.60670191049575806
vt 0.5983579158782959 0.66225749254226685
vt 0.5983579158782959 0.71781307458877563
vt 0.5983579158782959 0.77336859703063965
vt 0.65118664503097534 0.77336859703063965
vt 0.70401525497436523 0.77336859703063965
vt 0.75684398412704468 0.77336859703063965
vt 0.75684398412704468 0.71781307458877563
vt 0.75684398412704468 0.66225749254226685
vt 0.75684398412704468 0.60670191049575806
vt 0.75684398412704468 0.55114638805389404
vt 0.75684398412704468 0.49559083580970764
vt 0.75684398412704468 0.44003528356552124
vt 0.70401525497436523 0.44003528356552124
vt 0.65118664503097534 0.44003528356552124
vt 0.59099972248077393 0.48765432834625244
vt 0.59099972248077393 0.59876543283462524
vt 0.59099972248077393 0.65432101488113403
vt 0.59099972248077393 0.70987653732299805
vt 0.59099972248077393 0.76543211936950684
vt 0.8626900315284729 0.48765432834625244
vt 0.8626900315284729 0.59876543283462524
vt 0.8626900315284729 0.65432101488113403
vt 0.8626900315284729 0.70987653732299805
vt 0.8626900315284729 0.76543211936950684
vt 0 0
vt 0 0.3888888955116272
vt 0.014408172108232975 0
vt 0.014408172108232975 0.3888888955116272
vt 0 0.3333333432674408
vt 0 0.27777779102325439
vt 0 0.22222223877906799
vt 0 0.1666666716337204
vt 0 0.111111119389534
vt 0 0.055555559694766998
vt 0.014408172108232975 0.055555559694766998
vt 0.014408172108232975 0.111111119389534
vt 0.014408172108232975 0.1666666716337204
vt 0.014408172108232975 0.22222223877906799
vt 0.014408172108232975 0.27777779102325439
vt 0.014408172108232975 0.3333333432674408
vt 0.0476190485060215 0
vt 0.0476190485060215 0.055555559694766998
vt 0.0476190485060215 0.111111119389534
vt 0.0476190485060215 0.1666666716337204
vt 0.0476190485060215 0.22222223877906799
vt 0.0476190485060215 0.27777779102325439
vt 0.0476190485060215 0.3333333432674408
vt 0.0476190485060215 0.3888888955116272
vt 0.18346421420574188 0
vt 0.31930938363075256 0
vt 0.31930938363075256 0.3888888955116272
vt 0.45515453815460205 0
vt 0.45515453815460205 0.3888888955116272
vt 0.59099972248077393 0
vt 0.59099972248077393 0.055555559694766998
vt 0.59099972248077393 0.111111119389534
vt 0.59099972248077393 0.1666666716337204
vt 0.59099972248077393 0.22222223877906799
vt 0.59099972248077393 0.27777779102325439
vt 0.59099972248077393 0.3333333432674408
vt 0.59099972248077393 0.3888888955116272
vt 0.72684484720230103 0.055555559694766998
vt 0.72684484720230103 0.111111119389534
vt 0.72684484720230103 0.1666666716337204
vt 0.72684484720230103 0.22222223877906799
vt 0.72684484720230103 0.27777779102325439
vt 0.72684484720230103 0.3333333432674408
vt 0.8626900315284729 0.055555559694766998
vt 0.8626900315284729 0.111111119389534
vt 0.8626900315284729 0.1666666716337204
vt 0.8626900315284729 0.22222223877906799
vt 0.8626900315284729 0.27777779102325439
vt 0.8626900315284729 0.3333333432674408
vt 0.99853515625 0
vt 0.99853515625 0.055555559694766998
vt 0.99853515625 0.111111119389534
vt 0.99853515625 0.1666666716337204
vt 0.99853515625 0.22222223877906799
vt 0.99853515625 0.27777779102325439
vt 0.99853515625 0.3333333432674408
vt 0.99853515625 0.3888888955116272
vt 0.11554162949323654 0
vt 0.25138679146766663 0
vt 0.38723194599151611 0
vt 0.52307713031768799 0
vt 0.65892225503921509 0
vt 0.72684484720230103 0
vt 0.79476737976074219 0
vt 0.8626900315284729 0
vt 0.93061256408691406 0
vt 0.93061256408691406 0.3888888955116272
vt 0.8626900315284729 0.3888888955116272
vt 0.79476737976074219 0.3888888955116272
vt 0.72684484720230103 0.3888888955116272
vt 0.65892225503921509 0.3888888955116272
vt 0.52307713031768799 0.3888888955116272
vt 0.38723194599151611 0.3888888955116272
vt 0.25138679146766663 0.3888888955116272
vt 0.18346421420574188 0.3888888955116272
vt 0.11554162949323654 0.3888888955116272
vt 0.44779622554779053 0.341269850730896
vt 0.44779622554779053 0.28571429848670959
vt 0.44779622554779053 0.230158731341362
vt 0.44779622554779053 0.1746031790971756
vt 0.44779622554779053 0.1190476194024086
vt 0.44779622554779053 0.063492059707641602
vt 0.44779622554779053 0.0079365074634552002
vt 0.28931021690368652 0.341269850730896
vt 0.34213888645172119 0.341269850730896
vt 0.39496755599975586 0.341269850730896
vt 0.28931021690368652 0.0079365074634552002
vt 0.28931021690368652 0.063492059707641602
vt 0.28931021690368652 0.1190476194024086
vt 0.28931021690368652 0.1746031790971756
vt 0.28931021690368652 0.230158731341362
vt 0.28931021690368652 0.28571429848670959
vt 0.39496755599975586 0.0079365074634552002
vt 0.34213888645172119 0.0079365074634552002
vt 0.18346421420574188 0.111111119389534
vt 0.18346421420574188 0.1666666716337204
vt 0.18346421420574188 0.22222223877906799
vt 0.45515453815460205 0.111111119389534
vt 0.45515453815460205 0.1666666716337204
vt 0.18346421420574188 0.27777779102325439
vt 0.18346421420574188 0.3333333432674408
vt 0.45515453815460205 0.22222223877906799
vt 0.45515453815460205 0.27777779102325439
vt 0.45515453815460205 0.3333333432674408
vt 0.99853515625 0.86419755220413208
vt 0.52307713031768799 0.86419755220413208
vt 0.0476190485060215 0.86419755220413208
vt 0.99853515625 0.88007056713104248
vt 0.52307713031768799 0.88007056713104248
vt 0.0476190485060215 0.88007056713104248
vt 0.93061256408691406 0.88007056713104248
vt 0.86268997192382812 0.88007056713104248
vt 0.79476743936538696 0.88007056713104248
vt 0.72684484720230103 0.88007056713104248
vt 0.65892225503921509 0.88007056713104248
vt 0.59099966287612915 0.88007056713104248
vt 0.45515450835227966 0.88007056713104248
vt 0.38723194599151611 0.88007056713104248
vt 0.31930935382843018 0.88007056713104248
vt 0.25138679146766663 0.88007056713104248
vt 0.18346419930458069 0.88007056713104248
vt 0.11554165184497833 0.88007056713104248
vt 0.11554165184497833 0.86419755220413208
vt 0.18346419930458069 0.86419755220413208
vt 0.25138679146766663 0.86419755220413208
vt 0.31930935382843018 0.86419755220413208
vt 0.38723194599151611 0.86419755220413208
vt 0.45515450835227966 0.86419755220413208
vt 0.59099966287612915 0.86419755220413208
vt 0.65892225503921509 0.86419755220413208
vt 0.72684484720230103 0.86419755220413208
vt 0.79476743936538696 0.86419755220413208
vt 0.86268997192382812 0.86419755220413208
vt 0.93061256408691406 0.86419755220413208
vt 0.031746033579111099 0
vt 0.031746033579111099 0.4754580557346344
vt 0.031746033579111099 0.9509161114692688
vt 0.0461542047560215 0
vt 0.0461542047560215 0.4754580557346344
vt 0.0461542047560215 0.9509161114692688
vt 0.0461542047560215 0.067922584712505341
vt 0.0461542047560215 0.13584516942501068
vt 0.0461542047560215 0.20376774668693542
vt 0.0461542047560215 0.27169033885002136
vt 0.0461542047560215 0.33961290121078491
vt 0.0461542047560215 0.40753549337387085
vt 0.0461542047560215 0.54338067770004272
vt 0.0461542047560215 0.61130321025848389
vt 0.0461542047560215 0.67922580242156982
vt 0.0461542047560215 0.74714833498001099
vt 0.0461542047560215 0.8150709867477417
vt 0.0461542047560215 0.88299351930618286
vt 0.031746033579111099 0.88299351930618286
vt 0.031746033579111099 0.8150709867477417
vt 0.031746033579111099 0.74714833498001099
vt 0.031746033579111099 0.67922580242156982
vt 0.031746033579111099 0.61130321025848389
vt 0.031746033579111099 0.54338067770004272
vt 0.031746033579111099 0.40753549337387085
vt 0.031746033579111099 0.33961290121078491
vt 0.031746033579111099 0.27169033885002136
vt 0.031746033579111099 0.20376774668693542
vt 0.031746033579111099 0.13584516942501068
vt 0.031746033579111099 0.067922584712505341
vt 0.0476190485060215 0.93474423885345459
vt 0.0476190485060215 0.95061731338500977
vt 0.2142857164144516 0.93474423885345459
vt 0.380952388048172 0.93474423885345459
vt 0.380952388048172 0.95061731338500977
vt 0.32539680600166321 0.95061731338500977
vt 0.26984128355979919 0.95061731338500977
vt 0.2142857164144516 0.95061731338500977
vt 0.1587301641702652 0.95061731338500977
vt 0.1031746044754982 0.95061731338500977
vt 0.1031746044754982 0.93474423885345459
vt 0.1587301641702652 0.93474423885345459
vt 0.26984128355979919 0.93474423885345459
vt 0.32539680600166321 0.93474423885345459
vt 0.0476190485060215 0.89947092533111572
vt 0.0476190485060215 0.91534394025802612
vt 0.2063492089509964 0.89947092533111572
vt 0.2063492089509964 0.91534394025802612
vt 0.15343914926052094 0.91534394025802612
vt 0.10052910447120667 0.91534394025802612
vt 0.10052910447120667 0.89947092533111572
vt 0.15343914926052094 0.89947092533111572
vt 0.0476190485060215 0.91710758209228516
vt 0.0476190485060215 0.93298059701919556
vt 0.2142857164144516 0.91710758209228516
vt 0.2142857164144516 0.93298059701919556
vt 0.380952388048172 0.91710758209228516
vt 0.380952388048172 0.93298059701919556
vt 0.32539680600166321 0.93298059701919556
vt 0.26984128355979919 0.93298059701919556
vt 0.1587301641702652 0.93298059701919556
vt 0.1031746044754982 0.93298059701919556
vt 0.1031746044754982 0.91710758209228516
vt 0.1587301641702652 0.91710758209228516
vt 0.26984128355979919 0.91710758209228516
vt 0.32539680600166321 0.91710758209228516
vt 0.0476190485060215 0.88183420896530151
vt 0.0476190485060215 0.89770722389221191
vt 0.2063492089509964 0.88183420896530151
vt 0.2063492089509964 0.89770722389221191
vt 0.15343914926052094 0.89770722389221191
vt 0.10052910447120667 0.89770722389221191
vt 0.10052910447120667 0.88183420896530151
vt 0.15343914926052094 0.88183420896530151
vn 0 0 1
vn 0 0 1
vn 0 0 1
vn 0 0 1
vn 0 0 1
vn 0 0 1
vn 0 0 1
vn 0 0 1
vn 0 0 1
vn 0 0 1
vn 0 0 1
vn 0 0 1
vn 0 0 1
vn 0 0 1
vn 0 0 1
vn 0 0 1
vn 1 0 0
vn 1 0 0
vn 1 0 0
vn 1 0 0
vn 1 0 0
vn 1 0 0
vn 1 0 0
vn 1 0 0
vn 1 0 0
vn 1 0 0
vn 1 0 0
vn 1 0 0
vn 1 0 0
vn 1 0 0
vn 1 0 0
vn 1 0 0
vn 1 0 0
vn 1 0 0
vn 1 0 0
vn 1 0 0
vn 1 0 0
vn 1 0 0
vn 1 0 0
vn 1 0 0
vn 1 0 0
vn 1 0 0
vn 1 0 0
vn 1 0 0
vn 1 0 0
vn 1 0 0
vn 1 0 0
vn 1 0 0
vn 1 0 0
vn 1 0 0
vn 1 0 0
vn 1 0 0
vn 1 0 0
vn 1 0 0
vn 1 0 0
vn 1 0 0
vn 1 0 0
vn 1 0 0
vn 1 0 0
vn 1 0 0
vn 1 0 0
vn 1 0 0
vn 1 0 0
vn 1 0 0
vn 1 0 0
vn 1 0 0
vn 1 0 0
vn 1 0 0
vn 1 0 0
vn 1 0 0
vn 1 0 0
vn 1 0 0
vn 1 0 0
vn 1 0 0
vn 1 0 0
vn 1 0 0
vn 1 0 0
vn 1 0 0
vn 1 0 0
vn 1 0 0
vn 1 0 0
vn 1 0 0
vn 1 0 0
vn 1 0 0
vn 1 0 0
vn 1 0 0
vn 1 0 0
vn 1 0 0
vn 1 0 0
vn 1 0 0
vn 1 0 0
vn 1 0 0
vn 1 0 0
vn 1 0 0
vn 1 0 0
vn 1 0 0
vn 1 0 0
vn 1 0 0
vn 1 0 0
vn 1 0 0
vn 1 0 0
vn 1 0 0
vn 1 0 0
vn 1 0 0
vn 0 0 -1
vn 0 0 -1
vn 0 0 -1
vn 0 0 -1
vn 0 0 -1
vn 0 0 -1
vn 0 0 -1
vn 0 0 -1
vn 0 0 -1
vn 0 0 -1
vn 0 0 -1
vn 0 0 -1
vn 0 0 -1
vn 0 0 -1
vn 0 0 -1
vn 0 0 -1
vn -1 0 0
vn -1 0 0
vn -1 0 0
vn -1 0 0
vn -1 0 0
vn -1 0 0
vn -1 0 0
vn -1 0 0
vn -1 0 0
vn -1 0 0
vn -1 0 0
vn -1 0 0
vn -1 0 0
vn -1 0 0
vn -1 0 0
vn -1 0 0
vn -1 0 0
vn -1 0 0
vn -1 0 0
vn -1 0 0
vn -1 0 0
vn -1 0 0
vn -1 0 0
vn -1 0 0
vn -1 0 0
vn -1 0 0
vn -1 0 0
vn -1 0 0
vn -1 0 0
vn -1 0 0
vn -1 0 0
vn -1 0 0
vn -1 0 0
vn -1 0 0
vn -1 0 0
vn -1 0 0
vn -1 0 0
vn -1 0 0
vn -1 0 0
vn -1 0 0
vn -1 0 0
vn -1 0 0
vn -1 0 0
vn -1 0 0
vn -1 0 0
vn -1 0 0
vn -1 0 0
vn -1 0 0
vn -1 0 0
vn -1 0 0
vn -1 0 0
vn -1 0 0
vn -1 0 0
vn -1 0 0
vn -1 0 0
vn -1 0 0
vn -1 0 0
vn -1 0 0
vn -1 0 0
vn -1 0 0
vn -1 0 0
vn -1 0 0
vn -1 0 0
vn -1 0 0
vn -1 0 0
vn -1 0 0
vn -1 0 0
vn -1 0 0
vn -1 0 0
vn -1 0 0
vn -1 0 0
vn -1 0 0
vn -1 0 0
vn -1 0 0
vn -1 0 0
vn -1 0 0
vn -1 0 0
vn -1 0 0
vn -1 0 0
vn -1 0 0
vn -1 0 0
vn -1 0 0
vn -1 0 0
vn -1 0 0
vn -1 0 0
vn -1 0 0
vn -1 0 0
vn -1 0 0
vn 0 -1 0
vn 0 -1 0
vn 0 -1 0
vn 0 -1 0
vn 0 -1 0
vn 0 -1 0
vn 0 -1 0
vn 0 -1 0
vn 0 -1 0
vn 0 -1 0
vn 0 -1 0
vn 0 -1 0
vn 0 -1 0
vn 0 -1 0
vn 0 -1 0
vn 0 -1 0
vn 0 -1 0
vn 0 -1 0
vn 0 -1 0
vn 0 -1 0
vn 0 -1 0
vn 0 -1 0
vn 0 -1 0
vn 0 -1 0
vn 0 -1 0
vn 0 -1 0
vn 0 -1 0
vn 0 -1 0
vn 0 -1 0
vn 0 -1 0
vn 0 1 0
vn 0 1 0
vn 0 1 0
vn 0 1 0
vn 0 1 0
vn 0 1 0
vn 0 1 0
vn 0 1 0
vn 0 1 0
vn 0 1 0
vn 0 1 0
vn 0 1 0
vn 0 1 0
vn 0 1 0
vn 0 1 0
vn 0 1 0
vn 0 1 0
vn 0 1 0
vn 0 1 0
vn 0 1 0
vn 0 1 0
vn 0 1 0
vn 0 1 0
vn 0 1 0
vn 0 1 0
vn 0 1 0
vn 0 1 0
vn 0 1 0
vn 0 1 0
vn 0 1 0
vn 0 0 -1
vn 0 0 -1
vn 0 0 -1
vn 0 0 -1
vn 0 0 -1
vn 0 0 -1
vn 0 0 -1
vn 0 0 -1
vn 0 0 -1
vn 0 0 -1
vn 0 0 -1
vn 0 0 -1
vn 0 0 -1
vn 0 0 -1
vn 0 -1 0
vn 0 -1 0
vn 0 -1 0
vn 0 -1 0
vn 0 -1 0
vn 0 -1 0
vn 0 -1 0
vn 0 -1 0
vn 0 0 1
vn 0 0 1
vn 0 0 1
vn 0 0 1
vn 0 0 1
vn 0 0 1
vn 0 0 1
vn 0 0 1
vn 0 0 1
vn 0 0 1
vn 0 0 1
vn 0 0 1
vn 0 0 1
vn 0 0 1
vn 0 1 0
vn 0 1 0
vn 0 1 0
vn 0 1 0
vn 0 1 0
vn 0 1 0
vn 0 1 0
vn 0 1 0
f 16/16/16 1/1/1 3/3/3 5/5/5
f 14/14/14 15/15/15 6/6/6 7/7/7
f 15/15/15 16/16/16 5/5/5 6/6/6
f 12/12/12 13/13/13 8/8/8 9/9/9
f 2/2/2 11/11/11 10/10/10 4/4/4
f 11/11/11 12/12/12 9/9/9 10/10/10
f 13/13/13 14/14/14 7/7/7 8/8/8
f 33/33/33 27/27/27 26/26/26 32/32/32
f 34/34/34 28/28/28 27/27/27 33/33/33
f 35/35/35 29/29/29 28/28/28 34/34/34
f 36/36/36 30/30/30 29/29/29 35/35/35
f 37/37/37 31/31/31 30/30/30 36/36/36
f 39/39/39 33/33/33 32/32/32 38/38/38
f 40/40/40 34/34/34 33/33/33 39/39/39
f 41/41/41 35/35/35 34/34/34 40/40/40
f 42/42/42 36/36/36 35/35/35 41/41/41
f 43/43/43 37/37/37 36/36/36 42/42/42
f 54/54/54 18/18/18 17/17/17
f 26/26/26 18/18/18 54/54/54
f 25/25/25 26/26/26 54/54/54
f 55/55/55 26/26/26 25/25/25
f 20/20/20 19/19/19 27/27/27 28/28/28
f 26/26/26 27/27/27 19/19/19 18/18/18
f 28/28/28 29/29/29 21/21/21 20/20/20
f 55/55/55 32/32/32 26/26/26
f 32/32/32 56/56/56 57/57/57
f 38/38/38 58/58/58 59/59/59
f 77/77/77 95/95/95 59/59/59
f 38/38/38 57/57/57 58/58/58
f 57/57/57 38/38/38 32/32/32
f 95/95/95 39/39/39 38/38/38
f 39/39/39 96/96/96 40/40/40
f 95/95/95 96/96/96 39/39/39
f 78/78/78 79/79/79 95/95/95
f 41/41/41 40/40/40 96/96/96 97/97/97
f 95/95/95 38/38/38 59/59/59
f 77/77/77 59/59/59 60/60/60
f 55/55/55 56/56/56 32/32/32
f 22/22/22 21/21/21 29/29/29 30/30/30
f 23/23/23 22/22/22 30/30/30 31/31/31
f 76/76/76 24/24/24 23/23/23
f 74/74/74 75/75/75 31/31/31
f 76/76/76 31/31/31 75/75/75
f 31/31/31 37/37/37 73/73/73 74/74/74
f 76/76/76 23/23/23 31/31/31
f 97/97/97 98/98/98 42/42/42 41/41/41
f 98/98/98 97/97/97 81/81/81 82/82/82
f 43/43/43 42/42/42 98/98/98 99/99/99
f 73/73/73 37/37/37 72/72/72
f 43/43/43 72/72/72 37/37/37
f 71/71/71 72/72/72 43/43/43
f 43/43/43 70/70/70 71/71/71
f 70/70/70 83/83/83 69/69/69
f 43/43/43 83/83/83 70/70/70
f 99/99/99 98/98/98 82/82/82
f 97/97/97 96/96/96 80/80/80 81/81/81
f 94/94/94 77/77/77 60/60/60
f 93/93/93 61/61/61 44/44/44
f 92/92/92 93/93/93 44/44/44
f 94/94/94 61/61/61 93/93/93
f 94/94/94 60/60/60 61/61/61
f 96/96/96 79/79/79 80/80/80
f 95/95/95 77/77/77 78/78/78
f 100/100/100 91/91/91 92/92/92
f 95/95/95 79/79/79 96/96/96
f 92/92/92 44/44/44 62/62/62
f 91/91/91 100/100/100 90/90/90
f 63/63/63 100/100/100 62/62/62
f 100/100/100 63/63/63 64/64/64
f 47/47/47 100/100/100 64/64/64 46/46/46
f 89/89/89 90/90/90 101/101/101
f 101/101/101 90/90/90 100/100/100
f 101/101/101 102/102/102 88/88/88 89/89/89
f 48/48/48 101/101/101 100/100/100
f 101/101/101 48/48/48 49/49/49
f 48/48/48 100/100/100 47/47/47
f 49/49/49 50/50/50 102/102/102 101/101/101
f 62/62/62 100/100/100 92/92/92
f 87/87/87 88/88/88 102/102/102 103/103/103
f 68/68/68 69/69/69 83/83/83 84/84/84
f 82/82/82 83/83/83 99/99/99
f 45/45/45 68/68/68 84/84/84 85/85/85
f 85/85/85 86/86/86 45/45/45
f 43/43/43 99/99/99 83/83/83
f 103/103/103 104/104/104 86/86/86 87/87/87
f 103/103/103 102/102/102 50/50/50 51/51/51
f 104/104/104 103/103/103 51/51/51 52/52/52
f 86/86/86 104/104/104 67/67/67
f 67/67/67 104/104/104 66/66/66
f 45/45/45 86/86/86 67/67/67
f 53/53/53 65/65/65 52/52/52
f 104/104/104 65/65/65 66/66/66
f 104/104/104 52/52/52 65/65/65
f 114/114/114 105/105/105 107/107/107 115/115/115
f 112/112/112 113/113/113 116/116/116 117/117/117
f 113/113/113 114/114/114 115/115/115 116/116/116
f 110/110/110 111/111/111 118/118/118 119/119/119
f 106/106/106 109/109/109 120/120/120 108/108/108
f 109/109/109 110/110/110 119/119/119 120/120/120
f 111/111/111 112/112/112 117/117/117 118/118/118
f 143/143/143 136/136/136 135/135/135 142/142/142
f 144/144/144 137/137/137 136/136/136 143/143/143
f 145/145/145 138/138/138 137/137/137 144/144/144
f 146/146/146 139/139/139 138/138/138 145/145/145
f 147/147/147 140/140/140 139/139/139 146/146/146
f 149/149/149 143/143/143 142/142/142 148/148/148
f 150/150/150 144/144/144 143/143/143 149/149/149
f 151/151/151 145/145/145 144/144/144 150/150/150
f 152/152/152 146/146/146 145/145/145 151/151/151
f 153/153/153 147/147/147 146/146/146 152/152/152
f 162/162/162 122/122/122 121/121/121
f 163/163/163 192/192/192 129/129/129
f 130/130/130 191/191/191 163/163/163
f 122/122/122 162/162/162 129/129/129
f 192/192/192 122/122/122 129/129/129
f 199/199/199 123/123/123 122/122/122
f 199/199/199 200/200/200 124/124/124 123/123/123
f 200/200/200 199/199/199 193/193/193 194/194/194
f 200/200/200 201/201/201 125/125/125 124/124/124
f 192/192/192 199/199/199 122/122/122
f 163/163/163 191/191/191 192/192/192
f 164/164/164 198/198/198 130/130/130
f 187/187/187 197/197/197 132/132/132
f 164/164/164 132/132/132 197/197/197
f 165/165/165 186/186/186 187/187/187
f 197/197/197 198/198/198 164/164/164
f 199/199/199 192/192/192 193/193/193
f 185/185/185 186/186/186 202/202/202
f 184/184/184 185/185/185 202/202/202 203/203/203
f 130/130/130 198/198/198 191/191/191
f 201/201/201 200/200/200 194/194/194 195/195/195
f 126/126/126 125/125/125 201/201/201 204/204/204
f 127/127/127 126/126/126 204/204/204 205/205/205
f 205/205/205 204/204/204 196/196/196 188/188/188
f 180/180/180 128/128/128 127/127/127
f 178/178/178 179/179/179 205/205/205
f 180/180/180 205/205/205 179/179/179
f 205/205/205 188/188/188 178/178/178
f 180/180/180 127/127/127 205/205/205
f 204/204/204 201/201/201 195/195/195 196/196/196
f 183/183/183 184/184/184 203/203/203 206/206/206
f 182/182/182 183/183/183 206/206/206 207/207/207
f 131/131/131 188/188/188 189/189/189
f 177/177/177 131/131/131 189/189/189 190/190/190
f 178/178/178 188/188/188 131/131/131
f 133/133/133 177/177/177 190/190/190 181/181/181
f 181/181/181 182/182/182 207/207/207 208/208/208
f 187/187/187 132/132/132 165/165/165
f 135/135/135 165/165/165 134/134/134
f 166/166/166 142/142/142 135/135/135
f 134/134/134 166/166/166 135/135/135
f 135/135/135 136/136/136 186/186/186
f 136/136/136 137/137/137 203/203/203 202/202/202
f 206/206/206 203/203/203 137/137/137 138/138/138
f 202/202/202 186/186/186 136/136/136
f 166/166/166 167/167/167 142/142/142
f 165/165/165 135/135/135 186/186/186
f 148/148/148 142/142/142 167/167/167 168/168/168
f 169/169/169 148/148/148 168/168/168
f 170/170/170 148/148/148 169/169/169
f 154/154/154 155/155/155 170/170/170
f 149/149/149 148/148/148 155/155/155 156/156/156
f 150/150/150 149/149/149 156/156/156 157/157/157
f 155/155/155 148/148/148 170/170/170
f 157/157/157 158/158/158 151/151/151 150/150/150
f 139/139/139 140/140/140 208/208/208 207/207/207
f 140/140/140 147/147/147 175/175/175
f 207/207/207 206/206/206 138/138/138 139/139/139
f 181/181/181 140/140/140 176/176/176
f 176/176/176 133/133/133 181/181/181
f 140/140/140 175/175/175 141/141/141
f 175/175/175 147/147/147 174/174/174
f 141/141/141 176/176/176 140/140/140
f 140/140/140 181/181/181 208/208/208
f 158/158/158 159/159/159 152/152/152 151/151/151
f 159/159/159 160/160/160 153/153/153 152/152/152
f 172/172/172 173/173/173 153/153/153
f 147/147/147 153/153/153 173/173/173 174/174/174
f 171/171/171 172/172/172 153/153/153
f 161/161/161 171/171/171 160/160/160
f 153/153/153 160/160/160 171/171/171
f 238/238/238 215/215/215 212/212/212 209/209/209
f 237/237/237 216/216/216 215/215/215 238/238/238
f 235/235/235 218/218/218 217/217/217 236/236/236
f 233/233/233 220/220/220 219/219/219 234/234/234
f 234/234/234 219/219/219 218/218/218 235/235/235
f 236/236/236 217/217/217 216/216/216 237/237/237
f 232/232/232 221/221/221 213/213/213 210/210/210
f 230/230/230 223/223/223 222/222/222 231/231/231
f 231/231/231 222/222/222 221/221/221 232/232/232
f 228/228/228 225/225/225 224/224/224 229/229/229
f 211/211/211 214/214/214 226/226/226 227/227/227
f 227/227/227 226/226/226 225/225/225 228/228/228
f 229/229/229 224/224/224 223/223/223 230/230/230
f 210/210/210 213/213/213 220/220/220 233/233/233
f 268/268/268 239/239/239 242/242/242 245/245/245
f 267/267/267 268/268/268 245/245/245 246/246/246
f 265/265/265 266/266/266 247/247/247 248/248/248
f 263/263/263 264/264/264 249/249/249 250/250/250
f 264/264/264 265/265/265 248/248/248 249/249/249
f 266/266/266 267/267/267 246/246/246 247/247/247
f 262/262/262 240/240/240 243/243/243 251/251/251
f 260/260/260 261/261/261 252/252/252 253/253/253
f 261/261/261 262/262/262 251/251/251 252/252/252
f 258/258/258 259/259/259 254/254/254 255/255/255
f 241/241/241 257/257/257 256/256/256 244/244/244
f 257/257/257 258/258/258 255/255/255 256/256/256
f 259/259/259 260/260/260 253/253/253 254/254/254
f 240/240/240 263/263/263 250/250/250 243/243/243
f 269/269/269 270/270/270 278/278/278 279/279/279
f 279/279/279 278/278/278 277/277/277 280/280/280
f 276/276/276 271/271/271 280/280/280 277/277/277
f 275/275/275 281/281/281 271/271/271 276/276/276
f 281/281/281 275/275/275 274/274/274 282/282/282
f 272/272/272 282/282/282 274/274/274 273/273/273
f 283/283/283 284/284/284 288/288/288 289/289/289
f 287/287/287 290/290/290 289/289/289 288/288/288
f 290/290/290 287/287/287 286/286/286 285/285/285
f 291/291/291 292/292/292 300/300/300 301/301/301
f 301/301/301 300/300/300 299/299/299 302/302/302
f 293/293/293 302/302/302 299/299/299 294/294/294
f 303/303/303 298/298/298 297/297/297 304/304/304
f 304/304/304 297/297/297 296/296/296 295/295/295
f 298/298/298 303/303/303 293/293/293 294/294/294
f 305/305/305 306/306/306 310/310/310 311/311/311
f 311/311/311 310/310/310 309/309/309 312/312/312
f 312/312/312 309/309/309 308/308/308 307/307/307
usemtl Default
v -2850 -50 0
v -2850 2400 0
v -2750 -50 0
v -2750 2400 0
v -2750 -50 0
v -2750 2400 0
v -2750 -50 -6000
v -2750 2400 -6000
v -2750 -50 -6000
v -2750 2400 -6000
v -2850 -50 -6000
v -2850 2400 -6000
v -2850 -50 -6000
v -2850 2400 -6000
v -2850 -50 0
v -2850 2400 0
v -2850 -50 0
v -2750 -50 0
v -2750 -50 -6000
v -2850 -50 -6000
v -2850 2400 0
v -2750 2400 0
v -2750 2400 -6000
v -2850 2400 -6000
vt 0 0
vt 0 0.96226322650909424
vt 0.0081967208534479141 0
vt 0.0081967208534479141 0.96226322650909424
vt 0.0081967208534479141 0
vt 0.0081967208534479141 0.96226322650909424
vt 0.5 0
vt 0.5 0.96226322650909424
vt 0.5 0
vt 0.5 0.96226322650909424
vt 0.50819671154022217 0
vt 0.50819671154022217 0.96226322650909424
vt 0.50819671154022217 0
vt 0.50819671154022217 0.96226322650909424
vt 1 0
vt 1 0.96226322650909424
vt 0.49180328845977783 1
vt 0.49180328845977783 0.96226418018341064
vt 0 0.96226418018341064
vt 0 1
vt 1 0.96226418018341064
vt 1 1
vt 0.50819671154022217 1
vt 0.50819671154022217 0.96226418018341064
vn 0 0 1
vn 0 0 1
vn 0 0 1
vn 0 0 1
vn 1 0 0
vn 1 0 0
vn 1 0 0
vn 1 0 0
vn 0 0 -1
vn 0 0 -1
vn 0 0 -1
vn 0 0 -1
vn -1 0 0
vn -1 0 0
vn -1 0 0
vn -1 0 0
vn 0 -1 0
vn 0 -1 0
vn 0 -1 0
vn 0 -1 0
vn 0 1 0
vn 0 1 0
vn 0 1 0
vn 0 1 0
f 313/313/313 315/315/315 316/316/316 314/314/314
f 317/317/317 319/319/319 320/320/320 318/318/318
f 321/321/321 323/323/323 324/324/324 322/322/322
f 325/325/325 327/327/327 328/328/328 326/326/326
f 330/330/330 329/329/329 332/332/332
f 332/332/332 331/331/331 330/330/330
f 334/334/334 336/336/336 333/333/333
f 336/336/336 334/334/334 335/335/335
usemtl Default
v -2850 -50 -6000
v -2850 2400 -6000
v 2850 -50 -6000
v 2850 2400 -6000
v 2850 -50 -6000
v 2850 2400 -6000
v 2850 -50 -6100
v 2850 2400 -6100
v 2850 -50 -6100
v 2850 2400 -6100
v -2850 -50 -6100
v -2850 2400 -6100
v -2850 -50 -6100
v -2850 2400 -6100
v -2850 -50 -6000
v -2850 2400 -6000
v -2850 -50 -6000
v 2850 -50 -6000
v 2850 -50 -6100
v -2850 -50 -6100
v -2850 2400 -6000
v 2850 2400 -6000
v 2850 2400 -6100
v -2850 2400 -6100
vt 0 0
vt 0 0.96226322650909424
vt 0.49137932062149048 0
vt 0.49137932062149048 0.96226322650909424
vt 0.49137932062149048 0
vt 0.49137932062149048 0.96226322650909424
vt 0.5 0
vt 0.5 0.96226322650909424
vt 0.5 0
vt 0.5 0.96226322650909424
vt 0.99137932062149048 0
vt 0.99137932062149048 0.96226322650909424
vt 0.99137932062149048 0
vt 0.99137932062149048 0.96226322650909424
vt 1 0
vt 1 0.96226322650909424
vt 0 1
vt 0.49137932062149048 1
vt 0.49137932062149048 0.96226418018341064
vt 0 0.96226418018341064
vt 0.50862067937850952 0.96226418018341064
vt 1 0.96226418018341064
vt 1 1
vt 0.50862067937850952 1
vn 0 0 1
vn 0 0 1
vn 0 0 1
vn 0 0 1
vn 1 0 0
vn 1 0 0
vn 1 0 0
vn 1 0 0
vn 0 0 -1
vn 0 0 -1
vn 0 0 -1
vn 0 0 -1
vn -1 0 0
vn -1 0 0
vn -1 0 0
vn -1 0 0
vn 0 -1 0
vn 0 -1 0
vn 0 -1 0
vn 0 -1 0
vn 0 1 0
vn 0 1 0
vn 0 1 0
vn 0 1 0
f 337/337/337 339/339/339 340/340/340 338/338/338
f 341/341/341 343/343/343 344/344/344 342/342/342
f 345/345/345 347/347/347 348/348/348 346/346/346
f 349/349/349 351/351/351 352/352/352 350/350/350
f 354/354/354 353/353/353 356/356/356
f 356/356/356 355/355/355 354/354/354
f 358/358/358 360/360/360 357/357/357
f 360/360/360 358/358/358 359/359/359
usemtl Default
v -2850 -50 100
v -2850 256.25 100
v -2850 562.5 100
v -2850 868.75 100
v -2850 1175 100
v -2850 1481.25 100
v -2850 1787.5 100
v -2850 2093.75 100
v -2850 2400 100
v -2411.53857421875 256.25 100
v -2411.53857421875 562.5 100
v -1973.076904296875 256.25 100
v -1973.076904296875 562.5 100
v -1534.6153564453125 256.25 100
v -1534.6153564453125 562.5 100
v -1096.15380859375 256.25 100
v -1096.15380859375 562.5 100
v -657.69232177734375 256.25 100
v -657.69232177734375 562.5 100
v -219.23077392578125 256.25 100
v -219.23077392578125 562.5 100
v 219.23077392578125 256.25 100
v 219.23077392578125 562.5 100
v 657.69232177734375 256.25 100
v 657.69232177734375 562.5 100
v 1096.15380859375 256.25 100
v 1096.15380859375 562.5 100
v 1534.6153564453125 256.25 100
v 1534.6153564453125 562.5 100
v 1973.076904296875 256.25 100
v 1973.076904296875 562.5 100
v 2411.53857421875 256.25 100
v 2411.53857421875 562.5 100
v 2850 -50 100
v 2850 256.25 100
v 2850 562.5 100
v 2850 868.75 100
v 2850 1175 100
v 2850 1481.25 100
v 2850 1787.5 100
v 2850 2093.75 100
v 2850 2400 100
v -2533.333251953125 -50 100
v -2216.666748046875 -50 100
v -1900 -50 100
v -1583.3333740234375 -50 100
v -1266.6666259765625 -50 100
v -950 -50 100
v -633.33331298828125 -50 100
v -316.66665649414062 -50 100
v 0 -50 100
v 316.66665649414062 -50 100
v 633.33331298828125 -50 100
v 950 -50 100
v 1266.6666259765625 -50 100
v 1583.3333740234375 -50 100
v 1900 -50 100
v 2216.666748046875 -50 100
v 2533.333251953125 -50 100
v 2533.333251953125 2400 100
v 2216.666748046875 2400 100
v 1900 2400 100
v 1583.3333740234375 2400 100
v 1266.6666259765625 2400 100
v 950 2400 100
v 633.33331298828125 2400 100
v 316.66665649414062 2400 100
v 0 2400 100
v -316.66665649414062 2400 100
v -633.33331298828125 2400 100
v -950 2400 100
v -1266.6666259765625 2400 100
v -1583.3333740234375 2400 100
v -1900 2400 100
v -2216.666748046875 2400 100
v -2533.333251953125 2400 100
v -2350 890 100
v -2350 1162 100
v -2350 1434 100
v -2350 1706 100
v -2350 1978 100
v -2350 2250 100
v -2050 2250 100
v -1750 2250 100
v -1450 2250 100
v -1150 2250 100
v -850 2250 100
v -850 1978 100
v -850 1706 100
v -850 1434 100
v -850 1162 100
v -850 890 100
v -1150 890 100
v -1450 890 100
v -1750 890 100
v -2050 890 100
v -750 890 100
v -750 1162 100
v -750 1434 100
v -750 1706 100
v -750 1978 100
v -750 2250 100
v -450 2250 100
v -150 2250 100
v 150 2250 100
v 450 2250 100
v 750 2250 100
v 750 1978 100
v 750 1706 100
v 750 1434 100
v 750 1162 100
v 750 890 100
v 450 890 100
v 150 890 100
v -150 890 100
v -450 890 100
v 850 890 100
v 850 1162 100
v 850 1434 100
v 850 1706 100
v 850 1978 100
v 850 2250 100
v 1150 2250 100
v 1450 2250 100
v 1750 2250 100
v 2050 2250 100
v 2350 2250 100
v 2350 1978 100
v 2350 1706 100
v 2350 1434 100
v 2350 1162 100
v 2350 890 100
v 2050 890 100
v 1750 890 100
v 1450 890 100
v 1150 890 100
v -2411.53857421875 1175 100
v -1534.6153564453125 868.75 100
v -1973.076904296875 868.75 100
v -1096.15380859375 868.75 100
v -657.69232177734375 868.75 100
v -219.23077392578125 868.75 100
v 219.23077392578125 868.75 100
v -2411.53857421875 1481.25 100
v -2411.53857421875 1787.5 100
v -2411.53857421875 2093.75 100
v 657.69232177734375 868.75 100
v 1096.15380859375 868.75 100
v 1534.6153564453125 868.75 100
v 1973.076904296875 868.75 100
v 2411.53857421875 868.75 100
v 2411.53857421875 1175 100
v 2411.53857421875 1481.25 100
v 2411.53857421875 1787.5 100
v 2411.53857421875 2093.75 100
v 2850 -50 100
v 2850 2400 100
v 2850 -50 0
v 2850 2400 0
v 2850 2093.75 100
v 2850 1787.5 100
v 2850 1481.25 100
v 2850 1175 100
v 2850 868.75 100
v 2850 562.5 100
v 2850 256.25 100
v 2850 256.25 0
v 2850 562.5 0
v 2850 868.75 0
v 2850 1175 0
v 2850 1481.25 0
v 2850 1787.5 0
v 2850 2093.75 0
v 2850 -50 0
v 2850 256.25 0
v 2850 562.5 0
v 2850 868.75 0
v 2850 1175 0
v 2850 1481.25 0
v 2850 1787.5 0
v 2850 2093.75 0
v 2850 2400 0
v 2411.53857421875 256.25 0
v 2411.53857421875 562.5 0
v 1973.076904296875 256.25 0
v 1973.076904296875 562.5 0
v 1534.6153564453125 256.25 0
v 1534.6153564453125 562.5 0
v 1096.15380859375 256.25 0
v 1096.15380859375 562.5 0
v 657.69232177734375 256.25 0
v 657.69232177734375 562.5 0
v 219.23077392578125 256.25 0
v 219.23077392578125 562.5 0
v -219.23077392578125 256.25 0
v -219.23077392578125 562.5 0
v -657.69232177734375 256.25 0
v -657.69232177734375 562.5 0
v -1096.15380859375 256.25 0
v -1096.15380859375 562.5 0
v -1534.6153564453125 256.25 0
v -1534.6153564453125 562.5 0
v -1973.076904296875 256.25 0
v -1973.076904296875 562.5 0
v -2411.53857421875 256.25 0
v -2411.53857421875 562.5 0
v -2850 -50 0
v -2850 256.25 0
v -2850 562.5 0
v -2850 868.75 0
v -2850 1175 0
v -2850 1481.25 0
v -2850 1787.5 0
v -2850 2093.75 0
v -2850 2400 0
v 2533.333251953125 -50 0
v 2216.666748046875 -50 0
v 1900 -50 0
v 1583.3333740234375 -50 0
v 1266.6666259765625 -50 0
v 950 -50 0
v 633.33331298828125 -50 0
v 316.66665649414062 -50 0
v 0 -50 0
v -316.66665649414062 -50 0
v -633.33331298828125 -50 0
v -950 -50 0
v -1266.6666259765625 -50 0
v -1583.3333740234375 -50 0
v -1900 -50 0
v -2216.666748046875 -50 0
v -2533.333251953125 -50 0
v -2533.333251953125 2400 0
v -2216.666748046875 2400 0
v -1900 2400 0
v -1583.3333740234375 2400 0
v -1266.6666259765625 2400 0
v -950 2400 0
v -633.33331298828125 2400 0
v -316.66665649414062 2400 0
v 0 2400 0
v 316.66665649414062 2400 0
v 633.33331298828125 2400 0
v 950 2400 0
v 1266.6666259765625 2400 0
v 1583.3333740234375 2400 0
v 1900 2400 0
v 2216.666748046875 2400 0
v 2533.333251953125 2400 0
v -2350 2250 0
v -2350 1978 0
v -2350 1706 0
v -2350 1434 0
v -2350 1162 0
v -2350 890 0
v -850 2250 0
v -1150 2250 0
v -1450 2250 0
v -1750 2250 0
v -2050 2250 0
v -850 890 0
v -850 1162 0
v -850 1434 0
v -850 1706 0
v -850 1978 0
v -2050 890 0
v -1750 890 0
v -1450 890 0
v -1150 890 0
v -750 2250 0
v -750 1978 0
v -750 1706 0
v -750 1434 0
v -750 1162 0
v -750 890 0
v 750 2250 0
v 450 2250 0
v 150 2250 0
v -150 2250 0
v -450 2250 0
v 750 890 0
v 750 1162 0
v 750 1434 0
v 750 1706 0
v 750 1978 0
v -450 890 0
v -150 890 0
v 150 890 0
v 450 890 0
v 850 2250 0
v 850 1978 0
v 850 1706 0
v 850 1434 0
v 850 1162 0
v 850 890 0
v 2350 2250 0
v 2050 2250 0
v 1750 2250 0
v 1450 2250 0
v 1150 2250 0
v 2350 890 0
v 2350 1162 0
v 2350 1434 0
v 2350 1706 0
v 2350 1978 0
v 1150 890 0
v 1450 890 0
v 1750 890 0
v 2050 890 0
v 2411.53857421875 1175 0
v 1534.6153564453125 868.75 0
v 1973.076904296875 868.75 0
v 1096.15380859375 868.75 0
v 657.69232177734375 868.75 0
v 219.23077392578125 868.75 0
v -219.23077392578125 868.75 0
v 2411.53857421875 1481.25 0
v 2411.53857421875 1787.5 0
v 2411.53857421875 2093.75 0
v -657.69232177734375 868.75 0
v -1096.15380859375 868.75 0
v -1534.6153564453125 868.75 0
v -1973.076904296875 868.75 0
v -2411.53857421875 868.75 0
v -2411.53857421875 1175 0
v -2411.53857421875 1481.25 0
v -2411.53857421875 1787.5 0
v -2411.53857421875 2093.75 0
v -2850 -50 0
v -2850 2400 0
v -2850 -50 100
v -2850 2400 100
v -2850 256.25 100
v -2850 562.5 100
v -2850 868.75 100
v -2850 1175 100
v -2850 1481.25 100
v -2850 1787.5 100
v -2850 2093.75 100
v -2850 2093.75 0
v -2850 1787.5 0
v -2850 1481.25 0
v -2850 1175 0
v -2850 868.75 0
v -2850 562.5 0
v -2850 256.25 0
v -2850 -50 100
v -2850 -50 0
v 2850 -50 100
v 2850 -50 0
v -2533.333251953125 -50 100
v -2216.666748046875 -50 100
v -1900 -50 100
v -1583.3333740234375 -50 100
v -1266.6666259765625 -50 100
v -950 -50 100
v -633.33331298828125 -50 100
v -316.66665649414062 -50 100
v 0 -50 100
v 316.66665649414062 -50 100
v 633.33331298828125 -50 100
v 950 -50 100
v 1266.6666259765625 -50 100
v 1583.3333740234375 -50 100
v 1900 -50 100
v 2216.666748046875 -50 100
v 2533.333251953125 -50 100
v 2533.333251953125 -50 0
v 2216.666748046875 -50 0
v 1900 -50 0
v 1583.3333740234375 -50 0
v 1266.6666259765625 -50 0
v 950 -50 0
v 633.33331298828125 -50 0
v 316.66665649414062 -50 0
v 0 -50 0
v -316.66665649414062 -50 0
v -633.33331298828125 -50 0
v -950 -50 0
v -1266.6666259765625 -50 0
v -1583.3333740234375 -50 0
v -1900 -50 0
v -2216.666748046875 -50 0
v -2533.333251953125 -50 0
v -2850 2400 100
v -2850 2400 0
v 2850 2400 100
v 2850 2400 0
v -2533.333251953125 2400 100
v -2216.666748046875 2400 100
v -1900 2400 100
v -1583.3333740234375 2400 100
v -1266.6666259765625 2400 100
v -950 2400 100
v -633.33331298828125 2400 100
v -316.66665649414062 2400 100
v 0 2400 100
v 316.66665649414062 2400 100
v 633.33331298828125 2400 100
v 950 2400 100
v 1266.6666259765625 2400 100
v 1583.3333740234375 2400 100
v 1900 2400 100
v 2216.666748046875 2400 100
v 2533.333251953125 2400 100
v 2533.333251953125 2400 0
v 2216.666748046875 2400 0
v 1900 2400 0
v 1583.3333740234375 2400 0
v 1266.6666259765625 2400 0
v 950 2400 0
v 633.33331298828125 2400 0
v 316.66665649414062 2400 0
v 0 2400 0
v -316.66665649414062 2400 0
v -633.33331298828125 2400 0
v -950 2400 0
v -1266.6666259765625 2400 0
v -1583.3333740234375 2400 0
v -1900 2400 0
v -2216.666748046875 2400 0
v -2533.333251953125 2400 0
v -2350 2250 0
v -2350 2250 100
v -2350 890 0
v -2350 890 100
v -2350 1162 100
v -2350 1434 100
v -2350 1706 100
v -2350 1978 100
v -2350 1978 0
v -2350 1706 0
v -2350 1434 0
v -2350 1162 0
v -850 2250 0
v -850 2250 100
v -2350 2250 0
v -2350 2250 100
v -2050 2250 100
v -1750 2250 100
v -1450 2250 100
v -1150 2250 100
v -1150 2250 0
v -1450 2250 0
v -1750 2250 0
v -2050 2250 0
v -850 890 0
v -850 890 100
v -850 2250 0
v -850 2250 100
v -850 1978 100
v -850 1706 100
v -850 1434 100
v -850 1162 100
v -850 1162 0
v -850 1434 0
v -850 1706 0
v -850 1978 0
v -2350 890 0
v -2350 890 100
v -850 890 0
v -850 890 100
v -1150 890 100
v -1450 890 100
v -1750 890 100
v -2050 890 100
v -2050 890 0
v -1750 890 0
v -1450 890 0
v -1150 890 0
v -750 2250 0
v -750 2250 100
v -750 890 0
v -750 890 100
v -750 1162 100
v -750 1434 100
v -750 1706 100
v -750 1978 100
v -750 1978 0
v -750 1706 0
v -750 1434 0
v -750 1162 0
v 750 2250 0
v 750 2250 100
v -750 2250 0
v -750 2250 100
v -450 2250 100
v -150 2250 100
v 150 2250 100
v 450 2250 100
v 450 2250 0
v 150 2250 0
v -150 2250 0
v -450 2250 0
v 750 890 0
v 750 890 100
v 750 2250 0
v 750 2250 100
v 750 1978 100
v 750 1706 100
v 750 1434 100
v 750 1162 100
v 750 1162 0
v 750 1434 0
v 750 1706 0
v 750 1978 0
v -750 890 0
v -750 890 100
v 750 890 0
v 750 890 100
v 450 890 100
v 150 890 100
v -150 890 100
v -450 890 100
v -450 890 0
v -150 890 0
v 150 890 0
v 450 890 0
v 850 2250 0
v 850 2250 100
v 850 890 0
v 850 890 100
v 850 1162 100
v 850 1434 100
v 850 1706 100
v 850 1978 100
v 850 1978 0
v 850 1706 0
v 850 1434 0
v 850 1162 0
v 2350 2250 0
v 2350 2250 100
v 850 2250 0
v 850 2250 100
v 1150 2250 100
v 1450 2250 100
v 1750 2250 100
v 2050 2250 100
v 2050 2250 0
v 1750 2250 0
v 1450 2250 0
v 1150 2250 0
v 2350 890 0
v 2350 890 100
v 2350 2250 0
v 2350 2250 100
v 2350 1978 100
v 2350 1706 100
v 2350 1434 100
v 2350 1162 100
v 2350 1162 0
v 2350 1434 0
v 2350 1706 0
v 2350 1978 0
v 850 890 0
v 850 890 100
v 2350 890 0
v 2350 890 100
v 2050 890 100
v 1750 890 100
v 1450 890 100
v 1150 890 100
v 1150 890 0
v 1450 890 0
v 1750 890 0
v 2050 890 0
vt 0.080645158886909485 0.39516130089759827
vt 0.080645158886909485 0.44437333941459656
vt 0.080645158886909485 0.49358540773391724
vt 0.080645158886909485 0.54279744625091553
vt 0.080645158886909485 0.59200948476791382
vt 0.080645158886909485 0.64122158288955688
vt 0.080645158886909485 0.69043362140655518
vt 0.080645158886909485 0.73964565992355347
vt 0.080645158886909485 0.78885775804519653
vt 0.15125209093093872 0.44437333941459656
vt 0.15125209093093872 0.49358540773391724
vt 0.22185900807380676 0.44437333941459656
vt 0.22185900807380676 0.49358540773391724
vt 0.2924659252166748 0.44437333941459656
vt 0.2924659252166748 0.49358540773391724
vt 0.36307287216186523 0.44437333941459656
vt 0.36307287216186523 0.49358540773391724
vt 0.43367978930473328 0.44437333941459656
vt 0.43367978930473328 0.49358540773391724
vt 0.50428670644760132 0.44437333941459656
vt 0.50428670644760132 0.49358540773391724
vt 0.57489365339279175 0.44437333941459656
vt 0.57489365339279175 0.49358540773391724
vt 0.6455005407333374 0.44437333941459656
vt 0.6455005407333374 0.49358540773391724
vt 0.71610748767852783 0.44437333941459656
vt 0.71610748767852783 0.49358540773391724
vt 0.78671437501907349 0.44437333941459656
vt 0.78671437501907349 0.49358540773391724
vt 0.85732132196426392 0.44437333941459656
vt 0.85732132196426392 0.49358540773391724
vt 0.92792820930480957 0.44437333941459656
vt 0.92792820930480957 0.49358540773391724
vt 0.99853515625 0.39516130089759827
vt 0.99853515625 0.44437333941459656
vt 0.99853515625 0.49358540773391724
vt 0.99853515625 0.54279744625091553
vt 0.99853515625 0.59200948476791382
vt 0.99853515625 0.64122158288955688
vt 0.99853515625 0.69043362140655518
vt 0.99853515625 0.73964565992355347
vt 0.99853515625 0.78885775804519653
vt 0.13163904845714569 0.39516130089759827
vt 0.1826329380273819 0.39516130089759827
vt 0.2336268275976181 0.39516130089759827
vt 0.2846207320690155 0.39516130089759827
vt 0.33561462163925171 0.39516130089759827
vt 0.38660851120948792 0.39516130089759827
vt 0.43760240077972412 0.39516130089759827
vt 0.48859626054763794 0.39516130089759827
vt 0.53959017992019653 0.39516130089759827
vt 0.59058409929275513 0.39516130089759827
vt 0.64157795906066895 0.39516130089759827
vt 0.69257181882858276 0.39516130089759827
vt 0.74356567859649658 0.39516130089759827
vt 0.79455959796905518 0.39516130089759827
vt 0.84555345773696899 0.39516130089759827
vt 0.89654737710952759 0.39516130089759827
vt 0.94754123687744141 0.39516130089759827
vt 0.94754123687744141 0.78885775804519653
vt 0.89654737710952759 0.78885775804519653
vt 0.84555345773696899 0.78885775804519653
vt 0.79455959796905518 0.78885775804519653
vt 0.74356567859649658 0.78885775804519653
vt 0.69257181882858276 0.78885775804519653
vt 0.64157795906066895 0.78885775804519653
vt 0.59058409929275513 0.78885775804519653
vt 0.53959017992019653 0.78885775804519653
vt 0.48859626054763794 0.78885775804519653
vt 0.43760240077972412 0.78885775804519653
vt 0.38660851120948792 0.78885775804519653
vt 0.33561462163925171 0.78885775804519653
vt 0.2846207320690155 0.78885775804519653
vt 0.2336268275976181 0.78885775804519653
vt 0.1826329380273819 0.78885775804519653
vt 0.13163904845714569 0.78885775804519653
vt 0.16116182506084442 0.54621219635009766
vt 0.16116182506084442 0.5899205207824707
vt 0.16116182506084442 0.63362884521484375
vt 0.16116182506084442 0.6773371696472168
vt 0.16116182506084442 0.72104555368423462
vt 0.16116182506084442 0.76475387811660767
vt 0.20947182178497314 0.76475387811660767
vt 0.25778183341026306 0.76475387811660767
vt 0.30609181523323059 0.76475387811660767
vt 0.35440182685852051 0.76475387811660767
vt 0.40271183848381042 0.76475387811660767
vt 0.40271183848381042 0.72104555368423462
vt 0.40271183848381042 0.6773371696472168
vt 0.40271183848381042 0.63362884521484375
vt 0.40271183848381042 0.5899205207824707
vt 0.40271183848381042 0.54621219635009766
vt 0.35440182685852051 0.54621219635009766
vt 0.30609181523323059 0.54621219635009766
vt 0.25778183341026306 0.54621219635009766
vt 0.20947182178497314 0.54621219635009766
vt 0.41881516575813293 0.54621219635009766
vt 0.41881516575813293 0.5899205207824707
vt 0.41881516575813293 0.63362884521484375
vt 0.41881516575813293 0.6773371696472168
vt 0.41881516575813293 0.72104555368423462
vt 0.41881516575813293 0.76475387811660767
vt 0.46712514758110046 0.76475387811660767
vt 0.51543515920639038 0.76475387811660767
vt 0.56374520063400269 0.76475387811660767
vt 0.61205518245697021 0.76475387811660767
vt 0.66036516427993774 0.76475387811660767
vt 0.66036516427993774 0.72104555368423462
vt 0.66036516427993774 0.6773371696472168
vt 0.66036516427993774 0.63362884521484375
vt 0.66036516427993774 0.5899205207824707
vt 0.66036516427993774 0.54621219635009766
vt 0.61205518245697021 0.54621219635009766
vt 0.56374520063400269 0.54621219635009766
vt 0.51543515920639038 0.54621219635009766
vt 0.46712514758110046 0.54621219635009766
vt 0.67646849155426025 0.54621219635009766
vt 0.67646849155426025 0.5899205207824707
vt 0.67646849155426025 0.63362884521484375
vt 0.67646849155426025 0.6773371696472168
vt 0.67646849155426025 0.72104555368423462
vt 0.67646849155426025 0.76475387811660767
vt 0.72477847337722778 0.76475387811660767
vt 0.77308845520019531 0.76475387811660767
vt 0.82139849662780762 0.76475387811660767
vt 0.86970847845077515 0.76475387811660767
vt 0.91801846027374268 0.76475387811660767
vt 0.91801846027374268 0.72104555368423462
vt 0.91801846027374268 0.6773371696472168
vt 0.91801846027374268 0.63362884521484375
vt 0.91801846027374268 0.5899205207824707
vt 0.91801846027374268 0.54621219635009766
vt 0.86970847845077515 0.54621219635009766
vt 0.82139849662780762 0.54621219635009766
vt 0.77308845520019531 0.54621219635009766
vt 0.72477847337722778 0.54621219635009766
vt 0.15125209093093872 0.59200948476791382
vt 0.2924659252166748 0.54279744625091553
vt 0.22185900807380676 0.54279744625091553
vt 0.36307287216186523 0.54279744625091553
vt 0.43367978930473328 0.54279744625091553
vt 0.50428670644760132 0.54279744625091553
vt 0.57489365339279175 0.54279744625091553
vt 0.15125209093093872 0.64122158288955688
vt 0.15125209093093872 0.69043362140655518
vt 0.15125209093093872 0.73964565992355347
vt 0.6455005407333374 0.54279744625091553
vt 0.71610748767852783 0.54279744625091553
vt 0.78671437501907349 0.54279744625091553
vt 0.85732132196426392 0.54279744625091553
vt 0.92792820930480957 0.54279744625091553
vt 0.92792820930480957 0.59200948476791382
vt 0.92792820930480957 0.64122158288955688
vt 0.92792820930480957 0.69043362140655518
vt 0.92792820930480957 0.73964565992355347
vt 0.47580644488334656 0.93548387289047241
vt 0.080645158886909485 0.93548387289047241
vt 0.47580644488334656 0.95014804601669312
vt 0.080645158886909485 0.95014804601669312
vt 0.13004031777381897 0.93548387289047241
vt 0.17943547666072845 0.93548387289047241
vt 0.22883065044879913 0.93548387289047241
vt 0.27822580933570862 0.93548387289047241
vt 0.32762095332145691 0.93548387289047241
vt 0.37701612710952759 0.93548387289047241
vt 0.42641130089759827 0.93548387289047241
vt 0.42641130089759827 0.95014804601669312
vt 0.37701612710952759 0.95014804601669312
vt 0.32762095332145691 0.95014804601669312
vt 0.27822580933570862 0.95014804601669312
vt 0.22883065044879913 0.95014804601669312
vt 0.17943547666072845 0.95014804601669312
vt 0.13004031777381897 0.95014804601669312
vt 0.080645158886909485 0
vt 0.080645158886909485 0.049212057143449783
vt 0.080645158886909485 0.098424114286899567
vt 0.080645158886909485 0.14763616025447845
vt 0.080645158886909485 0.19684822857379913
vt 0.080645158886909485 0.24606028199195862
vt 0.080645158886909485 0.29527232050895691
vt 0.080645158886909485 0.34448438882827759
vt 0.080645158886909485 0.39369645714759827
vt 0.15125209093093872 0.049212057143449783
vt 0.15125209093093872 0.098424114286899567
vt 0.22185900807380676 0.049212057143449783
vt 0.22185900807380676 0.098424114286899567
vt 0.2924659252166748 0.049212057143449783
vt 0.2924659252166748 0.098424114286899567
vt 0.36307287216186523 0.049212057143449783
vt 0.36307287216186523 0.098424114286899567
vt 0.43367978930473328 0.049212057143449783
vt 0.43367978930473328 0.098424114286899567
vt 0.50428670644760132 0.049212057143449783
vt 0.50428670644760132 0.098424114286899567
vt 0.57489365339279175 0.049212057143449783
vt 0.57489365339279175 0.098424114286899567
vt 0.6455005407333374 0.049212057143449783
vt 0.6455005407333374 0.098424114286899567
vt 0.71610748767852783 0.049212057143449783
vt 0.71610748767852783 0.098424114286899567
vt 0.78671437501907349 0.049212057143449783
vt 0.78671437501907349 0.098424114286899567
vt 0.85732132196426392 0.049212057143449783
vt 0.85732132196426392 0.098424114286899567
vt 0.92792820930480957 0.049212057143449783
vt 0.92792820930480957 0.098424114286899567
vt 0.99853515625 0
vt 0.99853515625 0.049212057143449783
vt 0.99853515625 0.098424114286899567
vt 0.99853515625 0.14763616025447845
vt 0.99853515625 0.19684822857379913
vt 0.99853515625 0.24606028199195862
vt 0.99853515625 0.29527232050895691
vt 0.99853515625 0.34448438882827759
vt 0.99853515625 0.39369645714759827
vt 0.13163904845714569 0
vt 0.1826329380273819 0
vt 0.2336268275976181 0
vt 0.2846207320690155 0
vt 0.33561462163925171 0
vt 0.38660851120948792 0
vt 0.43760240077972412 0
vt 0.48859626054763794 0
vt 0.53959017992019653 0
vt 0.59058409929275513 0
vt 0.64157795906066895 0
vt 0.69257181882858276 0
vt 0.74356567859649658 0
vt 0.79455959796905518 0
vt 0.84555345773696899 0
vt 0.89654737710952759 0
vt 0.94754123687744141 0
vt 0.94754123687744141 0.39369645714759827
vt 0.89654737710952759 0.39369645714759827
vt 0.84555345773696899 0.39369645714759827
vt 0.79455959796905518 0.39369645714759827
vt 0.74356567859649658 0.39369645714759827
vt 0.69257181882858276 0.39369645714759827
vt 0.64157795906066895 0.39369645714759827
vt 0.59058409929275513 0.39369645714759827
vt 0.53959017992019653 0.39369645714759827
vt 0.48859626054763794 0.39369645714759827
vt 0.43760240077972412 0.39369645714759827
vt 0.38660851120948792 0.39369645714759827
vt 0.33561462163925171 0.39369645714759827
vt 0.2846207320690155 0.39369645714759827
vt 0.2336268275976181 0.39369645714759827
vt 0.1826329380273819 0.39369645714759827
vt 0.13163904845714569 0.39369645714759827
vt 0.91801846027374268 0.36959260702133179
vt 0.91801846027374268 0.32588425278663635
vt 0.91801846027374268 0.28217589855194092
vt 0.91801846027374268 0.23846755921840668
vt 0.91801846027374268 0.19475921988487244
vt 0.91801846027374268 0.1510508805513382
vt 0.67646849155426025 0.36959260702133179
vt 0.72477847337722778 0.36959260702133179
vt 0.77308845520019531 0.36959260702133179
vt 0.82139849662780762 0.36959260702133179
vt 0.86970847845077515 0.36959260702133179
vt 0.67646849155426025 0.1510508805513382
vt 0.67646849155426025 0.19475921988487244
vt 0.67646849155426025 0.23846755921840668
vt 0.67646849155426025 0.28217589855194092
vt 0.67646849155426025 0.32588425278663635
vt 0.86970847845077515 0.1510508805513382
vt 0.82139849662780762 0.1510508805513382
vt 0.77308845520019531 0.1510508805513382
vt 0.72477847337722778 0.1510508805513382
vt 0.66036516427993774 0.36959260702133179
vt 0.66036516427993774 0.32588425278663635
vt 0.66036516427993774 0.28217589855194092
vt 0.66036516427993774 0.23846755921840668
vt 0.66036516427993774 0.19475921988487244
vt 0.66036516427993774 0.1510508805513382
vt 0.41881516575813293 0.36959260702133179
vt 0.46712514758110046 0.36959260702133179
vt 0.51543515920639038 0.36959260702133179
vt 0.56374520063400269 0.36959260702133179
vt 0.61205518245697021 0.36959260702133179
vt 0.41881516575813293 0.1510508805513382
vt 0.41881516575813293 0.19475921988487244
vt 0.41881516575813293 0.23846755921840668
vt 0.41881516575813293 0.28217589855194092
vt 0.41881516575813293 0.32588425278663635
vt 0.61205518245697021 0.1510508805513382
vt 0.56374520063400269 0.1510508805513382
vt 0.51543515920639038 0.1510508805513382
vt 0.46712514758110046 0.1510508805513382
vt 0.40271183848381042 0.36959260702133179
vt 0.40271183848381042 0.32588425278663635
vt 0.40271183848381042 0.28217589855194092
vt 0.40271183848381042 0.23846755921840668
vt 0.40271183848381042 0.19475921988487244
vt 0.40271183848381042 0.1510508805513382
vt 0.16116182506084442 0.36959260702133179
vt 0.20947182178497314 0.36959260702133179
vt 0.25778183341026306 0.36959260702133179
vt 0.30609181523323059 0.36959260702133179
vt 0.35440182685852051 0.36959260702133179
vt 0.16116182506084442 0.1510508805513382
vt 0.16116182506084442 0.19475921988487244
vt 0.16116182506084442 0.23846755921840668
vt 0.16116182506084442 0.28217589855194092
vt 0.16116182506084442 0.32588425278663635
vt 0.35440182685852051 0.1510508805513382
vt 0.30609181523323059 0.1510508805513382
vt 0.25778183341026306 0.1510508805513382
vt 0.20947182178497314 0.1510508805513382
vt 0.15125209093093872 0.19684822857379913
vt 0.2924659252166748 0.14763616025447845
vt 0.22185900807380676 0.14763616025447845
vt 0.36307287216186523 0.14763616025447845
vt 0.43367978930473328 0.14763616025447845
vt 0.50428670644760132 0.14763616025447845
vt 0.57489365339279175 0.14763616025447845
vt 0.15125209093093872 0.24606028199195862
vt 0.15125209093093872 0.29527232050895691
vt 0.15125209093093872 0.34448438882827759
vt 0.6455005407333374 0.14763616025447845
vt 0.71610748767852783 0.14763616025447845
vt 0.78671437501907349 0.14763616025447845
vt 0.85732132196426392 0.14763616025447845
vt 0.92792820930480957 0.14763616025447845
vt 0.92792820930480957 0.19684822857379913
vt 0.92792820930480957 0.24606028199195862
vt 0.92792820930480957 0.29527232050895691
vt 0.92792820930480957 0.34448438882827759
vt 0.47580644488334656 0.91935485601425171
vt 0.080645158886909485 0.91935485601425171
vt 0.47580644488334656 0.93401902914047241
vt 0.080645158886909485 0.93401902914047241
vt 0.42641130089759827 0.93401902914047241
vt 0.37701612710952759 0.93401902914047241
vt 0.32762095332145691 0.93401902914047241
vt 0.27822580933570862 0.93401902914047241
vt 0.22883065044879913 0.93401902914047241
vt 0.17943547666072845 0.93401902914047241
vt 0.13004031777381897 0.93401902914047241
vt 0.13004031777381897 0.91935485601425171
vt 0.17943547666072845 0.91935485601425171
vt 0.22883065044879913 0.91935485601425171
vt 0.27822580933570862 0.91935485601425171
vt 0.32762095332145691 0.91935485601425171
vt 0.37701612710952759 0.91935485601425171
vt 0.42641130089759827 0.91935485601425171
vt 0.079180315136909485 0
vt 0.064516127109527588 0
vt 0.079180315136909485 0.91935485601425171
vt 0.064516127109527588 0.91935485601425171
vt 0.079180315136909485 0.051075268536806107
vt 0.079180315136909485 0.10215053707361221
vt 0.079180315136909485 0.15322580933570862
vt 0.079180315136909485 0.20430107414722443
vt 0.079180315136909485 0.25537636876106262
vt 0.079180315136909485 0.30645161867141724
vt 0.079180315136909485 0.35752689838409424
vt 0.079180315136909485 0.40860214829444885
vt 0.079180315136909485 0.45967742800712585
vt 0.079180315136909485 0.51075273752212524
vt 0.079180315136909485 0.56182795763015747
vt 0.079180315136909485 0.61290323734283447
vt 0.079180315136909485 0.6639784574508667
vt 0.079180315136909485 0.71505379676818848
vt 0.079180315136909485 0.7661290168762207
vt 0.079180315136909485 0.81720429658889771
vt 0.079180315136909485 0.86827951669692993
vt 0.064516127109527588 0.86827951669692993
vt 0.064516127109527588 0.81720429658889771
vt 0.064516127109527588 0.7661290168762207
vt 0.064516127109527588 0.71505379676818848
vt 0.064516127109527588 0.6639784574508667
vt 0.064516127109527588 0.61290323734283447
vt 0.064516127109527588 0.56182795763015747
vt 0.064516127109527588 0.51075273752212524
vt 0.064516127109527588 0.45967742800712585
vt 0.064516127109527588 0.40860214829444885
vt 0.064516127109527588 0.35752689838409424
vt 0.064516127109527588 0.30645161867141724
vt 0.064516127109527588 0.25537636876106262
vt 0.064516127109527588 0.20430107414722443
vt 0.064516127109527588 0.15322580933570862
vt 0.064516127109527588 0.10215053707361221
vt 0.064516127109527588 0.051075268536806107
vt 0.080645158886909485 0.95161288976669312
vt 0.080645158886909485 0.96627706289291382
vt 0.99853515625 0.95161288976669312
vt 0.99853515625 0.96627706289291382
vt 0.13163904845714569 0.95161288976669312
vt 0.1826329380273819 0.95161288976669312
vt 0.2336268275976181 0.95161288976669312
vt 0.2846207320690155 0.95161288976669312
vt 0.33561462163925171 0.95161288976669312
vt 0.38660851120948792 0.95161288976669312
vt 0.43760240077972412 0.95161288976669312
vt 0.48859626054763794 0.95161288976669312
vt 0.53959017992019653 0.95161288976669312
vt 0.59058409929275513 0.95161288976669312
vt 0.64157795906066895 0.95161288976669312
vt 0.69257181882858276 0.95161288976669312
vt 0.74356567859649658 0.95161288976669312
vt 0.79455959796905518 0.95161288976669312
vt 0.84555345773696899 0.95161288976669312
vt 0.89654737710952759 0.95161288976669312
vt 0.94754123687744141 0.95161288976669312
vt 0.94754123687744141 0.96627706289291382
vt 0.89654737710952759 0.96627706289291382
vt 0.84555345773696899 0.96627706289291382
vt 0.79455959796905518 0.96627706289291382
vt 0.74356567859649658 0.96627706289291382
vt 0.69257181882858276 0.96627706289291382
vt 0.64157795906066895 0.96627706289291382
vt 0.59058409929275513 0.96627706289291382
vt 0.53959017992019653 0.96627706289291382
vt 0.48859626054763794 0.96627706289291382
vt 0.43760240077972412 0.96627706289291382
vt 0.38660851120948792 0.96627706289291382
vt 0.33561462163925171 0.96627706289291382
vt 0.2846207320690155 0.96627706289291382
vt 0.2336268275976181 0.96627706289291382
vt 0.1826329380273819 0.96627706289291382
vt 0.13163904845714569 0.96627706289291382
vt 0.030793221667408943 0
vt 0.016129031777381897 0
vt 0.030793221667408943 0.21935483813285828
vt 0.016129031777381897 0.21935483813285828
vt 0.016129031777381897 0.17548386752605438
vt 0.016129031777381897 0.13161291182041168
vt 0.016129031777381897 0.087741933763027191
vt 0.016129031777381897 0.043870966881513596
vt 0.030793221667408943 0.043870966881513596
vt 0.030793221667408943 0.087741933763027191
vt 0.030793221667408943 0.13161291182041168
vt 0.030793221667408943 0.17548386752605438
vt 0.080645158886909485 0.90322577953338623
vt 0.080645158886909485 0.91789001226425171
vt 0.32258063554763794 0.90322577953338623
vt 0.32258063554763794 0.91789001226425171
vt 0.27419355511665344 0.91789001226425171
vt 0.22580645978450775 0.91789001226425171
vt 0.17741934955120087 0.91789001226425171
vt 0.12903225421905518 0.91789001226425171
vt 0.12903225421905518 0.90322577953338623
vt 0.17741934955120087 0.90322577953338623
vt 0.22580645978450775 0.90322577953338623
vt 0.27419355511665344 0.90322577953338623
vt 0.014664188958704472 0
vt 0 0
vt 0.014664188958704472 0.21935483813285828
vt 0 0.21935483813285828
vt 0 0.17548386752605438
vt 0 0.13161291182041168
vt 0 0.087741933763027191
vt 0 0.043870966881513596
vt 0.014664188958704472 0.043870966881513596
vt 0.014664188958704472 0.087741933763027191
vt 0.014664188958704472 0.13161291182041168
vt 0.014664188958704472 0.17548386752605438
vt 0.080645158886909485 0.88709676265716553
vt 0.080645158886909485 0.90176093578338623
vt 0.32258063554763794 0.88709676265716553
vt 0.32258063554763794 0.90176093578338623
vt 0.27419355511665344 0.90176093578338623
vt 0.22580645978450775 0.90176093578338623
vt 0.17741934955120087 0.90176093578338623
vt 0.12903225421905518 0.90176093578338623
vt 0.12903225421905518 0.88709676265716553
vt 0.17741934955120087 0.88709676265716553
vt 0.22580645978450775 0.88709676265716553
vt 0.27419355511665344 0.88709676265716553
vt 0.063051283359527588 0
vt 0.048387095332145691 0
vt 0.063051283359527588 0.21935483813285828
vt 0.048387095332145691 0.21935483813285828
vt 0.048387095332145691 0.17548386752605438
vt 0.048387095332145691 0.13161291182041168
vt 0.048387095332145691 0.087741933763027191
vt 0.048387095332145691 0.043870966881513596
vt 0.063051283359527588 0.043870966881513596
vt 0.063051283359527588 0.087741933763027191
vt 0.063051283359527588 0.13161291182041168
vt 0.063051283359527588 0.17548386752605438
vt 0.080645158886909485 0.80645161867141724
vt 0.080645158886909485 0.82111579179763794
vt 0.32258063554763794 0.80645161867141724
vt 0.32258063554763794 0.82111579179763794
vt 0.27419355511665344 0.82111579179763794
vt 0.22580645978450775 0.82111579179763794
vt 0.17741934955120087 0.82111579179763794
vt 0.12903225421905518 0.82111579179763794
vt 0.12903225421905518 0.80645161867141724
vt 0.17741934955120087 0.80645161867141724
vt 0.22580645978450775 0.80645161867141724
vt 0.27419355511665344 0.80645161867141724
vt 0.046922251582145691 0
vt 0.032258063554763794 0
vt 0.046922251582145691 0.21935483813285828
vt 0.032258063554763794 0.21935483813285828
vt 0.032258063554763794 0.17548386752605438
vt 0.032258063554763794 0.13161291182041168
vt 0.032258063554763794 0.087741933763027191
vt 0.032258063554763794 0.043870966881513596
vt 0.046922251582145691 0.043870966881513596
vt 0.046922251582145691 0.087741933763027191
vt 0.046922251582145691 0.13161291182041168
vt 0.046922251582145691 0.17548386752605438
vt 0.080645158886909485 0.79032260179519653
vt 0.080645158886909485 0.80498677492141724
vt 0.32258063554763794 0.79032260179519653
vt 0.32258063554763794 0.80498677492141724
vt 0.27419355511665344 0.80498677492141724
vt 0.22580645978450775 0.80498677492141724
vt 0.17741934955120087 0.80498677492141724
vt 0.12903225421905518 0.80498677492141724
vt 0.12903225421905518 0.79032260179519653
vt 0.17741934955120087 0.79032260179519653
vt 0.22580645978450775 0.79032260179519653
vt 0.27419355511665344 0.79032260179519653
vt 0.080645158886909485 0.87096774578094482
vt 0.080645158886909485 0.88563191890716553
vt 0.30000001192092896 0.87096774578094482
vt 0.30000001192092896 0.88563191890716553
vt 0.25612902641296387 0.88563191890716553
vt 0.21225807070732117 0.88563191890716553
vt 0.16838710010051727 0.88563191890716553
vt 0.12451612949371338 0.88563191890716553
vt 0.12451612949371338 0.87096774578094482
vt 0.16838710010051727 0.87096774578094482
vt 0.21225807070732117 0.87096774578094482
vt 0.25612902641296387 0.87096774578094482
vt 0.080645158886909485 0.83870965242385864
vt 0.080645158886909485 0.85337388515472412
vt 0.32258063554763794 0.83870965242385864
vt 0.32258063554763794 0.85337388515472412
vt 0.27419355511665344 0.85337388515472412
vt 0.22580645978450775 0.85337388515472412
vt 0.17741934955120087 0.85337388515472412
vt 0.12903225421905518 0.85337388515472412
vt 0.12903225421905518 0.83870965242385864
vt 0.17741934955120087 0.83870965242385864
vt 0.22580645978450775 0.83870965242385864
vt 0.27419355511665344 0.83870965242385864
vt 0.080645158886909485 0.85483872890472412
vt 0.080645158886909485 0.86950290203094482
vt 0.30000001192092896 0.85483872890472412
vt 0.30000001192092896 0.86950290203094482
vt 0.25612902641296387 0.86950290203094482
vt 0.21225807070732117 0.86950290203094482
vt 0.16838710010051727 0.86950290203094482
vt 0.12451612949371338 0.86950290203094482
vt 0.12451612949371338 0.85483872890472412
vt 0.16838710010051727 0.85483872890472412
vt 0.21225807070732117 0.85483872890472412
vt 0.25612902641296387 0.85483872890472412
vt 0.080645158886909485 0.82258063554763794
vt 0.080645158886909485 0.83724480867385864
vt 0.32258063554763794 0.82258063554763794
vt 0.32258063554763794 0.83724480867385864
vt 0.27419355511665344 0.83724480867385864
vt 0.22580645978450775 0.83724480867385864
vt 0.17741934955120087 0.83724480867385864
vt 0.12903225421905518 0.83724480867385864
vt 0.12903225421905518 0.82258063554763794
vt 0.17741934955120087 0.82258063554763794
vt 0.22580645978450775 0.82258063554763794
vt 0.27419355511665344 0.82258063554763794
vn 0 0 1
vn 0 0 1
vn 0 0 1
vn 0 0 1
vn 0 0 1
vn 0 0 1
vn 0 0 1
vn 0 0 1
vn 0 0 1
vn 0 0 1
vn 0 0 1
vn 0 0 1
vn 0 0 1
vn 0 0 1
vn 0 0 1
vn 0 0 1
vn 0 0 1
vn 0 0 1
vn 0 0 1
vn 0 0 1
vn 0 0 1
vn 0 0 1
vn 0 0 1
vn 0 0 1
vn 0 0 1
vn 0 0 1
vn 0 0 1
vn 0 0 1
vn 0 0 1
vn 0 0 1
vn 0 0 1
vn 0 0 1
vn 0 0 1
vn 0 0 1
vn 0 0 1
vn 0 0 1
vn 0 0 1
vn 0 0 1
vn 0 0 1
vn 0 0 1
vn 0 0 1
vn 0 0 1
vn 0 0 1
vn 0 0 1
vn 0 0 1
vn 0 0 1
vn 0 0 1
vn 0 0 1
vn 0 0 1
vn 0 0 1
vn 0 0 1
vn 0 0 1
vn 0 0 1
vn 0 0 1
vn 0 0 1
vn 0 0 1
vn 0 0 1
vn 0 0 1
vn 0 0 1
vn 0 0 1
vn 0 0 1
vn 0 0 1
vn 0 0 1
vn 0 0 1
vn 0 0 1
vn 0 0 1
vn 0 0 1
vn 0 0 1
vn 0 0 1
vn 0 0 1
vn 0 0 1
vn 0 0 1
vn 0 0 1
vn 0 0 1
vn 0 0 1
vn 0 0 1
vn 0 0 1
vn 0 0 1
vn 0 0 1
vn 0 0 1
vn 0 0 1
vn 0 0 1
vn 0 0 1
vn 0 0 1
vn 0 0 1
vn 0 0 1
vn 0 0 1
vn 0 0 1
vn 0 0 1
vn 0 0 1
vn 0 0 1
vn 0 0 1
vn 0 0 1
vn 0 0 1
vn 0 0 1
vn 0 0 1
vn 0 0 1
vn 0 0 1
vn 0 0 1
vn 0 0 1
vn 0 0 1
vn 0 0 1
vn 0 0 1
vn 0 0 1
vn 0 0 1
vn 0 0 1
vn 0 0 1
vn 0 0 1
vn 0 0 1
vn 0 0 1
vn 0 0 1
vn 0 0 1
vn 0 0 1
vn 0 0 1
vn 0 0 1
vn 0 0 1
vn 0 0 1
vn 0 0 1
vn 0 0 1
vn 0 0 1
vn 0 0 1
vn 0 0 1
vn 0 0 1
vn 0 0 1
vn 0 0 1
vn 0 0 1
vn 0 0 1
vn 0 0 1
vn 0 0 1
vn 0 0 1
vn 0 0 1
vn 0 0 1
vn 0 0 1
vn 0 0 1
vn 0 0 1
vn 0 0 1
vn 0 0 1
vn 0 0 1
vn 0 0 1
vn 0 0 1
vn 0 0 1
vn 0 0 1
vn 0 0 1
vn 0 0 1
vn 0 0 1
vn 0 0 1
vn 0 0 1
vn 0 0 1
vn 0 0 1
vn 0 0 1
vn 0 0 1
vn 0 0 1
vn 0 0 1
vn 0 0 1
vn 0 0 1
vn 1 0 0
vn 1 0 0
vn 1 0 0
vn 1 0 0
vn 1 0 0
vn 1 0 0
vn 1 0 0
vn 1 0 0
vn 1 0 0
vn 1 0 0
vn 1 0 0
vn 1 0 0
vn 1 0 0
vn 1 0 0
vn 1 0 0
vn 1 0 0
vn 1 0 0
vn 1 0 0
vn 0 0 -1
vn 0 0 -1
vn 0 0 -1
vn 0 0 -1
vn 0 0 -1
vn 0 0 -1
vn 0 0 -1
vn 0 0 -1
vn 0 0 -1
vn 0 0 -1
vn 0 0 -1
vn 0 0 -1
vn 0 0 -1
vn 0 0 -1
vn 0 0 -1
vn 0 0 -1
vn 0 0 -1
vn 0 0 -1
vn 0 0 -1
vn 0 0 -1
vn 0 0 -1
vn 0 0 -1
vn 0 0 -1
vn 0 0 -1
vn 0 0 -1
vn 0 0 -1
vn 0 0 -1
vn 0 0 -1
vn 0 0 -1
vn 0 0 -1
vn 0 0 -1
vn 0 0 -1
vn 0 0 -1
vn 0 0 -1
vn 0 0 -1
vn 0 0 -1
vn 0 0 -1
vn 0 0 -1
vn 0 0 -1
vn 0 0 -1
vn 0 0 -1
vn 0 0 -1
vn 0 0 -1
vn 0 0 -1
vn 0 0 -1
vn 0 0 -1
vn 0 0 -1
vn 0 0 -1
vn 0 0 -1
vn 0 0 -1
vn 0 0 -1
vn 0 0 -1
vn 0 0 -1
vn 0 0 -1
vn 0 0 -1
vn 0 0 -1
vn 0 0 -1
vn 0 0 -1
vn 0 0 -1
vn 0 0 -1
vn 0 0 -1
vn 0 0 -1
vn 0 0 -1
vn 0 0 -1
vn 0 0 -1
vn 0 0 -1
vn 0 0 -1
vn 0 0 -1
vn 0 0 -1
vn 0 0 -1
vn 0 0 -1
vn 0 0 -1
vn 0 0 -1
vn 0 0 -1
vn 0 0 -1
vn 0 0 -1
vn 0 0 -1
vn 0 0 -1
vn 0 0 -1
vn 0 0 -1
vn 0 0 -1
vn 0 0 -1
vn 0 0 -1
vn 0 0 -1
vn 0 0 -1
vn 0 0 -1
vn 0 0 -1
vn 0 0 -1
vn 0 0 -1
vn 0 0 -1
vn 0 0 -1
vn 0 0 -1
vn 0 0 -1
vn 0 0 -1
vn 0 0 -1
vn 0 0 -1
vn 0 0 -1
vn 0 0 -1
vn 0 0 -1
vn 0 0 -1
vn 0 0 -1
vn 0 0 -1
vn 0 0 -1
vn 0 0 -1
vn 0 0 -1
vn 0 0 -1
vn 0 0 -1
vn 0 0 -1
vn 0 0 -1
vn 0 0 -1
vn 0 0 -1
vn 0 0 -1
vn 0 0 -1
vn 0 0 -1
vn 0 0 -1
vn 0 0 -1
vn 0 0 -1
vn 0 0 -1
vn 0 0 -1
vn 0 0 -1
vn 0 0 -1
vn 0 0 -1
vn 0 0 -1
vn 0 0 -1
vn 0 0 -1
vn 0 0 -1
vn 0 0 -1
vn 0 0 -1
vn 0 0 -1
vn 0 0 -1
vn 0 0 -1
vn 0 0 -1
vn 0 0 -1
vn 0 0 -1
vn 0 0 -1
vn 0 0 -1
vn 0 0 -1
vn 0 0 -1
vn 0 0 -1
vn 0 0 -1
vn 0 0 -1
vn 0 0 -1
vn 0 0 -1
vn 0 0 -1
vn 0 0 -1
vn 0 0 -1
vn 0 0 -1
vn 0 0 -1
vn 0 0 -1
vn 0 0 -1
vn 0 0 -1
vn 0 0 -1
vn 0 0 -1
vn 0 0 -1
vn 0 0 -1
vn -1 0 0
vn -1 0 0
vn -1 0 0
vn -1 0 0
vn -1 0 0
vn -1 0 0
vn -1 0 0
vn -1 0 0
vn -1 0 0
vn -1 0 0
vn -1 0 0
vn -1 0 0
vn -1 0 0
vn -1 0 0
vn -1 0 0
vn -1 0 0
vn -1 0 0
vn -1 0 0
vn 0 -1 0
vn 0 -1 0
vn 0 -1 0
vn 0 -1 0
vn 0 -1 0
vn 0 -1 0
vn 0 -1 0
vn 0 -1 0
vn 0 -1 0
vn 0 -1 0
vn 0 -1 0
vn 0 -1 0
vn 0 -1 0
vn 0 -1 0
vn 0 -1 0
vn 0 -1 0
vn 0 -1 0
vn 0 -1 0
vn 0 -1 0
vn 0 -1 0
vn 0 -1 0
vn 0 -1 0
vn 0 -1 0
vn 0 -1 0
vn 0 -1 0
vn 0 -1 0
vn 0 -1 0
vn 0 -1 0
vn 0 -1 0
vn 0 -1 0
vn 0 -1 0
vn 0 -1 0
vn 0 -1 0
vn 0 -1 0
vn 0 -1 0
vn 0 -1 0
vn 0 -1 0
vn 0 -1 0
vn 0 1 0
vn 0 1 0
vn 0 1 0
vn 0 1 0
vn 0 1 0
vn 0 1 0
vn 0 1 0
vn 0 1 0
vn 0 1 0
vn 0 1 0
vn 0 1 0
vn 0 1 0
vn 0 1 0
vn 0 1 0
vn 0 1 0
vn 0 1 0
vn 0 1 0
vn 0 1 0
vn 0 1 0
vn 0 1 0
vn 0 1 0
vn 0 1 0
vn 0 1 0
vn 0 1 0
vn 0 1 0
vn 0 1 0
vn 0 1 0
vn 0 1 0
vn 0 1 0
vn 0 1 0
vn 0 1 0
vn 0 1 0
vn 0 1 0
vn 0 1 0
vn 0 1 0
vn 0 1 0
vn 0 1 0
vn 0 1 0
vn 1 0 0
vn 1 0 0
vn 1 0 0
vn 1 0 0
vn 1 0 0
vn 1 0 0
vn 1 0 0
vn 1 0 0
vn 1 0 0
vn 1 0 0
vn 1 0 0
vn 1 0 0
vn 0 -1 0
vn 0 -1 0
vn 0 -1 0
vn 0 -1 0
vn 0 -1 0
vn 0 -1 0
vn 0 -1 0
vn 0 -1 0
vn 0 -1 0
vn 0 -1 0
vn 0 -1 0
vn 0 -1 0
vn -1 0 0
vn -1 0 0
vn -1 0 0
vn -1 0 0
vn -1 0 0
vn -1 0 0
vn -1 0 0
vn -1 0 0
vn -1 0 0
vn -1 0 0
vn -1 0 0
vn -1 0 0
vn 0 1 0
vn 0 1 0
vn 0 1 0
vn 0 1 0
vn 0 1 0
vn 0 1 0
vn 0 1 0
vn 0 1 0
vn 0 1 0
vn 0 1 0
vn 0 1 0
vn 0 1 0
vn 1 0 0
vn 1 0 0
vn 1 0 0
vn 1 0 0
vn 1 0 0
vn 1 0 0
vn 1 0 0
vn 1 0 0
vn 1 0 0
vn 1 0 0
vn 1 0 0
vn 1 0 0
vn 0 -1 0
vn 0 -1 0
vn 0 -1 0
vn 0 -1 0
vn 0 -1 0
vn 0 -1 0
vn 0 -1 0
vn 0 -1 0
vn 0 -1 0
vn 0 -1 0
vn 0 -1 0
vn 0 -1 0
vn -1 0 0
vn -1 0 0
vn -1 0 0
vn -1 0 0
vn -1 0 0
vn -1 0 0
vn -1 0 0
vn -1 0 0
vn -1 0 0
vn -1 0 0
vn -1 0 0
vn -1 0 0
vn 0 1 0
vn 0 1 0
vn 0 1 0
vn 0 1 0
vn 0 1 0
vn 0 1 0
vn 0 1 0
vn 0 1 0
vn 0 1 0
vn 0 1 0
vn 0 1 0
vn 0 1 0
vn 1 0 0
vn 1 0 0
vn 1 0 0
vn 1 0 0
vn 1 0 0
vn 1 0 0
vn 1 0 0
vn 1 0 0
vn 1 0 0
vn 1 0 0
vn 1 0 0
vn 1 0 0
vn 0 -1 0
vn 0 -1 0
vn 0 -1 0
vn 0 -1 0
vn 0 -1 0
vn 0 -1 0
vn 0 -1 0
vn 0 -1 0
vn 0 -1 0
vn 0 -1 0
vn 0 -1 0
vn 0 -1 0
vn -1 0 0
vn -1 0 0
vn -1 0 0
vn -1 0 0
vn -1 0 0
vn -1 0 0
vn -1 0 0
vn -1 0 0
vn -1 0 0
vn -1 0 0
vn -1 0 0
vn -1 0 0
vn 0 1 0
vn 0 1 0
vn 0 1 0
vn 0 1 0
vn 0 1 0
vn 0 1 0
vn 0 1 0
vn 0 1 0
vn 0 1 0
vn 0 1 0
vn 0 1 0
vn 0 1 0
f 373/373/373 371/371/371 370/370/370 372/372/372
f 375/375/375 373/373/373 372/372/372 374/374/374
f 377/377/377 375/375/375 374/374/374 376/376/376
f 379/379/379 377/377/377 376/376/376 378/378/378
f 381/381/381 379/379/379 378/378/378 380/380/380
f 383/383/383 381/381/381 380/380/380 382/382/382
f 385/385/385 383/383/383 382/382/382 384/384/384
f 387/387/387 385/385/385 384/384/384 386/386/386
f 389/389/389 387/387/387 386/386/386 388/388/388
f 391/391/391 389/389/389 388/388/388 390/390/390
f 393/393/393 391/391/391 390/390/390 392/392/392
f 361/361/361 403/403/403 370/370/370 362/362/362
f 370/370/370 371/371/371 363/363/363 362/362/362
f 370/370/370 403/403/403 404/404/404
f 372/372/372 404/404/404 405/405/405
f 374/374/374 372/372/372 405/405/405 406/406/406
f 407/407/407 374/374/374 406/406/406
f 370/370/370 404/404/404 372/372/372
f 364/364/364 363/363/363 371/371/371
f 371/371/371 437/437/437 497/497/497
f 456/456/456 437/437/437 371/371/371 373/373/373
f 364/364/364 371/371/371 497/497/497
f 375/375/375 498/498/498 499/499/499 373/373/373
f 499/499/499 498/498/498 455/455/455 456/456/456
f 498/498/498 375/375/375 377/377/377 500/500/500
f 456/456/456 373/373/373 499/499/499
f 454/454/454 455/455/455 498/498/498
f 376/376/376 407/407/407 408/408/408
f 378/378/378 376/376/376 408/408/408 409/409/409
f 500/500/500 454/454/454 498/498/498
f 409/409/409 410/410/410 380/380/380 378/378/378
f 411/411/411 380/380/380 410/410/410
f 500/500/500 377/377/377 379/379/379 501/501/501
f 453/453/453 454/454/454 500/500/500
f 453/453/453 500/500/500 452/452/452
f 500/500/500 501/501/501 452/452/452
f 457/457/457 458/458/458 451/451/451 452/452/452
f 501/501/501 457/457/457 452/452/452
f 501/501/501 379/379/379 381/381/381 502/502/502
f 475/475/475 476/476/476 502/502/502
f 502/502/502 476/476/476 501/501/501
f 502/502/502 381/381/381 383/383/383 503/503/503
f 502/502/502 503/503/503 475/475/475
f 457/457/457 501/501/501 476/476/476
f 376/376/376 374/374/374 407/407/407
f 366/366/366 365/365/365 497/497/497 504/504/504
f 497/497/497 365/365/365 364/364/364
f 367/367/367 366/366/366 504/504/504 505/505/505
f 497/497/497 439/439/439 504/504/504
f 439/439/439 440/440/440 504/504/504
f 441/441/441 505/505/505 440/440/440
f 505/505/505 504/504/504 440/440/440
f 438/438/438 439/439/439 497/497/497
f 437/437/437 438/438/438 497/497/497
f 505/505/505 441/441/441 506/506/506
f 368/368/368 506/506/506 436/436/436 369/369/369
f 505/505/505 506/506/506 368/368/368 367/367/367
f 442/442/442 436/436/436 506/506/506
f 435/435/435 436/436/436 442/442/442
f 506/506/506 441/441/441 442/442/442
f 442/442/442 443/443/443 435/435/435
f 435/435/435 443/443/443 434/434/434
f 444/444/444 434/434/434 443/443/443
f 433/433/433 434/434/434 444/444/444 445/445/445
f 460/460/460 448/448/448 449/449/449
f 449/449/449 450/450/450 459/459/459 460/460/460
f 451/451/451 458/458/458 459/459/459 450/450/450
f 460/460/460 461/461/461 448/448/448
f 447/447/447 448/448/448 461/461/461 462/462/462
f 446/446/446 447/447/447 431/431/431 432/432/432
f 432/432/432 433/433/433 445/445/445 446/446/446
f 431/431/431 447/447/447 462/462/462
f 462/462/462 463/463/463 429/429/429 430/430/430
f 464/464/464 429/429/429 463/463/463
f 428/428/428 429/429/429 464/464/464
f 431/431/431 462/462/462 430/430/430
f 382/382/382 380/380/380 411/411/411 412/412/412
f 384/384/384 382/382/382 412/412/412 413/413/413
f 386/386/386 414/414/414 415/415/415
f 386/386/386 384/384/384 413/413/413 414/414/414
f 385/385/385 507/507/507 503/503/503 383/383/383
f 503/503/503 507/507/507 473/473/473 474/474/474
f 507/507/507 472/472/472 473/473/473
f 507/507/507 385/385/385 387/387/387 508/508/508
f 475/475/475 503/503/503 474/474/474
f 507/507/507 508/508/508 496/496/496 477/477/477
f 508/508/508 387/387/387 389/389/389 509/509/509
f 471/471/471 472/472/472 477/477/477
f 495/495/495 496/496/496 508/508/508 509/509/509
f 472/472/472 507/507/507 477/477/477
f 388/388/388 386/386/386 415/415/415 416/416/416
f 416/416/416 417/417/417 390/390/390 388/388/388
f 390/390/390 417/417/417 418/418/418
f 392/392/392 418/418/418 419/419/419
f 395/395/395 392/392/392 419/419/419 394/394/394
f 390/390/390 418/418/418 392/392/392
f 395/395/395 396/396/396 393/393/393 392/392/392
f 509/509/509 389/389/389 391/391/391 510/510/510
f 493/493/493 494/494/494 510/510/510
f 510/510/510 494/494/494 509/509/509
f 510/510/510 391/391/391 393/393/393 511/511/511
f 495/495/495 509/509/509 494/494/494
f 396/396/396 397/397/397 511/511/511 393/393/393
f 511/511/511 512/512/512 491/491/491 492/492/492
f 492/492/492 493/493/493 511/511/511
f 397/397/397 398/398/398 512/512/512 511/511/511
f 511/511/511 493/493/493 510/510/510
f 478/478/478 470/470/470 471/471/471
f 469/469/469 470/470/470 479/479/479 480/480/480
f 468/468/468 480/480/480 481/481/481
f 469/469/469 480/480/480 468/468/468
f 478/478/478 479/479/479 470/470/470
f 471/471/471 477/477/477 478/478/478
f 481/481/481 467/467/467 468/468/468
f 465/465/465 466/466/466 427/427/427
f 466/466/466 467/467/467 426/426/426 427/427/427
f 465/465/465 427/427/427 428/428/428
f 426/426/426 467/467/467 425/425/425
f 428/428/428 464/464/464 465/465/465
f 482/482/482 483/483/483 424/424/424 425/425/425
f 481/481/481 482/482/482 467/467/467
f 483/483/483 484/484/484 423/423/423 424/424/424
f 467/467/467 482/482/482 425/425/425
f 490/490/490 491/491/491 512/512/512 513/513/513
f 489/489/489 490/490/490 513/513/513 514/514/514
f 488/488/488 489/489/489 514/514/514 515/515/515
f 398/398/398 399/399/399 513/513/513 512/512/512
f 514/514/514 513/513/513 399/399/399 400/400/400
f 400/400/400 401/401/401 515/515/515 514/514/514
f 422/422/422 485/485/485 486/486/486
f 422/422/422 423/423/423 484/484/484 485/485/485
f 486/486/486 421/421/421 422/422/422
f 421/421/421 486/486/486 487/487/487
f 515/515/515 401/401/401 402/402/402 420/420/420
f 487/487/487 515/515/515 420/420/420
f 421/421/421 487/487/487 420/420/420
f 488/488/488 515/515/515 487/487/487
f 526/526/526 516/516/516 518/518/518 527/527/527
f 524/524/524 525/525/525 528/528/528 529/529/529
f 525/525/525 526/526/526 527/527/527 528/528/528
f 522/522/522 523/523/523 530/530/530 531/531/531
f 520/520/520 521/521/521 532/532/532 533/533/533
f 517/517/517 520/520/520 533/533/533 519/519/519
f 521/521/521 522/522/522 531/531/531 532/532/532
f 523/523/523 524/524/524 529/529/529 530/530/530
f 546/546/546 544/544/544 543/543/543 545/545/545
f 548/548/548 546/546/546 545/545/545 547/547/547
f 550/550/550 548/548/548 547/547/547 549/549/549
f 552/552/552 550/550/550 549/549/549 551/551/551
f 554/554/554 552/552/552 551/551/551 553/553/553
f 556/556/556 554/554/554 553/553/553 555/555/555
f 558/558/558 556/556/556 555/555/555 557/557/557
f 560/560/560 558/558/558 557/557/557 559/559/559
f 562/562/562 560/560/560 559/559/559 561/561/561
f 564/564/564 562/562/562 561/561/561 563/563/563
f 566/566/566 564/564/564 563/563/563 565/565/565
f 534/534/534 576/576/576 543/543/543 535/535/535
f 543/543/543 544/544/544 536/536/536 535/535/535
f 543/543/543 576/576/576 577/577/577
f 545/545/545 577/577/577 578/578/578
f 547/547/547 545/545/545 578/578/578 579/579/579
f 580/580/580 547/547/547 579/579/579
f 543/543/543 577/577/577 545/545/545
f 537/537/537 536/536/536 544/544/544
f 544/544/544 661/661/661 670/670/670
f 669/669/669 661/661/661 544/544/544 546/546/546
f 537/537/537 544/544/544 670/670/670
f 548/548/548 671/671/671 672/672/672 546/546/546
f 672/672/672 671/671/671 668/668/668 669/669/669
f 667/667/667 668/668/668 671/671/671
f 671/671/671 548/548/548 550/550/550 673/673/673
f 669/669/669 546/546/546 672/672/672
f 549/549/549 580/580/580 581/581/581
f 551/551/551 549/549/549 581/581/581 582/582/582
f 582/582/582 583/583/583 553/553/553 551/551/551
f 584/584/584 553/553/553 583/583/583
f 673/673/673 550/550/550 552/552/552 674/674/674
f 666/666/666 667/667/667 671/671/671 673/673/673
f 673/673/673 655/655/655 666/666/666
f 673/673/673 674/674/674 655/655/655
f 674/674/674 552/552/552 554/554/554 675/675/675
f 648/648/648 649/649/649 675/675/675
f 675/675/675 649/649/649 674/674/674
f 675/675/675 554/554/554 556/556/556 676/676/676
f 648/648/648 675/675/675 647/647/647
f 655/655/655 674/674/674 641/641/641
f 580/580/580 549/549/549 547/547/547
f 539/539/539 538/538/538 670/670/670 677/677/677
f 670/670/670 538/538/538 537/537/537
f 540/540/540 539/539/539 677/677/677 678/678/678
f 677/677/677 670/670/670 662/662/662 663/663/663
f 663/663/663 664/664/664 678/678/678 677/677/677
f 664/664/664 665/665/665 679/679/679 678/678/678
f 661/661/661 662/662/662 670/670/670
f 678/678/678 679/679/679 541/541/541 540/540/540
f 609/609/609 542/542/542 541/541/541 679/679/679
f 679/679/679 656/656/656 609/609/609
f 656/656/656 657/657/657 607/607/607 608/608/608
f 665/665/665 656/656/656 679/679/679
f 658/658/658 607/607/607 657/657/657
f 606/606/606 607/607/607 658/658/658 659/659/659
f 609/609/609 656/656/656 608/608/608
f 653/653/653 654/654/654 642/642/642 643/643/643
f 651/651/651 652/652/652 644/644/644 645/645/645
f 652/652/652 653/653/653 643/643/643 644/644/644
f 641/641/641 642/642/642 654/654/654 655/655/655
f 641/641/641 674/674/674 649/649/649
f 645/645/645 636/636/636 650/650/650 651/651/651
f 660/660/660 650/650/650 604/604/604 605/605/605
f 605/605/605 606/606/606 659/659/659 660/660/660
f 604/604/604 650/650/650 636/636/636
f 636/636/636 637/637/637 602/602/602 603/603/603
f 637/637/637 638/638/638 601/601/601 602/602/602
f 604/604/604 636/636/636 603/603/603
f 555/555/555 553/553/553 584/584/584 585/585/585
f 557/557/557 555/555/555 585/585/585 586/586/586
f 559/559/559 587/587/587 588/588/588
f 559/559/559 557/557/557 586/586/586 587/587/587
f 558/558/558 680/680/680 676/676/676 556/556/556
f 676/676/676 680/680/680 646/646/646 647/647/647
f 680/680/680 635/635/635 646/646/646
f 680/680/680 558/558/558 560/560/560 681/681/681
f 647/647/647 675/675/675 676/676/676
f 680/680/680 681/681/681 629/629/629 621/621/621
f 681/681/681 560/560/560 562/562/562 682/682/682
f 628/628/628 629/629/629 681/681/681 682/682/682
f 635/635/635 680/680/680 621/621/621
f 634/634/634 635/635/635 621/621/621 622/622/622
f 561/561/561 559/559/559 588/588/588 589/589/589
f 589/589/589 590/590/590 563/563/563 561/561/561
f 563/563/563 590/590/590 591/591/591
f 565/565/565 591/591/591 592/592/592
f 568/568/568 565/565/565 592/592/592 567/567/567
f 563/563/563 591/591/591 565/565/565
f 568/568/568 569/569/569 566/566/566 565/565/565
f 682/682/682 562/562/562 564/564/564 683/683/683
f 626/626/626 627/627/627 683/683/683
f 683/683/683 627/627/627 682/682/682
f 683/683/683 564/564/564 566/566/566 684/684/684
f 628/628/628 682/682/682 627/627/627
f 569/569/569 570/570/570 684/684/684 566/566/566
f 684/684/684 685/685/685 614/614/614 615/615/615
f 615/615/615 626/626/626 683/683/683 684/684/684
f 570/570/570 571/571/571 685/685/685 684/684/684
f 633/633/633 634/634/634 622/622/622 623/623/623
f 631/631/631 632/632/632 624/624/624 625/625/625
f 632/632/632 633/633/633 623/623/623 624/624/624
f 625/625/625 616/616/616 630/630/630 631/631/631
f 600/600/600 639/639/639 640/640/640
f 639/639/639 600/600/600 601/601/601
f 599/599/599 600/600/600 640/640/640 630/630/630
f 601/601/601 638/638/638 639/639/639
f 598/598/598 630/630/630 616/616/616
f 616/616/616 617/617/617 598/598/598
f 598/598/598 617/617/617 597/597/597
f 596/596/596 597/597/597 618/618/618
f 597/597/597 617/617/617 618/618/618
f 599/599/599 630/630/630 598/598/598
f 613/613/613 614/614/614 685/685/685 686/686/686
f 612/612/612 613/613/613 686/686/686 687/687/687
f 611/611/611 612/612/612 687/687/687 688/688/688
f 571/571/571 572/572/572 686/686/686 685/685/685
f 687/687/687 686/686/686 572/572/572 573/573/573
f 573/573/573 574/574/574 688/688/688 687/687/687
f 595/595/595 619/619/619 620/620/620
f 595/595/595 596/596/596 618/618/618 619/619/619
f 594/594/594 595/595/595 620/620/620 610/610/610
f 688/688/688 574/574/574 575/575/575 593/593/593
f 610/610/610 688/688/688 593/593/593
f 594/594/594 610/610/610 593/593/593
f 611/611/611 688/688/688 610/610/610
f 706/706/706 689/689/689 691/691/691 693/693/693
f 704/704/704 705/705/705 694/694/694 695/695/695
f 705/705/705 706/706/706 693/693/693 694/694/694
f 702/702/702 703/703/703 696/696/696 697/697/697
f 700/700/700 701/701/701 698/698/698 699/699/699
f 690/690/690 700/700/700 699/699/699 692/692/692
f 701/701/701 702/702/702 697/697/697 698/698/698
f 703/703/703 704/704/704 695/695/695 696/696/696
f 707/707/707 708/708/708 744/744/744 711/711/711
f 712/712/712 743/743/743 742/742/742 713/713/713
f 711/711/711 744/744/744 743/743/743 712/712/712
f 714/714/714 741/741/741 740/740/740 715/715/715
f 716/716/716 739/739/739 738/738/738 717/717/717
f 717/717/717 738/738/738 737/737/737 718/718/718
f 716/716/716 715/715/715 740/740/740 739/739/739
f 713/713/713 742/742/742 741/741/741 714/714/714
f 718/718/718 737/737/737 736/736/736 719/719/719
f 720/720/720 735/735/735 734/734/734 721/721/721
f 722/722/722 733/733/733 732/732/732 723/723/723
f 721/721/721 734/734/734 733/733/733 722/722/722
f 725/725/725 724/724/724 731/731/731 730/730/730
f 726/726/726 729/729/729 728/728/728 727/727/727
f 727/727/727 728/728/728 710/710/710 709/709/709
f 726/726/726 725/725/725 730/730/730 729/729/729
f 723/723/723 732/732/732 731/731/731 724/724/724
f 735/735/735 720/720/720 719/719/719 736/736/736
f 745/745/745 749/749/749 782/782/782 746/746/746
f 750/750/750 751/751/751 780/780/780 781/781/781
f 749/749/749 750/750/750 781/781/781 782/782/782
f 752/752/752 753/753/753 778/778/778 779/779/779
f 754/754/754 755/755/755 776/776/776 777/777/777
f 755/755/755 756/756/756 775/775/775 776/776/776
f 754/754/754 777/777/777 778/778/778 753/753/753
f 751/751/751 752/752/752 779/779/779 780/780/780
f 756/756/756 757/757/757 774/774/774 775/775/775
f 758/758/758 759/759/759 772/772/772 773/773/773
f 760/760/760 761/761/761 770/770/770 771/771/771
f 759/759/759 760/760/760 771/771/771 772/772/772
f 763/763/763 768/768/768 769/769/769 762/762/762
f 764/764/764 765/765/765 766/766/766 767/767/767
f 765/765/765 747/747/747 748/748/748 766/766/766
f 764/764/764 767/767/767 768/768/768 763/763/763
f 761/761/761 762/762/762 769/769/769 770/770/770
f 773/773/773 774/774/774 757/757/757 758/758/758
f 791/791/791 783/783/783 784/784/784 790/790/790
f 792/792/792 791/791/791 790/790/790 789/789/789
f 788/788/788 793/793/793 792/792/792 789/789/789
f 793/793/793 788/788/788 787/787/787 794/794/794
f 794/794/794 787/787/787 786/786/786 785/785/785
f 795/795/795 796/796/796 802/802/802 803/803/803
f 803/803/803 802/802/802 801/801/801 804/804/804
f 800/800/800 805/805/805 804/804/804 801/801/801
f 805/805/805 800/800/800 799/799/799 806/806/806
f 797/797/797 806/806/806 799/799/799 798/798/798
f 807/807/807 808/808/808 814/814/814 815/815/815
f 815/815/815 814/814/814 813/813/813 816/816/816
f 812/812/812 817/817/817 816/816/816 813/813/813
f 817/817/817 812/812/812 811/811/811 818/818/818
f 809/809/809 818/818/818 811/811/811 810/810/810
f 819/819/819 820/820/820 826/826/826 827/827/827
f 827/827/827 826/826/826 825/825/825 828/828/828
f 828/828/828 825/825/825 824/824/824 829/829/829
f 829/829/829 824/824/824 823/823/823 830/830/830
f 830/830/830 823/823/823 822/822/822 821/821/821
f 831/831/831 832/832/832 838/838/838 839/839/839
f 839/839/839 838/838/838 837/837/837 840/840/840
f 837/837/837 836/836/836 841/841/841 840/840/840
f 842/842/842 841/841/841 836/836/836 835/835/835
f 833/833/833 842/842/842 835/835/835 834/834/834
f 843/843/843 844/844/844 850/850/850 851/851/851
f 851/851/851 850/850/850 849/849/849 852/852/852
f 852/852/852 849/849/849 848/848/848 853/853/853
f 853/853/853 848/848/848 847/847/847 854/854/854
f 845/845/845 854/854/854 847/847/847 846/846/846
f 855/855/855 856/856/856 862/862/862 863/863/863
f 863/863/863 862/862/862 861/861/861 864/864/864
f 860/860/860 865/865/865 864/864/864 861/861/861
f 865/865/865 860/860/860 859/859/859 866/866/866
f 866/866/866 859/859/859 858/858/858 857/857/857
f 875/875/875 867/867/867 868/868/868 874/874/874
f 876/876/876 875/875/875 874/874/874 873/873/873
f 873/873/873 872/872/872 877/877/877 876/876/876
f 878/878/878 877/877/877 872/872/872 871/871/871
f 869/869/869 878/878/878 871/871/871 870/870/870
f 879/879/879 880/880/880 886/886/886 887/887/887
f 887/887/887 886/886/886 885/885/885 888/888/888
f 884/884/884 889/889/889 888/888/888 885/885/885
f 890/890/890 889/889/889 884/884/884 883/883/883
f 881/881/881 890/890/890 883/883/883 882/882/882
f 891/891/891 892/892/892 898/898/898 899/899/899
f 899/899/899 898/898/898 897/897/897 900/900/900
f 896/896/896 901/901/901 900/900/900 897/897/897
f 901/901/901 896/896/896 895/895/895 902/902/902
f 893/893/893 902/902/902 895/895/895 894/894/894
f 903/903/903 904/904/904 910/910/910 911/911/911
f 911/911/911 910/910/910 909/909/909 912/912/912
f 908/908/908 913/913/913 912/912/912 909/909/909
f 913/913/913 908/908/908 907/907/907 914/914/914
f 905/905/905 914/914/914 907/907/907 906/906/906
f 915/915/915 916/916/916 922/922/922 923/923/923
f 923/923/923 922/922/922 921/921/921 924/924/924
f 924/924/924 921/921/921 920/920/920 925/925/925
f 925/925/925 920/920/920 919/919/919 926/926/926
f 926/926/926 919/919/919 918/918/918 917/917/917
usemtl Default
v -2750 -50 -300
v -2750 2400 -300
v -2750 -50 0
v -2750 2400 0
v -2750 -50 0
v -2750 2400 0
v -2450 -50 0
v -2450 2400 0
v -2450 -50 0
v -2450 2400 0
v -2450 -50 -300
v -2450 2400 -300
v -2450 -50 -300
v -2450 2400 -300
v -2750 -50 -300
v -2750 2400 -300
v -2750 -50 -300
v -2750 -50 0
v -2450 -50 0
v -2450 -50 -300
v -2750 2400 -300
v -2750 2400 0
v -2450 2400 0
v -2450 2400 -300
vt 0 0
vt 0 1
vt 0.20833316445350647 0
vt 0.20833316445350647 1
vt 0.20833316445350647 0
vt 0.20833316445350647 1
vt 0.41666632890701294 0
vt 0.41666632890701294 1
vt 0.41666632890701294 0
vt 0.41666632890701294 1
vt 0.62499946355819702 0
vt 0.62499946355819702 1
vt 0.62499946355819702 0
vt 0.62499946355819702 1
vt 0.83333265781402588 0
vt 0.83333265781402588 1
vt 0.83333349227905273 0.12244898080825806
vt 1 0.12244898080825806
vt 1 0
vt 0.83333349227905273 0
vt 0.83333349227905273 0.87755101919174194
vt 1 0.87755101919174194
vt 1 1
vt 0.83333349227905273 1
vn -1 0 0
vn -1 0 0
vn -1 0 0
vn -1 0 0
vn 0 0 1
vn 0 0 1
vn 0 0 1
vn 0 0 1
vn 1 0 0
vn 1 0 0
vn 1 0 0
vn 1 0 0
vn 0 0 -1
vn 0 0 -1
vn 0 0 -1
vn 0 0 -1
vn 0 -1 0
vn 0 -1 0
vn 0 -1 0
vn 0 -1 0
vn 0 1 0
vn 0 1 0
vn 0 1 0
vn 0 1 0
f 927/927/927 929/929/929 930/930/930 928/928/928
f 931/931/931 933/933/933 934/934/934 932/932/932
f 935/935/935 937/937/937 938/938/938 936/936/936
f 939/939/939 941/941/941 942/942/942 940/940/940
f 944/944/944 943/943/943 946/946/946
f 946/946/946 945/945/945 944/944/944
f 948/948/948 950/950/950 947/947/947
f 950/950/950 948/948/948 949/949/949
usemtl Default
v 2750 -50 -300
v 2750 2400 -300
v 2450 -50 -300
v 2450 2400 -300
v 2450 -50 -300
v 2450 2400 -300
v 2450 -50 0
v 2450 2400 0
v 2450 -50 0
v 2450 2400 0
v 2750 -50 0
v 2750 2400 0
v 2750 -50 0
v 2750 2400 0
v 2750 -50 -300
v 2750 2400 -300
v 2750 -50 -300
v 2450 -50 -300
v 2450 -50 0
v 2750 -50 0
v 2750 2400 -300
v 2450 2400 -300
v 2450 2400 0
v 2750 2400 0
vt 0 0
vt 0 1
vt 0.20833316445350647 0
vt 0.20833316445350647 1
vt 0.20833316445350647 0
vt 0.20833316445350647 1
vt 0.41666632890701294 0
vt 0.41666632890701294 1
vt 0.41666632890701294 0
vt 0.41666632890701294 1
vt 0.62499946355819702 0
vt 0.62499946355819702 1
vt 0.62499946355819702 0
vt 0.62499946355819702 1
vt 0.83333265781402588 0
vt 0.83333265781402588 1
vt 1 0.12244898080825806
vt 1 0
vt 0.83333349227905273 0
vt 0.83333349227905273 0.12244898080825806
vt 1 0.87755101919174194
vt 1 1
vt 0.83333349227905273 1
vt 0.83333349227905273 0.87755101919174194
vn 0 0 -1
vn 0 0 -1
vn 0 0 -1
vn 0 0 -1
vn -1 0 0
vn -1 0 0
vn -1 0 0
vn -1 0 0
vn 0 0 1
vn 0 0 1
vn 0 0 1
vn 0 0 1
vn 1 0 0
vn 1 0 0
vn 1 0 0
vn 1 0 0
vn 0 -1 0
vn 0 -1 0
vn 0 -1 0
vn 0 -1 0
vn 0 1 0
vn 0 1 0
vn 0 1 0
vn 0 1 0
f 951/951/951 953/953/953 954/954/954 952/952/952
f 955/955/955 957/957/957 958/958/958 956/956/956
f 959/959/959 961/961/961 962/962/962 960/960/960
f 963/963/963 965/965/965 966/966/966 964/964/964
f 967/967/967 970/970/970 969/969/969
f 969/969/969 968/968/968 967/967/967
f 971/971/971 973/973/973 974/974/974
f 973/973/973 971/971/971 972/972/972
